<?xml version="1.0" encoding="UTF-8"?>
<svg width="1280px" height="859px" viewBox="0 0 1280 859" version="1.1" xmlns="http://www.w3.org/2000/svg" xmlns:xlink="http://www.w3.org/1999/xlink">
    <!-- Generator: Sketch 53.2 (72643) - https://sketchapp.com -->
    <title>pattern_</title>
    <desc>Created with Sketch.</desc>
    <g id="pattern_" stroke="none" stroke-width="1" fill="none" fill-rule="evenodd">
        <g id="pattern1" transform="translate(121.000000, 124.000000)">
            <g>
                <g id="yellow_rect" transform="translate(1.000000, 1.000000)" stroke="#F3F302">
                    <path d="M1.5,1.5 L1.5,154.5 L154.5,154.5 L154.5,1.5 L1.5,1.5 Z" id="Rectangle" stroke-width="3"></path>
                    <path d="M0.778412683,148.031391 L9.55199292,154.936632" id="Line-Copy-2" fill="#F3F302" stroke-linecap="square"></path>
                    <path d="M0.778412683,140.982277 L16.5436942,154.936632" id="Line-Copy-3" fill="#F3F302" stroke-linecap="square"></path>
                    <path d="M0.778412683,133.933164 L23.5353955,154.936632" id="Line-Copy-4" fill="#F3F302" stroke-linecap="square"></path>
                    <path d="M0.778412683,126.88405 L30.5270968,154.936632" id="Line-Copy-5" fill="#F3F302" stroke-linecap="square"></path>
                    <path d="M0.778412683,119.834936 L37.5187981,154.936632" id="Line-Copy-6" fill="#F3F302" stroke-linecap="square"></path>
                    <path d="M0.778412683,112.785822 L44.5104994,154.936632" id="Line-Copy-7" fill="#F3F302" stroke-linecap="square"></path>
                    <path d="M0.778412683,105.736708 L51.5022007,154.936632" id="Line-Copy-8" fill="#F3F302" stroke-linecap="square"></path>
                    <path d="M0.778412683,98.6875942 L58.493902,154.936632" id="Line-Copy-9" fill="#F3F302" stroke-linecap="square"></path>
                    <path d="M0.778412683,91.6384803 L65.4856033,154.936632" id="Line-Copy-10" fill="#F3F302" stroke-linecap="square"></path>
                    <path d="M0.778412683,84.5893665 L72.4773046,154.936632" id="Line-Copy-11" fill="#F3F302" stroke-linecap="square"></path>
                    <path d="M0.778412683,77.5402526 L79.469006,154.936632" id="Line-Copy-12" fill="#F3F302" stroke-linecap="square"></path>
                    <path d="M0.778412683,70.4911387 L86.4607073,154.936632" id="Line-Copy-13" fill="#F3F302" stroke-linecap="square"></path>
                    <path d="M0.778412683,63.4420248 L93.4524086,154.936632" id="Line-Copy-14" fill="#F3F302" stroke-linecap="square"></path>
                    <path d="M0.778412683,56.392911 L100.44411,154.936632" id="Line-Copy-15" fill="#F3F302" stroke-linecap="square"></path>
                    <path d="M0.778412683,49.3437971 L107.435811,154.936632" id="Line-Copy-16" fill="#F3F302" stroke-linecap="square"></path>
                    <path d="M0.778412683,42.2946832 L114.427512,154.936632" id="Line-Copy-17" fill="#F3F302" stroke-linecap="square"></path>
                    <path d="M0.778412683,35.2455694 L121.419214,154.936632" id="Line-Copy-18" fill="#F3F302" stroke-linecap="square"></path>
                    <path d="M0.778412683,28.1964555 L128.410915,154.936632" id="Line-Copy-19" fill="#F3F302" stroke-linecap="square"></path>
                    <path d="M0.778412683,21.1473416 L135.402616,154.936632" id="Line-Copy-20" fill="#F3F302" stroke-linecap="square"></path>
                    <path d="M0.778412683,14.0982277 L142.394318,154.936632" id="Line-Copy-21" fill="#F3F302" stroke-linecap="square"></path>
                    <path d="M0.778412683,7.04911387 L149.386019,154.936632" id="Line-Copy-22" fill="#F3F302" stroke-linecap="square"></path>
                    <path d="M0.778412683,4.54747351e-13 L154.736072,153.5" id="Line-Copy-23" fill="#F3F302" stroke-linecap="square"></path>
                    <path d="M7.76164523,1.27897692e-13 L154.736072,146.592385" id="Line-Copy-24" fill="#F3F302" stroke-linecap="square"></path>
                    <path d="M14.7448778,2.84217094e-14 L154.736072,139.684769" id="Line-Copy-25" fill="#F3F302" stroke-linecap="square"></path>
                    <path d="M21.7281103,8.52651283e-14 L154.736072,132.777154" id="Line-Copy-26" fill="#F3F302" stroke-linecap="square"></path>
                    <path d="M28.7113429,-2.84217094e-14 L154.736072,125.869539" id="Line-Copy-27" fill="#F3F302" stroke-linecap="square"></path>
                    <path d="M35.6945754,3.55271368e-14 L154.736072,118.961923" id="Line-Copy-28" fill="#F3F302" stroke-linecap="square"></path>
                    <path d="M42.677808,9.23705556e-14 L154.736072,112.054308" id="Line-Copy-29" fill="#F3F302" stroke-linecap="square"></path>
                    <path d="M49.6610405,1.13686838e-13 L154.736072,105.146693" id="Line-Copy-30" fill="#F3F302" stroke-linecap="square"></path>
                    <path d="M56.6442731,1.13686838e-13 L154.736072,98.2390773" id="Line-Copy-31" fill="#F3F302" stroke-linecap="square"></path>
                    <path d="M63.6275056,9.9475983e-14 L154.736072,91.3314619" id="Line-Copy-32" fill="#F3F302" stroke-linecap="square"></path>
                    <path d="M70.6107382,1.56319402e-13 L154.736072,84.4238466" id="Line-Copy-33" fill="#F3F302" stroke-linecap="square"></path>
                    <path d="M77.5939707,1.13686838e-13 L154.736072,77.5162312" id="Line-Copy-34" fill="#F3F302" stroke-linecap="square"></path>
                    <path d="M84.5772033,1.84741111e-13 L154.736072,70.6086159" id="Line-Copy-35" fill="#F3F302" stroke-linecap="square"></path>
                    <path d="M91.5604358,1.81188398e-13 L154.736072,63.7010005" id="Line-Copy-36" fill="#F3F302" stroke-linecap="square"></path>
                    <path d="M98.5436684,1.7408297e-13 L154.736072,56.7933852" id="Line-Copy-37" fill="#F3F302" stroke-linecap="square"></path>
                    <path d="M105.526901,1.42108547e-13 L154.736072,49.8857699" id="Line-Copy-38" fill="#F3F302" stroke-linecap="square"></path>
                    <path d="M112.510133,1.91846539e-13 L154.736072,42.9781545" id="Line-Copy-39" fill="#F3F302" stroke-linecap="square"></path>
                    <path d="M119.493366,4.61852778e-14 L154.736072,36.0705392" id="Line-Copy-40" fill="#F3F302" stroke-linecap="square"></path>
                    <path d="M126.476599,1.47437618e-13 L154.736072,29.1629238" id="Line-Copy-41" fill="#F3F302" stroke-linecap="square"></path>
                    <path d="M133.459831,2.29150032e-13 L154.736072,22.2553085" id="Line-Copy-42" fill="#F3F302" stroke-linecap="square"></path>
                    <path d="M140.443064,1.47437618e-13 L154.736072,15.3476931" id="Line-Copy-43" fill="#F3F302" stroke-linecap="square"></path>
                    <path d="M147.426296,4.02344824e-13 L154.736072,8.4400778" id="Line-Copy-44" fill="#F3F302" stroke-linecap="square"></path>
                </g>
                <path d="M1.77841268,3 L157,3" id="Line-4" stroke="#F3F302" stroke-width="4" stroke-linecap="square"></path>
                <path d="M79,77 L79,82" id="Line-3-Copy" stroke="#F3F302" fill="#F3F302" stroke-linecap="square" transform="translate(79.000000, 79.500000) rotate(90.000000) translate(-79.000000, -79.500000) "></path>
                <path d="M79,77 L79,82" id="Line-3" stroke="#F3F302" fill="#F3F302" stroke-linecap="square"></path>
                <g id="little-recs" fill="#FFFCFC" stroke="#000000" stroke-width="2">
                    <rect id="Rectangle" x="0" y="153" width="7" height="7"></rect>
                    <rect id="Rectangle-Copy-7" x="77" y="0" width="7" height="7"></rect>
                    <rect id="Rectangle-Copy" x="153" y="153" width="7" height="7"></rect>
                    <rect id="Rectangle-Copy-2" x="153" y="77" width="7" height="7"></rect>
                    <rect id="Rectangle-Copy-8" x="153" y="0" width="7" height="7"></rect>
                    <rect id="Rectangle-Copy-3" x="77" y="153" width="7" height="7"></rect>
                    <rect id="Rectangle-Copy-4" x="0" y="77" width="7" height="7"></rect>
                    <rect id="Rectangle-Copy-5" x="0" y="0" width="7" height="7"></rect>
                </g>
            </g>
        </g>
    </g>
</svg>