<?xml version="1.0" encoding="UTF-8"?>
<svg width="1280px" height="859px" viewBox="0 0 1280 859" version="1.1" xmlns="http://www.w3.org/2000/svg" xmlns:xlink="http://www.w3.org/1999/xlink">
    <!-- Generator: Sketch 53.2 (72643) - https://sketchapp.com -->
    <title>pattern_</title>
    <desc>Created with Sketch.</desc>
    <g id="pattern_" stroke="none" stroke-width="1" fill="none" fill-rule="evenodd">
        <g id="pattern1" transform="translate(230.000000, 122.000000)">
            <g>
                <g id="yellow_rect" transform="translate(1.031250, 1.031250)" stroke="#F3F302">
                    <path d="M1.5,1.5 L1.5,159.375 L159.375,159.375 L159.375,1.5 L1.5,1.5 Z" id="Rectangle" stroke-width="3"></path>
                    <path d="M0.802738079,152.657372 L9.8504927,159.778401" id="Line-Copy-2" fill="#F3F302" stroke-linecap="square"></path>
                    <path d="M0.802738079,145.387974 L17.0606847,159.778401" id="Line-Copy-3" fill="#F3F302" stroke-linecap="square"></path>
                    <path d="M0.802738079,138.118575 L24.2708766,159.778401" id="Line-Copy-4" fill="#F3F302" stroke-linecap="square"></path>
                    <path d="M0.802738079,130.849176 L31.4810686,159.778401" id="Line-Copy-5" fill="#F3F302" stroke-linecap="square"></path>
                    <path d="M0.802738079,123.579778 L38.6912606,159.778401" id="Line-Copy-6" fill="#F3F302" stroke-linecap="square"></path>
                    <path d="M0.802738079,116.310379 L45.9014525,159.778401" id="Line-Copy-7" fill="#F3F302" stroke-linecap="square"></path>
                    <path d="M0.802738079,109.04098 L53.1116445,159.778401" id="Line-Copy-8" fill="#F3F302" stroke-linecap="square"></path>
                    <path d="M0.802738079,101.771582 L60.3218365,159.778401" id="Line-Copy-9" fill="#F3F302" stroke-linecap="square"></path>
                    <path d="M0.802738079,94.5021828 L67.5320284,159.778401" id="Line-Copy-10" fill="#F3F302" stroke-linecap="square"></path>
                    <path d="M0.802738079,87.2327842 L74.7422204,159.778401" id="Line-Copy-11" fill="#F3F302" stroke-linecap="square"></path>
                    <path d="M0.802738079,79.9633855 L81.9524124,159.778401" id="Line-Copy-12" fill="#F3F302" stroke-linecap="square"></path>
                    <path d="M0.802738079,72.6939868 L89.1626044,159.778401" id="Line-Copy-13" fill="#F3F302" stroke-linecap="square"></path>
                    <path d="M0.802738079,65.4245881 L96.3727963,159.778401" id="Line-Copy-14" fill="#F3F302" stroke-linecap="square"></path>
                    <path d="M0.802738079,58.1551894 L103.582988,159.778401" id="Line-Copy-15" fill="#F3F302" stroke-linecap="square"></path>
                    <path d="M0.802738079,50.8857908 L110.79318,159.778401" id="Line-Copy-16" fill="#F3F302" stroke-linecap="square"></path>
                    <path d="M0.802738079,43.6163921 L118.003372,159.778401" id="Line-Copy-17" fill="#F3F302" stroke-linecap="square"></path>
                    <path d="M0.802738079,36.3469934 L125.213564,159.778401" id="Line-Copy-18" fill="#F3F302" stroke-linecap="square"></path>
                    <path d="M0.802738079,29.0775947 L132.423756,159.778401" id="Line-Copy-19" fill="#F3F302" stroke-linecap="square"></path>
                    <path d="M0.802738079,21.808196 L139.633948,159.778401" id="Line-Copy-20" fill="#F3F302" stroke-linecap="square"></path>
                    <path d="M0.802738079,14.5387974 L146.84414,159.778401" id="Line-Copy-21" fill="#F3F302" stroke-linecap="square"></path>
                    <path d="M0.802738079,7.26939868 L154.054332,159.778401" id="Line-Copy-22" fill="#F3F302" stroke-linecap="square"></path>
                    <path d="M0.802738079,4.54747351e-13 L159.571574,158.296875" id="Line-Copy-23" fill="#F3F302" stroke-linecap="square"></path>
                    <path d="M8.00419665,1.27897692e-13 L159.571574,151.173397" id="Line-Copy-24" fill="#F3F302" stroke-linecap="square"></path>
                    <path d="M15.2056552,2.84217094e-14 L159.571574,144.049918" id="Line-Copy-25" fill="#F3F302" stroke-linecap="square"></path>
                    <path d="M22.4071138,8.52651283e-14 L159.571574,136.92644" id="Line-Copy-26" fill="#F3F302" stroke-linecap="square"></path>
                    <path d="M29.6085723,-2.84217094e-14 L159.571574,129.802962" id="Line-Copy-27" fill="#F3F302" stroke-linecap="square"></path>
                    <path d="M36.8100309,3.55271368e-14 L159.571574,122.679483" id="Line-Copy-28" fill="#F3F302" stroke-linecap="square"></path>
                    <path d="M44.0114895,9.23705556e-14 L159.571574,115.556005" id="Line-Copy-29" fill="#F3F302" stroke-linecap="square"></path>
                    <path d="M51.212948,1.13686838e-13 L159.571574,108.432527" id="Line-Copy-30" fill="#F3F302" stroke-linecap="square"></path>
                    <path d="M58.4144066,1.13686838e-13 L159.571574,101.309048" id="Line-Copy-31" fill="#F3F302" stroke-linecap="square"></path>
                    <path d="M65.6158652,9.9475983e-14 L159.571574,94.1855701" id="Line-Copy-32" fill="#F3F302" stroke-linecap="square"></path>
                    <path d="M72.8173237,1.56319402e-13 L159.571574,87.0620918" id="Line-Copy-33" fill="#F3F302" stroke-linecap="square"></path>
                    <path d="M80.0187823,1.13686838e-13 L159.571574,79.9386135" id="Line-Copy-34" fill="#F3F302" stroke-linecap="square"></path>
                    <path d="M87.2202409,1.84741111e-13 L159.571574,72.8151351" id="Line-Copy-35" fill="#F3F302" stroke-linecap="square"></path>
                    <path d="M94.4216994,1.81188398e-13 L159.571574,65.6916568" id="Line-Copy-36" fill="#F3F302" stroke-linecap="square"></path>
                    <path d="M101.623158,1.7408297e-13 L159.571574,58.5681785" id="Line-Copy-37" fill="#F3F302" stroke-linecap="square"></path>
                    <path d="M108.824617,1.42108547e-13 L159.571574,51.4447002" id="Line-Copy-38" fill="#F3F302" stroke-linecap="square"></path>
                    <path d="M116.026075,1.91846539e-13 L159.571574,44.3212218" id="Line-Copy-39" fill="#F3F302" stroke-linecap="square"></path>
                    <path d="M123.227534,4.61852778e-14 L159.571574,37.1977435" id="Line-Copy-40" fill="#F3F302" stroke-linecap="square"></path>
                    <path d="M130.428992,1.47437618e-13 L159.571574,30.0742652" id="Line-Copy-41" fill="#F3F302" stroke-linecap="square"></path>
                    <path d="M137.630451,2.29150032e-13 L159.571574,22.9507869" id="Line-Copy-42" fill="#F3F302" stroke-linecap="square"></path>
                    <path d="M144.831909,1.47437618e-13 L159.571574,15.8273086" id="Line-Copy-43" fill="#F3F302" stroke-linecap="square"></path>
                    <path d="M152.033368,4.02344824e-13 L159.571574,8.70383023" id="Line-Copy-44" fill="#F3F302" stroke-linecap="square"></path>
                </g>
                <path d="M1.83398808,3.09375 L161.90625,3.09375" id="Line-4" stroke="#F3F302" stroke-width="4" stroke-linecap="square"></path>
                <path d="M81.46875,79.40625 L81.46875,84.5625" id="Line-3-Copy" stroke="#F3F302" fill="#F3F302" stroke-linecap="square" transform="translate(81.468750, 81.984375) rotate(90.000000) translate(-81.468750, -81.984375) "></path>
                <path d="M81.46875,79.40625 L81.46875,84.5625" id="Line-3" stroke="#F3F302" fill="#F3F302" stroke-linecap="square"></path>
                <g id="little-recs" fill="#FFFCFC" stroke="#000000" stroke-width="2">
                    <rect id="Rectangle" x="0" y="157.78125" width="7.21875" height="7.21875"></rect>
                    <rect id="Rectangle-Copy-7" x="79.40625" y="0" width="7.21875" height="7.21875"></rect>
                    <rect id="Rectangle-Copy" x="157.78125" y="157.78125" width="7.21875" height="7.21875"></rect>
                    <rect id="Rectangle-Copy-2" x="157.78125" y="79.40625" width="7.21875" height="7.21875"></rect>
                    <rect id="Rectangle-Copy-8" x="157.78125" y="0" width="7.21875" height="7.21875"></rect>
                    <rect id="Rectangle-Copy-3" x="79.40625" y="157.78125" width="7.21875" height="7.21875"></rect>
                    <rect id="Rectangle-Copy-4" x="0" y="79.40625" width="7.21875" height="7.21875"></rect>
                    <rect id="Rectangle-Copy-5" x="0" y="0" width="7.21875" height="7.21875"></rect>
                </g>
            </g>
        </g>
    </g>
</svg>