<?xml version="1.0" encoding="UTF-8"?>
<svg width="1280px" height="859px" viewBox="0 0 1280 859" version="1.1" xmlns="http://www.w3.org/2000/svg" xmlns:xlink="http://www.w3.org/1999/xlink">
    <!-- Generator: Sketch 53.2 (72643) - https://sketchapp.com -->
    <title>pattern_</title>
    <desc>Created with Sketch.</desc>
    <g id="pattern_" stroke="none" stroke-width="1" fill="none" fill-rule="evenodd">
        <g id="pattern3" transform="translate(393.000000, 560.000000)" stroke="#19FF00">
            <g>
                <path d="M0,2.46428571 L161,2.46428571" id="Line" stroke-width="6"></path>
                <path d="M4.2665,66.2276786 L157.73975,66.2276786" id="Line-Copy" stroke-width="4" stroke-linecap="square"></path>
                <path d="M2.0125,0.911272321 L2.0125,68.6791295" id="Line-2" stroke-width="4"></path>
                <path d="M158.9875,2.14341518 L158.9875,68.6791295" id="Line-2-Copy" stroke-width="4"></path>
            </g>
            <g id="Group" transform="translate(1.789528, -0.000000)" stroke-linecap="square">
                <path d="M2.93098879e-14,60.7986071 L5.50134522,67.4677118" id="Line-Copy-16"></path>
                <path d="M1.67865721e-13,52.1130918 L12.5760372,67.375854" id="Line-Copy-17"></path>
                <path d="M1.90070182e-13,43.4275765 L19.8465617,67.5381732" id="Line-Copy-18"></path>
                <path d="M1.11910481e-13,34.7420612 L27.1950553,67.8093157" id="Line-Copy-19"></path>
                <path d="M1.59872116e-13,26.0565459 L34.0353408,67.4740073" id="Line-Copy-20"></path>
                <path d="M2.30926389e-13,17.3710306 L41.4601418,67.8598268" id="Line-Copy-21"></path>
                <path d="M1.03028697e-13,8.68551531 L48.6795225,68.0042611" id="Line-Copy-22"></path>
                <path d="M2.23820962e-13,4.54747351e-13 L55.4232949,67.6635209" id="Line-Copy-23"></path>
                <path d="M7.02687775,1.03028697e-13 L62.4477389,67.6858793" id="Line-Copy-24"></path>
                <path d="M14.0537555,5.32907052e-14 L69.7659866,68.0697348" id="Line-Copy-25"></path>
                <path d="M21.0806333,8.8817842e-14 L76.4863063,67.7259528" id="Line-Copy-26"></path>
                <path d="M28.107511,-2.48689958e-14 L83.4831975,67.7234638" id="Line-Copy-27"></path>
                <path d="M35.1343888,2.84217094e-14 L90.7737671,68.0843098" id="Line-Copy-28"></path>
                <path d="M42.1612665,1.13686838e-13 L97.5418603,67.8105782" id="Line-Copy-29"></path>
                <path d="M49.1881443,1.13686838e-13 L104.489259,67.7618324" id="Line-Copy-30"></path>
                <path d="M56.215022,1.17239551e-13 L111.466759,67.7567679" id="Line-Copy-31"></path>
                <path d="M63.2418998,8.17124146e-14 L118.639046,67.9991937" id="Line-Copy-32"></path>
                <path d="M70.2687775,1.81188398e-13 L125.356465,67.6936678" id="Line-Copy-33"></path>
                <path d="M77.2956553,1.17239551e-13 L132.390242,67.7899455" id="Line-Copy-34"></path>
                <path d="M84.322533,2.09610107e-13 L139.204792,67.6335643" id="Line-Copy-35"></path>
                <path d="M91.3494108,1.66977543e-13 L146.005678,67.4825938" id="Line-Copy-36"></path>
                <path d="M98.3762885,1.81188398e-13 L153.104884,67.7313332" id="Line-Copy-37"></path>
                <path d="M105.403166,1.42108547e-13 L154.919894,61.466395" id="Line-Copy-38"></path>
                <path d="M112.430044,1.91846539e-13 L154.919894,52.9552261" id="Line-Copy-39"></path>
                <path d="M119.456922,4.61852778e-14 L154.919894,44.4440572" id="Line-Copy-40"></path>
                <path d="M126.4838,1.49213975e-13 L154.919894,35.9328883" id="Line-Copy-41"></path>
                <path d="M133.510677,2.27373675e-13 L154.919894,27.4217194" id="Line-Copy-42"></path>
                <path d="M140.537555,1.47437618e-13 L154.919894,18.9105505" id="Line-Copy-43"></path>
                <path d="M147.564433,4.02344824e-13 L154.919894,10.3993816" id="Line-Copy-44"></path>
            </g>
        </g>
    </g>
</svg>