<?xml version="1.0" encoding="UTF-8"?>
<svg width="1280px" height="859px" viewBox="0 0 1280 859" version="1.1" xmlns="http://www.w3.org/2000/svg" xmlns:xlink="http://www.w3.org/1999/xlink">
    <!-- Generator: Sketch 53.2 (72643) - https://sketchapp.com -->
    <title>pattern_</title>
    <desc>Created with Sketch.</desc>
    <g id="pattern_" stroke="none" stroke-width="1" fill="none" fill-rule="evenodd">
        <g id="pattern3" transform="translate(456.000000, 485.000000)" stroke="#19FF00">
            <g>
                <path d="M0,2.39285714 L162,2.39285714" id="Line" stroke-width="6"></path>
                <path d="M4.293,64.3080357 L158.7195,64.3080357" id="Line-Copy" stroke-width="4" stroke-linecap="square"></path>
                <path d="M2.025,0.884858631 L2.025,66.6884301" id="Line-2" stroke-width="4"></path>
                <path d="M159.975,2.0812872 L159.975,66.6884301" id="Line-2-Copy" stroke-width="4"></path>
            </g>
            <g id="Group" transform="translate(1.800643, -0.000000)" stroke-linecap="square">
                <path d="M2.93098879e-14,59.0363287 L5.53551507,65.5121259" id="Line-Copy-16"></path>
                <path d="M1.67865721e-13,50.6025674 L12.6541492,65.4229307" id="Line-Copy-17"></path>
                <path d="M1.90070182e-13,42.1688062 L19.9698323,65.580545" id="Line-Copy-18"></path>
                <path d="M1.11910481e-13,33.735045 L27.3639686,65.8438283" id="Line-Copy-19"></path>
                <path d="M1.59872116e-13,25.3012837 L34.2467405,65.5182389" id="Line-Copy-20"></path>
                <path d="M2.30926389e-13,16.8675225 L41.7176582,65.8928753" id="Line-Copy-21"></path>
                <path d="M1.03028697e-13,8.43376124 L48.9818798,66.0331231" id="Line-Copy-22"></path>
                <path d="M2.23820962e-13,4.54747351e-13 L55.767539,65.7022594" id="Line-Copy-23"></path>
                <path d="M7.07052296,1.03028697e-13 L62.835613,65.7239698" id="Line-Copy-24"></path>
                <path d="M14.1410459,5.32907052e-14 L70.1993157,66.096699" id="Line-Copy-25"></path>
                <path d="M21.2115689,8.8817842e-14 L76.9613765,65.7628817" id="Line-Copy-26"></path>
                <path d="M28.2820918,-2.48689958e-14 L84.0017267,65.7604649" id="Line-Copy-27"></path>
                <path d="M35.3526148,2.84217094e-14 L91.3375793,66.1108515" id="Line-Copy-28"></path>
                <path d="M42.4231377,1.13686838e-13 L98.1477104,65.8450542" id="Line-Copy-29"></path>
                <path d="M49.4936607,1.13686838e-13 L105.13826,65.7977214" id="Line-Copy-30"></path>
                <path d="M56.5641836,1.17239551e-13 L112.159099,65.7928036" id="Line-Copy-31"></path>
                <path d="M63.6347066,8.17124146e-14 L119.375935,66.0282025" id="Line-Copy-32"></path>
                <path d="M70.7052296,1.81188398e-13 L126.135076,65.7315325" id="Line-Copy-33"></path>
                <path d="M77.7757525,1.17239551e-13 L133.212541,65.8250196" id="Line-Copy-34"></path>
                <path d="M84.8462755,2.09610107e-13 L140.069418,65.6731711" id="Line-Copy-35"></path>
                <path d="M91.9167984,1.66977543e-13 L146.912545,65.5265766" id="Line-Copy-36"></path>
                <path d="M98.9873214,1.81188398e-13 L154.055846,65.7681061" id="Line-Copy-37"></path>
                <path d="M106.057844,1.42108547e-13 L155.88213,59.6847604" id="Line-Copy-38"></path>
                <path d="M113.128367,1.91846539e-13 L155.88213,51.420292" id="Line-Copy-39"></path>
                <path d="M120.19889,4.61852778e-14 L155.88213,43.1558237" id="Line-Copy-40"></path>
                <path d="M127.269413,1.49213975e-13 L155.88213,34.8913553" id="Line-Copy-41"></path>
                <path d="M134.339936,2.27373675e-13 L155.88213,26.6268869" id="Line-Copy-42"></path>
                <path d="M141.410459,1.47437618e-13 L155.88213,18.3624186" id="Line-Copy-43"></path>
                <path d="M148.480982,4.02344824e-13 L155.88213,10.0979502" id="Line-Copy-44"></path>
            </g>
        </g>
    </g>
</svg>