<?xml version="1.0" encoding="UTF-8"?>
<svg width="2653px" height="1573px" viewBox="0 0 2653 1573" version="1.1" xmlns="http://www.w3.org/2000/svg" xmlns:xlink="http://www.w3.org/1999/xlink">
    <!-- Generator: Sketch 53.2 (72643) - https://sketchapp.com -->
    <title>SPM_UI</title>
    <desc>Created with Sketch.</desc>
    <defs>
        <radialGradient cx="205.017963%" cy="0%" fx="205.017963%" fy="0%" r="168.658614%" gradientTransform="translate(2.050180,0.000000),scale(0.592914,1.000000),translate(-2.050180,-0.000000)" id="radialGradient-1">
            <stop stop-color="#F6F5F4" offset="0%"></stop>
            <stop stop-color="#DED9D6" offset="11.4361837%"></stop>
            <stop stop-color="#ADA6A1" offset="64.371498%"></stop>
            <stop stop-color="#A39B98" offset="93.5346032%"></stop>
            <stop stop-color="#847E7B" offset="100%"></stop>
        </radialGradient>
        <linearGradient x1="0%" y1="42.3718374%" x2="100%" y2="42.3718363%" id="linearGradient-2">
            <stop stop-color="#BFBAB8" offset="0%"></stop>
            <stop stop-color="#E6E6E5" offset="1.13378671%"></stop>
            <stop stop-color="#E6E6E5" offset="52.2999748%"></stop>
            <stop stop-color="#E6E6E5" offset="98.7653268%"></stop>
            <stop stop-color="#BFBAB8" offset="100%"></stop>
        </linearGradient>
        <linearGradient x1="0%" y1="50.0003994%" x2="100%" y2="50.0003994%" id="linearGradient-3">
            <stop stop-color="#3E3D3C" offset="0%"></stop>
            <stop stop-color="#E6E6E5" offset="49.6610351%"></stop>
            <stop stop-color="#E6E6E5" offset="100%"></stop>
        </linearGradient>
        <path d="M955,17 L2626,17 C2631.52285,17 2636,21.4771525 2636,27 L2636,1546 C2636,1551.52285 2631.52285,1556 2626,1556 L955,1556 C949.477153,1556 945,1551.52285 945,1546 L945,27 C945,21.4771525 949.477153,17 955,17 Z" id="path-4"></path>
        <linearGradient x1="0%" y1="42.3718374%" x2="100%" y2="42.3718363%" id="linearGradient-5">
            <stop stop-color="#BFBAB8" offset="0%"></stop>
            <stop stop-color="#E6E6E5" offset="2.40269043%"></stop>
            <stop stop-color="#E6E6E5" offset="52.2999748%"></stop>
            <stop stop-color="#E6E6E5" offset="97.3687166%"></stop>
            <stop stop-color="#BFBAB8" offset="100%"></stop>
        </linearGradient>
        <linearGradient x1="0%" y1="50.0003994%" x2="100%" y2="50.0003994%" id="linearGradient-6">
            <stop stop-color="#3E3D3C" offset="0%"></stop>
            <stop stop-color="#E6E6E5" offset="49.6610351%"></stop>
            <stop stop-color="#E6E6E5" offset="100%"></stop>
        </linearGradient>
        <path d="M27,17 L915,17 C920.522847,17 925,21.4771525 925,27 L925,1546 C925,1551.52285 920.522847,1556 915,1556 L27,1556 C21.4771525,1556 17,1551.52285 17,1546 L17,27 C17,21.4771525 21.4771525,17 27,17 Z" id="path-7"></path>
        <linearGradient x1="50%" y1="0%" x2="50%" y2="100%" id="linearGradient-8">
            <stop stop-color="#D8D8D8" offset="0%"></stop>
            <stop stop-color="#BDBDBC" offset="100%"></stop>
        </linearGradient>
        <path d="M9.83234714,4.78723404 L480.167653,4.78723404 C482.929077,4.78723404 485.167653,7.02581029 485.167653,9.78723404 L485.167653,260.212766 C485.167653,262.97419 482.929077,265.212766 480.167653,265.212766 L9.83234714,265.212766 C7.07092339,265.212766 4.83234714,262.97419 4.83234714,260.212766 L4.83234714,9.78723404 C4.83234714,7.02581029 7.07092339,4.78723404 9.83234714,4.78723404 Z" id="path-9"></path>
        <filter x="-0.9%" y="-1.7%" width="101.9%" height="103.5%" filterUnits="objectBoundingBox" id="filter-10">
            <feMorphology radius="1" operator="erode" in="SourceAlpha" result="shadowSpreadInner1"></feMorphology>
            <feGaussianBlur stdDeviation="3" in="shadowSpreadInner1" result="shadowBlurInner1"></feGaussianBlur>
            <feOffset dx="0" dy="1" in="shadowBlurInner1" result="shadowOffsetInner1"></feOffset>
            <feComposite in="shadowOffsetInner1" in2="SourceAlpha" operator="arithmetic" k2="-1" k3="1" result="shadowInnerInner1"></feComposite>
            <feColorMatrix values="0 0 0 0 0   0 0 0 0 0   0 0 0 0 0  0 0 0 0.288379589 0" type="matrix" in="shadowInnerInner1"></feColorMatrix>
        </filter>
    </defs>
    <g id="SPM_UI" stroke="none" stroke-width="1" fill="none" fill-rule="evenodd">
        <g id="bkw" fill-rule="nonzero">
            <path d="M0,0 L2653,0 L2653,1559.09605 L2653,1559.09605 C2653,1566.77499 2646.28427,1573 2638,1573 L15,1573 L15,1573 C6.71572875,1573 1.01453063e-15,1566.77499 0,1559.09605 L0,0 Z" id="path-2" fill="#000000"></path>
            <path d="M0,0 L2653,0 L2653,1559.09605 L2653,1559.09605 C2653,1566.77499 2646.28427,1573 2638,1573 L15,1573 L15,1573 C6.71572875,1573 1.01453063e-15,1566.77499 0,1559.09605 L0,0 Z" id="path-2" fill="url(#radialGradient-1)"></path>
        </g>
        <g id="rectangle-controls-L-Copy-7">
            <use fill="url(#linearGradient-2)" xlink:href="#path-4"></use>
            <use fill-opacity="0.02" fill="url(#linearGradient-3)" style="mix-blend-mode: difference;" xlink:href="#path-4"></use>
        </g>
        <g id="rectangle-controls-L-Copy-6">
            <use fill="url(#linearGradient-5)" xlink:href="#path-7"></use>
            <use fill-opacity="0.02" fill="url(#linearGradient-6)" style="mix-blend-mode: difference;" xlink:href="#path-7"></use>
        </g>
        <rect id="Rectangle" stroke="#979797" fill="#B7B7B7" x="48.5" y="38.5" width="849" height="97" rx="10"></rect>
        <rect id="Rectangle-Copy-16" stroke="#979797" fill="#B7B7B7" x="963.5" y="38.5" width="1653" height="97" rx="10"></rect>
        <path d="M1617.44946,96 L1617.44946,71.0146484 L1622.74731,71.0146484 L1622.74731,96 L1617.44946,96 Z M1639.61499,96 L1633.59937,76.3979492 L1633.44556,76.3979492 C1633.66203,80.3855994 1633.77026,83.0458918 1633.77026,84.3789062 L1633.77026,96 L1629.03638,96 L1629.03638,71.0146484 L1636.24829,71.0146484 L1642.16138,90.1210938 L1642.26392,90.1210938 L1648.53589,71.0146484 L1655.7478,71.0146484 L1655.7478,96 L1650.80884,96 L1650.80884,84.1738281 C1650.80884,83.6155571 1650.81738,82.9718461 1650.83447,82.2426758 C1650.85156,81.5135055 1650.92847,79.5766759 1651.06519,76.4321289 L1650.91138,76.4321289 L1644.46851,96 L1639.61499,96 Z M1677.33228,96 L1675.52075,90.0527344 L1666.41187,90.0527344 L1664.60034,96 L1658.89233,96 L1667.71069,70.9121094 L1674.18774,70.9121094 L1683.04028,96 L1677.33228,96 Z M1674.2561,85.609375 C1672.58129,80.2203507 1671.63851,77.1726923 1671.42773,76.4663086 C1671.21696,75.7599249 1671.066,75.2016622 1670.97485,74.7915039 C1670.59888,76.2498445 1669.52223,79.8557655 1667.74487,85.609375 L1674.2561,85.609375 Z M1695.66968,81.9692383 L1705.58179,81.9692383 L1705.58179,94.9233398 C1703.97533,95.447431 1702.4629,95.814859 1701.04443,96.0256348 C1699.62597,96.2364106 1698.1762,96.3417969 1696.69507,96.3417969 C1692.92389,96.3417969 1690.04428,95.2338164 1688.05615,93.0178223 C1686.06802,90.8018281 1685.07397,87.6203007 1685.07397,83.4731445 C1685.07397,79.4399212 1686.22753,76.2954214 1688.53467,74.0395508 C1690.84181,71.7836801 1694.04043,70.6557617 1698.13062,70.6557617 C1700.6941,70.6557617 1703.16641,71.1684519 1705.54761,72.1938477 L1703.78735,76.4321289 C1701.96443,75.520666 1700.06747,75.0649414 1698.09644,75.0649414 C1695.80639,75.0649414 1693.97209,75.8339767 1692.59351,77.3720703 C1691.21492,78.9101639 1690.52563,80.9780144 1690.52563,83.5756836 C1690.52563,86.2872857 1691.08105,88.3579844 1692.19189,89.7878418 C1693.30274,91.2176992 1694.91771,91.9326172 1697.03687,91.9326172 C1698.14201,91.9326172 1699.26424,91.818686 1700.40356,91.5908203 L1700.40356,86.378418 L1695.66968,86.378418 L1695.66968,81.9692383 Z M1725.9187,96 L1711.52905,96 L1711.52905,71.0146484 L1725.9187,71.0146484 L1725.9187,75.3554688 L1716.8269,75.3554688 L1716.8269,80.8413086 L1725.28638,80.8413086 L1725.28638,85.1821289 L1716.8269,85.1821289 L1716.8269,91.625 L1725.9187,91.625 L1725.9187,96 Z M1750.83569,75.0649414 C1748.84187,75.0649414 1747.2981,75.8140387 1746.20435,77.3122559 C1745.11059,78.810473 1744.56372,80.8982614 1744.56372,83.5756836 C1744.56372,89.1470005 1746.65436,91.9326172 1750.83569,91.9326172 C1752.59026,91.9326172 1754.71508,91.4939823 1757.21021,90.6166992 L1757.21021,95.0600586 C1755.15941,95.9145551 1752.8694,96.3417969 1750.34009,96.3417969 C1746.70563,96.3417969 1743.92571,95.239513 1742.00024,93.0349121 C1740.07478,90.8303112 1739.11206,87.6658735 1739.11206,83.5415039 C1739.11206,80.9438347 1739.58487,78.6680599 1740.53052,76.7141113 C1741.47616,74.7601628 1742.83479,73.2619681 1744.60645,72.2194824 C1746.3781,71.1769967 1748.4545,70.6557617 1750.83569,70.6557617 C1753.26246,70.6557617 1755.70059,71.2425072 1758.15015,72.4160156 L1756.44116,76.7226562 C1755.50691,76.2783181 1754.56698,75.8909522 1753.62134,75.5605469 C1752.6757,75.2301416 1751.74716,75.0649414 1750.83569,75.0649414 Z M1785.20337,83.4731445 C1785.20337,87.6089074 1784.17799,90.7875865 1782.1272,93.0092773 C1780.07641,95.2309681 1777.13698,96.3417969 1773.30884,96.3417969 C1769.48069,96.3417969 1766.54127,95.2309681 1764.49048,93.0092773 C1762.43969,90.7875865 1761.41431,87.5975143 1761.41431,83.4389648 C1761.41431,79.2804154 1762.44254,76.1045845 1764.49902,73.911377 C1766.55551,71.7181694 1769.50348,70.621582 1773.34302,70.621582 C1777.18256,70.621582 1780.11913,71.7267142 1782.15283,73.9370117 C1784.18653,76.1473092 1785.20337,79.3259884 1785.20337,83.4731445 Z M1766.96851,83.4731445 C1766.96851,86.2644996 1767.49829,88.3665294 1768.55786,89.7792969 C1769.61744,91.1920644 1771.20108,91.8984375 1773.30884,91.8984375 C1777.53575,91.8984375 1779.64917,89.0900346 1779.64917,83.4731445 C1779.64917,77.8448612 1777.54714,75.0307617 1773.34302,75.0307617 C1771.23526,75.0307617 1769.64592,75.7399831 1768.57495,77.1584473 C1767.50398,78.5769114 1766.96851,80.6817894 1766.96851,83.4731445 Z M1812.54712,96 L1805.81372,96 L1794.94458,77.0986328 L1794.79077,77.0986328 C1795.00724,80.4368656 1795.11548,82.8180267 1795.11548,84.2421875 L1795.11548,96 L1790.38159,96 L1790.38159,71.0146484 L1797.06372,71.0146484 L1807.91577,89.7280273 L1808.0354,89.7280273 C1807.8645,86.4809408 1807.77905,84.1852281 1807.77905,82.8408203 L1807.77905,71.0146484 L1812.54712,71.0146484 L1812.54712,96 Z M1828.47485,96 L1823.177,96 L1823.177,75.4238281 L1816.39233,75.4238281 L1816.39233,71.0146484 L1835.25952,71.0146484 L1835.25952,75.4238281 L1828.47485,75.4238281 L1828.47485,96 Z M1844.40259,82.105957 L1846.11157,82.105957 C1847.78639,82.105957 1849.02254,81.8268257 1849.82007,81.2685547 C1850.6176,80.7102837 1851.01636,79.8330138 1851.01636,78.6367188 C1851.01636,77.451817 1850.60905,76.6087265 1849.79443,76.1074219 C1848.97981,75.6061173 1847.71803,75.3554688 1846.00903,75.3554688 L1844.40259,75.3554688 L1844.40259,82.105957 Z M1844.40259,86.4125977 L1844.40259,96 L1839.10474,96 L1839.10474,71.0146484 L1846.38501,71.0146484 C1849.78021,71.0146484 1852.29239,71.6327249 1853.92163,72.8688965 C1855.55087,74.105068 1856.36548,75.9820838 1856.36548,78.5 C1856.36548,79.9697339 1855.96102,81.2770939 1855.1521,82.4221191 C1854.34318,83.5671444 1853.19817,84.4643522 1851.71704,85.1137695 C1855.47683,90.7306596 1857.92635,94.3593668 1859.06567,96 L1853.18677,96 L1847.22241,86.4125977 L1844.40259,86.4125977 Z M1884.88843,83.4731445 C1884.88843,87.6089074 1883.86305,90.7875865 1881.81226,93.0092773 C1879.76146,95.2309681 1876.82204,96.3417969 1872.9939,96.3417969 C1869.16575,96.3417969 1866.22633,95.2309681 1864.17554,93.0092773 C1862.12475,90.7875865 1861.09937,87.5975143 1861.09937,83.4389648 C1861.09937,79.2804154 1862.12759,76.1045845 1864.18408,73.911377 C1866.24057,71.7181694 1869.18854,70.621582 1873.02808,70.621582 C1876.86761,70.621582 1879.80419,71.7267142 1881.83789,73.9370117 C1883.87159,76.1473092 1884.88843,79.3259884 1884.88843,83.4731445 Z M1866.65356,83.4731445 C1866.65356,86.2644996 1867.18334,88.3665294 1868.24292,89.7792969 C1869.3025,91.1920644 1870.88614,91.8984375 1872.9939,91.8984375 C1877.22081,91.8984375 1879.33423,89.0900346 1879.33423,83.4731445 C1879.33423,77.8448612 1877.2322,75.0307617 1873.02808,75.0307617 C1870.92032,75.0307617 1869.33098,75.7399831 1868.26001,77.1584473 C1867.18904,78.5769114 1866.65356,80.6817894 1866.65356,83.4731445 Z M1890.06665,96 L1890.06665,71.0146484 L1895.3645,71.0146484 L1895.3645,91.625 L1905.49878,91.625 L1905.49878,96 L1890.06665,96 Z" id="IMAGECONTROL" fill="#000000" fill-rule="nonzero"></path>
        <path d="M117.741943,98 L117.741943,73.0146484 L123.039795,73.0146484 L123.039795,93.625 L133.174072,93.625 L133.174072,98 L117.741943,98 Z M152.310303,98 L150.498779,92.0527344 L141.389893,92.0527344 L139.578369,98 L133.870361,98 L142.688721,72.9121094 L149.165771,72.9121094 L158.018311,98 L152.310303,98 Z M149.234131,87.609375 C147.559318,82.2203507 146.616538,79.1726923 146.405762,78.4663086 C146.194986,77.7599249 146.044027,77.2016622 145.952881,76.7915039 C145.576902,78.2498445 144.500253,81.8557655 142.7229,87.609375 L149.234131,87.609375 Z M175.411377,91.0615234 C175.411377,93.3173941 174.599617,95.0947201 172.976074,96.3935547 C171.352531,97.6923893 169.093846,98.3417969 166.199951,98.3417969 C163.533922,98.3417969 161.175547,97.8404998 159.124756,96.8378906 L159.124756,91.9160156 C160.810962,92.6679725 162.23795,93.1977524 163.405762,93.5053711 C164.573574,93.8129898 165.641678,93.9667969 166.610107,93.9667969 C167.772223,93.9667969 168.663734,93.7446311 169.284668,93.300293 C169.905602,92.8559548 170.216064,92.1951541 170.216064,91.3178711 C170.216064,90.8279598 170.079347,90.3921731 169.805908,90.010498 C169.532469,89.628823 169.130862,89.261395 168.601074,88.9082031 C168.071286,88.5550113 166.991789,87.9910521 165.362549,87.2163086 C163.835848,86.4985316 162.69084,85.8092481 161.92749,85.1484375 C161.16414,84.4876269 160.554608,83.7185916 160.098877,82.8413086 C159.643146,81.9640256 159.415283,80.9386452 159.415283,79.7651367 C159.415283,77.5548392 160.164381,75.8173891 161.662598,74.5527344 C163.160815,73.2880796 165.231513,72.6557617 167.874756,72.6557617 C169.17359,72.6557617 170.412592,72.8095688 171.591797,73.1171875 C172.771002,73.4248062 174.004307,73.8577446 175.291748,74.4160156 L173.582764,78.534668 C172.249749,77.9877902 171.147465,77.6061209 170.275879,77.3896484 C169.404293,77.173176 168.546961,77.0649414 167.703857,77.0649414 C166.701248,77.0649414 165.932213,77.2985003 165.396729,77.765625 C164.861244,78.2327497 164.593506,78.8422814 164.593506,79.5942383 C164.593506,80.061363 164.70174,80.4686669 164.918213,80.8161621 C165.134685,81.1636573 165.479327,81.4997542 165.952148,81.8244629 C166.42497,82.1491715 167.544343,82.7330687 169.310303,83.5761719 C171.645926,84.6927139 173.246659,85.8120875 174.112549,86.9343262 C174.978439,88.0565649 175.411377,89.4322835 175.411377,91.0615234 Z M193.829834,98 L179.440186,98 L179.440186,73.0146484 L193.829834,73.0146484 L193.829834,77.3554688 L184.738037,77.3554688 L184.738037,82.8413086 L193.19751,82.8413086 L193.19751,87.1821289 L184.738037,87.1821289 L184.738037,93.625 L193.829834,93.625 L193.829834,98 Z M203.840088,84.105957 L205.549072,84.105957 C207.223885,84.105957 208.460038,83.8268257 209.257568,83.2685547 C210.055098,82.7102837 210.453857,81.8330138 210.453857,80.6367188 C210.453857,79.451817 210.046554,78.6087265 209.231934,78.1074219 C208.417314,77.6061173 207.155526,77.3554688 205.446533,77.3554688 L203.840088,77.3554688 L203.840088,84.105957 Z M203.840088,88.4125977 L203.840088,98 L198.542236,98 L198.542236,73.0146484 L205.82251,73.0146484 C209.217709,73.0146484 211.729891,73.6327249 213.359131,74.8688965 C214.988371,76.105068 215.802979,77.9820838 215.802979,80.5 C215.802979,81.9697339 215.398523,83.2770939 214.5896,84.4221191 C213.780676,85.5671444 212.635668,86.4643522 211.154541,87.1137695 C214.914325,92.7306596 217.363845,96.3593668 218.503174,98 L212.624268,98 L206.659912,88.4125977 L203.840088,88.4125977 Z M245.034912,98 L243.223389,92.0527344 L234.114502,92.0527344 L232.302979,98 L226.594971,98 L235.41333,72.9121094 L241.890381,72.9121094 L250.74292,98 L245.034912,98 Z M241.95874,87.609375 C240.283927,82.2203507 239.341147,79.1726923 239.130371,78.4663086 C238.919595,77.7599249 238.768637,77.2016622 238.67749,76.7915039 C238.301512,78.2498445 237.224862,81.8557655 235.44751,87.609375 L241.95874,87.609375 Z M253.387451,98 L253.387451,73.0146484 L258.685303,73.0146484 L258.685303,93.625 L268.81958,93.625 L268.81958,98 L253.387451,98 Z M272.6604,98 L272.6604,73.0146484 L277.958252,73.0146484 L277.958252,98 L272.6604,98 Z M293.232178,83.9692383 L303.144287,83.9692383 L303.144287,96.9233398 C301.537834,97.447431 300.025398,97.814859 298.606934,98.0256348 C297.188469,98.2364106 295.738696,98.3417969 294.257568,98.3417969 C290.486391,98.3417969 287.606781,97.2338164 285.618652,95.0178223 C283.630524,92.8018281 282.636475,89.6203007 282.636475,85.4731445 C282.636475,81.4399212 283.790028,78.2954214 286.097168,76.0395508 C288.404308,73.7836801 291.602926,72.6557617 295.693115,72.6557617 C298.256605,72.6557617 300.728911,73.1684519 303.110107,74.1938477 L301.349854,78.4321289 C299.526928,77.520666 297.629974,77.0649414 295.658936,77.0649414 C293.368885,77.0649414 291.534593,77.8339767 290.156006,79.3720703 C288.777418,80.9101639 288.088135,82.9780144 288.088135,85.5756836 C288.088135,88.2872857 288.643549,90.3579844 289.754395,91.7878418 C290.86524,93.2176992 292.480214,93.9326172 294.599365,93.9326172 C295.704514,93.9326172 296.826736,93.818686 297.966064,93.5908203 L297.966064,88.378418 L293.232178,88.378418 L293.232178,83.9692383 Z M330.75708,98 L324.023682,98 L313.154541,79.0986328 L313.000732,79.0986328 C313.217205,82.4368656 313.325439,84.8180267 313.325439,86.2421875 L313.325439,98 L308.591553,98 L308.591553,73.0146484 L315.273682,73.0146484 L326.125732,91.7280273 L326.245361,91.7280273 C326.074462,88.4809408 325.989014,86.1852281 325.989014,84.8408203 L325.989014,73.0146484 L330.75708,73.0146484 L330.75708,98 Z M347.124756,98 L341.109131,78.3979492 L340.955322,78.3979492 C341.171795,82.3855994 341.280029,85.0458918 341.280029,86.3789062 L341.280029,98 L336.546143,98 L336.546143,73.0146484 L343.758057,73.0146484 L349.671143,92.1210938 L349.773682,92.1210938 L356.045654,73.0146484 L363.257568,73.0146484 L363.257568,98 L358.318604,98 L358.318604,86.1738281 C358.318604,85.6155571 358.327148,84.9718461 358.344238,84.2426758 C358.361328,83.5135055 358.438232,81.5766759 358.574951,78.4321289 L358.421143,78.4321289 L351.978271,98 L347.124756,98 Z M383.436279,98 L369.046631,98 L369.046631,73.0146484 L383.436279,73.0146484 L383.436279,77.3554688 L374.344482,77.3554688 L374.344482,82.8413086 L382.803955,82.8413086 L382.803955,87.1821289 L374.344482,87.1821289 L374.344482,93.625 L383.436279,93.625 L383.436279,98 Z M410.314209,98 L403.580811,98 L392.71167,79.0986328 L392.557861,79.0986328 C392.774334,82.4368656 392.882568,84.8180267 392.882568,86.2421875 L392.882568,98 L388.148682,98 L388.148682,73.0146484 L394.830811,73.0146484 L405.682861,91.7280273 L405.80249,91.7280273 C405.631591,88.4809408 405.546143,86.1852281 405.546143,84.8408203 L405.546143,73.0146484 L410.314209,73.0146484 L410.314209,98 Z M425.741943,98 L420.444092,98 L420.444092,77.4238281 L413.659424,77.4238281 L413.659424,73.0146484 L432.526611,73.0146484 L432.526611,77.4238281 L425.741943,77.4238281 L425.741943,98 Z M459.759033,98 L457.94751,92.0527344 L448.838623,92.0527344 L447.0271,98 L441.319092,98 L450.137451,72.9121094 L456.614502,72.9121094 L465.467041,98 L459.759033,98 Z M456.682861,87.609375 C455.008048,82.2203507 454.065268,79.1726923 453.854492,78.4663086 C453.643716,77.7599249 453.492758,77.2016622 453.401611,76.7915039 C453.025633,78.2498445 451.948983,81.8557655 450.171631,87.609375 L456.682861,87.609375 Z M490.2771,98 L483.543701,98 L472.674561,79.0986328 L472.520752,79.0986328 C472.737224,82.4368656 472.845459,84.8180267 472.845459,86.2421875 L472.845459,98 L468.111572,98 L468.111572,73.0146484 L474.793701,73.0146484 L485.645752,91.7280273 L485.765381,91.7280273 C485.594482,88.4809408 485.509033,86.1852281 485.509033,84.8408203 L485.509033,73.0146484 L490.2771,73.0146484 L490.2771,98 Z M516.796143,85.2680664 C516.796143,89.3810427 515.6255,92.5312391 513.28418,94.71875 C510.942859,96.9062609 507.561952,98 503.141357,98 L496.066162,98 L496.066162,73.0146484 L503.9104,73.0146484 C507.989197,73.0146484 511.156483,74.0912978 513.412354,76.2446289 C515.668224,78.39796 516.796143,81.4057424 516.796143,85.2680664 Z M511.293213,85.4047852 C511.293213,80.0385474 508.923445,77.3554688 504.183838,77.3554688 L501.364014,77.3554688 L501.364014,93.625 L503.636963,93.625 C508.741155,93.625 511.293213,90.8849558 511.293213,85.4047852 Z M544.455811,98 L530.066162,98 L530.066162,73.0146484 L544.455811,73.0146484 L544.455811,77.3554688 L535.364014,77.3554688 L535.364014,82.8413086 L543.823486,82.8413086 L543.823486,87.1821289 L535.364014,87.1821289 L535.364014,93.625 L544.455811,93.625 L544.455811,98 Z M571.33374,98 L564.600342,98 L553.731201,79.0986328 L553.577393,79.0986328 C553.793865,82.4368656 553.9021,84.8180267 553.9021,86.2421875 L553.9021,98 L549.168213,98 L549.168213,73.0146484 L555.850342,73.0146484 L566.702393,91.7280273 L566.822021,91.7280273 C566.651122,88.4809408 566.565674,86.1852281 566.565674,84.8408203 L566.565674,73.0146484 L571.33374,73.0146484 L571.33374,98 Z M586.607666,83.9692383 L596.519775,83.9692383 L596.519775,96.9233398 C594.913322,97.447431 593.400886,97.814859 591.982422,98.0256348 C590.563958,98.2364106 589.114184,98.3417969 587.633057,98.3417969 C583.861879,98.3417969 580.982269,97.2338164 578.994141,95.0178223 C577.006012,92.8018281 576.011963,89.6203007 576.011963,85.4731445 C576.011963,81.4399212 577.165516,78.2954214 579.472656,76.0395508 C581.779797,73.7836801 584.978414,72.6557617 589.068604,72.6557617 C591.632093,72.6557617 594.104399,73.1684519 596.485596,74.1938477 L594.725342,78.4321289 C592.902416,77.520666 591.005462,77.0649414 589.034424,77.0649414 C586.744373,77.0649414 584.910082,77.8339767 583.531494,79.3720703 C582.152907,80.9101639 581.463623,82.9780144 581.463623,85.5756836 C581.463623,88.2872857 582.019037,90.3579844 583.129883,91.7878418 C584.240728,93.2176992 585.855702,93.9326172 587.974854,93.9326172 C589.080002,93.9326172 590.202224,93.818686 591.341553,93.5908203 L591.341553,88.378418 L586.607666,88.378418 L586.607666,83.9692383 Z M617.262451,98 L615.450928,92.0527344 L606.342041,92.0527344 L604.530518,98 L598.82251,98 L607.640869,72.9121094 L614.11792,72.9121094 L622.970459,98 L617.262451,98 Z M614.186279,87.609375 C612.511466,82.2203507 611.568686,79.1726923 611.35791,78.4663086 C611.147134,77.7599249 610.996176,77.2016622 610.905029,76.7915039 C610.529051,78.2498445 609.452401,81.8557655 607.675049,87.609375 L614.186279,87.609375 Z M635.099854,83.9692383 L645.011963,83.9692383 L645.011963,96.9233398 C643.40551,97.447431 641.893073,97.814859 640.474609,98.0256348 C639.056145,98.2364106 637.606371,98.3417969 636.125244,98.3417969 C632.354066,98.3417969 629.474457,97.2338164 627.486328,95.0178223 C625.4982,92.8018281 624.50415,89.6203007 624.50415,85.4731445 C624.50415,81.4399212 625.657703,78.2954214 627.964844,76.0395508 C630.271984,73.7836801 633.470601,72.6557617 637.560791,72.6557617 C640.12428,72.6557617 642.596586,73.1684519 644.977783,74.1938477 L643.217529,78.4321289 C641.394604,77.520666 639.49765,77.0649414 637.526611,77.0649414 C635.236561,77.0649414 633.402269,77.8339767 632.023682,79.3720703 C630.645094,80.9101639 629.955811,82.9780144 629.955811,85.5756836 C629.955811,88.2872857 630.511225,90.3579844 631.62207,91.7878418 C632.732916,93.2176992 634.34789,93.9326172 636.467041,93.9326172 C637.57219,93.9326172 638.694412,93.818686 639.83374,93.5908203 L639.83374,88.378418 L635.099854,88.378418 L635.099854,83.9692383 Z M664.848877,98 L650.459229,98 L650.459229,73.0146484 L664.848877,73.0146484 L664.848877,77.3554688 L655.75708,77.3554688 L655.75708,82.8413086 L664.216553,82.8413086 L664.216553,87.1821289 L655.75708,87.1821289 L655.75708,93.625 L664.848877,93.625 L664.848877,98 Z M688.765869,77.0649414 C686.772044,77.0649414 685.228277,77.8140387 684.134521,79.3122559 C683.040766,80.810473 682.493896,82.8982614 682.493896,85.5756836 C682.493896,91.1470005 684.584533,93.9326172 688.765869,93.9326172 C690.520435,93.9326172 692.645251,93.4939823 695.140381,92.6166992 L695.140381,97.0600586 C693.089589,97.9145551 690.799573,98.3417969 688.270264,98.3417969 C684.635805,98.3417969 681.855885,97.239513 679.93042,95.0349121 C678.004955,92.8303112 677.042236,89.6658735 677.042236,85.5415039 C677.042236,82.9438347 677.515051,80.6680599 678.460693,78.7141113 C679.406336,76.7601628 680.764965,75.2619681 682.536621,74.2194824 C684.308277,73.1769967 686.384672,72.6557617 688.765869,72.6557617 C691.192639,72.6557617 693.630766,73.2425072 696.080322,74.4160156 L694.371338,78.7226562 C693.437088,78.2783181 692.497156,77.8909522 691.551514,77.5605469 C690.605871,77.2301416 689.677332,77.0649414 688.765869,77.0649414 Z M722.633545,85.4731445 C722.633545,89.6089074 721.608165,92.7875865 719.557373,95.0092773 C717.506582,97.2309681 714.567158,98.3417969 710.739014,98.3417969 C706.91087,98.3417969 703.971446,97.2309681 701.920654,95.0092773 C699.869863,92.7875865 698.844482,89.5975143 698.844482,85.4389648 C698.844482,81.2804154 699.872711,78.1045845 701.929199,75.911377 C703.985687,73.7181694 706.933656,72.621582 710.773193,72.621582 C714.612731,72.621582 717.549306,73.7267142 719.583008,75.9370117 C721.616709,78.1473092 722.633545,81.3259884 722.633545,85.4731445 Z M704.398682,85.4731445 C704.398682,88.2644996 704.928461,90.3665294 705.988037,91.7792969 C707.047613,93.1920644 708.631256,93.8984375 710.739014,93.8984375 C714.965923,93.8984375 717.079346,91.0900346 717.079346,85.4731445 C717.079346,79.8448612 714.977316,77.0307617 710.773193,77.0307617 C708.665435,77.0307617 707.076096,77.7399831 706.005127,79.1584473 C704.934158,80.5769114 704.398682,82.6817894 704.398682,85.4731445 Z M749.477295,98 L742.743896,98 L731.874756,79.0986328 L731.720947,79.0986328 C731.93742,82.4368656 732.045654,84.8180267 732.045654,86.2421875 L732.045654,98 L727.311768,98 L727.311768,73.0146484 L733.993896,73.0146484 L744.845947,91.7280273 L744.965576,91.7280273 C744.794677,88.4809408 744.709229,86.1852281 744.709229,84.8408203 L744.709229,73.0146484 L749.477295,73.0146484 L749.477295,98 Z M764.905029,98 L759.607178,98 L759.607178,77.4238281 L752.82251,77.4238281 L752.82251,73.0146484 L771.689697,73.0146484 L771.689697,77.4238281 L764.905029,77.4238281 L764.905029,98 Z M780.332764,84.105957 L782.041748,84.105957 C783.716561,84.105957 784.952714,83.8268257 785.750244,83.2685547 C786.547774,82.7102837 786.946533,81.8330138 786.946533,80.6367188 C786.946533,79.451817 786.539229,78.6087265 785.724609,78.1074219 C784.909989,77.6061173 783.648202,77.3554688 781.939209,77.3554688 L780.332764,77.3554688 L780.332764,84.105957 Z M780.332764,88.4125977 L780.332764,98 L775.034912,98 L775.034912,73.0146484 L782.315186,73.0146484 C785.710385,73.0146484 788.222567,73.6327249 789.851807,74.8688965 C791.481047,76.105068 792.295654,77.9820838 792.295654,80.5 C792.295654,81.9697339 791.891199,83.2770939 791.082275,84.4221191 C790.273352,85.5671444 789.128344,86.4643522 787.647217,87.1137695 C791.407001,92.7306596 793.856521,96.3593668 794.99585,98 L789.116943,98 L783.152588,88.4125977 L780.332764,88.4125977 Z M820.318604,85.4731445 C820.318604,89.6089074 819.293223,92.7875865 817.242432,95.0092773 C815.19164,97.2309681 812.252216,98.3417969 808.424072,98.3417969 C804.595928,98.3417969 801.656504,97.2309681 799.605713,95.0092773 C797.554921,92.7875865 796.529541,89.5975143 796.529541,85.4389648 C796.529541,81.2804154 797.55777,78.1045845 799.614258,75.911377 C801.670746,73.7181694 804.618715,72.621582 808.458252,72.621582 C812.297789,72.621582 815.234365,73.7267142 817.268066,75.9370117 C819.301768,78.1473092 820.318604,81.3259884 820.318604,85.4731445 Z M802.08374,85.4731445 C802.08374,88.2644996 802.61352,90.3665294 803.673096,91.7792969 C804.732671,93.1920644 806.316314,93.8984375 808.424072,93.8984375 C812.650981,93.8984375 814.764404,91.0900346 814.764404,85.4731445 C814.764404,79.8448612 812.662375,77.0307617 808.458252,77.0307617 C806.350494,77.0307617 804.761154,77.7399831 803.690186,79.1584473 C802.619217,80.5769114 802.08374,82.6817894 802.08374,85.4731445 Z M824.996826,98 L824.996826,73.0146484 L830.294678,73.0146484 L830.294678,93.625 L840.428955,93.625 L840.428955,98 L824.996826,98 Z M859.018311,91.0615234 C859.018311,93.3173941 858.206551,95.0947201 856.583008,96.3935547 C854.959465,97.6923893 852.700779,98.3417969 849.806885,98.3417969 C847.140856,98.3417969 844.782481,97.8404998 842.731689,96.8378906 L842.731689,91.9160156 C844.417896,92.6679725 845.844883,93.1977524 847.012695,93.5053711 C848.180507,93.8129898 849.248612,93.9667969 850.217041,93.9667969 C851.379156,93.9667969 852.270667,93.7446311 852.891602,93.300293 C853.512536,92.8559548 853.822998,92.1951541 853.822998,91.3178711 C853.822998,90.8279598 853.686281,90.3921731 853.412842,90.010498 C853.139403,89.628823 852.737796,89.261395 852.208008,88.9082031 C851.67822,88.5550113 850.598722,87.9910521 848.969482,87.2163086 C847.442782,86.4985316 846.297774,85.8092481 845.534424,85.1484375 C844.771074,84.4876269 844.161542,83.7185916 843.705811,82.8413086 C843.250079,81.9640256 843.022217,80.9386452 843.022217,79.7651367 C843.022217,77.5548392 843.771314,75.8173891 845.269531,74.5527344 C846.767748,73.2880796 848.838447,72.6557617 851.481689,72.6557617 C852.780524,72.6557617 854.019525,72.8095688 855.19873,73.1171875 C856.377936,73.4248062 857.61124,73.8577446 858.898682,74.4160156 L857.189697,78.534668 C855.856683,77.9877902 854.754399,77.6061209 853.882812,77.3896484 C853.011226,77.173176 852.153894,77.0649414 851.310791,77.0649414 C850.308182,77.0649414 849.539147,77.2985003 849.003662,77.765625 C848.468178,78.2327497 848.200439,78.8422814 848.200439,79.5942383 C848.200439,80.061363 848.308674,80.4686669 848.525146,80.8161621 C848.741619,81.1636573 849.086261,81.4997542 849.559082,81.8244629 C850.031903,82.1491715 851.151277,82.7330687 852.917236,83.5761719 C855.25286,84.6927139 856.853593,85.8120875 857.719482,86.9343262 C858.585372,88.0565649 859.018311,89.4322835 859.018311,91.0615234 Z" id="LASERALIGNMENTANDENGAGECONTROLS" fill="#000000" fill-rule="nonzero"></path>
        <rect id="Rectangle" stroke="#979797" fill="#D8D8D8" x="2099.5" y="872.5" width="489" height="419" rx="10"></rect>
        <rect id="Rectangle" stroke="#979797" fill="#E1E1E1" x="2129.5" y="1022.5" width="429" height="239" rx="10"></rect>
        <g id="bottom-right" opacity="0.8" transform="translate(2099.000000, 357.000000)">
            <path d="M10,0.5 C4.75329488,0.5 0.5,4.75329488 0.5,10 L0.5,259.332014 C0.5,264.578719 4.75329488,268.832014 10,268.832014 L480,268.832014 C485.246705,268.832014 489.5,264.578719 489.5,259.332014 L489.5,10 C489.5,4.75329488 485.246705,0.5 480,0.5 L10,0.5 Z" id="side-area" stroke="#979797" fill="url(#linearGradient-8)" fill-rule="nonzero"></path>
            <g id="Rectangle">
                <use fill="black" fill-opacity="1" filter="url(#filter-10)" xlink:href="#path-9"></use>
                <use stroke="#EAE6E4" stroke-width="1" xlink:href="#path-9"></use>
            </g>
        </g>
    </g>
</svg>