<?xml version="1.0" encoding="UTF-8" standalone="no"?>
<!DOCTYPE svg PUBLIC "-//W3C//DTD SVG 1.1//EN" "http://www.w3.org/Graphics/SVG/1.1/DTD/svg11.dtd">
<svg width="100%" height="100%" viewBox="0 0 2653 120" version="1.1" xmlns="http://www.w3.org/2000/svg" xmlns:xlink="http://www.w3.org/1999/xlink" xml:space="preserve" xmlns:serif="http://www.serif.com/" style="fill-rule:evenodd;clip-rule:evenodd;stroke-linejoin:round;stroke-miterlimit:2;">
    <g id="top_bar">
        <g id="mainWindow" transform="matrix(1,0,0,1,-2,0)">
            <rect id="path-5" x="2" y="0" width="2653" height="120"/>
            <rect id="path-51" serif:id="path-5" x="0" y="0" width="2657" height="120" style="fill:url(#_Linear1);"/>
        </g>
        <g transform="matrix(1,0,0,1,-20,41)">
            <g id="Group">
                <path id="VIRTUAL-INSTRUMENT" d="M215.945,2.477L226.305,2.477L215.078,35.693L204.18,35.693L193,2.477L203.406,2.477L208.07,19.312C209.039,23.053 209.57,25.658 209.664,27.128C209.773,26.067 209.992,24.742 210.32,23.152C210.648,21.561 210.937,20.312 211.188,19.403L215.945,2.477ZM230.008,35.693L230.008,2.477L239.313,2.477L239.313,35.693L230.008,35.693ZM255.977,23.606L255.977,35.693L246.719,35.693L246.719,2.477L257.945,2.477C267.258,2.477 271.914,5.749 271.914,12.292C271.914,16.139 269.977,19.115 266.102,21.221L276.086,35.693L265.586,35.693L258.32,23.606L255.977,23.606ZM255.977,16.858L257.711,16.858C260.945,16.858 262.563,15.473 262.563,12.701C262.563,10.414 260.977,9.27 257.805,9.27L255.977,9.27L255.977,16.858ZM294.32,35.693L285.063,35.693L285.063,9.815L276.695,9.815L276.695,2.477L302.664,2.477L302.664,9.815L294.32,9.815L294.32,35.693ZM336.695,2.477L336.695,22.47C336.695,26.817 335.426,30.183 332.887,32.569C330.348,34.954 326.688,36.147 321.906,36.147C317.234,36.147 313.645,34.988 311.137,32.671C308.629,30.354 307.375,27.022 307.375,22.675L307.375,2.477L316.68,2.477L316.68,21.97C316.68,24.318 317.133,26.022 318.039,27.082C318.945,28.142 320.281,28.672 322.047,28.672C323.938,28.672 325.309,28.146 326.16,27.093C327.012,26.041 327.438,24.318 327.438,21.925L327.438,2.477L336.695,2.477ZM364.445,35.693L362.758,29.468L351.625,29.468L349.891,35.693L339.719,35.693L350.898,2.341L363.25,2.341L374.57,35.693L364.445,35.693ZM360.836,22.107L359.359,16.654C359.016,15.442 358.598,13.875 358.105,11.951C357.613,10.027 357.289,8.649 357.133,7.816C356.992,8.589 356.715,9.861 356.301,11.633C355.887,13.405 354.969,16.896 353.547,22.107L360.836,22.107ZM378.273,35.693L378.273,2.477L387.531,2.477L387.531,28.445L400.727,28.445L400.727,35.693L378.273,35.693ZM418.68,35.693L418.68,2.477L427.984,2.477L427.984,35.693L418.68,35.693ZM468.016,35.693L455.875,35.693L443.359,12.292L443.148,12.292C443.445,15.972 443.594,18.782 443.594,20.721L443.594,35.693L435.391,35.693L435.391,2.477L447.484,2.477L459.953,25.56L460.094,25.56C459.875,22.213 459.766,19.524 459.766,17.495L459.766,2.477L468.016,2.477L468.016,35.693ZM497.828,25.605C497.828,27.665 497.289,29.494 496.211,31.092C495.133,32.69 493.578,33.932 491.547,34.818C489.516,35.704 487.133,36.147 484.398,36.147C482.117,36.147 480.203,35.992 478.656,35.681C477.109,35.371 475.5,34.829 473.828,34.057L473.828,26.06C475.594,26.938 477.43,27.624 479.336,28.116C481.242,28.608 482.992,28.854 484.586,28.854C485.961,28.854 486.969,28.623 487.609,28.161C488.25,27.699 488.57,27.105 488.57,26.378C488.57,25.923 488.441,25.526 488.184,25.185C487.926,24.844 487.512,24.5 486.941,24.151C486.371,23.803 484.852,23.091 482.383,22.016C480.148,21.031 478.473,20.077 477.355,19.153C476.238,18.229 475.41,17.169 474.871,15.972C474.332,14.776 474.063,13.36 474.063,11.724C474.063,8.664 475.211,6.279 477.508,4.567C479.805,2.856 482.961,2 486.977,2C490.523,2 494.141,2.795 497.828,4.386L494.992,11.315C491.789,9.891 489.023,9.179 486.695,9.179C485.492,9.179 484.617,9.384 484.07,9.793C483.523,10.202 483.25,10.709 483.25,11.315C483.25,11.966 483.598,12.549 484.293,13.064C484.988,13.579 486.875,14.518 489.953,15.882C492.906,17.169 494.957,18.551 496.105,20.028C497.254,21.505 497.828,23.364 497.828,25.605ZM518.242,35.693L508.984,35.693L508.984,9.815L500.617,9.815L500.617,2.477L526.586,2.477L526.586,9.815L518.242,9.815L518.242,35.693ZM540.742,23.606L540.742,35.693L531.484,35.693L531.484,2.477L542.711,2.477C552.023,2.477 556.68,5.749 556.68,12.292C556.68,16.139 554.742,19.115 550.867,21.221L560.852,35.693L550.352,35.693L543.086,23.606L540.742,23.606ZM540.742,16.858L542.477,16.858C545.711,16.858 547.328,15.473 547.328,12.701C547.328,10.414 545.742,9.27 542.57,9.27L540.742,9.27L540.742,16.858ZM593.102,2.477L593.102,22.47C593.102,26.817 591.832,30.183 589.293,32.569C586.754,34.954 583.094,36.147 578.313,36.147C573.641,36.147 570.051,34.988 567.543,32.671C565.035,30.354 563.781,27.022 563.781,22.675L563.781,2.477L573.086,2.477L573.086,21.97C573.086,24.318 573.539,26.022 574.445,27.082C575.352,28.142 576.687,28.672 578.453,28.672C580.344,28.672 581.715,28.146 582.566,27.093C583.418,26.041 583.844,24.318 583.844,21.925L583.844,2.477L593.102,2.477ZM615.227,35.693L608.219,11.769L608.008,11.769C608.336,15.844 608.5,19.009 608.5,21.266L608.5,35.693L600.297,35.693L600.297,2.477L612.625,2.477L619.773,26.06L619.961,26.06L626.969,2.477L639.32,2.477L639.32,35.693L630.813,35.693L630.813,21.13C630.813,20.372 630.824,19.532 630.848,18.608C630.871,17.684 630.977,15.42 631.164,11.815L630.953,11.815L624.039,35.693L615.227,35.693ZM667.047,35.693L646.703,35.693L646.703,2.477L667.047,2.477L667.047,9.679L655.961,9.679L655.961,14.905L666.227,14.905L666.227,22.107L655.961,22.107L655.961,28.377L667.047,28.377L667.047,35.693ZM705.672,35.693L693.531,35.693L681.016,12.292L680.805,12.292C681.102,15.972 681.25,18.782 681.25,20.721L681.25,35.693L673.047,35.693L673.047,2.477L685.141,2.477L697.609,25.56L697.75,25.56C697.531,22.213 697.422,19.524 697.422,17.495L697.422,2.477L705.672,2.477L705.672,35.693ZM728.195,35.693L718.938,35.693L718.938,9.815L710.57,9.815L710.57,2.477L736.539,2.477L736.539,9.815L728.195,9.815L728.195,35.693Z" style="fill-rule:nonzero;"/>
            </g>
        </g>
    </g>
    <defs>
        <linearGradient id="_Linear1" x1="0" y1="0" x2="1" y2="0" gradientUnits="userSpaceOnUse" gradientTransform="matrix(6.653e-15,108.652,-108.652,6.653e-15,1361.83,11.3483)"><stop offset="0" style="stop-color:rgb(245,245,245);stop-opacity:1"/><stop offset="0.73" style="stop-color:rgb(239,235,233);stop-opacity:1"/><stop offset="0.94" style="stop-color:rgb(232,230,228);stop-opacity:1"/><stop offset="1" style="stop-color:rgb(236,234,232);stop-opacity:1"/></linearGradient>
    </defs>
</svg>
