<?xml version="1.0" encoding="utf-8"?>
<svg width="56px" height="56px" xmlns="http://www.w3.org/2000/svg">
  <defs>
    <linearGradient id="PSgrad_0" x1="0" x2="0" y1="1" y2="0">
      <stop offset="0" stop-color="rgb(0,0,0)" stop-opacity="0.17"/>
      <stop offset="1" stop-color="rgb(255,255,255)" stop-opacity="0.17"/>
    </linearGradient>
    <filter x="-31.6%" y="-27.6%" width="163.2%" height="155.2%" filterUnits="objectBoundingBox" id="filter-2">
      <feGaussianBlur stdDeviation="2" in="SourceGraphic"/>
    </filter>
    <linearGradient x1="55.2719436%" y1="158.808377%" x2="44.4180216%" y2="-20.0770832%" id="linearGradient-3">
      <stop stop-color="#D1D3D4" offset="0"/>
      <stop stop-color="#FFFFFF" offset="1"/>
    </linearGradient>
    <linearGradient x1="49.9460763%" y1="178.360012%" x2="49.9460763%" y2="72.0695247%" id="linearGradient-4">
      <stop stop-color="#D1D3D4" offset="0"/>
      <stop stop-color="#FFFFFF" offset="1"/>
    </linearGradient>
  </defs>
  <path fill-rule="evenodd" fill="rgb(225, 224, 224)" d="M 28.002 0 C 43.467 0 56.005 12.536 56.005 28 C 56.005 43.464 43.467 56 28.002 56 C 12.536 56 0 43.464 0 28 C 0 12.536 12.536 0 28.002 0 Z"/>
  <path fill="url(#PSgrad_0)" d="M 28.002 0 C 43.467 0 56.005 12.536 56.005 28 C 56.005 43.464 43.467 56 28.002 56 C 12.536 56 0 43.464 0 28 C 0 12.536 12.536 0 28.002 0 Z"/>
  <path fill-rule="evenodd" fill-opacity="0.122" fill="rgb(255, 255, 255)" d="M 27.752 1.4 C 42.038 1.4 46.763 8.794 53.785 16.206 C 54.46 19.961 53.634 28.671 52.408 31.758 C 50.578 36.358 44.416 46.878 28.692 47.59 C 5.099 47.367 2.402 30.507 2.01 25.82 C 1.619 21.135 1.255 20.399 3 14.937 C 9.534 7.512 13.597 1.4 27.752 1.4 Z"/>
  <path d="M 40.877 30.932 L 32.702 35.704 C 29.971 37.26 27.271 38.862 24.559 40.463 C 23.257 41.219 22.615 40.188 22.59 39.406 L 22.59 29.83 C 22.59 26.678 22.59 23.527 22.59 20.375 C 22.59 18.857 23.796 18.813 24.495 19.178 L 32.702 23.95 C 35.408 25.525 38.12 27.095 40.82 28.683 C 42.103 29.446 41.538 30.515 40.877 30.932 Z" id="Path" fill-opacity="0.5" fill="#030303" filter="url(#filter-2)"/>
  <g id="play" transform="matrix(1, 0, 0, 1, 22.544235, 17.717188)">
    <path d="M16.3596667,10.9257143 L9.06666667,15.1828571 C6.63,16.5714286 4.22166667,18 1.802,19.4285714 C0.640333333,20.1028571 0.068,19.1828571 0.0453333333,18.4857143 L0.0453333333,9.94285714 C0.0453333333,7.13142857 0.0453333333,4.32 0.0453333333,1.50857143 C0.0453333333,0.154285714 1.122,0.114285714 1.74533333,0.44 L9.06666667,4.69714286 C11.4806667,6.10285714 13.9003333,7.50285714 16.3086667,8.92 C17.4533333,9.6 16.949,10.5542857 16.3596667,10.9257143 Z" id="Path" fill="url(#linearGradient-3)"/>
    <path d="M1.70530257e-13,10.1466125 L1.70530257e-13,9.67232682 C1.70530257e-13,6.86089825 1.70530257e-13,4.04946968 1.70530257e-13,1.23232682 C1.70530257e-13,-0.11624461 1.07666667,-0.15624461 1.7,0.169469676 L9.02133333,4.42661253 C11.4353333,5.83232682 13.855,7.23232682 16.2633333,8.64946968 C16.83,8.98089825 17,9.38089825 16.9546667,9.74089825 C13.7756667,9.12375539 9.84866667,9.74089825 5.46266667,10.2323268 C3.64728166,10.4708818 1.80714588,10.4420084 1.70530257e-13,10.1466125 Z" id="Path" fill="url(#linearGradient-4)"/>
  </g>
</svg>