<?xml version="1.0" encoding="utf-8"?>
<svg width="56.6px" height="56.6px" xmlns="http://www.w3.org/2000/svg" xmlns:bx="https://boxy-svg.com">
  <defs>
    <linearGradient id="PSgrad_0" x1="0" x2="0" y1="1" y2="0">
      <stop offset="0" stop-color="rgb(0,0,0)" stop-opacity="0.17"/>
      <stop offset="1" stop-color="rgb(255,255,255)" stop-opacity="0.17"/>
    </linearGradient>
    <radialGradient id="gradient-2" gradientUnits="userSpaceOnUse" cx="300" cy="334" r="28.409" gradientTransform="matrix(0.094695, -1.101923, 1.110311, 0.095413, -99.252016, 632.708089)" spreadMethod="pad">
      <stop offset="0.837" style="stop-color: rgba(225, 224, 224, 0);"/>
      <stop offset="0.904" style="stop-color: rgba(0, 0, 0, 0.843);"/>
    </radialGradient>
    <filter x="-31.6%" y="-27.6%" width="163.2%" height="155.2%" filterUnits="objectBoundingBox" id="filter-2">
      <feGaussianBlur stdDeviation="2" in="SourceGraphic"/>
    </filter>
    <linearGradient x1="55.2719436%" y1="158.808377%" x2="44.4180216%" y2="-20.0770832%" id="linearGradient-3">
      <stop stop-color="#D1D3D4" offset="0"/>
      <stop stop-color="#FFFFFF" offset="1"/>
    </linearGradient>
    <linearGradient x1="49.9460763%" y1="178.360012%" x2="49.9460763%" y2="72.0695247%" id="linearGradient-4">
      <stop stop-color="#D1D3D4" offset="0"/>
      <stop stop-color="#FFFFFF" offset="1"/>
    </linearGradient>
  </defs>
  <g>
    <path fill-rule="evenodd" fill="rgb(225, 224, 224)" d="M 28.299 0 C 43.929 0 56.6 12.669 56.6 28.297 C 56.6 43.926 43.929 56.595 28.299 56.595 C 12.67 56.595 0 43.926 0 28.297 C 0 12.669 12.67 0 28.299 0 Z" style="pointer-events: none;"/>
    <path fill="url(#PSgrad_0)" d="M 28.299 0 C 43.929 0 56.6 12.669 56.6 28.297 C 56.6 43.926 43.929 56.595 28.299 56.595 C 12.67 56.595 0 43.926 0 28.297 C 0 12.669 12.67 0 28.299 0 Z" style="pointer-events: none;"/>
    <path fill="url(#PSgrad_0)" d="M 28.299 1.415 C 43.148 1.415 55.185 13.45 55.185 28.297 C 55.185 43.145 43.148 55.18 28.299 55.18 C 13.452 55.18 1.414 43.145 1.414 28.297 C 1.414 13.45 13.452 1.415 28.299 1.415 Z" style="pointer-events: none;"/>
    <path fill-rule="evenodd" fill-opacity="0.122" fill="rgb(255, 255, 255)" d="M 28.047 1.415 C 42.484 1.415 54.263 12.793 54.904 27.071 C 54.922 27.478 54.931 28.297 54.931 28.297 C 54.931 28.297 41.458 24.393 27.899 24.393 C 14.575 24.393 1.161 28.297 1.161 28.297 C 1.161 28.297 1.177 27.213 1.209 26.677 C 2.047 12.585 13.742 1.415 28.047 1.415 Z" style="pointer-events: none;"/>
    <path transform="matrix(-0.682025, 0.731329, -0.731328, -0.682025, 477.211029, 36.729378)" d="M 300 334 m -28.155 0 a 28.155 28.155 0 1 0 56.31 0 a 28.155 28.155 0 1 0 -56.31 0 Z M 300 334 m -26.63 0 a 26.63 26.63 0 0 1 53.26 0 a 26.63 26.63 0 0 1 -53.26 0 Z" style="fill: url(#gradient-2);" bx:shape="ring 300 334 26.63 26.63 28.155 28.155 1@7b269f2e"/>
  </g>
  <path d="M 41.176 31.295 L 33.001 36.067 C 30.27 37.623 27.57 39.225 24.858 40.826 C 23.556 41.582 22.914 40.551 22.889 39.769 L 22.889 30.193 C 22.889 27.041 22.889 23.89 22.889 20.738 C 22.889 19.22 24.095 19.176 24.794 19.541 L 33.001 24.313 C 35.707 25.888 38.419 27.458 41.119 29.046 C 42.402 29.809 41.837 30.878 41.176 31.295 Z" id="Path" fill-opacity="0.5" fill="#030303" filter="url(#filter-2)"/>
  <g id="play" transform="matrix(1, 0, 0, 1, 22.843334, 18.079567)">
    <path d="M16.3596667,10.9257143 L9.06666667,15.1828571 C6.63,16.5714286 4.22166667,18 1.802,19.4285714 C0.640333333,20.1028571 0.068,19.1828571 0.0453333333,18.4857143 L0.0453333333,9.94285714 C0.0453333333,7.13142857 0.0453333333,4.32 0.0453333333,1.50857143 C0.0453333333,0.154285714 1.122,0.114285714 1.74533333,0.44 L9.06666667,4.69714286 C11.4806667,6.10285714 13.9003333,7.50285714 16.3086667,8.92 C17.4533333,9.6 16.949,10.5542857 16.3596667,10.9257143 Z" id="Path" fill="url(#linearGradient-3)"/>
    <path d="M1.70530257e-13,10.1466125 L1.70530257e-13,9.67232682 C1.70530257e-13,6.86089825 1.70530257e-13,4.04946968 1.70530257e-13,1.23232682 C1.70530257e-13,-0.11624461 1.07666667,-0.15624461 1.7,0.169469676 L9.02133333,4.42661253 C11.4353333,5.83232682 13.855,7.23232682 16.2633333,8.64946968 C16.83,8.98089825 17,9.38089825 16.9546667,9.74089825 C13.7756667,9.12375539 9.84866667,9.74089825 5.46266667,10.2323268 C3.64728166,10.4708818 1.80714588,10.4420084 1.70530257e-13,10.1466125 Z" id="Path" fill="url(#linearGradient-4)"/>
  </g>
</svg>