<?xml version="1.0" encoding="UTF-8"?>
<svg viewBox="0 0 610 1540" version="1.1" xmlns="http://www.w3.org/2000/svg" xmlns:xlink="http://www.w3.org/1999/xlink">
    <!-- Generator: Sketch 53.2 (72643) - https://sketchapp.com -->
    <title>controls_right</title>
    <desc>Created with Sketch.</desc>
    <defs>
        <linearGradient x1="0%" y1="42.3718374%" x2="100%" y2="42.3718363%" id="linearGradient-1">
            <stop stop-color="#BFBAB8" offset="0%"></stop>
            <stop stop-color="#E6E6E5" offset="2.60901797%"></stop>
            <stop stop-color="#E6E6E5" offset="52.2999748%"></stop>
            <stop stop-color="#E6E6E5" offset="97.6166816%"></stop>
            <stop stop-color="#BFBAB8" offset="100%"></stop>
        </linearGradient>
        <linearGradient x1="0%" y1="50.0003994%" x2="100%" y2="50.0003994%" id="linearGradient-2">
            <stop stop-color="#3E3D3C" offset="0%"></stop>
            <stop stop-color="#E6E6E5" offset="49.6610351%"></stop>
            <stop stop-color="#E6E6E5" offset="100%"></stop>
        </linearGradient>
        <path d="M10,0 L600,0 C605.522847,-1.01453063e-15 610,4.4771525 610,10 L610,1530 C610,1535.52285 605.522847,1540 600,1540 L10,1540 C4.4771525,1540 6.76353751e-16,1535.52285 0,1530 L0,10 C-6.76353751e-16,4.4771525 4.4771525,1.01453063e-15 10,0 Z" id="path-3"></path>
        <path d="M115.25293,36 L115.25293,10.3007812 L120.702148,10.3007812 L120.702148,36 L115.25293,36 Z M150.49707,23.1152344 C150.49707,27.3691619 149.442393,30.6386604 147.333008,32.9238281 C145.223622,35.2089958 142.200215,36.3515625 138.262695,36.3515625 C134.325176,36.3515625 131.301768,35.2089958 129.192383,32.9238281 C127.082997,30.6386604 126.02832,27.3574433 126.02832,23.0800781 C126.02832,18.802713 127.085927,15.5361441 129.201172,13.2802734 C131.316417,11.0244028 134.348613,9.89648438 138.297852,9.89648438 C142.24709,9.89648438 145.267568,11.0331918 147.359375,13.3066406 C149.451182,15.5800895 150.49707,18.849588 150.49707,23.1152344 Z M131.741211,23.1152344 C131.741211,25.9863425 132.286127,28.1484302 133.375977,29.6015625 C134.465826,31.0546948 136.094716,31.78125 138.262695,31.78125 C142.610373,31.78125 144.78418,28.892607 144.78418,23.1152344 C144.78418,17.3261429 142.622092,14.4316406 138.297852,14.4316406 C136.129872,14.4316406 134.495123,15.1611255 133.393555,16.6201172 C132.291987,18.0791089 131.741211,20.2441263 131.741211,23.1152344 Z M178.62207,36 L171.696289,36 L160.516602,16.5585938 L160.358398,16.5585938 C160.581056,19.9922047 160.692383,22.4413989 160.692383,23.90625 L160.692383,36 L155.823242,36 L155.823242,10.3007812 L162.696289,10.3007812 L173.858398,29.5488281 L173.981445,29.5488281 C173.805663,26.2089677 173.717773,23.8476632 173.717773,22.4648438 L173.717773,10.3007812 L178.62207,10.3007812 L178.62207,36 Z M194.442383,10.3007812 L202.44043,10.3007812 C206.084979,10.3007812 208.730461,10.8193308 210.376953,11.8564453 C212.023446,12.8935599 212.84668,14.5429574 212.84668,16.8046875 C212.84668,18.3398514 212.486332,19.5996045 211.765625,20.5839844 C211.044918,21.5683643 210.08692,22.1601553 208.891602,22.359375 L208.891602,22.5351562 C210.520516,22.8984393 211.695309,23.57812 212.416016,24.5742188 C213.136722,25.5703175 213.49707,26.894523 213.49707,28.546875 C213.49707,30.8906367 212.650399,32.7187434 210.957031,34.03125 C209.263663,35.3437566 206.963882,36 204.057617,36 L194.442383,36 L194.442383,10.3007812 Z M199.891602,20.4785156 L203.055664,20.4785156 C204.532234,20.4785156 205.601559,20.2500023 206.263672,19.7929688 C206.925785,19.3359352 207.256836,18.5800834 207.256836,17.5253906 C207.256836,16.5410107 206.896488,15.8349631 206.175781,15.4072266 C205.455075,14.97949 204.315437,14.765625 202.756836,14.765625 L199.891602,14.765625 L199.891602,20.4785156 Z M199.891602,24.8027344 L199.891602,31.5 L203.442383,31.5 C204.94239,31.5 206.049801,31.2128935 206.764648,30.6386719 C207.479496,30.0644503 207.836914,29.1855528 207.836914,28.0019531 C207.836914,25.86913 206.313492,24.8027344 203.266602,24.8027344 L199.891602,24.8027344 Z M233.430664,36 L218.629883,36 L218.629883,10.3007812 L233.430664,10.3007812 L233.430664,14.765625 L224.079102,14.765625 L224.079102,20.4082031 L232.780273,20.4082031 L232.780273,24.8730469 L224.079102,24.8730469 L224.079102,31.5 L233.430664,31.5 L233.430664,36 Z M254.524414,36 L252.661133,29.8828125 L243.291992,29.8828125 L241.428711,36 L235.557617,36 L244.62793,10.1953125 L251.290039,10.1953125 L260.395508,36 L254.524414,36 Z M251.360352,25.3125 C249.637687,19.7695035 248.66797,16.6347693 248.451172,15.9082031 C248.234374,15.181637 248.079102,14.607424 247.985352,14.1855469 C247.598631,15.6855544 246.49122,19.3945017 244.663086,25.3125 L251.360352,25.3125 Z M274.510742,36 L268.323242,15.8378906 L268.165039,15.8378906 C268.387696,19.9394736 268.499023,22.6757744 268.499023,24.046875 L268.499023,36 L263.629883,36 L263.629883,10.3007812 L271.047852,10.3007812 L277.129883,29.953125 L277.235352,29.953125 L283.686523,10.3007812 L291.104492,10.3007812 L291.104492,36 L286.024414,36 L286.024414,23.8359375 C286.024414,23.2617159 286.033203,22.5996131 286.050781,21.8496094 C286.068359,21.0996056 286.14746,19.107438 286.288086,15.8730469 L286.129883,15.8730469 L279.50293,36 L274.510742,36 Z M317.84082,14.4667969 C315.790029,14.4667969 314.202154,15.237297 313.077148,16.7783203 C311.952143,18.3193436 311.389648,20.4667831 311.389648,23.2207031 C311.389648,28.9512005 313.540018,31.8164062 317.84082,31.8164062 C319.645517,31.8164062 321.831042,31.3652389 324.397461,30.4628906 L324.397461,35.0332031 C322.288075,35.9121138 319.93263,36.3515625 317.331055,36.3515625 C313.592755,36.3515625 310.733408,35.2177848 308.75293,32.9501953 C306.772451,30.6826058 305.782227,27.4277556 305.782227,23.1855469 C305.782227,20.5136585 306.26855,18.1728616 307.241211,16.1630859 C308.213872,14.1533103 309.611319,12.61231 311.433594,11.5400391 C313.255868,10.4677681 315.391589,9.93164062 317.84082,9.93164062 C320.336927,9.93164062 322.844714,10.5351502 325.364258,11.7421875 L323.606445,16.171875 C322.645503,15.7148415 321.678716,15.3164079 320.706055,14.9765625 C319.733394,14.6367171 318.778325,14.4667969 317.84082,14.4667969 Z M353.19043,23.1152344 C353.19043,27.3691619 352.135753,30.6386604 350.026367,32.9238281 C347.916982,35.2089958 344.893574,36.3515625 340.956055,36.3515625 C337.018535,36.3515625 333.995128,35.2089958 331.885742,32.9238281 C329.776357,30.6386604 328.72168,27.3574433 328.72168,23.0800781 C328.72168,18.802713 329.779286,15.5361441 331.894531,13.2802734 C334.009776,11.0244028 337.041972,9.89648438 340.991211,9.89648438 C344.940449,9.89648438 347.960927,11.0331918 350.052734,13.3066406 C352.144542,15.5800895 353.19043,18.849588 353.19043,23.1152344 Z M334.43457,23.1152344 C334.43457,25.9863425 334.979487,28.1484302 336.069336,29.6015625 C337.159185,31.0546948 338.788075,31.78125 340.956055,31.78125 C345.303733,31.78125 347.477539,28.892607 347.477539,23.1152344 C347.477539,17.3261429 345.315451,14.4316406 340.991211,14.4316406 C338.823231,14.4316406 337.188482,15.1611255 336.086914,16.6201172 C334.985346,18.0791089 334.43457,20.2441263 334.43457,23.1152344 Z M381.31543,36 L374.389648,36 L363.209961,16.5585938 L363.051758,16.5585938 C363.274415,19.9922047 363.385742,22.4413989 363.385742,23.90625 L363.385742,36 L358.516602,36 L358.516602,10.3007812 L365.389648,10.3007812 L376.551758,29.5488281 L376.674805,29.5488281 C376.499023,26.2089677 376.411133,23.8476632 376.411133,22.4648438 L376.411133,10.3007812 L381.31543,10.3007812 L381.31543,36 Z M397.698242,36 L392.249023,36 L392.249023,14.8359375 L385.270508,14.8359375 L385.270508,10.3007812 L404.676758,10.3007812 L404.676758,14.8359375 L397.698242,14.8359375 L397.698242,36 Z M414.081055,21.7089844 L415.838867,21.7089844 C417.561532,21.7089844 418.833004,21.4218779 419.65332,20.8476562 C420.473637,20.2734346 420.883789,19.3710999 420.883789,18.140625 C420.883789,16.9218689 420.464848,16.0546901 419.626953,15.5390625 C418.789058,15.0234349 417.49122,14.765625 415.733398,14.765625 L414.081055,14.765625 L414.081055,21.7089844 Z M414.081055,26.1386719 L414.081055,36 L408.631836,36 L408.631836,10.3007812 L416.120117,10.3007812 C419.612322,10.3007812 422.196281,10.9365171 423.87207,12.2080078 C425.54786,13.4794985 426.385742,15.4101433 426.385742,18 C426.385742,19.5117263 425.969731,20.8564394 425.137695,22.0341797 C424.30566,23.21192 423.127937,24.1347623 421.604492,24.8027344 C425.471699,30.580107 427.991205,34.3124916 429.163086,36 L423.116211,36 L416.981445,26.1386719 L414.081055,26.1386719 Z M455.723633,23.1152344 C455.723633,27.3691619 454.668956,30.6386604 452.55957,32.9238281 C450.450185,35.2089958 447.426777,36.3515625 443.489258,36.3515625 C439.551738,36.3515625 436.528331,35.2089958 434.418945,32.9238281 C432.30956,30.6386604 431.254883,27.3574433 431.254883,23.0800781 C431.254883,18.802713 432.312489,15.5361441 434.427734,13.2802734 C436.542979,11.0244028 439.575176,9.89648438 443.524414,9.89648438 C447.473653,9.89648438 450.49413,11.0331918 452.585938,13.3066406 C454.677745,15.5800895 455.723633,18.849588 455.723633,23.1152344 Z M436.967773,23.1152344 C436.967773,25.9863425 437.51269,28.1484302 438.602539,29.6015625 C439.692388,31.0546948 441.321278,31.78125 443.489258,31.78125 C447.836936,31.78125 450.010742,28.892607 450.010742,23.1152344 C450.010742,17.3261429 447.848654,14.4316406 443.524414,14.4316406 C441.356434,14.4316406 439.721685,15.1611255 438.620117,16.6201172 C437.518549,18.0791089 436.967773,20.2441263 436.967773,23.1152344 Z M461.049805,36 L461.049805,10.3007812 L466.499023,10.3007812 L466.499023,31.5 L476.922852,31.5 L476.922852,36 L461.049805,36 Z M496.557617,28.8632812 C496.557617,31.1836054 495.722665,33.0117121 494.052734,34.3476562 C492.382804,35.6836004 490.059585,36.3515625 487.083008,36.3515625 C484.340807,36.3515625 481.91505,35.8359427 479.805664,34.8046875 L479.805664,29.7421875 C481.540048,30.5156289 483.007806,31.0605453 484.208984,31.3769531 C485.410162,31.693361 486.508784,31.8515625 487.504883,31.8515625 C488.700201,31.8515625 489.617184,31.6230492 490.255859,31.1660156 C490.894534,30.7089821 491.213867,30.0293014 491.213867,29.1269531 C491.213867,28.6230444 491.073244,28.1748067 490.791992,27.7822266 C490.510741,27.3896465 490.097659,27.0117206 489.552734,26.6484375 C489.00781,26.2851544 487.897469,25.7050821 486.22168,24.9082031 C484.651359,24.1699182 483.473637,23.4609409 482.688477,22.78125 C481.903316,22.1015591 481.27637,21.3105514 480.807617,20.4082031 C480.338865,19.5058549 480.104492,18.4511779 480.104492,17.2441406 C480.104492,14.9706918 480.874992,13.1836003 482.416016,11.8828125 C483.957039,10.5820247 486.0869,9.93164062 488.805664,9.93164062 C490.141608,9.93164062 491.41601,10.0898422 492.628906,10.40625 C493.841803,10.7226578 495.110345,11.1679659 496.43457,11.7421875 L494.676758,15.9785156 C493.305657,15.4160128 492.171879,15.0234386 491.275391,14.8007812 C490.378902,14.5781239 489.497075,14.4667969 488.629883,14.4667969 C487.598628,14.4667969 486.80762,14.7070288 486.256836,15.1875 C485.706052,15.6679712 485.430664,16.294918 485.430664,17.0683594 C485.430664,17.5488305 485.541991,17.9677717 485.764648,18.3251953 C485.987306,18.682619 486.341794,19.0283186 486.828125,19.3623047 C487.314456,19.6962907 488.465811,20.2968707 490.282227,21.1640625 C492.684582,22.3125057 494.33105,23.4638614 495.22168,24.6181641 C496.112309,25.7724667 496.557617,27.1874916 496.557617,28.8632812 Z" id="path-4"></path>
        <filter x="-0.1%" y="-1.9%" width="100.3%" height="103.8%" filterUnits="objectBoundingBox" id="filter-5">
            <feOffset dx="0" dy="1" in="SourceAlpha" result="shadowOffsetInner1"></feOffset>
            <feComposite in="shadowOffsetInner1" in2="SourceAlpha" operator="arithmetic" k2="-1" k3="1" result="shadowInnerInner1"></feComposite>
            <feColorMatrix values="0 0 0 0 0.638134058   0 0 0 0 0.469462629   0 0 0 0 0.3007912  0 0 0 1 0" type="matrix" in="shadowInnerInner1"></feColorMatrix>
        </filter>
    </defs>
    <g id="Page-1" stroke="none" stroke-width="1" fill="none" fill-rule="evenodd">
        <g id="FIB_UI" transform="translate(-2026.000000, -17.000000)">
            <g id="controls_right" transform="translate(2026.000000, 17.000000)">
                <g id="rectangle-controls-L-Copy">
                    <use fill="url(#linearGradient-1)" xlink:href="#path-3"></use>
                    <use fill-opacity="0.02" fill="url(#linearGradient-2)" style="mix-blend-mode: difference;" xlink:href="#path-3"></use>
                </g>
                <g id="IONBEAMCONTROLS" fill-rule="nonzero">
                    <use fill="#594837" xlink:href="#path-4"></use>
                    <use fill="black" fill-opacity="1" filter="url(#filter-5)" xlink:href="#path-4"></use>
                </g>
            </g>
        </g>
    </g>
</svg>