<?xml version="1.0" encoding="UTF-8"?>
<svg viewBox="0 0 610 1540" version="1.1" xmlns="http://www.w3.org/2000/svg" xmlns:xlink="http://www.w3.org/1999/xlink">
    <!-- Generator: Sketch 53.2 (72643) - https://sketchapp.com -->
    <title>controls_left</title>
    <desc>Created with Sketch.</desc>
    <defs>
        <linearGradient x1="0%" y1="42.3718374%" x2="100%" y2="42.3718363%" id="linearGradient-1">
            <stop stop-color="#BFBAB8" offset="0%"></stop>
            <stop stop-color="#E6E6E5" offset="2.60901797%"></stop>
            <stop stop-color="#E6E6E5" offset="52.2999748%"></stop>
            <stop stop-color="#E6E6E5" offset="97.6166816%"></stop>
            <stop stop-color="#BFBAB8" offset="100%"></stop>
        </linearGradient>
        <linearGradient x1="0%" y1="50.0003994%" x2="100%" y2="50.0003994%" id="linearGradient-2">
            <stop stop-color="#3E3D3C" offset="0%"></stop>
            <stop stop-color="#E6E6E5" offset="49.6610351%"></stop>
            <stop stop-color="#E6E6E5" offset="100%"></stop>
        </linearGradient>
        <path d="M10,0 L600,0 C605.522847,-1.01453063e-15 610,4.4771525 610,10 L610,1530 C610,1535.52285 605.522847,1540 600,1540 L10,1540 C4.4771525,1540 6.76353751e-16,1535.52285 0,1530 L0,10 C-6.76353751e-16,4.4771525 4.4771525,1.01453063e-15 10,0 Z" id="path-3"></path>
        <path d="M138.891602,289.103516 L124.09082,289.103516 L124.09082,263.404297 L138.891602,263.404297 L138.891602,267.869141 L129.540039,267.869141 L129.540039,273.511719 L138.241211,273.511719 L138.241211,277.976562 L129.540039,277.976562 L129.540039,284.603516 L138.891602,284.603516 L138.891602,289.103516 Z M153.604492,263.404297 L161.602539,263.404297 C165.247089,263.404297 167.89257,263.922846 169.539062,264.959961 C171.185555,265.997075 172.008789,267.646473 172.008789,269.908203 C172.008789,271.443367 171.648441,272.70312 170.927734,273.6875 C170.207028,274.67188 169.249029,275.263671 168.053711,275.462891 L168.053711,275.638672 C169.682625,276.001955 170.857418,276.681636 171.578125,277.677734 C172.298832,278.673833 172.65918,279.998039 172.65918,281.650391 C172.65918,283.994152 171.812508,285.822259 170.119141,287.134766 C168.425773,288.447272 166.125991,289.103516 163.219727,289.103516 L153.604492,289.103516 L153.604492,263.404297 Z M159.053711,273.582031 L162.217773,273.582031 C163.694343,273.582031 164.763669,273.353518 165.425781,272.896484 C166.087894,272.439451 166.418945,271.683599 166.418945,270.628906 C166.418945,269.644526 166.058597,268.938479 165.337891,268.510742 C164.617184,268.083006 163.477547,267.869141 161.918945,267.869141 L159.053711,267.869141 L159.053711,273.582031 Z M159.053711,277.90625 L159.053711,284.603516 L162.604492,284.603516 C164.1045,284.603516 165.21191,284.316409 165.926758,283.742188 C166.641605,283.167966 166.999023,282.289068 166.999023,281.105469 C166.999023,278.972646 165.475601,277.90625 162.428711,277.90625 L159.053711,277.90625 Z M192.592773,289.103516 L177.791992,289.103516 L177.791992,263.404297 L192.592773,263.404297 L192.592773,267.869141 L183.241211,267.869141 L183.241211,273.511719 L191.942383,273.511719 L191.942383,277.976562 L183.241211,277.976562 L183.241211,284.603516 L192.592773,284.603516 L192.592773,289.103516 Z M213.686523,289.103516 L211.823242,282.986328 L202.454102,282.986328 L200.59082,289.103516 L194.719727,289.103516 L203.790039,263.298828 L210.452148,263.298828 L219.557617,289.103516 L213.686523,289.103516 Z M210.522461,278.416016 C208.799796,272.873019 207.830079,269.738285 207.613281,269.011719 C207.396483,268.285153 207.241211,267.71094 207.147461,267.289062 C206.76074,268.78907 205.653329,272.498017 203.825195,278.416016 L210.522461,278.416016 Z M233.672852,289.103516 L227.485352,268.941406 L227.327148,268.941406 C227.549806,273.042989 227.661133,275.77929 227.661133,277.150391 L227.661133,289.103516 L222.791992,289.103516 L222.791992,263.404297 L230.209961,263.404297 L236.291992,283.056641 L236.397461,283.056641 L242.848633,263.404297 L250.266602,263.404297 L250.266602,289.103516 L245.186523,289.103516 L245.186523,276.939453 C245.186523,276.365232 245.195312,275.703129 245.212891,274.953125 C245.230469,274.203121 245.30957,272.210954 245.450195,268.976562 L245.291992,268.976562 L238.665039,289.103516 L233.672852,289.103516 Z M277.00293,267.570312 C274.952138,267.570312 273.364263,268.340813 272.239258,269.881836 C271.114252,271.422859 270.551758,273.570299 270.551758,276.324219 C270.551758,282.054716 272.702127,284.919922 277.00293,284.919922 C278.807626,284.919922 280.993151,284.468755 283.55957,283.566406 L283.55957,288.136719 C281.450185,289.015629 279.09474,289.455078 276.493164,289.455078 C272.754864,289.455078 269.895518,288.3213 267.915039,286.053711 C265.93456,283.786121 264.944336,280.531271 264.944336,276.289062 C264.944336,273.617174 265.430659,271.276377 266.40332,269.266602 C267.375981,267.256826 268.773428,265.715826 270.595703,264.643555 C272.417978,263.571284 274.553699,263.035156 277.00293,263.035156 C279.499036,263.035156 282.006823,263.638666 284.526367,264.845703 L282.768555,269.275391 C281.807612,268.818357 280.840825,268.419924 279.868164,268.080078 C278.895503,267.740233 277.940434,267.570312 277.00293,267.570312 Z M312.352539,276.21875 C312.352539,280.472678 311.297862,283.742176 309.188477,286.027344 C307.079091,288.312511 304.055684,289.455078 300.118164,289.455078 C296.180644,289.455078 293.157237,288.312511 291.047852,286.027344 C288.938466,283.742176 287.883789,280.460959 287.883789,276.183594 C287.883789,271.906229 288.941396,268.63966 291.056641,266.383789 C293.171886,264.127918 296.204082,263 300.15332,263 C304.102559,263 307.123036,264.136707 309.214844,266.410156 C311.306651,268.683605 312.352539,271.953104 312.352539,276.21875 Z M293.59668,276.21875 C293.59668,279.089858 294.141596,281.251946 295.231445,282.705078 C296.321295,284.15821 297.950184,284.884766 300.118164,284.884766 C304.465842,284.884766 306.639648,281.996123 306.639648,276.21875 C306.639648,270.429659 304.477561,267.535156 300.15332,267.535156 C297.985341,267.535156 296.350591,268.264641 295.249023,269.723633 C294.147455,271.182624 293.59668,273.347642 293.59668,276.21875 Z M340.477539,289.103516 L333.551758,289.103516 L322.37207,269.662109 L322.213867,269.662109 C322.436525,273.09572 322.547852,275.544915 322.547852,277.009766 L322.547852,289.103516 L317.678711,289.103516 L317.678711,263.404297 L324.551758,263.404297 L335.713867,282.652344 L335.836914,282.652344 C335.661132,279.312483 335.573242,276.951179 335.573242,275.568359 L335.573242,263.404297 L340.477539,263.404297 L340.477539,289.103516 Z M356.860352,289.103516 L351.411133,289.103516 L351.411133,267.939453 L344.432617,267.939453 L344.432617,263.404297 L363.838867,263.404297 L363.838867,267.939453 L356.860352,267.939453 L356.860352,289.103516 Z M373.243164,274.8125 L375.000977,274.8125 C376.723641,274.8125 377.995113,274.525393 378.81543,273.951172 C379.635746,273.37695 380.045898,272.474616 380.045898,271.244141 C380.045898,270.025385 379.626957,269.158206 378.789062,268.642578 C377.951168,268.126951 376.653329,267.869141 374.895508,267.869141 L373.243164,267.869141 L373.243164,274.8125 Z M373.243164,279.242188 L373.243164,289.103516 L367.793945,289.103516 L367.793945,263.404297 L375.282227,263.404297 C378.774432,263.404297 381.35839,264.040033 383.03418,265.311523 C384.709969,266.583014 385.547852,268.513659 385.547852,271.103516 C385.547852,272.615242 385.13184,273.959955 384.299805,275.137695 C383.467769,276.315436 382.290047,277.238278 380.766602,277.90625 C384.633808,283.683623 387.153314,287.416007 388.325195,289.103516 L382.27832,289.103516 L376.143555,279.242188 L373.243164,279.242188 Z M414.885742,276.21875 C414.885742,280.472678 413.831065,283.742176 411.72168,286.027344 C409.612294,288.312511 406.588887,289.455078 402.651367,289.455078 C398.713847,289.455078 395.69044,288.312511 393.581055,286.027344 C391.471669,283.742176 390.416992,280.460959 390.416992,276.183594 C390.416992,271.906229 391.474599,268.63966 393.589844,266.383789 C395.705089,264.127918 398.737285,263 402.686523,263 C406.635762,263 409.65624,264.136707 411.748047,266.410156 C413.839854,268.683605 414.885742,271.953104 414.885742,276.21875 Z M396.129883,276.21875 C396.129883,279.089858 396.674799,281.251946 397.764648,282.705078 C398.854498,284.15821 400.483388,284.884766 402.651367,284.884766 C406.999045,284.884766 409.172852,281.996123 409.172852,276.21875 C409.172852,270.429659 407.010764,267.535156 402.686523,267.535156 C400.518544,267.535156 398.883795,268.264641 397.782227,269.723633 C396.680659,271.182624 396.129883,273.347642 396.129883,276.21875 Z M420.211914,289.103516 L420.211914,263.404297 L425.661133,263.404297 L425.661133,284.603516 L436.084961,284.603516 L436.084961,289.103516 L420.211914,289.103516 Z M455.719727,281.966797 C455.719727,284.287121 454.884774,286.115228 453.214844,287.451172 C451.544914,288.787116 449.221695,289.455078 446.245117,289.455078 C443.502916,289.455078 441.077159,288.939458 438.967773,287.908203 L438.967773,282.845703 C440.702157,283.619144 442.169916,284.164061 443.371094,284.480469 C444.572272,284.796877 445.670893,284.955078 446.666992,284.955078 C447.862311,284.955078 448.779294,284.726565 449.417969,284.269531 C450.056644,283.812498 450.375977,283.132817 450.375977,282.230469 C450.375977,281.72656 450.235353,281.278322 449.954102,280.885742 C449.67285,280.493162 449.259768,280.115236 448.714844,279.751953 C448.169919,279.38867 447.059579,278.808598 445.383789,278.011719 C443.813469,277.273434 442.635746,276.564457 441.850586,275.884766 C441.065426,275.205075 440.438479,274.414067 439.969727,273.511719 C439.500974,272.60937 439.266602,271.554694 439.266602,270.347656 C439.266602,268.074207 440.037102,266.287116 441.578125,264.986328 C443.119148,263.68554 445.24901,263.035156 447.967773,263.035156 C449.303718,263.035156 450.578119,263.193358 451.791016,263.509766 C453.003912,263.826173 454.272454,264.271482 455.59668,264.845703 L453.838867,269.082031 C452.467767,268.519528 451.333989,268.126954 450.4375,267.904297 C449.541011,267.68164 448.659184,267.570312 447.791992,267.570312 C446.760737,267.570312 445.969729,267.810544 445.418945,268.291016 C444.868161,268.771487 444.592773,269.398434 444.592773,270.171875 C444.592773,270.652346 444.7041,271.071287 444.926758,271.428711 C445.149415,271.786135 445.503904,272.131834 445.990234,272.46582 C446.476565,272.799806 447.627921,273.400386 449.444336,274.267578 C451.846692,275.416021 453.49316,276.567377 454.383789,277.72168 C455.274419,278.875982 455.719727,280.291007 455.719727,281.966797 Z" id="path-4"></path>
        <filter x="-0.2%" y="-1.9%" width="100.3%" height="103.8%" filterUnits="objectBoundingBox" id="filter-5">
            <feOffset dx="0" dy="1" in="SourceAlpha" result="shadowOffsetInner1"></feOffset>
            <feComposite in="shadowOffsetInner1" in2="SourceAlpha" operator="arithmetic" k2="-1" k3="1" result="shadowInnerInner1"></feComposite>
            <feColorMatrix values="0 0 0 0 0.638134058   0 0 0 0 0.469462629   0 0 0 0 0.3007912  0 0 0 1 0" type="matrix" in="shadowInnerInner1"></feColorMatrix>
        </filter>
        <linearGradient x1="51.2544572%" y1="-3.58360834%" x2="51.2544572%" y2="104.067813%" id="linearGradient-6">
            <stop stop-color="#BFBAB8" offset="0%"></stop>
            <stop stop-color="#E6E6E5" offset="5.6903739%"></stop>
            <stop stop-color="#E6E6E5" offset="52.2999748%"></stop>
            <stop stop-color="#E6E6E5" offset="93.9680178%"></stop>
            <stop stop-color="#BFBAB8" offset="100%"></stop>
        </linearGradient>
        <linearGradient x1="0%" y1="50.0003994%" x2="100%" y2="50.0003994%" id="linearGradient-7">
            <stop stop-color="#3E3D3C" offset="0%"></stop>
            <stop stop-color="#E6E6E5" offset="49.6610351%"></stop>
            <stop stop-color="#E6E6E5" offset="100%"></stop>
        </linearGradient>
        <path d="M22.8406682,10.1007296 L586.842375,10.1007296 C592.365222,10.1007296 596.842375,14.5778821 596.842375,20.1007296 L596.842375,220.10073 C596.842375,225.623577 592.365222,230.10073 586.842375,230.10073 L22.8406682,230.10073 C17.3178207,230.10073 12.8406682,225.623577 12.8406682,220.10073 L12.8406682,20.1007296 C12.8406682,14.5778821 17.3178207,10.1007296 22.8406682,10.1007296 Z" id="path-8"></path>
        <filter x="-0.8%" y="-2.0%" width="101.5%" height="104.1%" filterUnits="objectBoundingBox" id="filter-9">
            <feMorphology radius="1" operator="erode" in="SourceAlpha" result="shadowSpreadInner1"></feMorphology>
            <feGaussianBlur stdDeviation="3" in="shadowSpreadInner1" result="shadowBlurInner1"></feGaussianBlur>
            <feOffset dx="0" dy="1" in="shadowBlurInner1" result="shadowOffsetInner1"></feOffset>
            <feComposite in="shadowOffsetInner1" in2="SourceAlpha" operator="arithmetic" k2="-1" k3="1" result="shadowInnerInner1"></feComposite>
            <feColorMatrix values="0 0 0 0 0   0 0 0 0 0   0 0 0 0 0  0 0 0 0.5 0" type="matrix" in="shadowInnerInner1"></feColorMatrix>
        </filter>
    </defs>
    <g id="Page-1" stroke="none" stroke-width="1" fill="none" fill-rule="evenodd">
        <g id="FIB_UI" transform="translate(-17.000000, -17.000000)">
            <g id="controls_left" transform="translate(17.000000, 17.000000)">
                <g id="bkgw-controls-L">
                    <use fill="url(#linearGradient-1)" xlink:href="#path-3"></use>
                    <use fill-opacity="0.02" fill="url(#linearGradient-2)" style="mix-blend-mode: difference;" xlink:href="#path-3"></use>
                </g>
                <g id="EBEAMCONTROLS" fill-rule="nonzero">
                    <use fill="#594837" xlink:href="#path-4"></use>
                    <use fill="black" fill-opacity="1" filter="url(#filter-5)" xlink:href="#path-4"></use>
                </g>
                <g id="path" fill-rule="nonzero">
                    <use fill-opacity="0.3" fill="url(#linearGradient-6)" xlink:href="#path-8"></use>
                    <use fill-opacity="0.02" fill="url(#linearGradient-7)" style="mix-blend-mode: difference;" xlink:href="#path-8"></use>
                    <use fill="black" fill-opacity="1" filter="url(#filter-9)" xlink:href="#path-8"></use>
                    <use stroke="#EAE6E4" stroke-width="1" xlink:href="#path-8"></use>
                </g>
            </g>
        </g>
    </g>
</svg>