<?xml version="1.0" encoding="UTF-8"?>
<svg viewBox="0 0 66 66" version="1.1" xmlns="http://www.w3.org/2000/svg" xmlns:xlink="http://www.w3.org/1999/xlink">
    <!-- Generator: Sketch 51.1 (57501) - http://www.bohemiancoding.com/sketch -->
    <title>spinner-z-down</title>
    <desc>Created with Sketch.</desc>
    <defs>
        <path d="M59.9957732,86 C59.9985847,86.1673091 59.9999959,86.3349534 59.9999959,86.502922 C60.0026636,91.5726586 58.6926707,96.5098147 56.2550601,100.874526 C56.1560609,101.051791 55.8687703,101.65454 55.8289181,101.781217 C51.8106472,114.553939 61.3284832,134.983817 57.4537695,151.471854 C54.2131343,163.297442 43.0706808,172 29.9724543,172 C16.9293192,172 5.78686565,163.297442 2.54623054,151.471854 C-1.32848319,134.983817 8.18935276,114.553939 4.17108185,101.781217 C4.13122971,101.65454 3.84393911,101.051791 3.74493994,100.874526 C1.30732934,96.5098147 -0.00266364263,91.5726586 4.06636563e-06,86.502922 C4.06636563e-06,86.3349534 0.00141532159,86.1673091 0.00422680209,86 C0.00141532159,85.8326909 4.06636563e-06,85.6650466 4.06636563e-06,85.497078 C-0.00266364263,80.4273414 1.30732934,75.4901853 3.74493994,71.1254744 C3.84393911,70.9482095 4.13122971,70.3454597 4.17108185,70.2187832 C8.18935276,57.4460609 -1.32848319,37.0161828 2.54623054,20.5281459 C5.78686565,8.70255776 16.9293192,0 29.9724543,0 C43.0706808,0 54.2131343,8.70255776 57.4537695,20.5281459 C61.3284832,37.0161828 51.8106472,57.4460609 55.8289181,70.2187832 C55.8687703,70.3454597 56.1560609,70.9482095 56.2550601,71.1254744 C58.6926707,75.4901853 60.0026636,80.4273414 59.9999959,85.497078 C59.9999959,85.6650466 59.9985847,85.8326909 59.9957732,86 Z" id="path-1"></path>
        <filter x="-17.5%" y="-6.1%" width="135.0%" height="112.2%" filterUnits="objectBoundingBox" id="filter-2">
            <feMorphology radius="1" operator="dilate" in="SourceAlpha" result="shadowSpreadOuter1"></feMorphology>
            <feOffset dx="0" dy="0" in="shadowSpreadOuter1" result="shadowOffsetOuter1"></feOffset>
            <feGaussianBlur stdDeviation="1.5" in="shadowOffsetOuter1" result="shadowBlurOuter1"></feGaussianBlur>
            <feColorMatrix values="0 0 0 0 0.698039216   0 0 0 0 0.68627451   0 0 0 0 0.682352941  0 0 0 0.506567029 0" type="matrix" in="shadowBlurOuter1" result="shadowMatrixOuter1"></feColorMatrix>
            <feMorphology radius="0.5" operator="dilate" in="SourceAlpha" result="shadowSpreadOuter2"></feMorphology>
            <feOffset dx="0" dy="0" in="shadowSpreadOuter2" result="shadowOffsetOuter2"></feOffset>
            <feGaussianBlur stdDeviation="1.5" in="shadowOffsetOuter2" result="shadowBlurOuter2"></feGaussianBlur>
            <feColorMatrix values="0 0 0 0 0.0274509804   0 0 0 0 0.0274509804   0 0 0 0 0.0274509804  0 0 0 0.8 0" type="matrix" in="shadowBlurOuter2" result="shadowMatrixOuter2"></feColorMatrix>
            <feMerge>
                <feMergeNode in="shadowMatrixOuter1"></feMergeNode>
                <feMergeNode in="shadowMatrixOuter2"></feMergeNode>
            </feMerge>
        </filter>
        <radialGradient cx="50%" cy="50%" fx="50%" fy="50%" r="148.214286%" gradientTransform="translate(0.500000,0.500000),scale(1.000000,0.337349),rotate(90.000000),scale(1.000000,0.959387),translate(-0.500000,-0.500000)" id="radialGradient-3">
            <stop stop-color="#FFFFFA" offset="0%"></stop>
            <stop stop-color="#EDEDED" offset="36.8610007%"></stop>
            <stop stop-color="#E0E0DE" offset="50.736091%"></stop>
            <stop stop-color="#DFDEDD" offset="54.7687861%"></stop>
            <stop stop-color="#BFBAB8" offset="100%"></stop>
        </radialGradient>
        <radialGradient cx="26.4300067%" cy="25.1649753%" fx="26.4300067%" fy="25.1649753%" r="42.2263561%" gradientTransform="translate(0.264300,0.251650),scale(1.000000,0.337349),rotate(-111.608489),scale(1.000000,2.277737),translate(-0.264300,-0.251650)" id="radialGradient-4">
            <stop stop-color="#9B9999" offset="0%"></stop>
            <stop stop-color="#E0E0DE" offset="59.8333634%"></stop>
            <stop stop-color="#DFDEDD" offset="73.7084538%"></stop>
            <stop stop-color="#EBEBE4" offset="100%"></stop>
        </radialGradient>
        <radialGradient cx="74.6597069%" cy="24.9226215%" fx="74.6597069%" fy="24.9226215%" r="40.7919153%" gradientTransform="translate(0.746597,0.249226),scale(1.000000,0.337349),rotate(-73.389774),scale(1.000000,2.277737),translate(-0.746597,-0.249226)" id="radialGradient-5">
            <stop stop-color="#9B9999" offset="0%"></stop>
            <stop stop-color="#E0E0DE" offset="59.8333634%"></stop>
            <stop stop-color="#DFDEDD" offset="73.7084538%"></stop>
            <stop stop-color="#EBEBE4" offset="100%"></stop>
        </radialGradient>
        <path d="M29.2506526,162.675949 L29.2398503,162.675949 C29.0602719,162.90644 28.7862756,163.040936 28.4962957,163.040936 C28.2063157,163.040936 27.9323195,162.90644 27.752741,162.675949 L14.7900449,146.116068 C14.6565066,145.947614 14.5840639,145.737899 14.5848022,145.52191 C14.5838406,145.267357 14.6833044,145.022949 14.8611097,144.842951 C15.0389149,144.662954 15.2803464,144.562264 15.5317992,144.563237 L20.9113181,144.563237 L20.9113181,127.383682 C20.9113119,127.083689 21.0295232,126.796087 21.2397423,126.584645 C21.4499613,126.373203 21.734817,126.255392 22.031151,126.257334 L34.9938471,126.257334 C35.2886053,126.257332 35.5712386,126.376117 35.779326,126.587454 C35.9874134,126.79879 36.1038348,127.085292 36.1028778,127.383682 L36.1028778,144.563237 L41.4715944,144.563237 C41.8356057,144.560873 42.1684832,144.770729 42.3269551,145.102484 C42.485427,145.434238 42.4412153,145.828691 42.2133487,146.116068 L29.2506526,162.675949 Z" id="path-6"></path>
        <filter x="-5.4%" y="-4.1%" width="110.8%" height="108.2%" filterUnits="objectBoundingBox" id="filter-7">
            <feMorphology radius="1" operator="erode" in="SourceAlpha" result="shadowSpreadInner1"></feMorphology>
            <feGaussianBlur stdDeviation="0.5" in="shadowSpreadInner1" result="shadowBlurInner1"></feGaussianBlur>
            <feOffset dx="1" dy="-1" in="shadowBlurInner1" result="shadowOffsetInner1"></feOffset>
            <feComposite in="shadowOffsetInner1" in2="SourceAlpha" operator="arithmetic" k2="-1" k3="1" result="shadowInnerInner1"></feComposite>
            <feColorMatrix values="0 0 0 0 0.890196078   0 0 0 0 0.890196078   0 0 0 0 0.890196078  0 0 0 1 0" type="matrix" in="shadowInnerInner1"></feColorMatrix>
        </filter>
        <path d="M27.7551954,8.31820319 L27.7659976,8.31820319 C27.9455761,8.08771221 28.2195723,7.95321637 28.5095523,7.95321637 C28.7995322,7.95321637 29.0735285,8.08771221 29.2531069,8.31820319 L42.215803,24.878084 C42.3493413,25.0465385 42.421784,25.2562532 42.4210457,25.4722422 C42.4220073,25.7267951 42.3225435,25.9712032 42.1447383,26.1512005 C41.966933,26.3311979 41.7255015,26.431888 41.4740488,26.4309146 L36.0945299,26.4309146 L36.0945299,43.6104696 C36.0945361,43.9104633 35.9763247,44.1980649 35.7661057,44.4095071 C35.5558867,44.6209494 35.2710309,44.7387602 34.974697,44.7368185 L22.0120008,44.7368185 C21.7172427,44.7368201 21.4346093,44.6180353 21.2265219,44.4066984 C21.0184345,44.1953616 20.9020132,43.9088602 20.9029702,43.6104696 L20.9029702,26.4309146 L15.5342535,26.4309146 C15.1702423,26.433279 14.8373647,26.2234226 14.6788928,25.8916685 C14.5204209,25.5599144 14.5646327,25.1654615 14.7924993,24.878084 L27.7551954,8.31820319 Z" id="path-8"></path>
        <filter x="-5.4%" y="-4.1%" width="110.8%" height="108.2%" filterUnits="objectBoundingBox" id="filter-9">
            <feMorphology radius="1" operator="erode" in="SourceAlpha" result="shadowSpreadInner1"></feMorphology>
            <feGaussianBlur stdDeviation="0.5" in="shadowSpreadInner1" result="shadowBlurInner1"></feGaussianBlur>
            <feOffset dx="1" dy="-1" in="shadowBlurInner1" result="shadowOffsetInner1"></feOffset>
            <feComposite in="shadowOffsetInner1" in2="SourceAlpha" operator="arithmetic" k2="-1" k3="1" result="shadowInnerInner1"></feComposite>
            <feColorMatrix values="0 0 0 0 0.890196078   0 0 0 0 0.890196078   0 0 0 0 0.890196078  0 0 0 1 0" type="matrix" in="shadowInnerInner1"></feColorMatrix>
        </filter>
        <radialGradient cx="56.5103609%" cy="70.2438056%" fx="56.5103609%" fy="70.2438056%" r="112.234861%" id="radialGradient-10">
            <stop stop-color="#FDFDFD" offset="0%"></stop>
            <stop stop-color="#F1EEED" offset="37%"></stop>
            <stop stop-color="#C4C0BF" offset="77%"></stop>
            <stop stop-color="#CBC1BF" offset="100%"></stop>
        </radialGradient>
        <path d="M29.6699844,63.6700469 C41.8202481,63.6700469 51.6699829,73.5197817 51.6699829,85.6700454 C51.6699829,97.8203091 41.8202481,107.670044 29.6699844,107.670044 C17.5197207,107.670044 7.66998586,97.8203091 7.66998586,85.6700454 C7.66696454,79.8343573 9.98384463,74.236816 14.1102998,70.1103608 C18.236755,65.9839057 23.8342963,63.6670256 29.6699844,63.6700469 Z" id="path-11"></path>
        <filter x="-8.0%" y="-5.7%" width="115.9%" height="115.9%" filterUnits="objectBoundingBox" id="filter-12">
            <feMorphology radius="0.5" operator="dilate" in="SourceAlpha" result="shadowSpreadOuter1"></feMorphology>
            <feOffset dx="0" dy="1" in="shadowSpreadOuter1" result="shadowOffsetOuter1"></feOffset>
            <feGaussianBlur stdDeviation="0.5" in="shadowOffsetOuter1" result="shadowBlurOuter1"></feGaussianBlur>
            <feColorMatrix values="0 0 0 0 0.890196078   0 0 0 0 0.890196078   0 0 0 0 0.890196078  0 0 0 0.5 0" type="matrix" in="shadowBlurOuter1"></feColorMatrix>
        </filter>
    </defs>
    <g id="Page-1" stroke="none" stroke-width="1" fill="none" fill-rule="evenodd">
        <g id="Artboard-Z" transform="translate(-66.000000, -132.000000)">
            <g id="Z_control" transform="translate(69.000000, 13.000000)">
                <g id="base" stroke-width="1" fill-rule="evenodd">
                    <g id="Combined-Shape">
                        <use fill="black" fill-opacity="1" filter="url(#filter-2)" xlink:href="#path-1"></use>
                        <use fill="#C2C2C2" fill-rule="evenodd" xlink:href="#path-1"></use>
                    </g>
                    <path d="M57.996055,86 C57.998679,86.1614727 57.9999962,86.323269 57.9999962,86.4853782 C58.0024861,91.3782636 56.7798259,96.1431933 54.5047227,100.355647 C54.4123235,100.526728 54.1441856,101.108452 54.1069903,101.230709 C50.3566041,113.557871 59.2399176,133.275079 55.6235182,149.187952 C52.5989254,160.60102 42.1993021,169 29.9742906,169 C17.8006979,169 7.40107461,160.60102 4.37648184,149.187952 C0.760082352,133.275079 9.64339591,113.557871 5.89300973,101.230709 C5.85581439,101.108452 5.5876765,100.526728 5.49527727,100.355647 C3.22017406,96.1431933 1.99751393,91.3782636 2.0000038,86.4853782 C2.0000038,86.323269 2.00132097,86.1614727 2.00394502,86 C2.00132097,85.8385273 2.0000038,85.676731 2.0000038,85.5146218 C1.99751393,80.6217364 3.22017406,75.8568067 5.49527727,71.6443532 C5.5876765,71.4732719 5.85581439,70.8915483 5.89300973,70.7692907 C9.64339591,58.4421285 0.760082352,38.7249206 4.37648184,22.8120478 C7.40107461,11.3989802 17.8006979,3 29.9742906,3 C42.1993021,3 52.5989254,11.3989802 55.6235182,22.8120478 C59.2399176,38.7249206 50.3566041,58.4421285 54.1069903,70.7692907 C54.1441856,70.8915483 54.4123235,71.4732719 54.5047227,71.6443532 C56.7798259,75.8568067 58.0024861,80.6217364 57.9999962,85.5146218 C57.9999962,85.676731 57.998679,85.8385273 57.996055,86 Z" id="Combined-Shape-Copy" fill="url(#radialGradient-3)"></path>
                    <path d="M57.996055,86 C57.998679,86.1614727 57.9999962,86.323269 57.9999962,86.4853782 C58.0024861,91.3782636 56.7798259,96.1431933 54.5047227,100.355647 C54.4123235,100.526728 54.1441856,101.108452 54.1069903,101.230709 C50.3566041,113.557871 59.2399176,133.275079 55.6235182,149.187952 C52.5989254,160.60102 42.1993021,169 29.9742906,169 C17.8006979,169 7.40107461,160.60102 4.37648184,149.187952 C0.760082352,133.275079 9.64339591,113.557871 5.89300973,101.230709 C5.85581439,101.108452 5.5876765,100.526728 5.49527727,100.355647 C3.22017406,96.1431933 1.99751393,91.3782636 2.0000038,86.4853782 C2.0000038,86.323269 2.00132097,86.1614727 2.00394502,86 C2.00132097,85.8385273 2.0000038,85.676731 2.0000038,85.5146218 C1.99751393,80.6217364 3.22017406,75.8568067 5.49527727,71.6443532 C5.5876765,71.4732719 5.85581439,70.8915483 5.89300973,70.7692907 C9.64339591,58.4421285 0.760082352,38.7249206 4.37648184,22.8120478 C7.40107461,11.3989802 17.8006979,3 29.9742906,3 C42.1993021,3 52.5989254,11.3989802 55.6235182,22.8120478 C59.2399176,38.7249206 50.3566041,58.4421285 54.1069903,70.7692907 C54.1441856,70.8915483 54.4123235,71.4732719 54.5047227,71.6443532 C56.7798259,75.8568067 58.0024861,80.6217364 57.9999962,85.5146218 C57.9999962,85.676731 57.998679,85.8385273 57.996055,86 Z" id="Combined-Shape-Copy-2" fill="url(#radialGradient-4)" style="mix-blend-mode: color-burn;" opacity="0.681752232"></path>
                    <path d="M57.996055,86 C57.998679,86.1614727 57.9999962,86.323269 57.9999962,86.4853782 C58.0024861,91.3782636 56.7798259,96.1431933 54.5047227,100.355647 C54.4123235,100.526728 54.1441856,101.108452 54.1069903,101.230709 C50.3566041,113.557871 59.2399176,133.275079 55.6235182,149.187952 C52.5989254,160.60102 42.1993021,169 29.9742906,169 C17.8006979,169 7.40107461,160.60102 4.37648184,149.187952 C0.760082352,133.275079 9.64339591,113.557871 5.89300973,101.230709 C5.85581439,101.108452 5.5876765,100.526728 5.49527727,100.355647 C3.22017406,96.1431933 1.99751393,91.3782636 2.0000038,86.4853782 C2.0000038,86.323269 2.00132097,86.1614727 2.00394502,86 C2.00132097,85.8385273 2.0000038,85.676731 2.0000038,85.5146218 C1.99751393,80.6217364 3.22017406,75.8568067 5.49527727,71.6443532 C5.5876765,71.4732719 5.85581439,70.8915483 5.89300973,70.7692907 C9.64339591,58.4421285 0.760082352,38.7249206 4.37648184,22.8120478 C7.40107461,11.3989802 17.8006979,3 29.9742906,3 C42.1993021,3 52.5989254,11.3989802 55.6235182,22.8120478 C59.2399176,38.7249206 50.3566041,58.4421285 54.1069903,70.7692907 C54.1441856,70.8915483 54.4123235,71.4732719 54.5047227,71.6443532 C56.7798259,75.8568067 58.0024861,80.6217364 57.9999962,85.5146218 C57.9999962,85.676731 57.998679,85.8385273 57.996055,86 Z" id="Combined-Shape-Copy-3" fill="url(#radialGradient-5)" style="mix-blend-mode: multiply;" opacity="0.190401786"></path>
                </g>
                <g id="arrow-bottom" fill-rule="nonzero">
                    <use fill="#000000" xlink:href="#path-6"></use>
                    <use fill="black" fill-opacity="1" filter="url(#filter-7)" xlink:href="#path-6"></use>
                </g>
                <g id="arrow-up" fill-rule="nonzero">
                    <use fill="#000000" xlink:href="#path-8"></use>
                    <use fill="black" fill-opacity="1" filter="url(#filter-9)" xlink:href="#path-8"></use>
                </g>
                <g id="middle_circle">
                    <use fill="black" fill-opacity="1" filter="url(#filter-12)" xlink:href="#path-11"></use>
                    <use fill="url(#radialGradient-10)" fill-rule="evenodd" xlink:href="#path-11"></use>
                </g>
            </g>
        </g>
    </g>
</svg>