<?xml version="1.0" encoding="UTF-8"?>
<svg width="66px" height="66px" viewBox="0 0 66 66" version="1.1" xmlns="http://www.w3.org/2000/svg" xmlns:xlink="http://www.w3.org/1999/xlink">
    <!-- Generator: Sketch 51.1 (57501) - http://www.bohemiancoding.com/sketch -->
    <title>spinner-z-down-down</title>
    <desc>Created with Sketch.</desc>
    <defs>
        <path d="M59.9957732,86 C59.9985847,86.1673091 59.9999959,86.3349534 59.9999959,86.502922 C60.0026636,91.5726586 58.6926707,96.5098147 56.2550601,100.874526 C56.1560609,101.051791 55.8687703,101.65454 55.8289181,101.781217 C51.8106472,114.553939 61.3284832,134.983817 57.4537695,151.471854 C54.2131343,163.297442 43.0706808,172 29.9724543,172 C16.9293192,172 5.78686565,163.297442 2.54623054,151.471854 C-1.32848319,134.983817 8.18935276,114.553939 4.17108185,101.781217 C4.13122971,101.65454 3.84393911,101.051791 3.74493994,100.874526 C1.30732934,96.5098147 -0.00266364263,91.5726586 4.06636563e-06,86.502922 C4.06636563e-06,86.3349534 0.00141532159,86.1673091 0.00422680209,86 C0.00141532159,85.8326909 4.06636563e-06,85.6650466 4.06636563e-06,85.497078 C-0.00266364263,80.4273414 1.30732934,75.4901853 3.74493994,71.1254744 C3.84393911,70.9482095 4.13122971,70.3454597 4.17108185,70.2187832 C8.18935276,57.4460609 -1.32848319,37.0161828 2.54623054,20.5281459 C5.78686565,8.70255776 16.9293192,0 29.9724543,0 C43.0706808,0 54.2131343,8.70255776 57.4537695,20.5281459 C61.3284832,37.0161828 51.8106472,57.4460609 55.8289181,70.2187832 C55.8687703,70.3454597 56.1560609,70.9482095 56.2550601,71.1254744 C58.6926707,75.4901853 60.0026636,80.4273414 59.9999959,85.497078 C59.9999959,85.6650466 59.9985847,85.8326909 59.9957732,86 Z" id="path-1"></path>
        <filter x="-17.5%" y="-6.1%" width="135.0%" height="112.2%" filterUnits="objectBoundingBox" id="filter-2">
            <feMorphology radius="1" operator="dilate" in="SourceAlpha" result="shadowSpreadOuter1"></feMorphology>
            <feOffset dx="0" dy="0" in="shadowSpreadOuter1" result="shadowOffsetOuter1"></feOffset>
            <feGaussianBlur stdDeviation="1.5" in="shadowOffsetOuter1" result="shadowBlurOuter1"></feGaussianBlur>
            <feColorMatrix values="0 0 0 0 0.698039216   0 0 0 0 0.68627451   0 0 0 0 0.682352941  0 0 0 0.506567029 0" type="matrix" in="shadowBlurOuter1" result="shadowMatrixOuter1"></feColorMatrix>
            <feMorphology radius="0.5" operator="dilate" in="SourceAlpha" result="shadowSpreadOuter2"></feMorphology>
            <feOffset dx="0" dy="0" in="shadowSpreadOuter2" result="shadowOffsetOuter2"></feOffset>
            <feGaussianBlur stdDeviation="1.5" in="shadowOffsetOuter2" result="shadowBlurOuter2"></feGaussianBlur>
            <feColorMatrix values="0 0 0 0 0.0274509804   0 0 0 0 0.0274509804   0 0 0 0 0.0274509804  0 0 0 0.8 0" type="matrix" in="shadowBlurOuter2" result="shadowMatrixOuter2"></feColorMatrix>
            <feMerge>
                <feMergeNode in="shadowMatrixOuter1"></feMergeNode>
                <feMergeNode in="shadowMatrixOuter2"></feMergeNode>
            </feMerge>
        </filter>
        <radialGradient cx="50%" cy="50%" fx="50%" fy="50%" r="148.214286%" gradientTransform="translate(0.500000,0.500000),scale(1.000000,0.337349),rotate(90.000000),scale(1.000000,0.959387),translate(-0.500000,-0.500000)" id="radialGradient-3">
            <stop stop-color="#FFFFFA" offset="0%"></stop>
            <stop stop-color="#EDEDED" offset="36.8610007%"></stop>
            <stop stop-color="#E0E0DE" offset="50.736091%"></stop>
            <stop stop-color="#DFDEDD" offset="54.7687861%"></stop>
            <stop stop-color="#BFBAB8" offset="100%"></stop>
        </radialGradient>
        <radialGradient cx="26.4300067%" cy="25.1649753%" fx="26.4300067%" fy="25.1649753%" r="42.2263561%" gradientTransform="translate(0.264300,0.251650),scale(1.000000,0.337349),rotate(-111.608489),scale(1.000000,2.277737),translate(-0.264300,-0.251650)" id="radialGradient-4">
            <stop stop-color="#9B9999" offset="0%"></stop>
            <stop stop-color="#E0E0DE" offset="59.8333634%"></stop>
            <stop stop-color="#DFDEDD" offset="73.7084538%"></stop>
            <stop stop-color="#EBEBE4" offset="100%"></stop>
        </radialGradient>
        <radialGradient cx="74.6597069%" cy="24.9226215%" fx="74.6597069%" fy="24.9226215%" r="40.7919153%" gradientTransform="translate(0.746597,0.249226),scale(1.000000,0.337349),rotate(-73.389774),scale(1.000000,2.277737),translate(-0.746597,-0.249226)" id="radialGradient-5">
            <stop stop-color="#9B9999" offset="0%"></stop>
            <stop stop-color="#E0E0DE" offset="59.8333634%"></stop>
            <stop stop-color="#DFDEDD" offset="73.7084538%"></stop>
            <stop stop-color="#EBEBE4" offset="100%"></stop>
        </radialGradient>
        <path d="M98.2506526,175.675949 L98.2398503,175.675949 C98.0602719,175.90644 97.7862756,176.040936 97.4962957,176.040936 C97.2063157,176.040936 96.9323195,175.90644 96.752741,175.675949 L83.7900449,159.116068 C83.6565066,158.947614 83.5840639,158.737899 83.5848022,158.52191 C83.5838406,158.267357 83.6833044,158.022949 83.8611097,157.842951 C84.0389149,157.662954 84.2803464,157.562264 84.5317992,157.563237 L89.9113181,157.563237 L89.9113181,140.383682 C89.9113119,140.083689 90.0295232,139.796087 90.2397423,139.584645 C90.4499613,139.373203 90.734817,139.255392 91.031151,139.257334 L103.993847,139.257334 C104.288605,139.257332 104.571239,139.376117 104.779326,139.587454 C104.987413,139.79879 105.103835,140.085292 105.102878,140.383682 L105.102878,157.563237 L110.471594,157.563237 C110.835606,157.560873 111.168483,157.770729 111.326955,158.102484 C111.485427,158.434238 111.441215,158.828691 111.213349,159.116068 L98.2506526,175.675949 Z" id="path-6"></path>
        <filter x="-12.6%" y="-9.5%" width="125.1%" height="119.0%" filterUnits="objectBoundingBox" id="filter-7">
            <feMorphology radius="2" operator="erode" in="SourceAlpha" result="shadowSpreadInner1"></feMorphology>
            <feGaussianBlur stdDeviation="2" in="shadowSpreadInner1" result="shadowBlurInner1"></feGaussianBlur>
            <feOffset dx="0" dy="-1" in="shadowBlurInner1" result="shadowOffsetInner1"></feOffset>
            <feComposite in="shadowOffsetInner1" in2="SourceAlpha" operator="arithmetic" k2="-1" k3="1" result="shadowInnerInner1"></feComposite>
            <feColorMatrix values="0 0 0 0 0.943787336   0 0 0 0 0.953204719   0 0 0 0 0.686620319  0 0 0 1 0" type="matrix" in="shadowInnerInner1"></feColorMatrix>
        </filter>
    </defs>
    <g id="Page-1" stroke="none" stroke-width="1" fill="none" fill-rule="evenodd">
        <g id="Artboard-Z" transform="translate(-66.000000, -132.000000)">
            <g id="base" transform="translate(69.000000, 13.000000)">
                <g id="Combined-Shape">
                    <use fill="black" fill-opacity="1" filter="url(#filter-2)" xlink:href="#path-1"></use>
                    <use fill="#C2C2C2" fill-rule="evenodd" xlink:href="#path-1"></use>
                </g>
                <path d="M57.996055,86 C57.998679,86.1614727 57.9999962,86.323269 57.9999962,86.4853782 C58.0024861,91.3782636 56.7798259,96.1431933 54.5047227,100.355647 C54.4123235,100.526728 54.1441856,101.108452 54.1069903,101.230709 C50.3566041,113.557871 59.2399176,133.275079 55.6235182,149.187952 C52.5989254,160.60102 42.1993021,169 29.9742906,169 C17.8006979,169 7.40107461,160.60102 4.37648184,149.187952 C0.760082352,133.275079 9.64339591,113.557871 5.89300973,101.230709 C5.85581439,101.108452 5.5876765,100.526728 5.49527727,100.355647 C3.22017406,96.1431933 1.99751393,91.3782636 2.0000038,86.4853782 C2.0000038,86.323269 2.00132097,86.1614727 2.00394502,86 C2.00132097,85.8385273 2.0000038,85.676731 2.0000038,85.5146218 C1.99751393,80.6217364 3.22017406,75.8568067 5.49527727,71.6443532 C5.5876765,71.4732719 5.85581439,70.8915483 5.89300973,70.7692907 C9.64339591,58.4421285 0.760082352,38.7249206 4.37648184,22.8120478 C7.40107461,11.3989802 17.8006979,3 29.9742906,3 C42.1993021,3 52.5989254,11.3989802 55.6235182,22.8120478 C59.2399176,38.7249206 50.3566041,58.4421285 54.1069903,70.7692907 C54.1441856,70.8915483 54.4123235,71.4732719 54.5047227,71.6443532 C56.7798259,75.8568067 58.0024861,80.6217364 57.9999962,85.5146218 C57.9999962,85.676731 57.998679,85.8385273 57.996055,86 Z" id="Combined-Shape-Copy" fill="url(#radialGradient-3)"></path>
                <path d="M57.996055,86 C57.998679,86.1614727 57.9999962,86.323269 57.9999962,86.4853782 C58.0024861,91.3782636 56.7798259,96.1431933 54.5047227,100.355647 C54.4123235,100.526728 54.1441856,101.108452 54.1069903,101.230709 C50.3566041,113.557871 59.2399176,133.275079 55.6235182,149.187952 C52.5989254,160.60102 42.1993021,169 29.9742906,169 C17.8006979,169 7.40107461,160.60102 4.37648184,149.187952 C0.760082352,133.275079 9.64339591,113.557871 5.89300973,101.230709 C5.85581439,101.108452 5.5876765,100.526728 5.49527727,100.355647 C3.22017406,96.1431933 1.99751393,91.3782636 2.0000038,86.4853782 C2.0000038,86.323269 2.00132097,86.1614727 2.00394502,86 C2.00132097,85.8385273 2.0000038,85.676731 2.0000038,85.5146218 C1.99751393,80.6217364 3.22017406,75.8568067 5.49527727,71.6443532 C5.5876765,71.4732719 5.85581439,70.8915483 5.89300973,70.7692907 C9.64339591,58.4421285 0.760082352,38.7249206 4.37648184,22.8120478 C7.40107461,11.3989802 17.8006979,3 29.9742906,3 C42.1993021,3 52.5989254,11.3989802 55.6235182,22.8120478 C59.2399176,38.7249206 50.3566041,58.4421285 54.1069903,70.7692907 C54.1441856,70.8915483 54.4123235,71.4732719 54.5047227,71.6443532 C56.7798259,75.8568067 58.0024861,80.6217364 57.9999962,85.5146218 C57.9999962,85.676731 57.998679,85.8385273 57.996055,86 Z" id="Combined-Shape-Copy-2" fill="url(#radialGradient-4)" style="mix-blend-mode: color-burn;" opacity="0.681752232"></path>
                <path d="M57.996055,86 C57.998679,86.1614727 57.9999962,86.323269 57.9999962,86.4853782 C58.0024861,91.3782636 56.7798259,96.1431933 54.5047227,100.355647 C54.4123235,100.526728 54.1441856,101.108452 54.1069903,101.230709 C50.3566041,113.557871 59.2399176,133.275079 55.6235182,149.187952 C52.5989254,160.60102 42.1993021,169 29.9742906,169 C17.8006979,169 7.40107461,160.60102 4.37648184,149.187952 C0.760082352,133.275079 9.64339591,113.557871 5.89300973,101.230709 C5.85581439,101.108452 5.5876765,100.526728 5.49527727,100.355647 C3.22017406,96.1431933 1.99751393,91.3782636 2.0000038,86.4853782 C2.0000038,86.323269 2.00132097,86.1614727 2.00394502,86 C2.00132097,85.8385273 2.0000038,85.676731 2.0000038,85.5146218 C1.99751393,80.6217364 3.22017406,75.8568067 5.49527727,71.6443532 C5.5876765,71.4732719 5.85581439,70.8915483 5.89300973,70.7692907 C9.64339591,58.4421285 0.760082352,38.7249206 4.37648184,22.8120478 C7.40107461,11.3989802 17.8006979,3 29.9742906,3 C42.1993021,3 52.5989254,11.3989802 55.6235182,22.8120478 C59.2399176,38.7249206 50.3566041,58.4421285 54.1069903,70.7692907 C54.1441856,70.8915483 54.4123235,71.4732719 54.5047227,71.6443532 C56.7798259,75.8568067 58.0024861,80.6217364 57.9999962,85.5146218 C57.9999962,85.676731 57.998679,85.8385273 57.996055,86 Z" id="Combined-Shape-Copy-3" fill="url(#radialGradient-5)" style="mix-blend-mode: multiply;" opacity="0.190401786"></path>
            </g>
            <g id="arrow-bottom" fill-rule="nonzero">
                <use fill="#C4CB75" xlink:href="#path-6"></use>
                <use fill="black" fill-opacity="1" filter="url(#filter-7)" xlink:href="#path-6"></use>
            </g>
        </g>
    </g>
</svg>