<?xml version="1.0" encoding="UTF-8" standalone="no"?>
<!DOCTYPE svg PUBLIC "-//W3C//DTD SVG 1.1//EN" "http://www.w3.org/Graphics/SVG/1.1/DTD/svg11.dtd">
<svg width="100%" height="100%" viewBox="0 0 2653 1697" version="1.1" xmlns="http://www.w3.org/2000/svg" xmlns:xlink="http://www.w3.org/1999/xlink" xml:space="preserve" xmlns:serif="http://www.serif.com/" style="fill-rule:evenodd;clip-rule:evenodd;">
    <g id="Page-1">
        <g id="background">
            <g id="Rectangle">
                <g id="path-2-link">
                    <path id="path-2" d="M0,0L2653,0L2653,1682C2653,1690.28 2646.28,1697 2638,1697L15,1697C6.716,1697 0,1690.28 0,1682L0,0Z" style="fill-rule:nonzero;"/>
                </g>
                <g id="path-2-link1" serif:id="path-2-link">
                    <path id="path-21" serif:id="path-2" d="M0,0L2653,0L2653,1682C2653,1690.28 2646.28,1697 2638,1697L15,1697C6.716,1697 0,1690.28 0,1682L0,0Z" style="fill:url(#_Radial1);fill-rule:nonzero;"/>
                </g>
                <path id="Shape" d="M0.5,0.5L0.5,1682C0.5,1690.01 6.992,1696.5 15,1696.5L2638,1696.5C2646.01,1696.5 2652.5,1690.01 2652.5,1682L2652.5,0.5L0.5,0.5Z" style="fill:none;stroke:rgb(115,110,109);stroke-width:1px;"/>
            </g>
            <g id="Rectangle1" serif:id="Rectangle" transform="matrix(1,0,0,1,1,0)">
                <g id="path-5-link">
                    <rect id="path-5" x="0" y="0" width="2651" height="124"/>
                </g>
                <g id="path-5-link1" serif:id="path-5-link">
                    <rect id="path-51" serif:id="path-5" x="0" y="0" width="2651" height="124" style="fill:url(#_Linear2);"/>
                </g>
            </g>
            <g transform="matrix(1,0,0,1,-2,43)">
                <g id="Group">
                    <path id="VIRTUAL-INSTRUMENT" d="M199.945,3.477L210.305,3.477L199.078,36.693L188.18,36.693L177,3.477L187.406,3.477L192.07,20.312C193.039,24.053 193.57,26.658 193.664,28.128C193.773,27.067 193.992,25.742 194.32,24.152C194.648,22.561 194.937,21.312 195.188,20.403L199.945,3.477ZM214.008,36.693L214.008,3.477L223.313,3.477L223.313,36.693L214.008,36.693ZM239.977,24.606L239.977,36.693L230.719,36.693L230.719,3.477L241.945,3.477C251.258,3.477 255.914,6.749 255.914,13.292C255.914,17.139 253.977,20.115 250.102,22.221L260.086,36.693L249.586,36.693L242.32,24.606L239.977,24.606ZM239.977,17.858L241.711,17.858C244.945,17.858 246.563,16.473 246.563,13.701C246.563,11.414 244.977,10.27 241.805,10.27L239.977,10.27L239.977,17.858ZM278.32,36.693L269.063,36.693L269.063,10.815L260.695,10.815L260.695,3.477L286.664,3.477L286.664,10.815L278.32,10.815L278.32,36.693ZM320.695,3.477L320.695,23.47C320.695,27.817 319.426,31.183 316.887,33.569C314.348,35.954 310.688,37.147 305.906,37.147C301.234,37.147 297.645,35.988 295.137,33.671C292.629,31.354 291.375,28.022 291.375,23.675L291.375,3.477L300.68,3.477L300.68,22.97C300.68,25.318 301.133,27.022 302.039,28.082C302.945,29.142 304.281,29.672 306.047,29.672C307.938,29.672 309.309,29.146 310.16,28.093C311.012,27.041 311.438,25.318 311.438,22.925L311.438,3.477L320.695,3.477ZM348.445,36.693L346.758,30.468L335.625,30.468L333.891,36.693L323.719,36.693L334.898,3.341L347.25,3.341L358.57,36.693L348.445,36.693ZM344.836,23.107L343.359,17.654C343.016,16.442 342.598,14.875 342.105,12.951C341.613,11.027 341.289,9.649 341.133,8.816C340.992,9.589 340.715,10.861 340.301,12.633C339.887,14.405 338.969,17.896 337.547,23.107L344.836,23.107ZM362.273,36.693L362.273,3.477L371.531,3.477L371.531,29.445L384.727,29.445L384.727,36.693L362.273,36.693ZM402.68,36.693L402.68,3.477L411.984,3.477L411.984,36.693L402.68,36.693ZM452.016,36.693L439.875,36.693L427.359,13.292L427.148,13.292C427.445,16.972 427.594,19.782 427.594,21.721L427.594,36.693L419.391,36.693L419.391,3.477L431.484,3.477L443.953,26.56L444.094,26.56C443.875,23.213 443.766,20.524 443.766,18.495L443.766,3.477L452.016,3.477L452.016,36.693ZM481.828,26.605C481.828,28.665 481.289,30.494 480.211,32.092C479.133,33.69 477.578,34.932 475.547,35.818C473.516,36.704 471.133,37.147 468.398,37.147C466.117,37.147 464.203,36.992 462.656,36.681C461.109,36.371 459.5,35.829 457.828,35.057L457.828,27.06C459.594,27.938 461.43,28.624 463.336,29.116C465.242,29.608 466.992,29.854 468.586,29.854C469.961,29.854 470.969,29.623 471.609,29.161C472.25,28.699 472.57,28.105 472.57,27.378C472.57,26.923 472.441,26.526 472.184,26.185C471.926,25.844 471.512,25.5 470.941,25.151C470.371,24.803 468.852,24.091 466.383,23.016C464.148,22.031 462.473,21.077 461.355,20.153C460.238,19.229 459.41,18.169 458.871,16.972C458.332,15.776 458.063,14.36 458.063,12.724C458.063,9.664 459.211,7.279 461.508,5.567C463.805,3.856 466.961,3 470.977,3C474.523,3 478.141,3.795 481.828,5.386L478.992,12.315C475.789,10.891 473.023,10.179 470.695,10.179C469.492,10.179 468.617,10.384 468.07,10.793C467.523,11.202 467.25,11.709 467.25,12.315C467.25,12.966 467.598,13.549 468.293,14.064C468.988,14.579 470.875,15.518 473.953,16.882C476.906,18.169 478.957,19.551 480.105,21.028C481.254,22.505 481.828,24.364 481.828,26.605ZM502.242,36.693L492.984,36.693L492.984,10.815L484.617,10.815L484.617,3.477L510.586,3.477L510.586,10.815L502.242,10.815L502.242,36.693ZM524.742,24.606L524.742,36.693L515.484,36.693L515.484,3.477L526.711,3.477C536.023,3.477 540.68,6.749 540.68,13.292C540.68,17.139 538.742,20.115 534.867,22.221L544.852,36.693L534.352,36.693L527.086,24.606L524.742,24.606ZM524.742,17.858L526.477,17.858C529.711,17.858 531.328,16.473 531.328,13.701C531.328,11.414 529.742,10.27 526.57,10.27L524.742,10.27L524.742,17.858ZM577.102,3.477L577.102,23.47C577.102,27.817 575.832,31.183 573.293,33.569C570.754,35.954 567.094,37.147 562.313,37.147C557.641,37.147 554.051,35.988 551.543,33.671C549.035,31.354 547.781,28.022 547.781,23.675L547.781,3.477L557.086,3.477L557.086,22.97C557.086,25.318 557.539,27.022 558.445,28.082C559.352,29.142 560.687,29.672 562.453,29.672C564.344,29.672 565.715,29.146 566.566,28.093C567.418,27.041 567.844,25.318 567.844,22.925L567.844,3.477L577.102,3.477ZM599.227,36.693L592.219,12.769L592.008,12.769C592.336,16.844 592.5,20.009 592.5,22.266L592.5,36.693L584.297,36.693L584.297,3.477L596.625,3.477L603.773,27.06L603.961,27.06L610.969,3.477L623.32,3.477L623.32,36.693L614.813,36.693L614.813,22.13C614.813,21.372 614.824,20.532 614.848,19.608C614.871,18.684 614.977,16.42 615.164,12.815L614.953,12.815L608.039,36.693L599.227,36.693ZM651.047,36.693L630.703,36.693L630.703,3.477L651.047,3.477L651.047,10.679L639.961,10.679L639.961,15.905L650.227,15.905L650.227,23.107L639.961,23.107L639.961,29.377L651.047,29.377L651.047,36.693ZM689.672,36.693L677.531,36.693L665.016,13.292L664.805,13.292C665.102,16.972 665.25,19.782 665.25,21.721L665.25,36.693L657.047,36.693L657.047,3.477L669.141,3.477L681.609,26.56L681.75,26.56C681.531,23.213 681.422,20.524 681.422,18.495L681.422,3.477L689.672,3.477L689.672,36.693ZM712.195,36.693L702.938,36.693L702.938,10.815L694.57,10.815L694.57,3.477L720.539,3.477L720.539,10.815L712.195,10.815L712.195,36.693Z" style="fill-rule:nonzero;"/>
                </g>
            </g>
            <g id="Rectangle2" serif:id="Rectangle" transform="matrix(1,0,0,1,54,166)">
                <g id="path-8-link">
                    <path id="path-8" d="M671,10C671,4.481 666.519,0 661,0L10,0C4.481,0 0,4.481 0,10L0,1460C0,1465.52 4.481,1470 10,1470L661,1470C666.519,1470 671,1465.52 671,1460L671,10Z" style="fill:url(#_Linear3);"/>
                </g>
                <path id="Rectangle-path" d="M670.5,10.5C670.5,4.981 666.019,0.5 660.5,0.5L10.5,0.5C4.981,0.5 0.5,4.981 0.5,10.5L0.5,1459.5C0.5,1465.02 4.981,1469.5 10.5,1469.5L660.5,1469.5C666.019,1469.5 670.5,1465.02 670.5,1459.5L670.5,10.5Z" style="fill:none;stroke:rgb(151,151,151);stroke-width:1px;"/>
                <path id="focus" d="M332,959C332,953.481 327.519,949 322,949L18,949C12.481,949 8,953.481 8,959L8,1436C8,1441.52 12.481,1446 18,1446L322,1446C327.519,1446 332,1441.52 332,1436L332,959Z" style="fill:url(#_Linear4);"/>
                <path id="astigm" d="M663,959C663,953.481 658.519,949 653,949L349,949C343.481,949 339,953.481 339,959L339,1436C339,1441.52 343.481,1446 349,1446L653,1446C658.519,1446 663,1441.52 663,1436L663,959Z" style="fill:url(#_Linear5);"/>
            </g>
            <g id="Rectangle3" serif:id="Rectangle" transform="matrix(1,0,0,1,790,351)">
                <g id="path-10-link">
                    <path id="path-10" d="M1810,10C1810,4.481 1805.52,0 1800,0L10,0C4.481,0 0,4.481 0,10L0,1275C0,1280.52 4.481,1285 10,1285L1800,1285C1805.52,1285 1810,1280.52 1810,1275L1810,10Z" style="fill:url(#_Radial6);"/>
                </g>
                <path id="Rectangle-path1" serif:id="Rectangle-path" d="M1809.5,10.5C1809.5,4.981 1805.02,0.5 1799.5,0.5L10.5,0.5C4.981,0.5 0.5,4.981 0.5,10.5L0.5,1274.5C0.5,1280.02 4.981,1284.5 10.5,1284.5L1799.5,1284.5C1805.02,1284.5 1809.5,1280.02 1809.5,1274.5L1809.5,10.5Z" style="fill:none;stroke:rgb(151,151,151);stroke-width:1px;"/>
            </g>
            <g id="Rectangle4" serif:id="Rectangle" transform="matrix(1,0,0,1,790,166)">
                <g id="path-12-link">
                    <path id="path-12" d="M1810,10C1810,4.481 1805.52,0 1800,0L10,0C4.481,0 0,4.481 0,10L0,116C0,121.519 4.481,126 10,126L1800,126C1805.52,126 1810,121.519 1810,116L1810,10Z" style="fill:url(#_Linear7);"/>
                </g>
                <path id="Rectangle-path2" serif:id="Rectangle-path" d="M1809.5,10.5C1809.5,4.981 1805.02,0.5 1799.5,0.5L10.5,0.5C4.981,0.5 0.5,4.981 0.5,10.5L0.5,115.5C0.5,121.019 4.981,125.5 10.5,125.5L1799.5,125.5C1805.02,125.5 1809.5,121.019 1809.5,115.5L1809.5,10.5Z" style="fill:none;stroke:rgb(234,230,228);stroke-width:1px;"/>
            </g>
        </g>
    </g>
    <defs>
        <radialGradient id="_Radial1" cx="0" cy="0" r="1" gradientUnits="userSpaceOnUse" gradientTransform="matrix(2653,0,0,2653,5439.13,0)"><stop offset="0" style="stop-color:rgb(246,245,244);stop-opacity:1"/><stop offset="0.11" style="stop-color:rgb(222,217,214);stop-opacity:1"/><stop offset="0.64" style="stop-color:rgb(173,166,161);stop-opacity:1"/><stop offset="0.94" style="stop-color:rgb(163,155,152);stop-opacity:1"/><stop offset="1" style="stop-color:rgb(132,126,123);stop-opacity:1"/></radialGradient>
        <linearGradient id="_Linear2" x1="0" y1="0" x2="1" y2="0" gradientUnits="userSpaceOnUse" gradientTransform="matrix(6.87476e-15,112.273,-112.273,6.87476e-15,1358.76,11.7266)"><stop offset="0" style="stop-color:rgb(245,245,245);stop-opacity:1"/><stop offset="0.73" style="stop-color:rgb(239,235,233);stop-opacity:1"/><stop offset="0.94" style="stop-color:rgb(232,230,228);stop-opacity:1"/><stop offset="1" style="stop-color:rgb(236,234,232);stop-opacity:1"/></linearGradient>
        <linearGradient id="_Linear3" x1="0" y1="0" x2="1" y2="0" gradientUnits="userSpaceOnUse" gradientTransform="matrix(9.00115e-14,1470,-1470,9.00115e-14,335.5,0)"><stop offset="0" style="stop-color:rgb(199,195,193);stop-opacity:1"/><stop offset="1" style="stop-color:rgb(168,162,159);stop-opacity:1"/></linearGradient>
        <linearGradient id="_Linear4" x1="0" y1="0" x2="1" y2="0" gradientUnits="userSpaceOnUse" gradientTransform="matrix(3.51501e-14,574.045,-574.045,3.51501e-14,170,803.875)"><stop offset="0" style="stop-color:rgb(186,181,178);stop-opacity:0.9"/><stop offset="1" style="stop-color:rgb(132,126,123);stop-opacity:0"/></linearGradient>
        <linearGradient id="_Linear5" x1="0" y1="0" x2="1" y2="0" gradientUnits="userSpaceOnUse" gradientTransform="matrix(3.51501e-14,574.045,-574.045,3.51501e-14,501,803.875)"><stop offset="0" style="stop-color:rgb(186,181,178);stop-opacity:0.9"/><stop offset="1" style="stop-color:rgb(132,126,123);stop-opacity:0"/></linearGradient>
        <radialGradient id="_Radial6" cx="0" cy="0" r="1" gradientUnits="userSpaceOnUse" gradientTransform="matrix(1695.31,0,0,1695.31,3710.83,325.691)"><stop offset="0" style="stop-color:rgb(160,155,153);stop-opacity:1"/><stop offset="1" style="stop-color:rgb(62,57,55);stop-opacity:1"/></radialGradient>
        <linearGradient id="_Linear7" x1="0" y1="0" x2="1" y2="0" gradientUnits="userSpaceOnUse" gradientTransform="matrix(7.2264e-15,118.016,-118.016,7.2264e-15,927.706,7.98387)"><stop offset="0" style="stop-color:rgb(198,194,192);stop-opacity:1"/><stop offset="1" style="stop-color:rgb(225,219,217);stop-opacity:1"/></linearGradient>
    </defs>
</svg>
