<?xml version="1.0" encoding="utf-8"?>
<svg viewBox="0 0 56 195" version="1.1" xmlns="http://www.w3.org/2000/svg">
  <title>condenser-btn-disabled</title>
  <defs>
    <linearGradient x1="0%" y1="100%" x2="0%" y2="0%" id="linearGradient-1">
      <stop stop-color="#000000" stop-opacity="0.07" offset="0"/>
      <stop stop-color="#FFFFFF" stop-opacity="0.07" offset="1"/>
    </linearGradient>
    <linearGradient x1="0%" y1="0%" x2="0%" y2="100%" id="linearGradient-2">
      <stop stop-color="#000000" stop-opacity="0.08" offset="0"/>
      <stop stop-color="#FFFFFF" stop-opacity="0.08" offset="1"/>
    </linearGradient>
    <path d="M38.6785523,7.5 C45.2075402,7.5 50.5,14.1909436 50.5,22.4431491 L50.5,174.555602 C50.5,182.809056 45.2075402,189.5 38.6785523,189.5 L12.3214477,189.5 C7.48750904,189.5 3.33139066,185.832265 1.49919335,180.578172 L1.49919335,16.4213214 C3.33139066,11.1677347 7.48750904,7.5 12.3214477,7.5 L38.6785523,7.5 Z" id="path-3"/>
    <filter x="-5.1%" y="-1.4%" width="110.2%" height="102.7%" filterUnits="objectBoundingBox" id="filter-4">
      <feMorphology radius="1" operator="erode" in="SourceAlpha" result="shadowSpreadInner1"/>
      <feGaussianBlur stdDeviation="1.5" in="shadowSpreadInner1" result="shadowBlurInner1"/>
      <feOffset dx="0" dy="-1" in="shadowBlurInner1" result="shadowOffsetInner1"/>
      <feComposite in="shadowOffsetInner1" in2="SourceAlpha" operator="arithmetic" k2="-1" k3="1" result="shadowInnerInner1"/>
      <feColorMatrix values="0 0 0 0 0   0 0 0 0 0   0 0 0 0 0  0 0 0 0.2 0" type="matrix" in="shadowInnerInner1"/>
    </filter>
  </defs>
  <g id="condenser-btn-disabled" stroke="none" stroke-width="1" fill="none" fill-rule="evenodd" transform="matrix(1, 0, 0, 1, -0.5, -0.488937)">
    <path d="M55.0148341,182.193 C55.0148341,189.535 49.588,195.486 42.278,195.486 L7.866,195.486 C5.55803052,195.486 3.38872522,194.892781 1.49976775,193.849859 L1.49976775,2.5 L2.42997761,1.98968292 C3.86094398,1.21947398 5.2459088,0.5888001 6.98793149,0.508133399 L7.36683412,0.499399189 L41.7788341,0.499399189 C47.6901346,0.489100431 53.5542347,5.3001275 54.9516828,12.9276632 L55.0148341,13.293 L55.0148341,182.193 Z" id="Path" fill="#D8D8D8"/>
    <path d="M55.0148341,182.193 C55.0148341,189.535 49.588,195.486 42.278,195.486 L7.866,195.486 C5.55803052,195.486 3.38872836,194.892781 1.49977089,193.849859 L1.49977089,2.4 L2.122494,2.06016324 C3.6649161,1.23238288 5.12147891,0.585453473 6.98793151,0.507820813 L7.36683412,0.5 L41.7788341,0.5 C47.3275792,0.232896534 53.301772,4.81468492 54.9401142,12.9050957 L55.0148341,13.293 L55.0148341,182.193 Z" id="Path" fill="#D8D8D8" style="mix-blend-mode: multiply;"/>
    <path d="M-44.6591797,110.106445 C-42.7802734,110.106445 -41.0791016,109.789063 -39.5556641,109.154297 L-39.5556641,109.154297 L-39.5556641,105.853516 C-41.4091797,106.505208 -42.9876302,106.831055 -44.2910156,106.831055 C-47.3971354,106.831055 -48.9501953,104.761719 -48.9501953,100.623047 C-48.9501953,98.6341146 -48.5439453,97.0831706 -47.7314453,95.9702148 C-46.9189453,94.8572591 -45.7721354,94.3007813 -44.2910156,94.3007813 C-43.6139323,94.3007813 -42.9241536,94.4235026 -42.2216797,94.6689453 C-41.5192057,94.914388 -40.8209635,95.2021484 -40.1269531,95.5322266 L-40.1269531,95.5322266 L-38.8574219,92.3330078 C-40.6770833,91.461263 -42.4882812,91.0253906 -44.2910156,91.0253906 C-46.0598958,91.0253906 -47.6023763,91.4125977 -48.918457,92.1870117 C-50.2345378,92.9614258 -51.2438151,94.0743815 -51.9462891,95.5258789 C-52.648763,96.9773763 -53,98.6679688 -53,100.597656 C-53,103.661458 -52.2848307,106.012207 -50.8544922,107.649902 C-49.4241536,109.287598 -47.3590495,110.106445 -44.6591797,110.106445 Z M-27.5966797,110.106445 C-24.7529297,110.106445 -22.5693359,109.28125 -21.0458984,107.630859 C-19.5224609,105.980469 -18.7607422,103.619141 -18.7607422,100.546875 C-18.7607422,97.4661458 -19.5161133,95.1048177 -21.0268555,93.4628906 C-22.5375977,91.8209635 -24.7190755,91 -27.5712891,91 C-30.4235026,91 -32.613444,91.8146159 -34.1411133,93.4438477 C-35.6687826,95.0730794 -36.4326172,97.4322917 -36.4326172,100.521484 C-36.4326172,103.610677 -35.6708984,105.980469 -34.1474609,107.630859 C-32.6240234,109.28125 -30.4404297,110.106445 -27.5966797,110.106445 Z M-27.5966797,106.805664 C-29.1624349,106.805664 -30.3388672,106.280924 -31.1259766,105.231445 C-31.9130859,104.181966 -32.3066406,102.620443 -32.3066406,100.546875 C-32.3066406,98.4733073 -31.9088542,96.909668 -31.1132812,95.855957 C-30.3177083,94.8022461 -29.1370443,94.2753906 -27.5712891,94.2753906 C-24.4482422,94.2753906 -22.8867188,96.3658854 -22.8867188,100.546875 C-22.8867188,104.719401 -24.4567057,106.805664 -27.5966797,106.805664 Z M-11.3974609,109.852539 L-11.3974609,101.118164 C-11.3974609,100.060221 -11.4778646,98.2913411 -11.6386719,95.8115234 L-11.6386719,95.8115234 L-11.5244141,95.8115234 L-3.45019531,109.852539 L1.55175781,109.852539 L1.55175781,91.2919922 L-1.99023438,91.2919922 L-1.99023438,100.077148 C-1.99023438,101.075846 -1.92675781,102.78125 -1.79980469,105.193359 L-1.79980469,105.193359 L-1.88867188,105.193359 L-9.95019531,91.2919922 L-14.9140625,91.2919922 L-14.9140625,109.852539 L-11.3974609,109.852539 Z M11.4794922,109.852539 C14.7633464,109.852539 17.2749023,109.040039 19.0141602,107.415039 C20.753418,105.790039 21.6230469,103.44987 21.6230469,100.394531 C21.6230469,97.5253906 20.7851562,95.2910156 19.109375,93.6914063 C17.4335938,92.0917969 15.0807292,91.2919922 12.0507812,91.2919922 L12.0507812,91.2919922 L6.22363281,91.2919922 L6.22363281,109.852539 L11.4794922,109.852539 Z M11.8476562,106.602539 L10.1591797,106.602539 L10.1591797,94.5166016 L12.2539062,94.5166016 C15.7747396,94.5166016 17.5351562,96.5097656 17.5351562,100.496094 C17.5351562,104.567057 15.6393229,106.602539 11.8476562,106.602539 L11.8476562,106.602539 Z M36.1591797,109.852539 L36.1591797,106.602539 L29.4052734,106.602539 L29.4052734,101.816406 L35.6894531,101.816406 L35.6894531,98.5917969 L29.4052734,98.5917969 L29.4052734,94.5166016 L36.1591797,94.5166016 L36.1591797,91.2919922 L25.4697266,91.2919922 L25.4697266,109.852539 L36.1591797,109.852539 Z M43.5478516,109.852539 L43.5478516,101.118164 C43.5478516,100.060221 43.4674479,98.2913411 43.3066406,95.8115234 L43.3066406,95.8115234 L43.4208984,95.8115234 L51.4951172,109.852539 L56.4970703,109.852539 L56.4970703,91.2919922 L52.9550781,91.2919922 L52.9550781,100.077148 C52.9550781,101.075846 53.0185547,102.78125 53.1455078,105.193359 L53.1455078,105.193359 L53.0566406,105.193359 L44.9951172,91.2919922 L40.03125,91.2919922 L40.03125,109.852539 L43.5478516,109.852539 Z M65.2822266,110.106445 C67.4319661,110.106445 69.1098633,109.624023 70.315918,108.65918 C71.5219727,107.694336 72.125,106.374023 72.125,104.698242 C72.125,103.487956 71.8033854,102.465983 71.1601562,101.632324 C70.5169271,100.798665 69.3277995,99.9671224 67.5927734,99.1376953 C66.2809245,98.5113932 65.4493815,98.0776367 65.0981445,97.8364258 C64.7469076,97.5952148 64.4908854,97.3455404 64.3300781,97.0874023 C64.1692708,96.8292643 64.0888672,96.5266927 64.0888672,96.1796875 C64.0888672,95.6210938 64.2877604,95.1682943 64.6855469,94.8212891 C65.0833333,94.4742839 65.6546224,94.3007813 66.3994141,94.3007813 C67.0257161,94.3007813 67.6625977,94.3811849 68.3100586,94.5419922 C68.9575195,94.7027995 69.7763672,94.9863281 70.7666016,95.3925781 L70.7666016,95.3925781 L72.0361328,92.3330078 C71.0797526,91.9182943 70.1635742,91.5966797 69.2875977,91.3681641 C68.4116211,91.1396484 67.4912109,91.0253906 66.5263672,91.0253906 C64.5628255,91.0253906 63.0245768,91.4951172 61.9116211,92.4345703 C60.7986654,93.3740234 60.2421875,94.6647135 60.2421875,96.3066406 C60.2421875,97.1783854 60.4114583,97.9401042 60.75,98.5917969 C61.0885417,99.2434896 61.5413411,99.8147786 62.1083984,100.305664 C62.6754557,100.796549 63.5260417,101.308594 64.6601562,101.841797 C65.8704427,102.417318 66.6723633,102.836263 67.065918,103.098633 C67.4594727,103.361003 67.7578125,103.633952 67.9609375,103.91748 C68.1640625,104.201009 68.265625,104.52474 68.265625,104.888672 C68.265625,105.540365 68.0349935,106.03125 67.5737305,106.361328 C67.1124674,106.691406 66.4501953,106.856445 65.5869141,106.856445 C64.867513,106.856445 64.074056,106.742188 63.206543,106.513672 C62.3390299,106.285156 61.2789714,105.891602 60.0263672,105.333008 L60.0263672,105.333008 L60.0263672,108.989258 C61.5498047,109.734049 63.3017578,110.106445 65.2822266,110.106445 Z M86.1787109,109.852539 L86.1787109,106.602539 L79.4248047,106.602539 L79.4248047,101.816406 L85.7089844,101.816406 L85.7089844,98.5917969 L79.4248047,98.5917969 L79.4248047,94.5166016 L86.1787109,94.5166016 L86.1787109,91.2919922 L75.4892578,91.2919922 L75.4892578,109.852539 L86.1787109,109.852539 Z M93.9863281,109.852539 L93.9863281,102.730469 L96.0810547,102.730469 L100.511719,109.852539 L104.878906,109.852539 C104.032552,108.633789 102.212891,105.938151 99.4199219,101.765625 C100.520182,101.283203 101.370768,100.616699 101.97168,99.7661133 C102.572591,98.9155273 102.873047,97.9443359 102.873047,96.8525391 C102.873047,94.9820964 102.267904,93.5877279 101.057617,92.6694336 C99.8473307,91.7511393 97.9811198,91.2919922 95.4589844,91.2919922 L95.4589844,91.2919922 L90.0507812,91.2919922 L90.0507812,109.852539 L93.9863281,109.852539 Z M95.2558594,99.53125 L93.9863281,99.53125 L93.9863281,94.5166016 L95.1796875,94.5166016 C96.4492188,94.5166016 97.386556,94.7027995 97.9916992,95.0751953 C98.5968424,95.4475911 98.8994141,96.0738932 98.8994141,96.9541016 C98.8994141,97.8427734 98.6031901,98.4944661 98.0107422,98.9091797 C97.4182943,99.3238932 96.5,99.53125 95.2558594,99.53125 L95.2558594,99.53125 Z" id="condenser-txt" fill="#000000" fill-rule="nonzero" opacity="0.5" style="mix-blend-mode: multiply;" transform="translate(25.939453, 100.553223) rotate(90.000000) translate(-25.939453, -100.553223) "/>
    <g id="btn" opacity="0.6" style="mix-blend-mode: multiply;" transform="translate(0.000000, 0.000000)">
      <path d="M42.2385641,0.5 C49.5626119,0.5 55.5,7.93311474 55.5,17.1021215 L55.5,178.899127 C55.5,188.068134 49.5626119,195.5 42.2385641,195.5 L7.76043395,195.5 C5.49596459,195.5 3.36414734,194.789558 1.49942434,193.536988 L1.49942434,2.46329596 C3.36414734,1.21056105 5.49596459,0.5 7.76043395,0.5 L42.2385641,0.5 Z" id="Path" fill="#C2C2C2"/>
      <path d="M42.2385641,0.5 C49.5626119,0.5 55.5,7.93311474 55.5,17.1021215 L55.5,178.899127 C55.5,188.068134 49.5626119,195.5 42.2385641,195.5 L7.76043395,195.5 C5.49596459,195.5 3.36414734,194.789558 1.49942434,193.536988 L1.49942434,2.46329596 C3.36414734,1.21056105 5.49596459,0.5 7.76043395,0.5 L42.2385641,0.5 Z" id="Path" fill="url(#linearGradient-1)" fill-rule="nonzero"/>
      <path d="M50.5,22.4431491 L50.5,174.555602 C50.5,182.809056 45.2075402,189.5 38.6785523,189.5 L12.3214477,189.5 C5.79245976,189.5 0.5,182.809056 0.5,174.555602 L0.5,22.4431491 C0.5,14.1909436 5.79245976,7.5 12.3214477,7.5 L38.6785523,7.5 C45.2075402,7.5 50.5,14.1909436 50.5,22.4431491 Z" id="Path" fill-opacity="0" fill="#E1E0E0"/>
      <g id="Path" fill-rule="nonzero">
        <path d="M38.6785523,7.5 C45.2075402,7.5 50.5,14.1909436 50.5,22.4431491 L50.5,174.555602 C50.5,182.809056 45.2075402,189.5 38.6785523,189.5 L12.3214477,189.5 C7.48750904,189.5 3.33139066,185.832265 1.49919335,180.578172 L1.49919335,16.4213214 C3.33139066,11.1677347 7.48750904,7.5 12.3214477,7.5 L38.6785523,7.5 Z" transform="matrix(1, 0, 0, 1, 0, 0)" fill="url(#linearGradient-2)"/>
        <path d="M38.6785523,7.5 C45.2075402,7.5 50.5,14.1909436 50.5,22.4431491 L50.5,174.555602 C50.5,182.809056 45.2075402,189.5 38.6785523,189.5 L12.3214477,189.5 C7.48750904,189.5 3.33139066,185.832265 1.49919335,180.578172 L1.49919335,16.4213214 C3.33139066,11.1677347 7.48750904,7.5 12.3214477,7.5 L38.6785523,7.5 Z" transform="matrix(1, 0, 0, 1, 0, 0)" fill="black" fill-opacity="1" filter="url(#filter-4)"/>
      </g>
    </g>
  </g>
</svg>