<?xml version="1.0" encoding="UTF-8"?>
<svg width="56px" height="258px" viewBox="0 0 56 258" version="1.1" xmlns="http://www.w3.org/2000/svg" xmlns:xlink="http://www.w3.org/1999/xlink">
    <title>imaging-btn-disabled</title>
    <defs>
        <linearGradient x1="0%" y1="100%" x2="0%" y2="0%" id="linearGradient-1">
            <stop stop-color="#000000" stop-opacity="0.07" offset="0%"></stop>
            <stop stop-color="#FFFFFF" stop-opacity="0.07" offset="100%"></stop>
        </linearGradient>
        <linearGradient x1="0%" y1="0%" x2="0%" y2="100%" id="linearGradient-2">
            <stop stop-color="#000000" stop-opacity="0.08" offset="0%"></stop>
            <stop stop-color="#FFFFFF" stop-opacity="0.08" offset="100%"></stop>
        </linearGradient>
        <path d="M38.6785523,7.5 C45.2075402,7.5 50.5,14.1909436 50.5,22.4431491 L50.5,236.555602 C50.5,244.809056 45.2075402,251.5 38.6785523,251.5 L12.3214477,251.5 C7.48750904,251.5 3.33139066,247.832265 1.49919335,242.578172 L1.49919335,16.4213214 C3.33139066,11.1677347 7.48750904,7.5 12.3214477,7.5 L38.6785523,7.5 Z" id="path-3"></path>
        <filter x="-5.1%" y="-1.0%" width="110.2%" height="102.0%" filterUnits="objectBoundingBox" id="filter-4">
            <feMorphology radius="1" operator="erode" in="SourceAlpha" result="shadowSpreadInner1"></feMorphology>
            <feGaussianBlur stdDeviation="1.5" in="shadowSpreadInner1" result="shadowBlurInner1"></feGaussianBlur>
            <feOffset dx="0" dy="-1" in="shadowBlurInner1" result="shadowOffsetInner1"></feOffset>
            <feComposite in="shadowOffsetInner1" in2="SourceAlpha" operator="arithmetic" k2="-1" k3="1" result="shadowInnerInner1"></feComposite>
            <feColorMatrix values="0 0 0 0 0   0 0 0 0 0   0 0 0 0 0  0 0 0 0.2 0" type="matrix" in="shadowInnerInner1"></feColorMatrix>
        </filter>
    </defs>
    <g id="imaging-btn-disabled" stroke="none" stroke-width="1" fill="none" fill-rule="evenodd">
        <path d="M55.0148341,244.193 C55.0148341,251.535 49.588,257.486 42.278,257.486 L7.866,257.486 C5.55803052,257.486 3.38872522,256.892781 1.49976775,255.849859 L1.49976775,2.5 L2.42997761,1.98968292 C3.86094398,1.21947398 5.2459088,0.5888001 6.98793149,0.508133399 L7.36683412,0.499399189 L41.7788341,0.499399189 C47.6901346,0.489100431 53.5542347,5.3001275 54.9516828,12.9276632 L55.0148341,13.293 L55.0148341,244.193 Z" id="Path" fill="#D8D8D8"></path>
        <path d="M55.0148341,244.193 C55.0148341,251.535 49.588,257.486 42.278,257.486 L7.866,257.486 C5.55803052,257.486 3.38872836,256.892781 1.49977089,255.849859 L1.49977089,2.4 L2.122494,2.06016324 C3.6649161,1.23238288 5.12147891,0.585453473 6.98793151,0.507820813 L7.36683412,0.5 L41.7788341,0.5 C47.3275792,0.232896534 53.301772,4.81468492 54.9401142,12.9050957 L55.0148341,13.293 L55.0148341,244.193 Z" id="Path" fill="#D8D8D8" style="mix-blend-mode: multiply;"></path>
        <path d="M15.5151367,27.1611328 C15.5151367,29.3108724 15.9975586,30.9887695 16.9624023,32.1948242 C17.9272461,33.4008789 19.2475586,34.0039062 20.9233398,34.0039062 C22.1336263,34.0039062 23.155599,33.6822917 23.9892578,33.0390625 C24.7673394,32.4387153 25.5435778,31.3628299 26.3179731,29.8114062 L26.943852,28.5246658 L26.943852,28.5246658 L27.2349132,27.9488911 L27.2349132,27.9488911 L27.4797635,27.4883898 L27.4797635,27.4883898 L27.6173242,27.2454297 L27.6173242,27.2454297 L27.7343468,27.0537023 C27.752139,27.0260171 27.7690755,27.0004666 27.7851562,26.9770508 C28.0263672,26.6258138 28.2760417,26.3697917 28.5341797,26.2089844 C28.7923177,26.0481771 29.0948893,25.9677734 29.4418945,25.9677734 C30.0004883,25.9677734 30.4532878,26.1666667 30.800293,26.5644531 C31.1472982,26.9622396 31.3208008,27.5335286 31.3208008,28.2783203 C31.3208008,28.9046224 31.2403971,29.5415039 31.0795898,30.1889648 C30.9545175,30.6925456 30.7552063,31.2998047 30.4816563,32.0107422 L30.2290039,32.6455078 L33.2885742,33.9150391 C33.7032878,32.9586589 34.0249023,32.0424805 34.253418,31.1665039 C34.4819336,30.2905273 34.5961914,29.3701172 34.5961914,28.4052734 C34.5961914,26.4417318 34.1264648,24.9034831 33.1870117,23.7905273 C32.2475586,22.6775716 30.9568685,22.1210938 29.3149414,22.1210938 C28.4431966,22.1210938 27.6814779,22.2903646 27.0297852,22.6289062 C26.3780924,22.9674479 25.8068034,23.4202474 25.315918,23.9873047 C24.8741211,24.4976563 24.4151855,25.237666 23.9391113,26.207334 L23.4313766,27.2608493 L23.4313766,27.2608493 L23.1261061,27.8701272 L23.1261061,27.8701272 L22.9465581,28.2138074 L22.9465581,28.2138074 L22.7861826,28.5074837 L22.7861826,28.5074837 L22.6449797,28.7511559 C22.6011074,28.824046 22.5604306,28.8886021 22.5229492,28.9448242 C22.2605794,29.3383789 21.9876302,29.6367188 21.7041016,29.8398438 C21.4205729,30.0429688 21.0968424,30.1445312 20.7329102,30.1445312 C20.0812174,30.1445312 19.590332,29.9138997 19.2602539,29.4526367 C18.9301758,28.9913737 18.7651367,28.3291016 18.7651367,27.4658203 C18.7651367,26.7464193 18.8793945,25.9529622 19.1079102,25.0854492 C19.3135742,24.3046875 19.6529199,23.3679639 20.1259473,22.2752783 L20.2885742,21.9052734 L16.6323242,21.9052734 C15.8875326,23.4287109 15.5151367,25.1806641 15.5151367,27.1611328 Z M15.769043,48.8320312 L19.019043,48.8320312 L19.019043,41.3037109 L34.3295898,41.3037109 L34.3295898,37.3681641 L15.769043,37.3681641 L15.769043,48.8320312 Z M15.769043,55.9921875 L34.3295898,55.9921875 L34.3295898,52.0566406 L15.769043,52.0566406 L15.769043,55.9921875 Z M15.769043,65.9199219 C15.769043,69.203776 16.581543,71.715332 18.206543,73.4545898 C19.831543,75.1938477 22.1717122,76.0634766 25.2270508,76.0634766 C28.0961914,76.0634766 30.3305664,75.2255859 31.9301758,73.5498047 C33.4602369,71.9468835 34.2585297,69.7244758 34.3250541,66.8825817 L34.3295898,66.4912109 L34.3295898,60.6640625 L15.769043,60.6640625 L15.769043,65.9199219 Z M19.019043,66.2880859 L19.019043,64.5996094 L31.1049805,64.5996094 L31.1049805,66.6943359 C31.1049805,70.2151693 29.1118164,71.9755859 25.1254883,71.9755859 C21.1470466,71.9755859 19.1126163,70.1649476 19.0221971,66.5436709 L19.019043,66.2880859 Z M15.769043,90.5996094 L19.019043,90.5996094 L19.019043,83.8457031 L23.8051758,83.8457031 L23.8051758,90.1298828 L27.0297852,90.1298828 L27.0297852,83.8457031 L31.1049805,83.8457031 L31.1049805,90.5996094 L34.3295898,90.5996094 L34.3295898,79.9101562 L15.769043,79.9101562 L15.769043,90.5996094 Z M15.5151367,106.65918 C15.5151367,108.571411 16.0098076,110.297676 16.9991493,111.837975 L17.2036133,112.143555 L15.769043,113.603516 L15.769043,118.389648 L19.4887695,114.568359 C20.3266602,115.245443 21.289388,115.850586 22.3769531,116.383789 C23.3091518,116.84082 24.2615593,117.213907 25.2341757,117.503049 L25.722168,117.640625 L25.722168,113.603516 C24.3064483,113.203421 23.1250498,112.736877 22.1779725,112.203884 L21.9008789,112.041992 L25.4174805,108.436523 C26.1707357,109.739909 26.9641927,110.683594 27.7978516,111.267578 C28.6315104,111.851562 29.5519206,112.143555 30.559082,112.143555 C31.7862956,112.143555 32.7659505,111.671712 33.4980469,110.728027 C34.2301432,109.784342 34.5961914,108.525391 34.5961914,106.951172 C34.5961914,105.300781 34.2026367,103.982585 33.4155273,102.996582 C32.628418,102.010579 31.5916341,101.517578 30.3051758,101.517578 C29.5180664,101.517578 28.7923177,101.661458 28.1279297,101.949219 C27.4635417,102.236979 26.7674154,102.698242 26.0395508,103.333008 C25.3286133,102.088867 24.5647786,101.210775 23.7480469,100.69873 C22.9313151,100.186686 21.9431966,99.9306641 20.7836914,99.9306641 C19.1671549,99.9306641 17.8849284,100.535807 16.9370117,101.746094 C15.9890951,102.95638 15.5151367,104.594076 15.5151367,106.65918 Z M27.5756836,106.303711 C28.472819,105.499674 29.2937826,105.097656 30.0385742,105.097656 C30.5379232,105.097656 30.9230143,105.260579 31.1938477,105.586426 C31.464681,105.912272 31.6000977,106.358724 31.6000977,106.925781 C31.6000977,107.408203 31.4710286,107.801758 31.2128906,108.106445 C30.9547526,108.411133 30.6013997,108.563477 30.152832,108.563477 C29.6280924,108.563477 29.1689453,108.368815 28.7753906,107.979492 C28.3818359,107.590169 27.9819336,107.031576 27.5756836,106.303711 Z M18.7651367,106.925781 C18.7651367,106.070964 18.980957,105.370605 19.4125977,104.824707 C19.8442383,104.278809 20.4239909,104.005859 21.1518555,104.005859 C21.6850586,104.005859 22.1547852,104.147624 22.5610352,104.431152 C22.8995768,104.667426 23.2263636,104.975699 23.5413954,105.355971 L23.7290039,105.592773 L19.5395508,109.807617 C19.0232747,108.952799 18.7651367,107.992188 18.7651367,106.925781 Z M15.769043,131.415039 L34.3295898,131.415039 L34.3295898,127.479492 L15.769043,127.479492 L15.769043,131.415039 Z M15.769043,139.603516 L24.5366082,139.60306 L25.2229087,139.591231 L25.2229087,139.591231 L26.1055907,139.563389 L26.1055907,139.563389 L27.4851046,139.506066 L27.4851046,139.506066 L29.5455579,139.40425 L29.5455579,139.40425 L30.3305664,139.362305 L30.3305664,139.476562 L15.769043,143.945312 L15.769043,147.550781 L30.3051758,152.336914 L30.3051758,152.451172 L25.9887695,152.279785 L25.9887695,152.279785 L25.0823242,152.263789 L25.0823242,152.263789 L24.5541992,152.260742 L24.5541992,152.260742 L15.769043,152.260742 L15.769043,155.929688 L34.3295898,155.929688 L34.3295898,150.572266 L20.1362305,145.913086 L20.1362305,145.836914 L34.3295898,141.444336 L34.3295898,136.086914 L15.769043,136.086914 L15.769043,139.603516 Z M15.769043,162.505859 L20.1870117,163.851562 L20.1870117,170.618164 L15.769043,171.963867 L15.769043,176.204102 L34.4057617,169.62793 L34.4057617,164.816406 L15.769043,158.265625 L15.769043,162.505859 Z M23.487793,169.678711 L23.487793,164.841797 L27.125971,165.957029 L27.125971,165.957029 L29.3193405,166.61523 L29.3193405,166.61523 L31.0248851,167.107098 L31.0248851,167.107098 L31.5239258,167.241211 L31.5239258,167.241211 L31.3866091,167.272949 L31.3866091,167.272949 L31.0715581,167.352748 L31.0715581,167.352748 L30.7026168,167.454311 L30.7026168,167.454311 L29.9064264,167.690859 L29.9064264,167.690859 L23.487793,169.678711 Z M15.5151367,186.347656 C15.5151367,187.447917 15.5934245,188.524902 15.75,189.578613 C15.8842076,190.481794 16.1039142,191.436274 16.4091199,192.442054 L16.5688477,192.949219 L26.1918945,192.949219 L26.1918945,185.585938 L22.9165039,185.585938 L22.9165039,189.102539 L19.0444336,189.102539 C18.8751628,188.256185 18.7905273,187.422526 18.7905273,186.601562 C18.7905273,185.027344 19.3216146,183.827637 20.3837891,183.002441 C21.4459635,182.177246 22.9842122,181.764648 24.9985352,181.764648 C26.9282227,181.764648 28.4643555,182.276693 29.6069336,183.300781 C30.7495117,184.32487 31.3208008,185.6875 31.3208008,187.388672 C31.3208008,188.730849 31.0363317,190.026799 30.4673937,191.276523 L30.3051758,191.616211 L33.4536133,192.923828 C34.215332,191.154948 34.5961914,189.318359 34.5961914,187.414062 C34.5961914,184.375651 33.7583008,181.999512 32.0825195,180.285645 C30.4067383,178.571777 28.0708008,177.714844 25.074707,177.714844 C21.9939779,177.714844 19.6305339,178.453288 17.984375,179.930176 C16.3382161,181.407064 15.5151367,183.546224 15.5151367,186.347656 Z M15.769043,201.302734 L34.3295898,201.302734 L34.3295898,197.367188 L15.769043,197.367188 L15.769043,201.302734 Z M15.769043,205.974609 L15.769043,209.491211 L24.6863245,209.490466 L24.6863245,209.490466 L25.3140372,209.479299 L25.3140372,209.479299 L26.3353045,209.443564 L26.3353045,209.443564 L27.5672201,209.384006 L27.5672201,209.384006 L29.4033384,209.276057 L29.4033384,209.276057 L29.8100586,209.25 L29.8100586,209.364258 L15.769043,217.438477 L15.769043,222.44043 L34.3295898,222.44043 L34.3295898,218.898438 L25.18536,218.900788 L25.18536,218.900788 L24.3101671,218.919596 L24.3101671,218.919596 L22.9217153,218.969555 L22.9217153,218.969555 L21.2060848,219.0489 L21.2060848,219.0489 L20.4282227,219.088867 L20.4282227,219 L34.3295898,210.938477 L34.3295898,205.974609 L15.769043,205.974609 Z M15.5151367,234.919922 C15.5151367,236.020182 15.5934245,237.097168 15.75,238.150879 C15.8842076,239.05406 16.1039142,240.00854 16.4091199,241.01432 L16.5688477,241.521484 L26.1918945,241.521484 L26.1918945,234.158203 L22.9165039,234.158203 L22.9165039,237.674805 L19.0444336,237.674805 C18.8751628,236.828451 18.7905273,235.994792 18.7905273,235.173828 C18.7905273,233.599609 19.3216146,232.399902 20.3837891,231.574707 C21.4459635,230.749512 22.9842122,230.336914 24.9985352,230.336914 C26.9282227,230.336914 28.4643555,230.848958 29.6069336,231.873047 C30.7495117,232.897135 31.3208008,234.259766 31.3208008,235.960938 C31.3208008,237.303114 31.0363317,238.599065 30.4673937,239.848789 L30.3051758,240.188477 L33.4536133,241.496094 C34.215332,239.727214 34.5961914,237.890625 34.5961914,235.986328 C34.5961914,232.947917 33.7583008,230.571777 32.0825195,228.85791 C30.4067383,227.144043 28.0708008,226.287109 25.074707,226.287109 C21.9939779,226.287109 19.6305339,227.025553 17.984375,228.502441 C16.3382161,229.979329 15.5151367,232.11849 15.5151367,234.919922 Z" id="Shape" fill="#000000" fill-rule="nonzero" opacity="0.5" style="mix-blend-mode: multiply;"></path>
        <g id="btn" opacity="0.6" style="mix-blend-mode: multiply;">
            <path d="M42.2385641,0.5 C49.5626119,0.5 55.5,7.93311474 55.5,17.1021215 L55.5,240.899127 C55.5,250.068134 49.5626119,257.5 42.2385641,257.5 L7.76043395,257.5 C5.49596459,257.5 3.36414734,256.789558 1.49942434,255.536988 L1.49942434,2.46329596 C3.36414734,1.21056105 5.49596459,0.5 7.76043395,0.5 L42.2385641,0.5 Z" id="Path" fill="#C2C2C2"></path>
            <path d="M42.2385641,0.5 C49.5626119,0.5 55.5,7.93311474 55.5,17.1021215 L55.5,240.899127 C55.5,250.068134 49.5626119,257.5 42.2385641,257.5 L7.76043395,257.5 C5.49596459,257.5 3.36414734,256.789558 1.49942434,255.536988 L1.49942434,2.46329596 C3.36414734,1.21056105 5.49596459,0.5 7.76043395,0.5 L42.2385641,0.5 Z" id="Path" fill="url(#linearGradient-1)" fill-rule="nonzero"></path>
            <path d="M50.5,22.4431491 L50.5,236.555602 C50.5,244.809056 45.2075402,251.5 38.6785523,251.5 L12.3214477,251.5 C5.79245976,251.5 0.5,244.809056 0.5,236.555602 L0.5,22.4431491 C0.5,14.1909436 5.79245976,7.5 12.3214477,7.5 L38.6785523,7.5 C45.2075402,7.5 50.5,14.1909436 50.5,22.4431491 Z" id="Path" fill-opacity="0" fill="#E1E0E0"></path>
            <g id="Path" fill-rule="nonzero">
                <use fill="url(#linearGradient-2)" xlink:href="#path-3"></use>
                <use fill="black" fill-opacity="1" filter="url(#filter-4)" xlink:href="#path-3"></use>
            </g>
        </g>
    </g>
</svg>