<?xml version="1.0" encoding="UTF-8"?>
<svg viewBox="0 0 225 260" version="1.1" xmlns="http://www.w3.org/2000/svg" xmlns:xlink="http://www.w3.org/1999/xlink">
    <!-- Generator: Sketch 53.2 (72643) - https://sketchapp.com -->
    <title>planes</title>
    <desc>Created with Sketch.</desc>
    <defs>
        <path d="M5.40722656,19 L5.40722656,6.15039062 L6.90136719,6.15039062 L6.90136719,17.6464844 L12.5703125,17.6464844 L12.5703125,19 L5.40722656,19 Z M20.4541016,19 L20.1640625,17.6289062 L20.09375,17.6289062 C19.6132788,18.2324249 19.1342797,18.6411122 18.6567383,18.8549805 C18.1791968,19.0688487 17.5830114,19.1757812 16.8681641,19.1757812 C15.9130812,19.1757812 15.1645535,18.92969 14.6225586,18.4375 C14.0805637,17.94531 13.8095703,17.2451217 13.8095703,16.3369141 C13.8095703,14.3915918 15.3652188,13.3720708 18.4765625,13.2783203 L20.1113281,13.2255859 L20.1113281,12.6279297 C20.1113281,11.8720665 19.9487321,11.3139666 19.6235352,10.9536133 C19.2983382,10.5932599 18.7783239,10.4130859 18.0634766,10.4130859 C17.2607382,10.4130859 16.3525441,10.6591772 15.3388672,11.1513672 L14.890625,10.0351562 C15.3652367,9.77734246 15.8852511,9.57519604 16.4506836,9.42871094 C17.0161161,9.28222583 17.583005,9.20898438 18.1513672,9.20898438 C19.2998104,9.20898438 20.1508761,9.46386464 20.7045898,9.97363281 C21.2583035,10.483401 21.5351562,11.3007756 21.5351562,12.4257812 L21.5351562,19 L20.4541016,19 Z M17.1582031,17.9716797 C18.0664108,17.9716797 18.7797826,17.7226587 19.2983398,17.2246094 C19.8168971,16.72656 20.0761719,16.0293014 20.0761719,15.1328125 L20.0761719,14.2626953 L18.6171875,14.3242188 C17.4570254,14.3652346 16.620608,14.5454086 16.1079102,14.8647461 C15.5952123,15.1840836 15.3388672,15.6806607 15.3388672,16.3544922 C15.3388672,16.8818386 15.4985336,17.2832017 15.8178711,17.5585938 C16.1372086,17.8339858 16.5839815,17.9716797 17.1582031,17.9716797 Z M27.6523438,17.9716797 C27.9101575,17.9716797 28.1591785,17.9526369 28.3994141,17.9145508 C28.6396496,17.8764647 28.8300774,17.8369143 28.9707031,17.7958984 L28.9707031,18.9121094 C28.8124992,18.9882816 28.5795914,19.0512693 28.2719727,19.1010742 C27.9643539,19.1508792 27.6875012,19.1757812 27.4414062,19.1757812 C25.5781157,19.1757812 24.6464844,18.1943458 24.6464844,16.2314453 L24.6464844,10.5009766 L23.2666016,10.5009766 L23.2666016,9.79785156 L24.6464844,9.19140625 L25.2617188,7.13476562 L26.1054688,7.13476562 L26.1054688,9.3671875 L28.9003906,9.3671875 L28.9003906,10.5009766 L26.1054688,10.5009766 L26.1054688,16.1699219 C26.1054688,16.7500029 26.2431627,17.1953109 26.5185547,17.5058594 C26.7939467,17.8164078 27.1718726,17.9716797 27.6523438,17.9716797 Z M34.9648438,19.1757812 C33.5410085,19.1757812 32.4174846,18.7421918 31.5942383,17.875 C30.770992,17.0078082 30.359375,15.8037186 30.359375,14.2626953 C30.359375,12.7099532 30.7416954,11.4765671 31.5063477,10.5625 C32.2709999,9.64843293 33.2978451,9.19140625 34.5869141,9.19140625 C35.7939513,9.19140625 36.7490199,9.58837494 37.4521484,10.3823242 C38.155277,11.1762735 38.5068359,12.2236263 38.5068359,13.5244141 L38.5068359,14.4472656 L31.8710938,14.4472656 C31.9003908,15.5781307 32.1860324,16.4365205 32.7280273,17.0224609 C33.2700222,17.6084014 34.0331982,17.9013672 35.0175781,17.9013672 C36.0546927,17.9013672 37.0800731,17.6845725 38.09375,17.2509766 L38.09375,18.5517578 C37.5781224,18.7744152 37.0903343,18.9340815 36.6303711,19.0307617 C36.1704079,19.1274419 35.6152376,19.1757812 34.9648438,19.1757812 Z M34.5693359,10.4130859 C33.7958946,10.4130859 33.1792015,10.6650365 32.7192383,11.1689453 C32.259275,11.6728541 31.9882817,12.3701127 31.90625,13.2607422 L36.9423828,13.2607422 C36.9423828,12.3408157 36.7373067,11.6362329 36.3271484,11.1469727 C35.9169901,10.6577124 35.3310585,10.4130859 34.5693359,10.4130859 Z M45.3886719,9.19140625 C45.8164084,9.19140625 46.2001936,9.22656215 46.5400391,9.296875 L46.3378906,10.6503906 C45.9394511,10.5624996 45.5878921,10.5185547 45.2832031,10.5185547 C44.5039024,10.5185547 43.8374051,10.8349578 43.2836914,11.4677734 C42.7299777,12.1005891 42.453125,12.8886672 42.453125,13.8320312 L42.453125,19 L40.9941406,19 L40.9941406,9.3671875 L42.1982422,9.3671875 L42.3652344,11.1513672 L42.4355469,11.1513672 C42.7929705,10.5244109 43.2236303,10.0410173 43.7275391,9.70117188 C44.2314478,9.36132643 44.7851532,9.19140625 45.3886719,9.19140625 Z M54.265625,19 L53.9755859,17.6289062 L53.9052734,17.6289062 C53.4248023,18.2324249 52.9458032,18.6411122 52.4682617,18.8549805 C51.9907203,19.0688487 51.3945348,19.1757812 50.6796875,19.1757812 C49.7246046,19.1757812 48.9760769,18.92969 48.434082,18.4375 C47.8920871,17.94531 47.6210938,17.2451217 47.6210938,16.3369141 C47.6210938,14.3915918 49.1767423,13.3720708 52.2880859,13.2783203 L53.9228516,13.2255859 L53.9228516,12.6279297 C53.9228516,11.8720665 53.7602555,11.3139666 53.4350586,10.9536133 C53.1098617,10.5932599 52.5898473,10.4130859 51.875,10.4130859 C51.0722616,10.4130859 50.1640676,10.6591772 49.1503906,11.1513672 L48.7021484,10.0351562 C49.1767602,9.77734246 49.6967745,9.57519604 50.262207,9.42871094 C50.8276395,9.28222583 51.3945284,9.20898438 51.9628906,9.20898438 C53.1113339,9.20898438 53.9623996,9.46386464 54.5161133,9.97363281 C55.069827,10.483401 55.3466797,11.3007756 55.3466797,12.4257812 L55.3466797,19 L54.265625,19 Z M50.9697266,17.9716797 C51.8779342,17.9716797 52.591306,17.7226587 53.1098633,17.2246094 C53.6284206,16.72656 53.8876953,16.0293014 53.8876953,15.1328125 L53.8876953,14.2626953 L52.4287109,14.3242188 C51.2685489,14.3652346 50.4321315,14.5454086 49.9194336,14.8647461 C49.4067357,15.1840836 49.1503906,15.6806607 49.1503906,16.3544922 C49.1503906,16.8818386 49.310057,17.2832017 49.6293945,17.5585938 C49.9487321,17.8339858 50.3955049,17.9716797 50.9697266,17.9716797 Z M59.8115234,19 L58.3525391,19 L58.3525391,5.32421875 L59.8115234,5.32421875 L59.8115234,19 Z M73.5048828,19 L73.2148438,17.6289062 L73.1445312,17.6289062 C72.6640601,18.2324249 72.185061,18.6411122 71.7075195,18.8549805 C71.2299781,19.0688487 70.6337926,19.1757812 69.9189453,19.1757812 C68.9638624,19.1757812 68.2153347,18.92969 67.6733398,18.4375 C67.1313449,17.94531 66.8603516,17.2451217 66.8603516,16.3369141 C66.8603516,14.3915918 68.4160001,13.3720708 71.5273438,13.2783203 L73.1621094,13.2255859 L73.1621094,12.6279297 C73.1621094,11.8720665 72.9995133,11.3139666 72.6743164,10.9536133 C72.3491195,10.5932599 71.8291051,10.4130859 71.1142578,10.4130859 C70.3115194,10.4130859 69.4033254,10.6591772 68.3896484,11.1513672 L67.9414062,10.0351562 C68.416018,9.77734246 68.9360323,9.57519604 69.5014648,9.42871094 C70.0668974,9.28222583 70.6337862,9.20898438 71.2021484,9.20898438 C72.3505917,9.20898438 73.2016574,9.46386464 73.7553711,9.97363281 C74.3090848,10.483401 74.5859375,11.3007756 74.5859375,12.4257812 L74.5859375,19 L73.5048828,19 Z M70.2089844,17.9716797 C71.117192,17.9716797 71.8305638,17.7226587 72.3491211,17.2246094 C72.8676784,16.72656 73.1269531,16.0293014 73.1269531,15.1328125 L73.1269531,14.2626953 L71.6679688,14.3242188 C70.5078067,14.3652346 69.6713893,14.5454086 69.1586914,14.8647461 C68.6459935,15.1840836 68.3896484,15.6806607 68.3896484,16.3544922 C68.3896484,16.8818386 68.5493148,17.2832017 68.8686523,17.5585938 C69.1879899,17.8339858 69.6347628,17.9716797 70.2089844,17.9716797 Z M84.1835938,19 L84.1835938,12.7685547 C84.1835938,11.9833945 84.0048846,11.3974629 83.6474609,11.0107422 C83.2900373,10.6240215 82.7304726,10.4306641 81.96875,10.4306641 C80.9609325,10.4306641 80.2226586,10.7031223 79.7539062,11.2480469 C79.2851539,11.7929715 79.0507812,12.6923765 79.0507812,13.9462891 L79.0507812,19 L77.5917969,19 L77.5917969,9.3671875 L78.7783203,9.3671875 L79.015625,10.6855469 L79.0859375,10.6855469 C79.3847671,10.2109351 79.8037082,9.84326302 80.3427734,9.58251953 C80.8818386,9.32177604 81.4824186,9.19140625 82.1445312,9.19140625 C83.3046933,9.19140625 84.1777314,9.47118861 84.7636719,10.0307617 C85.3496123,10.5903348 85.6425781,11.4853454 85.6425781,12.7158203 L85.6425781,19 L84.1835938,19 Z M95.1962891,17.7080078 L95.1171875,17.7080078 C94.443356,18.6865283 93.4355536,19.1757812 92.09375,19.1757812 C90.8339781,19.1757812 89.8540074,18.7451215 89.1538086,17.8837891 C88.4536098,17.0224566 88.1035156,15.7978595 88.1035156,14.2099609 C88.1035156,12.6220624 88.4550746,11.3886763 89.1582031,10.5097656 C89.8613316,9.63085498 90.8398375,9.19140625 92.09375,9.19140625 C93.4003972,9.19140625 94.4023403,9.66601088 95.0996094,10.6152344 L95.2138672,10.6152344 L95.1523438,9.92089844 L95.1171875,9.24414062 L95.1171875,5.32421875 L96.5761719,5.32421875 L96.5761719,19 L95.3896484,19 L95.1962891,17.7080078 Z M92.2783203,17.9541016 C93.274419,17.9541016 93.9965798,17.6831082 94.4448242,17.1411133 C94.8930686,16.5991184 95.1171875,15.7246154 95.1171875,14.5175781 L95.1171875,14.2099609 C95.1171875,12.8447197 94.890139,11.8706084 94.4360352,11.2875977 C93.9819313,10.7045869 93.2568409,10.4130859 92.2607422,10.4130859 C91.4052692,10.4130859 90.7504906,10.7456021 90.2963867,11.4106445 C89.8422829,12.0756869 89.6152344,13.0146424 89.6152344,14.2275391 C89.6152344,15.458014 89.8408181,16.3867156 90.2919922,17.0136719 C90.7431663,17.6406281 91.4052691,17.9541016 92.2783203,17.9541016 Z M110.269531,19 L109.979492,17.6289062 L109.90918,17.6289062 C109.428709,18.2324249 108.949709,18.6411122 108.472168,18.8549805 C107.994627,19.0688487 107.398441,19.1757812 106.683594,19.1757812 C105.728511,19.1757812 104.979983,18.92969 104.437988,18.4375 C103.895993,17.94531 103.625,17.2451217 103.625,16.3369141 C103.625,14.3915918 105.180649,13.3720708 108.291992,13.2783203 L109.926758,13.2255859 L109.926758,12.6279297 C109.926758,11.8720665 109.764162,11.3139666 109.438965,10.9536133 C109.113768,10.5932599 108.593754,10.4130859 107.878906,10.4130859 C107.076168,10.4130859 106.167974,10.6591772 105.154297,11.1513672 L104.706055,10.0351562 C105.180666,9.77734246 105.700681,9.57519604 106.266113,9.42871094 C106.831546,9.28222583 107.398435,9.20898438 107.966797,9.20898438 C109.11524,9.20898438 109.966306,9.46386464 110.52002,9.97363281 C111.073733,10.483401 111.350586,11.3007756 111.350586,12.4257812 L111.350586,19 L110.269531,19 Z M106.973633,17.9716797 C107.88184,17.9716797 108.595212,17.7226587 109.11377,17.2246094 C109.632327,16.72656 109.891602,16.0293014 109.891602,15.1328125 L109.891602,14.2626953 L108.432617,14.3242188 C107.272455,14.3652346 106.436038,14.5454086 105.92334,14.8647461 C105.410642,15.1840836 105.154297,15.6806607 105.154297,16.3544922 C105.154297,16.8818386 105.313963,17.2832017 105.633301,17.5585938 C105.952638,17.8339858 106.399411,17.9716797 106.973633,17.9716797 Z M116.676758,14.0693359 L113.328125,9.3671875 L114.989258,9.3671875 L117.529297,13.0585938 L120.060547,9.3671875 L121.704102,9.3671875 L118.355469,14.0693359 L121.879883,19 L120.227539,19 L117.529297,15.0976562 L114.804688,19 L113.152344,19 L116.676758,14.0693359 Z M125.246094,19 L123.787109,19 L123.787109,9.3671875 L125.246094,9.3671875 L125.246094,19 Z M123.664062,6.75683594 C123.664062,6.42284989 123.746093,6.17822343 123.910156,6.02294922 C124.07422,5.867675 124.279296,5.79003906 124.525391,5.79003906 C124.759767,5.79003906 124.961913,5.86913983 125.131836,6.02734375 C125.301759,6.18554767 125.386719,6.4287093 125.386719,6.75683594 C125.386719,7.08496258 125.301759,7.32958904 125.131836,7.49072266 C124.961913,7.65185627 124.759767,7.73242188 124.525391,7.73242188 C124.279296,7.73242188 124.07422,7.65185627 123.910156,7.49072266 C123.746093,7.32958904 123.664062,7.08496258 123.664062,6.75683594 Z M134.263672,19 L133.973633,17.6289062 L133.90332,17.6289062 C133.422849,18.2324249 132.94385,18.6411122 132.466309,18.8549805 C131.988767,19.0688487 131.392582,19.1757812 130.677734,19.1757812 C129.722651,19.1757812 128.974124,18.92969 128.432129,18.4375 C127.890134,17.94531 127.619141,17.2451217 127.619141,16.3369141 C127.619141,14.3915918 129.174789,13.3720708 132.286133,13.2783203 L133.920898,13.2255859 L133.920898,12.6279297 C133.920898,11.8720665 133.758302,11.3139666 133.433105,10.9536133 C133.107909,10.5932599 132.587894,10.4130859 131.873047,10.4130859 C131.070308,10.4130859 130.162114,10.6591772 129.148438,11.1513672 L128.700195,10.0351562 C129.174807,9.77734246 129.694821,9.57519604 130.260254,9.42871094 C130.825686,9.28222583 131.392575,9.20898438 131.960938,9.20898438 C133.109381,9.20898438 133.960446,9.46386464 134.51416,9.97363281 C135.067874,10.483401 135.344727,11.3007756 135.344727,12.4257812 L135.344727,19 L134.263672,19 Z M130.967773,17.9716797 C131.875981,17.9716797 132.589353,17.7226587 133.10791,17.2246094 C133.626467,16.72656 133.885742,16.0293014 133.885742,15.1328125 L133.885742,14.2626953 L132.426758,14.3242188 C131.266596,14.3652346 130.430178,14.5454086 129.91748,14.8647461 C129.404783,15.1840836 129.148438,15.6806607 129.148438,16.3544922 C129.148438,16.8818386 129.308104,17.2832017 129.627441,17.5585938 C129.946779,17.8339858 130.393552,17.9716797 130.967773,17.9716797 Z M139.80957,19 L138.350586,19 L138.350586,5.32421875 L139.80957,5.32421875 L139.80957,19 Z M152.061523,19.1757812 C151.434567,19.1757812 150.861819,19.0600598 150.343262,18.8286133 C149.824704,18.5971668 149.38965,18.2412133 149.038086,17.7607422 L148.932617,17.7607422 C149.00293,18.323245 149.038086,18.8564428 149.038086,19.3603516 L149.038086,23.3242188 L147.579102,23.3242188 L147.579102,9.3671875 L148.765625,9.3671875 L148.967773,10.6855469 L149.038086,10.6855469 C149.413088,10.1582005 149.849607,9.77734492 150.347656,9.54296875 C150.845706,9.30859258 151.416989,9.19140625 152.061523,9.19140625 C153.338874,9.19140625 154.324704,9.62792532 155.019043,10.5009766 C155.713382,11.3740278 156.060547,12.5986249 156.060547,14.1748047 C156.060547,15.7568438 155.707523,16.9858355 155.001465,17.8618164 C154.295407,18.7377973 153.315436,19.1757812 152.061523,19.1757812 Z M151.850586,10.4306641 C150.866206,10.4306641 150.154299,10.7031223 149.714844,11.2480469 C149.275388,11.7929715 149.049805,12.6601503 149.038086,13.8496094 L149.038086,14.1748047 C149.038086,15.5283271 149.26367,16.4965791 149.714844,17.0795898 C150.166018,17.6626006 150.889643,17.9541016 151.885742,17.9541016 C152.717778,17.9541016 153.369627,17.6171909 153.841309,16.9433594 C154.312991,16.2695279 154.548828,15.3408262 154.548828,14.1572266 C154.548828,12.9560487 154.312991,12.0346712 153.841309,11.3930664 C153.369627,10.7514616 152.706059,10.4306641 151.850586,10.4306641 Z M160.068359,19 L158.609375,19 L158.609375,5.32421875 L160.068359,5.32421875 L160.068359,19 Z M169.085938,19 L168.795898,17.6289062 L168.725586,17.6289062 C168.245115,18.2324249 167.766116,18.6411122 167.288574,18.8549805 C166.811033,19.0688487 166.214847,19.1757812 165.5,19.1757812 C164.544917,19.1757812 163.796389,18.92969 163.254395,18.4375 C162.7124,17.94531 162.441406,17.2451217 162.441406,16.3369141 C162.441406,14.3915918 163.997055,13.3720708 167.108398,13.2783203 L168.743164,13.2255859 L168.743164,12.6279297 C168.743164,11.8720665 168.580568,11.3139666 168.255371,10.9536133 C167.930174,10.5932599 167.41016,10.4130859 166.695312,10.4130859 C165.892574,10.4130859 164.98438,10.6591772 163.970703,11.1513672 L163.522461,10.0351562 C163.997073,9.77734246 164.517087,9.57519604 165.08252,9.42871094 C165.647952,9.28222583 166.214841,9.20898438 166.783203,9.20898438 C167.931646,9.20898438 168.782712,9.46386464 169.336426,9.97363281 C169.890139,10.483401 170.166992,11.3007756 170.166992,12.4257812 L170.166992,19 L169.085938,19 Z M165.790039,17.9716797 C166.698247,17.9716797 167.411619,17.7226587 167.930176,17.2246094 C168.448733,16.72656 168.708008,16.0293014 168.708008,15.1328125 L168.708008,14.2626953 L167.249023,14.3242188 C166.088861,14.3652346 165.252444,14.5454086 164.739746,14.8647461 C164.227048,15.1840836 163.970703,15.6806607 163.970703,16.3544922 C163.970703,16.8818386 164.130369,17.2832017 164.449707,17.5585938 C164.769045,17.8339858 165.215817,17.9716797 165.790039,17.9716797 Z M179.764648,19 L179.764648,12.7685547 C179.764648,11.9833945 179.585939,11.3974629 179.228516,11.0107422 C178.871092,10.6240215 178.311527,10.4306641 177.549805,10.4306641 C176.541987,10.4306641 175.803713,10.7031223 175.334961,11.2480469 C174.866209,11.7929715 174.631836,12.6923765 174.631836,13.9462891 L174.631836,19 L173.172852,19 L173.172852,9.3671875 L174.359375,9.3671875 L174.59668,10.6855469 L174.666992,10.6855469 C174.965822,10.2109351 175.384763,9.84326302 175.923828,9.58251953 C176.462893,9.32177604 177.063473,9.19140625 177.725586,9.19140625 C178.885748,9.19140625 179.758786,9.47118861 180.344727,10.0307617 C180.930667,10.5903348 181.223633,11.4853454 181.223633,12.7158203 L181.223633,19 L179.764648,19 Z M188.290039,19.1757812 C186.866204,19.1757812 185.74268,18.7421918 184.919434,17.875 C184.096187,17.0078082 183.68457,15.8037186 183.68457,14.2626953 C183.68457,12.7099532 184.066891,11.4765671 184.831543,10.5625 C185.596195,9.64843293 186.62304,9.19140625 187.912109,9.19140625 C189.119147,9.19140625 190.074215,9.58837494 190.777344,10.3823242 C191.480472,11.1762735 191.832031,12.2236263 191.832031,13.5244141 L191.832031,14.4472656 L185.196289,14.4472656 C185.225586,15.5781307 185.511228,16.4365205 186.053223,17.0224609 C186.595218,17.6084014 187.358394,17.9013672 188.342773,17.9013672 C189.379888,17.9013672 190.405268,17.6845725 191.418945,17.2509766 L191.418945,18.5517578 C190.903318,18.7744152 190.41553,18.9340815 189.955566,19.0307617 C189.495603,19.1274419 188.940433,19.1757812 188.290039,19.1757812 Z M187.894531,10.4130859 C187.12109,10.4130859 186.504397,10.6650365 186.044434,11.1689453 C185.58447,11.6728541 185.313477,12.3701127 185.231445,13.2607422 L190.267578,13.2607422 C190.267578,12.3408157 190.062502,11.6362329 189.652344,11.1469727 C189.242185,10.6577124 188.656254,10.4130859 187.894531,10.4130859 Z M200.533203,16.3720703 C200.533203,17.2685592 200.199222,17.9599585 199.53125,18.4462891 C198.863278,18.9326196 197.925787,19.1757812 196.71875,19.1757812 C195.4414,19.1757812 194.445316,18.9736348 193.730469,18.5693359 L193.730469,17.2158203 C194.193362,17.4501965 194.689939,17.634765 195.220215,17.7695312 C195.750491,17.9042975 196.261716,17.9716797 196.753906,17.9716797 C197.515629,17.9716797 198.10156,17.8500989 198.511719,17.6069336 C198.921877,17.3637683 199.126953,16.9931666 199.126953,16.4951172 C199.126953,16.1201153 198.964357,15.7993177 198.63916,15.5327148 C198.313963,15.2661119 197.679692,14.9511737 196.736328,14.5878906 C195.839839,14.2539046 195.202639,13.9624036 194.824707,13.7133789 C194.446775,13.4643542 194.165528,13.1816422 193.980957,12.8652344 C193.796386,12.5488265 193.704102,12.1709006 193.704102,11.7314453 C193.704102,10.9462851 194.023434,10.3266624 194.662109,9.87255859 C195.300784,9.41845476 196.176752,9.19140625 197.290039,9.19140625 C198.327154,9.19140625 199.340815,9.40234164 200.331055,9.82421875 L199.8125,11.0107422 C198.845698,10.6123027 197.96973,10.4130859 197.18457,10.4130859 C196.493161,10.4130859 195.971681,10.5214833 195.620117,10.7382812 C195.268553,10.9550792 195.092773,11.2539043 195.092773,11.6347656 C195.092773,11.8925794 195.158691,12.1123038 195.290527,12.2939453 C195.422364,12.4755868 195.634764,12.6484367 195.927734,12.8125 C196.220705,12.9765633 196.783199,13.2138656 197.615234,13.5244141 C198.757818,13.9404318 199.529783,14.3593729 199.931152,14.78125 C200.332522,15.2031271 200.533203,15.7333952 200.533203,16.3720703 Z" id="path-1"></path>
        <polygon id="path-2" points="18.5889063 178.47 17.4580469 178.47 15.1553125 174.702422 12.8115625 178.47 11.756875 178.47 14.6045313 173.993437 11.9502344 169.903594 13.0517969 169.903594 15.17875 173.296172 17.3232813 169.903594 18.3838281 169.903594 15.7295313 173.958281"></polygon>
        <polygon id="path-3" points="187.737422 171.186797 190.022578 166.903594 191.100703 166.903594 188.241328 172.147734 188.241328 175.47 187.233516 175.47 187.233516 172.194609 184.38 166.903594 185.469844 166.903594"></polygon>
        <polygon id="path-4" points="104.079141 51.47 98.1904687 51.47 98.1904687 50.6907031 102.737344 43.8000781 98.3310937 43.8000781 98.3310937 42.9035937 103.950234 42.9035937 103.950234 43.6828906 99.4033594 50.5676562 104.079141 50.5676562"></polygon>
        <polygon id="path-5" points="102.536616 180.179324 100.651851 180.179324 96.81396 173.900027 92.90771 180.179324 91.1498975 180.179324 95.8959912 172.718387 91.4721631 165.90198 93.3081006 165.90198 96.8530225 171.556277 100.427241 165.90198 102.194819 165.90198 97.7709912 172.659793"></polygon>
        <path d="M60.5802594,117.357559 L58.6954937,117.357559 L54.8576031,111.078262 L50.9513531,117.357559 L49.1935406,117.357559 L53.9396344,109.896622 L49.5158062,103.080216 L51.3517437,103.080216 L54.8966656,108.734512 L58.4708844,103.080216 L60.2384625,103.080216 L55.8146344,109.838028 L60.5802594,117.357559 Z M71.2736187,117.357559 L61.4591656,117.357559 L61.4591656,116.058731 L69.0372906,104.574356 L61.6935406,104.574356 L61.6935406,103.080216 L71.058775,103.080216 L71.058775,104.379044 L63.48065,115.853653 L71.2736187,115.853653 L71.2736187,117.357559 Z" id="path-6"></path>
        <path d="M132.62174,111.852968 L136.430334,104.714296 L138.227209,104.714296 L133.461584,113.454531 L133.461584,118.99164 L131.781896,118.99164 L131.781896,113.532656 L127.026037,104.714296 L128.842443,104.714296 L132.62174,111.852968 Z M148.842443,118.99164 L139.02799,118.99164 L139.02799,117.692812 L146.606115,106.208437 L139.262365,106.208437 L139.262365,104.714296 L148.6276,104.714296 L148.6276,106.013124 L141.049475,117.487734 L148.842443,117.487734 L148.842443,118.99164 Z" id="path-7"></path>
    </defs>
    <g id="planes" stroke="none" stroke-width="1" fill="none" fill-rule="evenodd">
        <g transform="translate(10.000000, 10.000000)">
            <g id="Lateralandaxialplanes" fill-rule="nonzero">
                <use fill="#000000" xlink:href="#path-1"></use>
                <use fill="#CC4400" xlink:href="#path-1"></use>
            </g>
            <polygon id="Shape" stroke="#E0CAE0" fill="#F2DAF2" fill-rule="nonzero" points="101.71 134.47 26.71 171.97 11.71 81.97 101.71 59.47"></polygon>
            <polygon id="Shape" stroke="#CAE0DF" fill="#DAF2F1" fill-rule="nonzero" points="176.71 171.97 101.71 134.47 101.71 59.47 191.71 81.97"></polygon>
            <polygon id="Shape" stroke="#E0DCCA" fill="#F2EEDA" fill-rule="nonzero" points="176.71 171.97 102.73 234.97 26.71 171.97 101.71 134.47"></polygon>
            <path d="M33.13,168.76 L35.37,167.64" id="Shape" stroke="#804040"></path>
            <path d="M39.64,165.5 L97.34,136.66" id="Shape" stroke="#804040" stroke-dasharray="4.78"></path>
            <path d="M99.48,135.59 L101.71,134.47" id="Shape" stroke="#804040"></path>
            <polygon id="Shape" fill="#804040" fill-rule="nonzero" points="36.65 172.54 26.7 171.94 32.19 163.62"></polygon>
            <path d="M170.29,168.76 L168.06,167.64" id="Shape" stroke="#408046"></path>
            <path d="M163.78,165.5 L106.09,136.66" id="Shape" stroke="#408046" stroke-dasharray="4.78"></path>
            <path d="M103.95,135.59 L101.71,134.47" id="Shape" stroke="#408046"></path>
            <polygon id="Shape" fill="#408046" fill-rule="nonzero" points="171.21 163.67 176.7 171.99 166.75 172.59"></polygon>
            <path d="M101.71,66.65 L101.71,69.15" id="Shape" stroke="#404680"></path>
            <path d="M101.71,73.98 L101.71,129.55" id="Shape" stroke="#404680" stroke-dasharray="4.83"></path>
            <path d="M101.71,131.97 L101.71,134.47" id="Shape" stroke="#404680"></path>
            <polygon id="Shape" fill="#404680" fill-rule="nonzero" points="96.75 68.1 101.74 59.47 106.73 68.1"></polygon>
            <g id="X" fill-rule="nonzero">
                <use fill="#000000" xlink:href="#path-2"></use>
                <use fill="#7A0707" xlink:href="#path-2"></use>
            </g>
            <g id="Y" fill-rule="nonzero">
                <use fill="#000000" xlink:href="#path-3"></use>
                <use fill="#078013" xlink:href="#path-3"></use>
            </g>
            <g id="Z" fill-rule="nonzero">
                <use fill="#000000" xlink:href="#path-4"></use>
                <use fill="#072282" xlink:href="#path-4"></use>
            </g>
            <g id="X" fill-rule="nonzero" transform="translate(96.843257, 173.040652) rotate(43.598039) translate(-96.843257, -173.040652) ">
                <use fill="#000000" xlink:href="#path-5"></use>
                <use fill="#666666" xlink:href="#path-5"></use>
            </g>
            <g id="XZ" fill-rule="nonzero" transform="translate(60.233580, 110.218887) rotate(-8.461060) translate(-60.233580, -110.218887) ">
                <use fill="#000000" xlink:href="#path-6"></use>
                <use fill="#666666" xlink:href="#path-6"></use>
            </g>
            <g id="YZ" fill-rule="nonzero" transform="translate(137.934240, 111.852968) rotate(5.446666) translate(-137.934240, -111.852968) ">
                <use fill="#000000" xlink:href="#path-7"></use>
                <use fill="#666666" xlink:href="#path-7"></use>
            </g>
        </g>
    </g>
</svg>