<?xml version="1.0" encoding="UTF-8"?>
<svg viewBox="0 0 1103 500" version="1.1" xmlns="http://www.w3.org/2000/svg" xmlns:xlink="http://www.w3.org/1999/xlink">
    <title>tab-condenser</title>
    <defs>
        <path d="M311.25,-301.25 L789.25,-301.25 C794.772847,-301.25 799.25,-296.772847 799.25,-291.25 L799.25,789.25 C799.25,794.772847 794.772847,799.25 789.25,799.25 L311.25,799.25 C305.727153,799.25 301.25,794.772847 301.25,789.25 L301.25,-291.25 C301.25,-296.772847 305.727153,-301.25 311.25,-301.25 Z" id="path-1"></path>
        <path d="M1034.5,488 L1034.5,234 C1034.5,228.481977 1043.60385,227.743063 1055.04937,227.782292 L1056.92486,227.794842 L1059.80105,227.830952 L1064.70918,227.905632 L1066.69381,227.92952 C1083.5833,228.099231 1100.755,227.281992 1100.50555,215 L1100.50555,10 C1100.50555,4.4771525 1096.02285,8.41282599e-12 1090.5,8.41282599e-12 L10,8.41282599e-12 C4.4771525,8.41282599e-12 2.00088834e-11,4.4771525 2.00088834e-11,10 L2.00088834e-11,488 C2.00088834e-11,493.522847 4.4771525,498 10,498 L1024.5,498 C1030.02285,498 1034.5,493.522847 1034.5,488 Z" id="path-2"></path>
        <linearGradient x1="51.2544572%" y1="-3.58360834%" x2="51.2544572%" y2="104.488678%" id="linearGradient-3">
            <stop stop-color="#BFBAB8" offset="0%"></stop>
            <stop stop-color="#E6E6E5" offset="41.2906991%"></stop>
            <stop stop-color="#E6E6E5" offset="52.2999748%"></stop>
            <stop stop-color="#E6E6E5" offset="57.1980692%"></stop>
            <stop stop-color="#BFBAB8" offset="100%"></stop>
        </linearGradient>
        <linearGradient x1="0%" y1="50.0003994%" x2="100%" y2="50.0003994%" id="linearGradient-4">
            <stop stop-color="#3E3D3C" offset="0%"></stop>
            <stop stop-color="#E6E6E5" offset="49.6610351%"></stop>
            <stop stop-color="#E6E6E5" offset="100%"></stop>
        </linearGradient>
        <path d="M10,0 L1001,0 C1006.52285,-1.01453063e-15 1011,4.4771525 1011,10 L1011,464 C1011,469.522847 1006.52285,474 1001,474 L10,474 C4.4771525,474 -5.79434219e-14,469.522847 0,464 L0,10 C-6.76353751e-16,4.4771525 4.4771525,1.01453063e-15 10,0 Z" id="path-5"></path>
        <path d="M10,0 L1001,0 C1006.52285,-6.30067353e-14 1011,4.4771525 1011,10 L1011,460.192771 C1011,465.715619 1006.52285,470.192771 1001,470.192771 L10,470.192771 C4.4771525,470.192771 -5.61670651e-14,465.715619 0,460.192771 L0,10 C-6.76353751e-16,4.4771525 4.4771525,2.79088747e-15 10,0 Z" id="path-6"></path>
        <filter x="-0.4%" y="-1.0%" width="100.9%" height="101.9%" filterUnits="objectBoundingBox" id="filter-7">
            <feMorphology radius="1" operator="erode" in="SourceAlpha" result="shadowSpreadInner1"></feMorphology>
            <feGaussianBlur stdDeviation="3" in="shadowSpreadInner1" result="shadowBlurInner1"></feGaussianBlur>
            <feOffset dx="0" dy="1" in="shadowBlurInner1" result="shadowOffsetInner1"></feOffset>
            <feComposite in="shadowOffsetInner1" in2="SourceAlpha" operator="arithmetic" k2="-1" k3="1" result="shadowInnerInner1"></feComposite>
            <feColorMatrix values="0 0 0 0 0   0 0 0 0 0   0 0 0 0 0  0 0 0 0.5 0" type="matrix" in="shadowInnerInner1"></feColorMatrix>
        </filter>
        <linearGradient x1="51.2544572%" y1="-3.58360834%" x2="51.2544572%" y2="104.067813%" id="linearGradient-8">
            <stop stop-color="#BFBAB8" offset="0%"></stop>
            <stop stop-color="#E6E6E5" offset="5.6903739%"></stop>
            <stop stop-color="#E6E6E5" offset="52.2999748%"></stop>
            <stop stop-color="#E6E6E5" offset="93.9680178%"></stop>
            <stop stop-color="#BFBAB8" offset="100%"></stop>
        </linearGradient>
        <linearGradient x1="0%" y1="50.0003994%" x2="100%" y2="50.0003994%" id="linearGradient-9">
            <stop stop-color="#3E3D3C" offset="0%"></stop>
            <stop stop-color="#E6E6E5" offset="49.6610351%"></stop>
            <stop stop-color="#E6E6E5" offset="100%"></stop>
        </linearGradient>
        <path d="M39,29 L996,29 C1001.52285,29 1006,33.4771525 1006,39 L1006,343 C1006,348.522847 1001.52285,353 996,353 L39,353 C33.4771525,353 29,348.522847 29,343 L29,39 C29,33.4771525 33.4771525,29 39,29 Z" id="path-10"></path>
        <filter x="-0.5%" y="-1.4%" width="100.9%" height="102.8%" filterUnits="objectBoundingBox" id="filter-11">
            <feMorphology radius="1" operator="erode" in="SourceAlpha" result="shadowSpreadInner1"></feMorphology>
            <feGaussianBlur stdDeviation="3" in="shadowSpreadInner1" result="shadowBlurInner1"></feGaussianBlur>
            <feOffset dx="0" dy="1" in="shadowBlurInner1" result="shadowOffsetInner1"></feOffset>
            <feComposite in="shadowOffsetInner1" in2="SourceAlpha" operator="arithmetic" k2="-1" k3="1" result="shadowInnerInner1"></feComposite>
            <feColorMatrix values="0 0 0 0 0   0 0 0 0 0   0 0 0 0 0  0 0 0 0.5 0" type="matrix" in="shadowInnerInner1"></feColorMatrix>
        </filter>
        <linearGradient x1="0%" y1="100%" x2="0%" y2="0%" id="linearGradient-12">
            <stop stop-color="#000000" stop-opacity="0.07" offset="0%"></stop>
            <stop stop-color="#FFFFFF" stop-opacity="0.07" offset="100%"></stop>
        </linearGradient>
        <linearGradient x1="0%" y1="0%" x2="0%" y2="100%" id="linearGradient-13">
            <stop stop-color="#000000" stop-opacity="0.08" offset="0%"></stop>
            <stop stop-color="#FFFFFF" stop-opacity="0.08" offset="100%"></stop>
        </linearGradient>
        <path d="M55.633,17.182 L55.633,183.804 C55.633,190.412 50.3,195.769 43.721,195.769 L17.162,195.769 C10.583,195.769 5.25,190.412 5.25,183.804 L5.25,17.182 C5.25,10.575 10.583,5.218 17.162,5.218 L43.721,5.218 C50.3,5.218 55.633,10.575 55.633,17.182 Z" id="path-14"></path>
        <filter x="-5.0%" y="-1.3%" width="109.9%" height="102.6%" filterUnits="objectBoundingBox" id="filter-15">
            <feMorphology radius="1" operator="erode" in="SourceAlpha" result="shadowSpreadInner1"></feMorphology>
            <feGaussianBlur stdDeviation="1.5" in="shadowSpreadInner1" result="shadowBlurInner1"></feGaussianBlur>
            <feOffset dx="0" dy="-1" in="shadowBlurInner1" result="shadowOffsetInner1"></feOffset>
            <feComposite in="shadowOffsetInner1" in2="SourceAlpha" operator="arithmetic" k2="-1" k3="1" result="shadowInnerInner1"></feComposite>
            <feColorMatrix values="0 0 0 0 0   0 0 0 0 0   0 0 0 0 0  0 0 0 0.2 0" type="matrix" in="shadowInnerInner1"></feColorMatrix>
        </filter>
    </defs>
    <g id="Page-1" stroke="none" stroke-width="1" fill="none" fill-rule="evenodd">
        <g id="bf_backw-tabCondenser" transform="translate(-1497.000000, -1030.000000)">
            <g id="Group" transform="translate(1498.000000, 1031.000000)">
                <g id="bck-path" transform="translate(550.250000, 249.000000) scale(1, -1) rotate(90.000000) translate(-550.250000, -249.000000) ">
                    <path stroke="#EAE6E4" stroke-width="4" d="M789.25,-299.25 C791.459139,-299.25 793.459139,-298.354569 794.906854,-296.906854 C796.354569,-295.459139 797.25,-293.459139 797.25,-291.25 L797.25,-291.25 L797.25,789.25 C797.25,791.459139 796.354569,793.459139 794.906854,794.906854 C793.459139,796.354569 791.459139,797.25 789.25,797.25 L789.25,797.25 L311.25,797.25 C309.040861,797.25 307.040861,796.354569 305.593146,794.906854 C304.145431,793.459139 303.25,791.459139 303.25,789.25 L303.25,789.25 L303.25,-291.25 C303.25,-293.459139 304.145431,-295.459139 305.593146,-296.906854 C307.040861,-298.354569 309.040861,-299.25 311.25,-299.25 L311.25,-299.25 Z" stroke-linejoin="square" fill="#D8D8D8" fill-rule="evenodd"></path>
                    <path stroke="#979797" stroke-width="1" d="M789.25,-301.75 C792.149495,-301.75 794.774495,-300.574747 796.674621,-298.674621 C798.574747,-296.774495 799.75,-294.149495 799.75,-291.25 L799.75,-291.25 L799.75,789.25 C799.75,792.149495 798.574747,794.774495 796.674621,796.674621 C794.774495,798.574747 792.149495,799.75 789.25,799.75 L789.25,799.75 L311.25,799.75 C308.350505,799.75 305.725505,798.574747 303.825379,796.674621 C301.925253,794.774495 300.75,792.149495 300.75,789.25 L300.75,789.25 L300.75,-291.25 C300.75,-294.149495 301.925253,-296.774495 303.825379,-298.674621 C305.725505,-300.574747 308.350505,-301.75 311.25,-301.75 L311.25,-301.75 Z"></path>
                </g>
                <path d="M311.25,-301.25 L789.25,-301.25 C794.772847,-301.25 799.25,-296.772847 799.25,-291.25 L799.25,789.25 C799.25,794.772847 794.772847,799.25 789.25,799.25 L311.25,799.25 C305.727153,799.25 301.25,794.772847 301.25,789.25 L301.25,-291.25 C301.25,-296.772847 305.727153,-301.25 311.25,-301.25 Z" id="bck-path" fill="#D8D8D8" style="mix-blend-mode: multiply;" transform="translate(550.250000, 249.000000) scale(1, -1) rotate(90.000000) translate(-550.250000, -249.000000) "></path>
                <g id="front-path">
                    <path stroke="#EAE6E4" stroke-width="4" d="M1090.5,2 C1092.7099,2 1094.71162,2.89594087 1096.16078,4.34429111 C1097.60911,5.79181979 1098.50555,7.791314 1098.50555,10 L1098.50555,10 L1098.50555,215.021157 C1098.5499,217.029795 1098.03608,218.666194 1097.02786,219.981459 C1095.85461,221.512005 1094.06637,222.604439 1091.89289,223.435572 C1085.54577,225.862693 1076.07734,226.023708 1066.71788,225.929665 L1066.71788,225.929665 L1064.73961,225.905864 L1059.82616,225.83111 L1056.9441,225.794926 L1055.05623,225.782304 C1048.47564,225.759749 1042.64888,226.020946 1038.75528,227.199048 C1036.81304,227.786722 1035.30535,228.61425 1034.27674,229.653958 C1033.12864,230.814454 1032.5,232.242119 1032.5,234 L1032.5,234 L1032.5,488 C1032.5,490.209139 1031.60457,492.209139 1030.15685,493.656854 C1028.70914,495.104569 1026.70914,496 1024.5,496 L1024.5,496 L10,496 C7.790861,496 5.790861,495.104569 4.34314575,493.656854 C2.8954305,492.209139 2,490.209139 2,488 L2,488 L2,10 C2,7.790861 2.8954305,5.790861 4.34314575,4.34314575 C5.790861,2.8954305 7.790861,2 10,2 L10,2 Z" stroke-linejoin="square" fill="#D8D8D8" fill-rule="evenodd"></path>
                    <path stroke="#979797" stroke-width="1" d="M1090.5,-0.5 C1093.39978,-0.5 1096.02648,0.675513108 1097.92805,2.57603382 C1099.8292,4.47613231 1101.00555,7.10087061 1101.00555,10 L1101.00555,10 L1101.00555,214.99497 C1101.05828,217.639887 1100.33559,219.775701 1099.01198,221.502398 C1097.58385,223.365453 1095.44475,224.753903 1092.78583,225.770667 C1086.20747,228.286212 1076.40374,228.527114 1066.68779,228.429484 L1066.68779,228.429484 L1064.70157,228.405574 L1059.79478,228.330913 L1056.92152,228.294831 L1055.04766,228.282289 C1048.76799,228.260766 1043.19795,228.466745 1039.4793,229.591912 C1038.00997,230.036494 1036.83727,230.620464 1036.05397,231.412214 C1035.37035,232.103214 1035,232.954426 1035,234 L1035,234 L1035,488 C1035,490.899495 1033.82475,493.524495 1031.92462,495.424621 C1030.02449,497.324747 1027.39949,498.5 1024.5,498.5 L1024.5,498.5 L10,498.5 C7.10050506,498.5 4.47550506,497.324747 2.5753788,495.424621 C0.675252532,493.524495 -0.5,490.899495 -0.5,488 L-0.5,488 L-0.5,10 C-0.5,7.10050506 0.675252532,4.47550506 2.5753788,2.5753788 C4.47550506,0.675252532 7.10050506,-0.5 10,-0.5 L10,-0.5 Z"></path>
                </g>
                <g transform="translate(12.000000, 12.000000)" id="bkgw">
                    <g id="path" fill-rule="nonzero">
                        <use fill="url(#linearGradient-3)" xlink:href="#path-5"></use>
                        <use fill-opacity="0.02" fill="url(#linearGradient-4)" style="mix-blend-mode: difference;" xlink:href="#path-5"></use>
                    </g>
                    <g id="Rectangle">
                        <use fill="black" fill-opacity="1" filter="url(#filter-7)" xlink:href="#path-6"></use>
                        <use stroke="#EAE6E4" stroke-width="1" xlink:href="#path-6"></use>
                    </g>
                </g>
                <g id="path" fill-rule="nonzero">
                    <use fill-opacity="0.3" fill="url(#linearGradient-8)" xlink:href="#path-10"></use>
                    <use fill-opacity="0.02" fill="url(#linearGradient-9)" style="mix-blend-mode: difference;" xlink:href="#path-10"></use>
                    <use fill="black" fill-opacity="1" filter="url(#filter-11)" xlink:href="#path-10"></use>
                    <use stroke="#EAE6E4" stroke-width="1" xlink:href="#path-10"></use>
                </g>
                <g transform="translate(1027.500000, 12.500000)" id="btn">
                    <g transform="translate(0.631000, 0.500000)">
                        <path d="M60.883,13.294 L60.883,187.693 C60.883,195.035 54.957,200.986 47.647,200.986 L13.235,200.986 C5.925,200.986 7.95807864e-13,195.035 7.95807864e-13,187.693 L7.95807864e-13,13.294 C7.95807864e-13,5.952 5.925,0 13.235,0 L47.647,0 C54.957,0 60.883,5.952 60.883,13.294 Z" id="Path" fill="#C2C2C2"></path>
                        <path d="M60.883,13.294 L60.883,187.693 C60.883,195.035 54.957,200.986 47.647,200.986 L13.235,200.986 C5.925,200.986 7.95807864e-13,195.035 7.95807864e-13,187.693 L7.95807864e-13,13.294 C7.95807864e-13,5.952 5.925,0 13.235,0 L47.647,0 C54.957,0 60.883,5.952 60.883,13.294 Z" id="Path" fill="url(#linearGradient-12)" fill-rule="nonzero"></path>
                        <path d="M55.633,17.182 L55.633,183.804 C55.633,190.412 50.3,195.769 43.721,195.769 L17.162,195.769 C10.583,195.769 5.25,190.412 5.25,183.804 L5.25,17.182 C5.25,10.575 10.583,5.218 17.162,5.218 L43.721,5.218 C50.3,5.218 55.633,10.575 55.633,17.182 Z" id="Path" fill-opacity="0" fill="#E1E0E0"></path>
                        <g id="Path" fill-rule="nonzero">
                            <use fill="url(#linearGradient-13)" xlink:href="#path-14"></use>
                            <use fill="black" fill-opacity="1" filter="url(#filter-15)" xlink:href="#path-14"></use>
                        </g>
                    </g>
                </g>
                <path d="M986.95459,123.253906 C988.833496,123.253906 990.534668,122.936523 992.058105,122.301758 L992.058105,122.301758 L992.058105,119.000977 C990.20459,119.652669 988.626139,119.978516 987.322754,119.978516 C984.216634,119.978516 982.663574,117.90918 982.663574,113.770508 C982.663574,111.781576 983.069824,110.230632 983.882324,109.117676 C984.694824,108.00472 985.841634,107.448242 987.322754,107.448242 C987.999837,107.448242 988.689616,107.570964 989.39209,107.816406 C990.094564,108.061849 990.792806,108.349609 991.486816,108.679688 L991.486816,108.679688 L992.756348,105.480469 C990.936686,104.608724 989.125488,104.172852 987.322754,104.172852 C985.553874,104.172852 984.011393,104.560059 982.695312,105.334473 C981.379232,106.108887 980.369954,107.221842 979.66748,108.67334 C978.965007,110.124837 978.61377,111.81543 978.61377,113.745117 C978.61377,116.808919 979.328939,119.159668 980.759277,120.797363 C982.189616,122.435059 984.25472,123.253906 986.95459,123.253906 Z M1004.01709,123.253906 C1006.86084,123.253906 1009.04443,122.428711 1010.56787,120.77832 C1012.09131,119.12793 1012.85303,116.766602 1012.85303,113.694336 C1012.85303,110.613607 1012.09766,108.252279 1010.58691,106.610352 C1009.07617,104.968424 1006.89469,104.147461 1004.04248,104.147461 C1001.19027,104.147461 999.000326,104.962077 997.472656,106.591309 C995.944987,108.22054 995.181152,110.579753 995.181152,113.668945 C995.181152,116.758138 995.942871,119.12793 997.466309,120.77832 C998.989746,122.428711 1001.17334,123.253906 1004.01709,123.253906 Z M1004.01709,119.953125 C1002.45133,119.953125 1001.2749,119.428385 1000.48779,118.378906 C999.700684,117.329427 999.307129,115.767904 999.307129,113.694336 C999.307129,111.620768 999.704915,110.057129 1000.50049,109.003418 C1001.29606,107.949707 1002.47673,107.422852 1004.04248,107.422852 C1007.16553,107.422852 1008.72705,109.513346 1008.72705,113.694336 C1008.72705,117.866862 1007.15706,119.953125 1004.01709,119.953125 Z M1020.21631,123 L1020.21631,114.265625 C1020.21631,113.207682 1020.1359,111.438802 1019.9751,108.958984 L1019.9751,108.958984 L1020.08936,108.958984 L1028.16357,123 L1033.16553,123 L1033.16553,104.439453 L1029.62354,104.439453 L1029.62354,113.224609 C1029.62354,114.223307 1029.68701,115.928711 1029.81396,118.34082 L1029.81396,118.34082 L1029.7251,118.34082 L1021.66357,104.439453 L1016.69971,104.439453 L1016.69971,123 L1020.21631,123 Z M1043.09326,123 C1046.37712,123 1048.88867,122.1875 1050.62793,120.5625 C1052.36719,118.9375 1053.23682,116.597331 1053.23682,113.541992 C1053.23682,110.672852 1052.39893,108.438477 1050.72314,106.838867 C1049.04736,105.239258 1046.6945,104.439453 1043.66455,104.439453 L1043.66455,104.439453 L1037.8374,104.439453 L1037.8374,123 L1043.09326,123 Z M1043.46143,119.75 L1041.77295,119.75 L1041.77295,107.664062 L1043.86768,107.664062 C1047.38851,107.664062 1049.14893,109.657227 1049.14893,113.643555 C1049.14893,117.714518 1047.25309,119.75 1043.46143,119.75 L1043.46143,119.75 Z M1067.77295,123 L1067.77295,119.75 L1061.01904,119.75 L1061.01904,114.963867 L1067.30322,114.963867 L1067.30322,111.739258 L1061.01904,111.739258 L1061.01904,107.664062 L1067.77295,107.664062 L1067.77295,104.439453 L1057.0835,104.439453 L1057.0835,123 L1067.77295,123 Z M1075.16162,123 L1075.16162,114.265625 C1075.16162,113.207682 1075.08122,111.438802 1074.92041,108.958984 L1074.92041,108.958984 L1075.03467,108.958984 L1083.10889,123 L1088.11084,123 L1088.11084,104.439453 L1084.56885,104.439453 L1084.56885,113.224609 C1084.56885,114.223307 1084.63232,115.928711 1084.75928,118.34082 L1084.75928,118.34082 L1084.67041,118.34082 L1076.60889,104.439453 L1071.64502,104.439453 L1071.64502,123 L1075.16162,123 Z M1096.896,123.253906 C1099.04574,123.253906 1100.72363,122.771484 1101.92969,121.806641 C1103.13574,120.841797 1103.73877,119.521484 1103.73877,117.845703 C1103.73877,116.635417 1103.41715,115.613444 1102.77393,114.779785 C1102.1307,113.946126 1100.94157,113.114583 1099.20654,112.285156 C1097.89469,111.658854 1097.06315,111.225098 1096.71191,110.983887 C1096.36068,110.742676 1096.10465,110.493001 1095.94385,110.234863 C1095.78304,109.976725 1095.70264,109.674154 1095.70264,109.327148 C1095.70264,108.768555 1095.90153,108.315755 1096.29932,107.96875 C1096.6971,107.621745 1097.26839,107.448242 1098.01318,107.448242 C1098.63949,107.448242 1099.27637,107.528646 1099.92383,107.689453 C1100.57129,107.85026 1101.39014,108.133789 1102.38037,108.540039 L1102.38037,108.540039 L1103.6499,105.480469 C1102.69352,105.065755 1101.77734,104.744141 1100.90137,104.515625 C1100.02539,104.287109 1099.10498,104.172852 1098.14014,104.172852 C1096.1766,104.172852 1094.63835,104.642578 1093.52539,105.582031 C1092.41243,106.521484 1091.85596,107.812174 1091.85596,109.454102 C1091.85596,110.325846 1092.02523,111.087565 1092.36377,111.739258 C1092.70231,112.390951 1093.15511,112.96224 1093.72217,113.453125 C1094.28923,113.94401 1095.13981,114.456055 1096.27393,114.989258 C1097.48421,115.564779 1098.28613,115.983724 1098.67969,116.246094 C1099.07324,116.508464 1099.37158,116.781413 1099.57471,117.064941 C1099.77783,117.34847 1099.87939,117.672201 1099.87939,118.036133 C1099.87939,118.687826 1099.64876,119.178711 1099.1875,119.508789 C1098.72624,119.838867 1098.06396,120.003906 1097.20068,120.003906 C1096.48128,120.003906 1095.68783,119.889648 1094.82031,119.661133 C1093.9528,119.432617 1092.89274,119.039062 1091.64014,118.480469 L1091.64014,118.480469 L1091.64014,122.136719 C1093.16357,122.88151 1094.91553,123.253906 1096.896,123.253906 Z M1117.79248,123 L1117.79248,119.75 L1111.03857,119.75 L1111.03857,114.963867 L1117.32275,114.963867 L1117.32275,111.739258 L1111.03857,111.739258 L1111.03857,107.664062 L1117.79248,107.664062 L1117.79248,104.439453 L1107.10303,104.439453 L1107.10303,123 L1117.79248,123 Z M1125.6001,123 L1125.6001,115.87793 L1127.69482,115.87793 L1132.12549,123 L1136.49268,123 C1135.64632,121.78125 1133.82666,119.085612 1131.03369,114.913086 C1132.13395,114.430664 1132.98454,113.76416 1133.58545,112.913574 C1134.18636,112.062988 1134.48682,111.091797 1134.48682,110 C1134.48682,108.129557 1133.88167,106.735189 1132.67139,105.816895 C1131.4611,104.8986 1129.59489,104.439453 1127.07275,104.439453 L1127.07275,104.439453 L1121.66455,104.439453 L1121.66455,123 L1125.6001,123 Z M1126.86963,112.678711 L1125.6001,112.678711 L1125.6001,107.664062 L1126.79346,107.664062 C1128.06299,107.664062 1129.00033,107.85026 1129.60547,108.222656 C1130.21061,108.595052 1130.51318,109.221354 1130.51318,110.101562 C1130.51318,110.990234 1130.21696,111.641927 1129.62451,112.056641 C1129.03206,112.471354 1128.11377,112.678711 1126.86963,112.678711 L1126.86963,112.678711 Z" id="condenser-txt" fill="#000000" fill-rule="nonzero" transform="translate(1057.553223, 113.700684) rotate(90.000000) translate(-1057.553223, -113.700684) "></path>
            </g>
        </g>
    </g>
</svg>