<?xml version="1.0" encoding="UTF-8"?>
<svg viewBox="0 0 1103 500" version="1.1" xmlns="http://www.w3.org/2000/svg" xmlns:xlink="http://www.w3.org/1999/xlink">
    <title>tab-imaging</title>
    <defs>
        <path d="M311.25,-301.25 L789.25,-301.25 C794.772847,-301.25 799.25,-296.772847 799.25,-291.25 L799.25,789.25 C799.25,794.772847 794.772847,799.25 789.25,799.25 L311.25,799.25 C305.727153,799.25 301.25,794.772847 301.25,789.25 L301.25,-291.25 C301.25,-296.772847 305.727153,-301.25 311.25,-301.25 Z" id="path-1"></path>
        <path d="M311.254162,-235.245838 C376.920828,-235.245838 442.587495,-235.245838 508.254162,-235.245838 C523.167737,-235.245838 503.171825,-301.745838 527.254162,-301.254162 C614.587495,-301.254162 701.920828,-301.254162 789.254162,-301.254162 C794.777009,-301.254162 799.254162,-296.777009 799.254162,-291.254162 L799.254162,-235.245838 L799.254162,789.254162 C799.254162,794.777009 794.777009,799.254162 789.254162,799.254162 L311.254162,799.254162 C305.731314,799.254162 301.254162,794.777009 301.254162,789.254162 L301.254162,-225.245838 C301.254162,-230.768686 305.731314,-235.245838 311.254162,-235.245838 Z" id="path-2"></path>
        <linearGradient x1="51.2544572%" y1="-3.58360834%" x2="51.2544572%" y2="104.488678%" id="linearGradient-3">
            <stop stop-color="#BFBAB8" offset="0%"></stop>
            <stop stop-color="#E6E6E5" offset="41.2906991%"></stop>
            <stop stop-color="#E6E6E5" offset="52.2999748%"></stop>
            <stop stop-color="#E6E6E5" offset="57.1980692%"></stop>
            <stop stop-color="#BFBAB8" offset="100%"></stop>
        </linearGradient>
        <linearGradient x1="0%" y1="50.0003994%" x2="100%" y2="50.0003994%" id="linearGradient-4">
            <stop stop-color="#3E3D3C" offset="0%"></stop>
            <stop stop-color="#E6E6E5" offset="49.6610351%"></stop>
            <stop stop-color="#E6E6E5" offset="100%"></stop>
        </linearGradient>
        <path d="M10,0 L1001,0 C1006.52285,-1.01453063e-15 1011,4.4771525 1011,10 L1011,464 C1011,469.522847 1006.52285,474 1001,474 L10,474 C4.4771525,474 -5.79434219e-14,469.522847 0,464 L0,10 C-6.76353751e-16,4.4771525 4.4771525,1.01453063e-15 10,0 Z" id="path-5"></path>
        <path d="M10,0 L1001,0 C1006.52285,-6.30067353e-14 1011,4.4771525 1011,10 L1011,460.192771 C1011,465.715619 1006.52285,470.192771 1001,470.192771 L10,470.192771 C4.4771525,470.192771 -5.61670651e-14,465.715619 0,460.192771 L0,10 C-6.76353751e-16,4.4771525 4.4771525,2.79088747e-15 10,0 Z" id="path-6"></path>
        <filter x="-0.4%" y="-1.0%" width="100.9%" height="101.9%" filterUnits="objectBoundingBox" id="filter-7">
            <feMorphology radius="1" operator="erode" in="SourceAlpha" result="shadowSpreadInner1"></feMorphology>
            <feGaussianBlur stdDeviation="3" in="shadowSpreadInner1" result="shadowBlurInner1"></feGaussianBlur>
            <feOffset dx="0" dy="1" in="shadowBlurInner1" result="shadowOffsetInner1"></feOffset>
            <feComposite in="shadowOffsetInner1" in2="SourceAlpha" operator="arithmetic" k2="-1" k3="1" result="shadowInnerInner1"></feComposite>
            <feColorMatrix values="0 0 0 0 0   0 0 0 0 0   0 0 0 0 0  0 0 0 0.5 0" type="matrix" in="shadowInnerInner1"></feColorMatrix>
        </filter>
        <linearGradient x1="51.2544572%" y1="-3.58360834%" x2="51.2544572%" y2="104.067813%" id="linearGradient-8">
            <stop stop-color="#BFBAB8" offset="0%"></stop>
            <stop stop-color="#E6E6E5" offset="5.6903739%"></stop>
            <stop stop-color="#E6E6E5" offset="52.2999748%"></stop>
            <stop stop-color="#E6E6E5" offset="93.9680178%"></stop>
            <stop stop-color="#BFBAB8" offset="100%"></stop>
        </linearGradient>
        <linearGradient x1="0%" y1="50.0003994%" x2="100%" y2="50.0003994%" id="linearGradient-9">
            <stop stop-color="#3E3D3C" offset="0%"></stop>
            <stop stop-color="#E6E6E5" offset="49.6610351%"></stop>
            <stop stop-color="#E6E6E5" offset="100%"></stop>
        </linearGradient>
        <path d="M87,305 L947,305 C952.522847,305 957,309.477153 957,315 L957,436 C957,441.522847 952.522847,446 947,446 L87,446 C81.4771525,446 77,441.522847 77,436 L77,315 C77,309.477153 81.4771525,305 87,305 Z" id="path-10"></path>
        <filter x="-0.5%" y="-3.2%" width="101.0%" height="106.4%" filterUnits="objectBoundingBox" id="filter-11">
            <feMorphology radius="1" operator="erode" in="SourceAlpha" result="shadowSpreadInner1"></feMorphology>
            <feGaussianBlur stdDeviation="3" in="shadowSpreadInner1" result="shadowBlurInner1"></feGaussianBlur>
            <feOffset dx="0" dy="1" in="shadowBlurInner1" result="shadowOffsetInner1"></feOffset>
            <feComposite in="shadowOffsetInner1" in2="SourceAlpha" operator="arithmetic" k2="-1" k3="1" result="shadowInnerInner1"></feComposite>
            <feColorMatrix values="0 0 0 0 0   0 0 0 0 0   0 0 0 0 0  0 0 0 0.5 0" type="matrix" in="shadowInnerInner1"></feColorMatrix>
        </filter>
        <linearGradient x1="0%" y1="100%" x2="0%" y2="0%" id="linearGradient-12">
            <stop stop-color="#000000" stop-opacity="0.07" offset="0%"></stop>
            <stop stop-color="#FFFFFF" stop-opacity="0.07" offset="100%"></stop>
        </linearGradient>
        <linearGradient x1="0%" y1="0%" x2="0%" y2="100%" id="linearGradient-13">
            <stop stop-color="#000000" stop-opacity="0.08" offset="0%"></stop>
            <stop stop-color="#FFFFFF" stop-opacity="0.08" offset="100%"></stop>
        </linearGradient>
        <path d="M55,13.1789457 L55,243.820287 C55,248.890036 49.7075402,253 43.1785523,253 L16.8214477,253 C10.2924598,253 5,248.890036 5,243.820287 L5,13.1789457 C5,8.10996423 10.2924598,4 16.8214477,4 L43.1785523,4 C49.7075402,4 55,8.10996423 55,13.1789457 Z" id="path-14"></path>
        <filter x="-5.0%" y="-1.0%" width="110.0%" height="102.0%" filterUnits="objectBoundingBox" id="filter-15">
            <feMorphology radius="1" operator="erode" in="SourceAlpha" result="shadowSpreadInner1"></feMorphology>
            <feGaussianBlur stdDeviation="1.5" in="shadowSpreadInner1" result="shadowBlurInner1"></feGaussianBlur>
            <feOffset dx="0" dy="-1" in="shadowBlurInner1" result="shadowOffsetInner1"></feOffset>
            <feComposite in="shadowOffsetInner1" in2="SourceAlpha" operator="arithmetic" k2="-1" k3="1" result="shadowInnerInner1"></feComposite>
            <feColorMatrix values="0 0 0 0 0   0 0 0 0 0   0 0 0 0 0  0 0 0 0.2 0" type="matrix" in="shadowInnerInner1"></feColorMatrix>
        </filter>
    </defs>
    <g id="Page-1" stroke="none" stroke-width="1" fill="none" fill-rule="evenodd">
        <g id="bf_backw-tabSlide" transform="translate(-1497.000000, -1030.000000)">
            <g id="Group" transform="translate(1498.000000, 1031.000000)">
                <g id="bck-path" transform="translate(550.250000, 249.000000) rotate(90.000000) translate(-550.250000, -249.000000) ">
                    <path stroke="#EAE6E4" stroke-width="4" d="M789.25,-299.25 C791.459139,-299.25 793.459139,-298.354569 794.906854,-296.906854 C796.354569,-295.459139 797.25,-293.459139 797.25,-291.25 L797.25,-291.25 L797.25,789.25 C797.25,791.459139 796.354569,793.459139 794.906854,794.906854 C793.459139,796.354569 791.459139,797.25 789.25,797.25 L789.25,797.25 L311.25,797.25 C309.040861,797.25 307.040861,796.354569 305.593146,794.906854 C304.145431,793.459139 303.25,791.459139 303.25,789.25 L303.25,789.25 L303.25,-291.25 C303.25,-293.459139 304.145431,-295.459139 305.593146,-296.906854 C307.040861,-298.354569 309.040861,-299.25 311.25,-299.25 L311.25,-299.25 Z" stroke-linejoin="square" fill="#D8D8D8" fill-rule="evenodd"></path>
                    <path stroke="#979797" stroke-width="1" d="M789.25,-301.75 C792.149495,-301.75 794.774495,-300.574747 796.674621,-298.674621 C798.574747,-296.774495 799.75,-294.149495 799.75,-291.25 L799.75,-291.25 L799.75,789.25 C799.75,792.149495 798.574747,794.774495 796.674621,796.674621 C794.774495,798.574747 792.149495,799.75 789.25,799.75 L789.25,799.75 L311.25,799.75 C308.350505,799.75 305.725505,798.574747 303.825379,796.674621 C301.925253,794.774495 300.75,792.149495 300.75,789.25 L300.75,789.25 L300.75,-291.25 C300.75,-294.149495 301.925253,-296.774495 303.825379,-298.674621 C305.725505,-300.574747 308.350505,-301.75 311.25,-301.75 L311.25,-301.75 Z"></path>
                </g>
                <path d="M311.25,-301.25 L789.25,-301.25 C794.772847,-301.25 799.25,-296.772847 799.25,-291.25 L799.25,789.25 C799.25,794.772847 794.772847,799.25 789.25,799.25 L311.25,799.25 C305.727153,799.25 301.25,794.772847 301.25,789.25 L301.25,-291.25 C301.25,-296.772847 305.727153,-301.25 311.25,-301.25 Z" id="bck-path" fill="#D8D8D8" style="mix-blend-mode: multiply;" transform="translate(550.250000, 249.000000) rotate(90.000000) translate(-550.250000, -249.000000) "></path>
                <g id="front-path" transform="translate(550.254162, 249.000000) rotate(90.000000) translate(-550.254162, -249.000000) ">
                    <path stroke="#EAE6E4" stroke-width="4" d="M526.88136,-299.256215 L527.23289,-299.254162 L789.254162,-299.254162 C791.463301,-299.254162 793.463301,-298.358731 794.911016,-296.911016 C796.358731,-295.463301 797.254162,-293.463301 797.254162,-291.254162 L797.254162,-291.254162 L797.254162,789.254162 C797.254162,791.463301 796.358731,793.463301 794.911016,794.911016 C793.463301,796.358731 791.463301,797.254162 789.254162,797.254162 L789.254162,797.254162 L311.254162,797.254162 C309.045023,797.254162 307.045023,796.358731 305.597307,794.911016 C304.149592,793.463301 303.254162,791.463301 303.254162,789.254162 L303.254162,789.254162 L303.254162,-225.245838 C303.254162,-227.454977 304.149592,-229.454977 305.597307,-230.902693 C307.045023,-232.350408 309.045023,-233.245838 311.254162,-233.245838 L311.254162,-233.245838 L508.254162,-233.245838 C510.230305,-233.245838 511.795414,-234.03117 513.023886,-235.480832 C514.099614,-236.750249 514.910617,-238.617227 515.443982,-240.988776 C516.621293,-246.223557 516.524985,-254.14429 516.39224,-262.570729 C516.369861,-263.991291 516.346258,-265.426987 516.328497,-266.866284 L516.312946,-268.306356 L516.312946,-268.306356 L516.302859,-269.746267 C516.264151,-277.900464 516.564301,-285.923486 518.489038,-291.717138 C519.310605,-294.190138 520.420376,-296.238045 522.032813,-297.584848 C523.387996,-298.716778 525.100436,-299.301512 527.23289,-299.254162 Z" stroke-linejoin="square" fill="#D8D8D8" fill-rule="evenodd"></path>
                    <path stroke="#979797" stroke-width="1" d="M526.879367,-301.756437 L527.259218,-301.754162 L789.254162,-301.754162 C792.153656,-301.754162 794.778656,-300.578909 796.678783,-298.678783 C798.578909,-296.778656 799.754162,-294.153656 799.754162,-291.254162 L799.754162,-291.254162 L799.754162,789.254162 C799.754162,792.153656 798.578909,794.778656 796.678783,796.678783 C794.778656,798.578909 792.153656,799.754162 789.254162,799.754162 L789.254162,799.754162 L311.254162,799.754162 C308.354667,799.754162 305.729667,798.578909 303.82954,796.678783 C301.929414,794.778656 300.754162,792.153656 300.754162,789.254162 L300.754162,789.254162 L300.754162,-225.245838 C300.754162,-228.145333 301.929414,-230.770333 303.82954,-232.67046 C305.729667,-234.570586 308.354667,-235.745838 311.254162,-235.745838 L311.254162,-235.745838 L508.254162,-235.745838 C509.443242,-235.745838 510.379369,-236.22711 511.116611,-237.097094 C511.981305,-238.117479 512.578681,-239.642164 513.004907,-241.537328 C514.150175,-246.629637 514.021632,-254.337487 513.89255,-262.53135 C513.877537,-263.484335 513.862526,-264.443812 513.849436,-265.406511 L513.831479,-266.852568 C513.826133,-267.33512 513.821506,-267.818069 513.817839,-268.301007 L513.809955,-269.749377 C513.783545,-278.193234 514.124282,-286.508438 516.116534,-292.505318 C517.104867,-295.480299 518.50044,-297.891755 520.430171,-299.503582 C522.211131,-300.991146 524.447584,-301.81051 527.259218,-301.754162 Z"></path>
                </g>
                <g transform="translate(12.000000, 12.000000)" id="bkgw">
                    <g id="path" fill-rule="nonzero">
                        <use fill="url(#linearGradient-3)" xlink:href="#path-5"></use>
                        <use fill-opacity="0.02" fill="url(#linearGradient-4)" style="mix-blend-mode: difference;" xlink:href="#path-5"></use>
                    </g>
                    <g id="Rectangle">
                        <use fill="black" fill-opacity="1" filter="url(#filter-7)" xlink:href="#path-6"></use>
                        <use stroke="#EAE6E4" stroke-width="1" xlink:href="#path-6"></use>
                    </g>
                </g>
                <g id="path" fill-rule="nonzero">
                    <use fill-opacity="0.3" fill="url(#linearGradient-8)" xlink:href="#path-10"></use>
                    <use fill-opacity="0.02" fill="url(#linearGradient-9)" style="mix-blend-mode: difference;" xlink:href="#path-10"></use>
                    <use fill="black" fill-opacity="1" filter="url(#filter-11)" xlink:href="#path-10"></use>
                    <use stroke="#EAE6E4" stroke-width="1" xlink:href="#path-10"></use>
                </g>
                <g transform="translate(1030.000000, 227.000000)">
                    <g id="btn">
                        <path d="M61,10.1991068 L61,246.80166 C61,252.434415 55.0626119,257 47.7385641,257 L13.2604339,257 C5.93638618,257 0,252.434415 0,246.80166 L0,10.1991068 C0,4.56635203 5.93638618,0 13.2604339,0 L47.7385641,0 C55.0626119,0 61,4.56635203 61,10.1991068 Z" id="Path" fill="#C2C2C2"></path>
                        <path d="M61,10.1991068 L61,246.80166 C61,252.434415 55.0626119,257 47.7385641,257 L13.2604339,257 C5.93638618,257 0,252.434415 0,246.80166 L0,10.1991068 C0,4.56635203 5.93638618,0 13.2604339,0 L47.7385641,0 C55.0626119,0 61,4.56635203 61,10.1991068 Z" id="Path" fill="url(#linearGradient-12)" fill-rule="nonzero"></path>
                        <path d="M55,13.1789457 L55,243.820287 C55,248.890036 49.7075402,253 43.1785523,253 L16.8214477,253 C10.2924598,253 5,248.890036 5,243.820287 L5,13.1789457 C5,8.10996423 10.2924598,4 16.8214477,4 L43.1785523,4 C49.7075402,4 55,8.10996423 55,13.1789457 Z" id="Path" fill-opacity="0" fill="#E1E0E0"></path>
                        <g id="Path" fill-rule="nonzero">
                            <use fill="url(#linearGradient-13)" xlink:href="#path-14"></use>
                            <use fill="black" fill-opacity="1" filter="url(#filter-15)" xlink:href="#path-14"></use>
                        </g>
                    </g>
                    <path d="M21,24.2558594 C21,26.405599 21.4824219,28.0834961 22.4472656,29.2895508 C23.4121094,30.4956055 24.7324219,31.0986328 26.4082031,31.0986328 C27.6184896,31.0986328 28.6404622,30.7770182 29.4741211,30.1337891 C30.2522027,29.5334418 31.0284411,28.4575564 31.8028364,26.9061328 L32.4287153,25.6193924 L32.4287153,25.6193924 L32.7197765,25.0436176 L32.7197765,25.0436176 L32.9646267,24.5831163 L32.9646267,24.5831163 L33.1021875,24.3401562 L33.1021875,24.3401562 L33.2192101,24.1484288 C33.2370023,24.1207436 33.2539388,24.0951931 33.2700195,24.0717773 C33.5112305,23.7205404 33.7609049,23.4645182 34.019043,23.3037109 C34.277181,23.1429036 34.5797526,23.0625 34.9267578,23.0625 C35.4853516,23.0625 35.938151,23.2613932 36.2851562,23.6591797 C36.6321615,24.0569661 36.8056641,24.6282552 36.8056641,25.3730469 C36.8056641,25.999349 36.7252604,26.6362305 36.5644531,27.2836914 C36.4393808,27.7872721 36.2400696,28.3945312 35.9665196,29.1054688 L35.7138672,29.7402344 L38.7734375,31.0097656 C39.188151,30.0533854 39.5097656,29.137207 39.7382812,28.2612305 C39.9667969,27.3852539 40.0810547,26.4648438 40.0810547,25.5 C40.0810547,23.5364583 39.6113281,21.9982096 38.671875,20.8852539 C37.7324219,19.7722982 36.4417318,19.2158203 34.7998047,19.2158203 C33.9280599,19.2158203 33.1663411,19.3850911 32.5146484,19.7236328 C31.8629557,20.0621745 31.2916667,20.514974 30.8007812,21.0820312 C30.3589844,21.5923828 29.9000488,22.3323926 29.4239746,23.3020605 L28.9162398,24.3555759 L28.9162398,24.3555759 L28.6109694,24.9648537 L28.6109694,24.9648537 L28.4314214,25.308534 L28.4314214,25.308534 L28.2710459,25.6022102 L28.2710459,25.6022102 L28.129843,25.8458825 C28.0859707,25.9187726 28.0452939,25.9833287 28.0078125,26.0395508 C27.7454427,26.4331055 27.4724935,26.7314453 27.1889648,26.9345703 C26.9054362,27.1376953 26.5817057,27.2392578 26.2177734,27.2392578 C25.5660807,27.2392578 25.0751953,27.0086263 24.7451172,26.5473633 C24.4150391,26.0861003 24.25,25.4238281 24.25,24.5605469 C24.25,23.8411458 24.3642578,23.0476888 24.5927734,22.1801758 C24.7984375,21.3994141 25.1377832,20.4626904 25.6108105,19.3700049 L25.7734375,19 L22.1171875,19 C21.3723958,20.5234375 21,22.2753906 21,24.2558594 Z M21.2539062,45.9267578 L24.5039062,45.9267578 L24.5039062,38.3984375 L39.8144531,38.3984375 L39.8144531,34.4628906 L21.2539062,34.4628906 L21.2539062,45.9267578 Z M21.2539062,53.0869141 L39.8144531,53.0869141 L39.8144531,49.1513672 L21.2539062,49.1513672 L21.2539062,53.0869141 Z M21.2539062,63.0146484 C21.2539062,66.2985026 22.0664062,68.8100586 23.6914062,70.5493164 C25.3164062,72.2885742 27.6565755,73.1582031 30.7119141,73.1582031 C33.5810547,73.1582031 35.8154297,72.3203125 37.4150391,70.6445312 C38.9451002,69.0416101 39.743393,66.8192024 39.8099174,63.9773083 L39.8144531,63.5859375 L39.8144531,57.7587891 L21.2539062,57.7587891 L21.2539062,63.0146484 Z M24.5039062,63.3828125 L24.5039062,61.6943359 L36.5898437,61.6943359 L36.5898437,63.7890625 C36.5898437,67.3098958 34.5966797,69.0703125 30.6103516,69.0703125 C26.6319099,69.0703125 24.5974795,67.2596742 24.5070604,63.6383975 L24.5039062,63.3828125 Z M21.2539062,87.6943359 L24.5039062,87.6943359 L24.5039062,80.9404297 L29.2900391,80.9404297 L29.2900391,87.2246094 L32.5146484,87.2246094 L32.5146484,80.9404297 L36.5898437,80.9404297 L36.5898437,87.6943359 L39.8144531,87.6943359 L39.8144531,77.0048828 L21.2539062,77.0048828 L21.2539062,87.6943359 Z M21,103.753906 C21,105.666138 21.4946709,107.392403 22.4840126,108.932701 L22.6884766,109.238281 L21.2539062,110.698242 L21.2539062,115.484375 L24.9736328,111.663086 C25.8115234,112.340169 26.7742513,112.945312 27.8618164,113.478516 C28.7940151,113.935547 29.7464226,114.308634 30.719039,114.597776 L31.2070312,114.735352 L31.2070312,110.698242 C29.7913116,110.298147 28.6099131,109.831603 27.6628357,109.29861 L27.3857422,109.136719 L30.9023437,105.53125 C31.655599,106.834635 32.449056,107.77832 33.2827148,108.362305 C34.1163737,108.946289 35.0367839,109.238281 36.0439453,109.238281 C37.2711589,109.238281 38.2508138,108.766439 38.9829102,107.822754 C39.7150065,106.879069 40.0810547,105.620117 40.0810547,104.045898 C40.0810547,102.395508 39.6875,101.077311 38.9003906,100.091309 C38.1132812,99.105306 37.0764974,98.6123047 35.7900391,98.6123047 C35.0029297,98.6123047 34.277181,98.7561849 33.612793,99.0439453 C32.9484049,99.3317057 32.2522786,99.7929688 31.5244141,100.427734 C30.8134766,99.1835938 30.0496419,98.3055013 29.2329102,97.793457 C28.4161784,97.2814128 27.4280599,97.0253906 26.2685547,97.0253906 C24.6520182,97.0253906 23.3697917,97.6305339 22.421875,98.8408203 C21.4739583,100.051107 21,101.688802 21,103.753906 Z M33.0605469,103.398438 C33.9576823,102.594401 34.7786458,102.192383 35.5234375,102.192383 C36.0227865,102.192383 36.4078776,102.355306 36.6787109,102.681152 C36.9495443,103.006999 37.0849609,103.453451 37.0849609,104.020508 C37.0849609,104.50293 36.9558919,104.896484 36.6977539,105.201172 C36.4396159,105.505859 36.086263,105.658203 35.6376953,105.658203 C35.1129557,105.658203 34.6538086,105.463542 34.2602539,105.074219 C33.8666992,104.684896 33.4667969,104.126302 33.0605469,103.398438 Z M24.25,104.020508 C24.25,103.16569 24.4658203,102.465332 24.8974609,101.919434 C25.3291016,101.373535 25.9088542,101.100586 26.6367187,101.100586 C27.1699219,101.100586 27.6396484,101.24235 28.0458984,101.525879 C28.3844401,101.762153 28.7112269,102.070426 29.0262587,102.450697 L29.2138672,102.6875 L25.0244141,106.902344 C24.508138,106.047526 24.25,105.086914 24.25,104.020508 Z M21.2539062,128.509766 L39.8144531,128.509766 L39.8144531,124.574219 L21.2539062,124.574219 L21.2539062,128.509766 Z M21.2539062,136.698242 L30.0214715,136.697786 L30.707772,136.685958 L30.707772,136.685958 L31.590454,136.658115 L31.590454,136.658115 L32.9699679,136.600793 L32.9699679,136.600793 L35.0304212,136.498977 L35.0304212,136.498977 L35.8154297,136.457031 L35.8154297,136.571289 L21.2539062,141.040039 L21.2539062,144.645508 L35.7900391,149.431641 L35.7900391,149.545898 L31.4736328,149.374512 L31.4736328,149.374512 L30.5671875,149.358516 L30.5671875,149.358516 L30.0390625,149.355469 L30.0390625,149.355469 L21.2539062,149.355469 L21.2539062,153.024414 L39.8144531,153.024414 L39.8144531,147.666992 L25.6210937,143.007812 L25.6210937,142.931641 L39.8144531,138.539062 L39.8144531,133.181641 L21.2539062,133.181641 L21.2539062,136.698242 Z M21.2539062,159.600586 L25.671875,160.946289 L25.671875,167.712891 L21.2539062,169.058594 L21.2539062,173.298828 L39.890625,166.722656 L39.890625,161.911133 L21.2539062,155.360352 L21.2539062,159.600586 Z M28.9726562,166.773438 L28.9726562,161.936523 L32.6108343,163.051756 L32.6108343,163.051756 L34.8042038,163.709957 L34.8042038,163.709957 L36.5097483,164.201824 L36.5097483,164.201824 L37.0087891,164.335938 L37.0087891,164.335938 L36.8714724,164.367676 L36.8714724,164.367676 L36.5564214,164.447475 L36.5564214,164.447475 L36.1874801,164.549037 L36.1874801,164.549037 L35.3912897,164.785586 L35.3912897,164.785586 L28.9726562,166.773438 Z M21,183.442383 C21,184.542643 21.0782878,185.619629 21.2348633,186.67334 C21.3690709,187.576521 21.5887775,188.531001 21.8939832,189.536781 L22.0537109,190.043945 L31.6767578,190.043945 L31.6767578,182.680664 L28.4013672,182.680664 L28.4013672,186.197266 L24.5292969,186.197266 C24.360026,185.350911 24.2753906,184.517253 24.2753906,183.696289 C24.2753906,182.12207 24.8064779,180.922363 25.8686523,180.097168 C26.9308268,179.271973 28.4690755,178.859375 30.4833984,178.859375 C32.4130859,178.859375 33.9492188,179.371419 35.0917969,180.395508 C36.234375,181.419596 36.8056641,182.782227 36.8056641,184.483398 C36.8056641,185.825575 36.521195,187.121526 35.9522569,188.37125 L35.7900391,188.710938 L38.9384766,190.018555 C39.7001953,188.249674 40.0810547,186.413086 40.0810547,184.508789 C40.0810547,181.470378 39.2431641,179.094238 37.5673828,177.380371 C35.8916016,175.666504 33.5556641,174.80957 30.5595703,174.80957 C27.4788411,174.80957 25.1153971,175.548014 23.4692383,177.024902 C21.8230794,178.50179 21,180.640951 21,183.442383 Z M21.2539062,198.397461 L39.8144531,198.397461 L39.8144531,194.461914 L21.2539062,194.461914 L21.2539062,198.397461 Z M21.2539062,203.069336 L21.2539062,206.585938 L30.1711878,206.585193 L30.1711878,206.585193 L30.7989005,206.574026 L30.7989005,206.574026 L31.8201678,206.538291 L31.8201678,206.538291 L33.0520833,206.478733 L33.0520833,206.478733 L34.8882017,206.370783 L34.8882017,206.370783 L35.2949219,206.344727 L35.2949219,206.458984 L21.2539062,214.533203 L21.2539062,219.535156 L39.8144531,219.535156 L39.8144531,215.993164 L30.6702233,215.995515 L30.6702233,215.995515 L29.7950304,216.014323 L29.7950304,216.014323 L28.4065785,216.064281 L28.4065785,216.064281 L26.6909481,216.143627 L26.6909481,216.143627 L25.9130859,216.183594 L25.9130859,216.094727 L39.8144531,208.033203 L39.8144531,203.069336 L21.2539062,203.069336 Z M21,232.014648 C21,233.114909 21.0782878,234.191895 21.2348633,235.245605 C21.3690709,236.148786 21.5887775,237.103267 21.8939832,238.109046 L22.0537109,238.616211 L31.6767578,238.616211 L31.6767578,231.25293 L28.4013672,231.25293 L28.4013672,234.769531 L24.5292969,234.769531 C24.360026,233.923177 24.2753906,233.089518 24.2753906,232.268555 C24.2753906,230.694336 24.8064779,229.494629 25.8686523,228.669434 C26.9308268,227.844238 28.4690755,227.431641 30.4833984,227.431641 C32.4130859,227.431641 33.9492188,227.943685 35.0917969,228.967773 C36.234375,229.991862 36.8056641,231.354492 36.8056641,233.055664 C36.8056641,234.397841 36.521195,235.693791 35.9522569,236.943515 L35.7900391,237.283203 L38.9384766,238.59082 C39.7001953,236.82194 40.0810547,234.985352 40.0810547,233.081055 C40.0810547,230.042643 39.2431641,227.666504 37.5673828,225.952637 C35.8916016,224.23877 33.5556641,223.381836 30.5595703,223.381836 C27.4788411,223.381836 25.1153971,224.12028 23.4692383,225.597168 C21.8230794,227.074056 21,229.213216 21,232.014648 Z" id="Shape" fill="#000000" fill-rule="nonzero"></path>
                </g>
            </g>
        </g>
    </g>
</svg>