<?xml version="1.0" encoding="utf-8"?>
<svg width="56px" height="56px" xmlns="http://www.w3.org/2000/svg">
  <defs>
    <linearGradient id="PSgrad_0" x1="0" x2="0" y1="1" y2="0">
      <stop offset="0" stop-color="rgb(0,0,0)" stop-opacity="0.17"/>
      <stop offset="1" stop-color="rgb(255,255,255)" stop-opacity="0.17"/>
    </linearGradient>
  </defs>
  <path fill-rule="evenodd" fill="rgb(225, 224, 224)" d="M 28.002 0 C 43.467 0 56.005 12.536 56.005 28 C 56.005 43.464 43.467 56 28.002 56 C 12.536 56 0 43.464 0 28 C 0 12.536 12.536 0 28.002 0 Z"/>
  <path fill="url(#PSgrad_0)" d="M 28.002 0 C 43.467 0 56.005 12.536 56.005 28 C 56.005 43.464 43.467 56 28.002 56 C 12.536 56 0 43.464 0 28 C 0 12.536 12.536 0 28.002 0 Z"/>
  <path fill-rule="evenodd" fill-opacity="0.122" fill="rgb(255, 255, 255)" d="M 27.752 1.4 C 42.038 1.4 46.763 8.794 53.785 16.206 C 54.46 19.961 53.634 28.671 52.408 31.758 C 50.578 36.358 44.416 46.878 28.692 47.59 C 5.099 47.367 2.402 30.507 2.01 25.82 C 1.619 21.135 1.255 20.399 3 14.937 C 9.534 7.512 13.597 1.4 27.752 1.4 Z"/>
</svg>