<?xml version="1.0" encoding="UTF-8"?>
<svg viewBox="0 0 840 840" version="1.1" xmlns="http://www.w3.org/2000/svg" xmlns:xlink="http://www.w3.org/1999/xlink">
    <title>tuning_1</title>
    <g id="tuning_1" stroke="none" stroke-width="1" fill="none" fill-rule="evenodd">
        <rect fill="#FFFFFF" x="0" y="0" width="840" height="840"></rect>
        <rect id="Rectangle" fill="#ECF3F9" x="-0.371698113" y="384.143396" width="840.732075" height="263"></rect>
        <rect id="Rectangle-Copy-2" fill="#ECF3F9" transform="translate(419.994340, 60.683019) scale(1, -1) translate(-419.994340, -60.683019) " x="-0.371698113" y="0.183018868" width="840.732075" height="121"></rect>
        <line x1="37.898542" y1="650" x2="37.898542" y2="660" id="Path" stroke="#868686" stroke-linejoin="round"></line>
        <path d="M27.5619992,684.14717 L27.5619992,669.155959 L25.5522336,669.155959 L21.1430539,672.621779 L22.3530148,674.149611 C23.6586789,673.090041 24.4260129,672.461135 24.6550168,672.262892 C24.8840207,672.06465 25.0771359,671.883498 25.2343625,671.719435 C25.179675,672.396193 25.1523312,673.312209 25.1523312,674.467482 L25.1523312,674.467482 L25.1523312,684.14717 L27.5619992,684.14717 Z M37.52435,684.352248 C39.2470062,684.352248 40.5270355,683.719924 41.3644379,682.455275 C42.2018402,681.190627 42.6205414,679.256057 42.6205414,676.651564 C42.6205414,674.122267 42.1898773,672.201369 41.3285492,670.888869 C40.4672211,669.576369 39.1991547,668.920119 37.52435,668.920119 C35.8085297,668.920119 34.5319183,669.547316 33.694516,670.801711 C32.8571136,672.056105 32.4384125,674.006057 32.4384125,676.651564 C32.4384125,679.174025 32.8690765,681.088088 33.7304047,682.393752 C34.5917328,683.699416 35.8563812,684.352248 37.52435,684.352248 Z M37.52435,682.342482 C36.6014984,682.342482 35.9298676,681.904982 35.5094574,681.029982 C35.0890472,680.154982 34.8788422,678.69551 34.8788422,676.651564 C34.8788422,674.607619 35.0890472,673.144728 35.5094574,672.262892 C35.9298676,671.381057 36.6014984,670.940139 37.52435,670.940139 C38.4472015,670.940139 39.1222504,671.389601 39.5494965,672.288527 C39.9767426,673.187453 40.1903656,674.641799 40.1903656,676.651564 C40.1903656,678.668166 39.9767426,680.120803 39.5494965,681.009474 C39.1222504,681.898146 38.4472015,682.342482 37.52435,682.342482 Z M49.4964664,684.352248 C51.2191226,684.352248 52.4991519,683.719924 53.3365543,682.455275 C54.1739566,681.190627 54.5926578,679.256057 54.5926578,676.651564 C54.5926578,674.122267 54.1619937,672.201369 53.3006656,670.888869 C52.4393375,669.576369 51.1712711,668.920119 49.4964664,668.920119 C47.7806461,668.920119 46.5040347,669.547316 45.6666324,670.801711 C44.8292301,672.056105 44.4105289,674.006057 44.4105289,676.651564 C44.4105289,679.174025 44.8411929,681.088088 45.7025211,682.393752 C46.5638492,683.699416 47.8284976,684.352248 49.4964664,684.352248 Z M49.4964664,682.342482 C48.5736148,682.342482 47.901984,681.904982 47.4815738,681.029982 C47.0611636,680.154982 46.8509586,678.69551 46.8509586,676.651564 C46.8509586,674.607619 47.0611636,673.144728 47.4815738,672.262892 C47.901984,671.381057 48.5736148,670.940139 49.4964664,670.940139 C50.4193179,670.940139 51.0943668,671.389601 51.5216129,672.288527 C51.948859,673.187453 52.162482,674.641799 52.162482,676.651564 C52.162482,678.668166 51.948859,680.120803 51.5216129,681.009474 C51.0943668,681.898146 50.4193179,682.342482 49.4964664,682.342482 Z" id="100" fill="#000000" fill-rule="nonzero"></path>
        <line x1="114.534906" y1="650" x2="114.534906" y2="660" id="Path" stroke="#868686" stroke-linejoin="round"></line>
        <path d="M104.198363,684.14717 L104.198363,669.155959 L102.188597,669.155959 L97.7794175,672.621779 L98.9893785,674.149611 C100.295043,673.090041 101.062377,672.461135 101.29138,672.262892 C101.520384,672.06465 101.7135,671.883498 101.870726,671.719435 C101.816039,672.396193 101.788695,673.312209 101.788695,674.467482 L101.788695,674.467482 L101.788695,684.14717 L104.198363,684.14717 Z M113.319893,684.352248 C115.165596,684.352248 116.58918,683.902785 117.590645,683.003859 C118.59211,682.104933 119.092843,680.855666 119.092843,679.256057 C119.092843,677.875197 118.651925,676.784865 117.770089,675.98506 C116.888253,675.185256 115.691964,674.785353 114.181221,674.785353 C113.682198,674.785353 113.260079,674.812697 112.914864,674.867385 C112.707735,674.900197 112.519678,674.930549 112.350694,674.958439 L112.038155,675.010939 L112.376534,671.299025 L118.046944,671.299025 L118.046944,669.155959 L110.253975,669.155959 L109.679757,676.477248 L110.756417,677.11299 C111.111885,677.030959 111.52546,676.957473 111.997139,676.892531 C112.468819,676.82759 112.865303,676.795119 113.186593,676.795119 C115.469796,676.795119 116.611397,677.690627 116.611397,679.481642 C116.611397,680.418166 116.327706,681.129103 115.760323,681.614455 C115.19294,682.099807 114.365792,682.342482 113.278878,682.342482 C112.663643,682.342482 111.997139,682.257033 111.279366,682.086135 C110.561593,681.915236 109.92585,681.67256 109.372139,681.358107 L109.372139,681.358107 L109.372139,683.542189 C110.329171,684.082228 111.645089,684.352248 113.319893,684.352248 Z M126.13283,684.352248 C127.855486,684.352248 129.135516,683.719924 129.972918,682.455275 C130.81032,681.190627 131.229021,679.256057 131.229021,676.651564 C131.229021,674.122267 130.798357,672.201369 129.937029,670.888869 C129.075701,669.576369 127.807635,668.920119 126.13283,668.920119 C124.41701,668.920119 123.140398,669.547316 122.302996,670.801711 C121.465594,672.056105 121.046893,674.006057 121.046893,676.651564 C121.046893,679.174025 121.477557,681.088088 122.338885,682.393752 C123.200213,683.699416 124.464861,684.352248 126.13283,684.352248 Z M126.13283,682.342482 C125.209978,682.342482 124.538348,681.904982 124.117937,681.029982 C123.697527,680.154982 123.487322,678.69551 123.487322,676.651564 C123.487322,674.607619 123.697527,673.144728 124.117937,672.262892 C124.538348,671.381057 125.209978,670.940139 126.13283,670.940139 C127.055682,670.940139 127.73073,671.389601 128.157977,672.288527 C128.585223,673.187453 128.798846,674.641799 128.798846,676.651564 C128.798846,678.668166 128.585223,680.120803 128.157977,681.009474 C127.73073,681.898146 127.055682,682.342482 126.13283,682.342482 Z" id="150" fill="#000000" fill-rule="nonzero"></path>
        <line x1="190.534906" y1="650" x2="190.534906" y2="660" id="Path" stroke="#868686" stroke-linejoin="round"></line>
        <path d="M183.284789,684.14717 L183.284789,682.024611 L176.168578,682.024611 L176.168578,681.922072 L178.77307,679.399611 C179.942015,678.299025 180.777709,677.425734 181.28015,676.779738 C181.782591,676.133742 182.15515,675.506545 182.397826,674.898146 C182.640502,674.289748 182.761839,673.64717 182.761839,672.970412 C182.761839,671.739943 182.341429,670.760695 181.500609,670.032668 C180.659789,669.304641 179.542113,668.940627 178.147582,668.940627 C177.25891,668.940627 176.421507,669.087599 175.635375,669.381545 C174.849242,669.67549 174.039183,670.174514 173.205199,670.878615 L173.205199,670.878615 L174.507445,672.467971 C175.211546,671.91426 175.831908,671.531447 176.368529,671.319533 C176.90515,671.107619 177.46057,671.001662 178.034789,671.001662 C178.752562,671.001662 179.314818,671.196486 179.721556,671.586135 C180.128294,671.975783 180.331664,672.508986 180.331664,673.185744 C180.331664,673.677932 180.246214,674.139357 180.075316,674.570021 C179.904418,675.000685 179.632689,675.460402 179.26013,675.949172 C178.887572,676.437941 178.130492,677.266799 176.98889,678.435744 L176.98889,678.435744 L173.123168,682.321974 L173.123168,684.14717 L183.284789,684.14717 Z M190.160714,684.352248 C191.88337,684.352248 193.163399,683.719924 194.000802,682.455275 C194.838204,681.190627 195.256905,679.256057 195.256905,676.651564 C195.256905,674.122267 194.826241,672.201369 193.964913,670.888869 C193.103585,669.576369 191.835518,668.920119 190.160714,668.920119 C188.444893,668.920119 187.168282,669.547316 186.33088,670.801711 C185.493477,672.056105 185.074776,674.006057 185.074776,676.651564 C185.074776,679.174025 185.50544,681.088088 186.366768,682.393752 C187.228096,683.699416 188.492745,684.352248 190.160714,684.352248 Z M190.160714,682.342482 C189.237862,682.342482 188.566231,681.904982 188.145821,681.029982 C187.725411,680.154982 187.515206,678.69551 187.515206,676.651564 C187.515206,674.607619 187.725411,673.144728 188.145821,672.262892 C188.566231,671.381057 189.237862,670.940139 190.160714,670.940139 C191.083565,670.940139 191.758614,671.389601 192.18586,672.288527 C192.613106,673.187453 192.826729,674.641799 192.826729,676.651564 C192.826729,678.668166 192.613106,680.120803 192.18586,681.009474 C191.758614,681.898146 191.083565,682.342482 190.160714,682.342482 Z M202.13283,684.352248 C203.855486,684.352248 205.135516,683.719924 205.972918,682.455275 C206.81032,681.190627 207.229021,679.256057 207.229021,676.651564 C207.229021,674.122267 206.798357,672.201369 205.937029,670.888869 C205.075701,669.576369 203.807635,668.920119 202.13283,668.920119 C200.41701,668.920119 199.140398,669.547316 198.302996,670.801711 C197.465594,672.056105 197.046893,674.006057 197.046893,676.651564 C197.046893,679.174025 197.477557,681.088088 198.338885,682.393752 C199.200213,683.699416 200.464861,684.352248 202.13283,684.352248 Z M202.13283,682.342482 C201.209978,682.342482 200.538348,681.904982 200.117937,681.029982 C199.697527,680.154982 199.487322,678.69551 199.487322,676.651564 C199.487322,674.607619 199.697527,673.144728 200.117937,672.262892 C200.538348,671.381057 201.209978,670.940139 202.13283,670.940139 C203.055682,670.940139 203.73073,671.389601 204.157977,672.288527 C204.585223,673.187453 204.798846,674.641799 204.798846,676.651564 C204.798846,678.668166 204.585223,680.120803 204.157977,681.009474 C203.73073,681.898146 203.055682,682.342482 202.13283,682.342482 Z" id="200" fill="#000000" fill-rule="nonzero"></path>
        <line x1="266.534906" y1="650" x2="266.534906" y2="660" id="Path" stroke="#868686" stroke-linejoin="round"></line>
        <path d="M259.284789,684.14717 L259.284789,682.024611 L252.168578,682.024611 L252.168578,681.922072 L254.77307,679.399611 C255.942015,678.299025 256.777709,677.425734 257.28015,676.779738 C257.782591,676.133742 258.15515,675.506545 258.397826,674.898146 C258.640502,674.289748 258.761839,673.64717 258.761839,672.970412 C258.761839,671.739943 258.341429,670.760695 257.500609,670.032668 C256.659789,669.304641 255.542113,668.940627 254.147582,668.940627 C253.25891,668.940627 252.421507,669.087599 251.635375,669.381545 C250.849242,669.67549 250.039183,670.174514 249.205199,670.878615 L249.205199,670.878615 L250.507445,672.467971 C251.211546,671.91426 251.831908,671.531447 252.368529,671.319533 C252.90515,671.107619 253.46057,671.001662 254.034789,671.001662 C254.752562,671.001662 255.314818,671.196486 255.721556,671.586135 C256.128294,671.975783 256.331664,672.508986 256.331664,673.185744 C256.331664,673.677932 256.246214,674.139357 256.075316,674.570021 C255.904418,675.000685 255.632689,675.460402 255.26013,675.949172 C254.887572,676.437941 254.130492,677.266799 252.98889,678.435744 L252.98889,678.435744 L249.123168,682.321974 L249.123168,684.14717 L259.284789,684.14717 Z M265.319893,684.352248 C267.165596,684.352248 268.58918,683.902785 269.590645,683.003859 C270.59211,682.104933 271.092843,680.855666 271.092843,679.256057 C271.092843,677.875197 270.651925,676.784865 269.770089,675.98506 C268.888253,675.185256 267.691964,674.785353 266.181221,674.785353 C265.682198,674.785353 265.260079,674.812697 264.914864,674.867385 C264.707735,674.900197 264.519678,674.930549 264.350694,674.958439 L264.038155,675.010939 L264.376534,671.299025 L270.046944,671.299025 L270.046944,669.155959 L262.253975,669.155959 L261.679757,676.477248 L262.756417,677.11299 C263.111885,677.030959 263.52546,676.957473 263.997139,676.892531 C264.468819,676.82759 264.865303,676.795119 265.186593,676.795119 C267.469796,676.795119 268.611397,677.690627 268.611397,679.481642 C268.611397,680.418166 268.327706,681.129103 267.760323,681.614455 C267.19294,682.099807 266.365792,682.342482 265.278878,682.342482 C264.663643,682.342482 263.997139,682.257033 263.279366,682.086135 C262.561593,681.915236 261.92585,681.67256 261.372139,681.358107 L261.372139,681.358107 L261.372139,683.542189 C262.329171,684.082228 263.645089,684.352248 265.319893,684.352248 Z M278.13283,684.352248 C279.855486,684.352248 281.135516,683.719924 281.972918,682.455275 C282.81032,681.190627 283.229021,679.256057 283.229021,676.651564 C283.229021,674.122267 282.798357,672.201369 281.937029,670.888869 C281.075701,669.576369 279.807635,668.920119 278.13283,668.920119 C276.41701,668.920119 275.140398,669.547316 274.302996,670.801711 C273.465594,672.056105 273.046893,674.006057 273.046893,676.651564 C273.046893,679.174025 273.477557,681.088088 274.338885,682.393752 C275.200213,683.699416 276.464861,684.352248 278.13283,684.352248 Z M278.13283,682.342482 C277.209978,682.342482 276.538348,681.904982 276.117937,681.029982 C275.697527,680.154982 275.487322,678.69551 275.487322,676.651564 C275.487322,674.607619 275.697527,673.144728 276.117937,672.262892 C276.538348,671.381057 277.209978,670.940139 278.13283,670.940139 C279.055682,670.940139 279.73073,671.389601 280.157977,672.288527 C280.585223,673.187453 280.798846,674.641799 280.798846,676.651564 C280.798846,678.668166 280.585223,680.120803 280.157977,681.009474 C279.73073,681.898146 279.055682,682.342482 278.13283,682.342482 Z" id="250" fill="#000000" fill-rule="nonzero"></path>
        <line x1="343.534906" y1="650" x2="343.534906" y2="660" id="Path" stroke="#868686" stroke-linejoin="round"></line>
        <path d="M330.286253,684.352248 C332.166136,684.352248 333.615355,683.960891 334.63391,683.178176 C335.652464,682.395461 336.161742,681.282912 336.161742,679.840529 C336.161742,678.849318 335.86096,678.054641 335.259398,677.456496 C334.657835,676.858351 333.755492,676.484084 332.552367,676.333693 L332.552367,676.333693 L332.552367,676.251662 C333.55725,676.032912 334.336546,675.607375 334.890257,674.975051 C335.443968,674.342726 335.720824,673.551467 335.720824,672.601271 C335.720824,671.45967 335.296996,670.564162 334.449339,669.914748 C333.601683,669.265334 332.422484,668.940627 330.911742,668.940627 C329.093382,668.940627 327.497191,669.446486 326.123168,670.458205 L326.123168,670.458205 L327.302367,672.139846 C328.02014,671.675002 328.64221,671.362258 329.168578,671.201613 C329.694945,671.040969 330.24182,670.960646 330.809203,670.960646 C331.622679,670.960646 332.237914,671.134963 332.654906,671.483596 C333.071898,671.832228 333.280394,672.327834 333.280394,672.970412 C333.280394,674.624709 332.084105,675.451857 329.691527,675.451857 L329.691527,675.451857 L328.368773,675.451857 L328.368773,677.410353 L329.671019,677.410353 C331.031371,677.410353 332.029418,677.598342 332.66516,677.974318 C333.300902,678.350295 333.618773,678.938185 333.618773,679.73799 C333.618773,680.640334 333.331664,681.306838 332.757445,681.737502 C332.183226,682.168166 331.315062,682.383498 330.152953,682.383498 C329.496703,682.383498 328.813109,682.298049 328.102171,682.12715 C327.391234,681.956252 326.717894,681.713576 326.082152,681.399123 L326.082152,681.399123 L326.082152,683.542189 C327.223753,684.082228 328.625121,684.352248 330.286253,684.352248 Z M343.160714,684.352248 C344.88337,684.352248 346.163399,683.719924 347.000802,682.455275 C347.838204,681.190627 348.256905,679.256057 348.256905,676.651564 C348.256905,674.122267 347.826241,672.201369 346.964913,670.888869 C346.103585,669.576369 344.835518,668.920119 343.160714,668.920119 C341.444893,668.920119 340.168282,669.547316 339.33088,670.801711 C338.493477,672.056105 338.074776,674.006057 338.074776,676.651564 C338.074776,679.174025 338.50544,681.088088 339.366768,682.393752 C340.228096,683.699416 341.492745,684.352248 343.160714,684.352248 Z M343.160714,682.342482 C342.237862,682.342482 341.566231,681.904982 341.145821,681.029982 C340.725411,680.154982 340.515206,678.69551 340.515206,676.651564 C340.515206,674.607619 340.725411,673.144728 341.145821,672.262892 C341.566231,671.381057 342.237862,670.940139 343.160714,670.940139 C344.083565,670.940139 344.758614,671.389601 345.18586,672.288527 C345.613106,673.187453 345.826729,674.641799 345.826729,676.651564 C345.826729,678.668166 345.613106,680.120803 345.18586,681.009474 C344.758614,681.898146 344.083565,682.342482 343.160714,682.342482 Z M355.13283,684.352248 C356.855486,684.352248 358.135516,683.719924 358.972918,682.455275 C359.81032,681.190627 360.229021,679.256057 360.229021,676.651564 C360.229021,674.122267 359.798357,672.201369 358.937029,670.888869 C358.075701,669.576369 356.807635,668.920119 355.13283,668.920119 C353.41701,668.920119 352.140398,669.547316 351.302996,670.801711 C350.465594,672.056105 350.046893,674.006057 350.046893,676.651564 C350.046893,679.174025 350.477557,681.088088 351.338885,682.393752 C352.200213,683.699416 353.464861,684.352248 355.13283,684.352248 Z M355.13283,682.342482 C354.209978,682.342482 353.538348,681.904982 353.117937,681.029982 C352.697527,680.154982 352.487322,678.69551 352.487322,676.651564 C352.487322,674.607619 352.697527,673.144728 353.117937,672.262892 C353.538348,671.381057 354.209978,670.940139 355.13283,670.940139 C356.055682,670.940139 356.73073,671.389601 357.157977,672.288527 C357.585223,673.187453 357.798846,674.641799 357.798846,676.651564 C357.798846,678.668166 357.585223,680.120803 357.157977,681.009474 C356.73073,681.898146 356.055682,682.342482 355.13283,682.342482 Z" id="300" fill="#000000" fill-rule="nonzero"></path>
        <line x1="419.534906" y1="650" x2="419.534906" y2="660" id="Path" stroke="#868686" stroke-linejoin="round"></line>
        <path d="M406.286253,684.352248 C408.166136,684.352248 409.615355,683.960891 410.63391,683.178176 C411.652464,682.395461 412.161742,681.282912 412.161742,679.840529 C412.161742,678.849318 411.86096,678.054641 411.259398,677.456496 C410.657835,676.858351 409.755492,676.484084 408.552367,676.333693 L408.552367,676.333693 L408.552367,676.251662 C409.55725,676.032912 410.336546,675.607375 410.890257,674.975051 C411.443968,674.342726 411.720824,673.551467 411.720824,672.601271 C411.720824,671.45967 411.296996,670.564162 410.449339,669.914748 C409.601683,669.265334 408.422484,668.940627 406.911742,668.940627 C405.093382,668.940627 403.497191,669.446486 402.123168,670.458205 L402.123168,670.458205 L403.302367,672.139846 C404.02014,671.675002 404.64221,671.362258 405.168578,671.201613 C405.694945,671.040969 406.24182,670.960646 406.809203,670.960646 C407.622679,670.960646 408.237914,671.134963 408.654906,671.483596 C409.071898,671.832228 409.280394,672.327834 409.280394,672.970412 C409.280394,674.624709 408.084105,675.451857 405.691527,675.451857 L405.691527,675.451857 L404.368773,675.451857 L404.368773,677.410353 L405.671019,677.410353 C407.031371,677.410353 408.029418,677.598342 408.66516,677.974318 C409.300902,678.350295 409.618773,678.938185 409.618773,679.73799 C409.618773,680.640334 409.331664,681.306838 408.757445,681.737502 C408.183226,682.168166 407.315062,682.383498 406.152953,682.383498 C405.496703,682.383498 404.813109,682.298049 404.102171,682.12715 C403.391234,681.956252 402.717894,681.713576 402.082152,681.399123 L402.082152,681.399123 L402.082152,683.542189 C403.223753,684.082228 404.625121,684.352248 406.286253,684.352248 Z M418.319893,684.352248 C420.165596,684.352248 421.58918,683.902785 422.590645,683.003859 C423.59211,682.104933 424.092843,680.855666 424.092843,679.256057 C424.092843,677.875197 423.651925,676.784865 422.770089,675.98506 C421.888253,675.185256 420.691964,674.785353 419.181221,674.785353 C418.682198,674.785353 418.260079,674.812697 417.914864,674.867385 C417.707735,674.900197 417.519678,674.930549 417.350694,674.958439 L417.038155,675.010939 L417.376534,671.299025 L423.046944,671.299025 L423.046944,669.155959 L415.253975,669.155959 L414.679757,676.477248 L415.756417,677.11299 C416.111885,677.030959 416.52546,676.957473 416.997139,676.892531 C417.468819,676.82759 417.865303,676.795119 418.186593,676.795119 C420.469796,676.795119 421.611397,677.690627 421.611397,679.481642 C421.611397,680.418166 421.327706,681.129103 420.760323,681.614455 C420.19294,682.099807 419.365792,682.342482 418.278878,682.342482 C417.663643,682.342482 416.997139,682.257033 416.279366,682.086135 C415.561593,681.915236 414.92585,681.67256 414.372139,681.358107 L414.372139,681.358107 L414.372139,683.542189 C415.329171,684.082228 416.645089,684.352248 418.319893,684.352248 Z M431.13283,684.352248 C432.855486,684.352248 434.135516,683.719924 434.972918,682.455275 C435.81032,681.190627 436.229021,679.256057 436.229021,676.651564 C436.229021,674.122267 435.798357,672.201369 434.937029,670.888869 C434.075701,669.576369 432.807635,668.920119 431.13283,668.920119 C429.41701,668.920119 428.140398,669.547316 427.302996,670.801711 C426.465594,672.056105 426.046893,674.006057 426.046893,676.651564 C426.046893,679.174025 426.477557,681.088088 427.338885,682.393752 C428.200213,683.699416 429.464861,684.352248 431.13283,684.352248 Z M431.13283,682.342482 C430.209978,682.342482 429.538348,681.904982 429.117937,681.029982 C428.697527,680.154982 428.487322,678.69551 428.487322,676.651564 C428.487322,674.607619 428.697527,673.144728 429.117937,672.262892 C429.538348,671.381057 430.209978,670.940139 431.13283,670.940139 C432.055682,670.940139 432.73073,671.389601 433.157977,672.288527 C433.585223,673.187453 433.798846,674.641799 433.798846,676.651564 C433.798846,678.668166 433.585223,680.120803 433.157977,681.009474 C432.73073,681.898146 432.055682,682.342482 431.13283,682.342482 Z" id="350" fill="#000000" fill-rule="nonzero"></path>
        <line x1="496.534906" y1="650" x2="496.534906" y2="660" id="Path" stroke="#868686" stroke-linejoin="round"></line>
        <path d="M487.797972,684.14717 L487.797972,680.876174 L489.817992,680.876174 L489.817992,678.876662 L487.797972,678.876662 L487.797972,669.114943 L485.449828,669.114943 L478.600218,679.020217 L478.600218,680.876174 L485.449828,680.876174 L485.449828,684.14717 L487.797972,684.14717 Z M485.449828,678.876662 L480.845824,678.876662 L484.567992,673.462599 C484.978148,672.820021 485.278929,672.273146 485.470335,671.821974 L485.470335,671.821974 L485.552367,671.821974 C485.484007,672.676467 485.449828,673.773635 485.449828,675.113478 L485.449828,675.113478 L485.449828,678.876662 Z M496.160714,684.352248 C497.88337,684.352248 499.163399,683.719924 500.000802,682.455275 C500.838204,681.190627 501.256905,679.256057 501.256905,676.651564 C501.256905,674.122267 500.826241,672.201369 499.964913,670.888869 C499.103585,669.576369 497.835518,668.920119 496.160714,668.920119 C494.444893,668.920119 493.168282,669.547316 492.33088,670.801711 C491.493477,672.056105 491.074776,674.006057 491.074776,676.651564 C491.074776,679.174025 491.50544,681.088088 492.366768,682.393752 C493.228096,683.699416 494.492745,684.352248 496.160714,684.352248 Z M496.160714,682.342482 C495.237862,682.342482 494.566231,681.904982 494.145821,681.029982 C493.725411,680.154982 493.515206,678.69551 493.515206,676.651564 C493.515206,674.607619 493.725411,673.144728 494.145821,672.262892 C494.566231,671.381057 495.237862,670.940139 496.160714,670.940139 C497.083565,670.940139 497.758614,671.389601 498.18586,672.288527 C498.613106,673.187453 498.826729,674.641799 498.826729,676.651564 C498.826729,678.668166 498.613106,680.120803 498.18586,681.009474 C497.758614,681.898146 497.083565,682.342482 496.160714,682.342482 Z M508.13283,684.352248 C509.855486,684.352248 511.135516,683.719924 511.972918,682.455275 C512.81032,681.190627 513.229021,679.256057 513.229021,676.651564 C513.229021,674.122267 512.798357,672.201369 511.937029,670.888869 C511.075701,669.576369 509.807635,668.920119 508.13283,668.920119 C506.41701,668.920119 505.140398,669.547316 504.302996,670.801711 C503.465594,672.056105 503.046893,674.006057 503.046893,676.651564 C503.046893,679.174025 503.477557,681.088088 504.338885,682.393752 C505.200213,683.699416 506.464861,684.352248 508.13283,684.352248 Z M508.13283,682.342482 C507.209978,682.342482 506.538348,681.904982 506.117937,681.029982 C505.697527,680.154982 505.487322,678.69551 505.487322,676.651564 C505.487322,674.607619 505.697527,673.144728 506.117937,672.262892 C506.538348,671.381057 507.209978,670.940139 508.13283,670.940139 C509.055682,670.940139 509.73073,671.389601 510.157977,672.288527 C510.585223,673.187453 510.798846,674.641799 510.798846,676.651564 C510.798846,678.668166 510.585223,680.120803 510.157977,681.009474 C509.73073,681.898146 509.055682,682.342482 508.13283,682.342482 Z" id="400" fill="#000000" fill-rule="nonzero"></path>
        <line x1="572.534906" y1="650" x2="572.534906" y2="660" id="Path" stroke="#868686" stroke-linejoin="round"></line>
        <path d="M563.797972,684.14717 L563.797972,680.876174 L565.817992,680.876174 L565.817992,678.876662 L563.797972,678.876662 L563.797972,669.114943 L561.449828,669.114943 L554.600218,679.020217 L554.600218,680.876174 L561.449828,680.876174 L561.449828,684.14717 L563.797972,684.14717 Z M561.449828,678.876662 L556.845824,678.876662 L560.567992,673.462599 C560.978148,672.820021 561.278929,672.273146 561.470335,671.821974 L561.470335,671.821974 L561.552367,671.821974 C561.484007,672.676467 561.449828,673.773635 561.449828,675.113478 L561.449828,675.113478 L561.449828,678.876662 Z M571.319893,684.352248 C573.165596,684.352248 574.58918,683.902785 575.590645,683.003859 C576.59211,682.104933 577.092843,680.855666 577.092843,679.256057 C577.092843,677.875197 576.651925,676.784865 575.770089,675.98506 C574.888253,675.185256 573.691964,674.785353 572.181221,674.785353 C571.682198,674.785353 571.260079,674.812697 570.914864,674.867385 C570.707735,674.900197 570.519678,674.930549 570.350694,674.958439 L570.038155,675.010939 L570.376534,671.299025 L576.046944,671.299025 L576.046944,669.155959 L568.253975,669.155959 L567.679757,676.477248 L568.756417,677.11299 C569.111885,677.030959 569.52546,676.957473 569.997139,676.892531 C570.468819,676.82759 570.865303,676.795119 571.186593,676.795119 C573.469796,676.795119 574.611397,677.690627 574.611397,679.481642 C574.611397,680.418166 574.327706,681.129103 573.760323,681.614455 C573.19294,682.099807 572.365792,682.342482 571.278878,682.342482 C570.663643,682.342482 569.997139,682.257033 569.279366,682.086135 C568.561593,681.915236 567.92585,681.67256 567.372139,681.358107 L567.372139,681.358107 L567.372139,683.542189 C568.329171,684.082228 569.645089,684.352248 571.319893,684.352248 Z M584.13283,684.352248 C585.855486,684.352248 587.135516,683.719924 587.972918,682.455275 C588.81032,681.190627 589.229021,679.256057 589.229021,676.651564 C589.229021,674.122267 588.798357,672.201369 587.937029,670.888869 C587.075701,669.576369 585.807635,668.920119 584.13283,668.920119 C582.41701,668.920119 581.140398,669.547316 580.302996,670.801711 C579.465594,672.056105 579.046893,674.006057 579.046893,676.651564 C579.046893,679.174025 579.477557,681.088088 580.338885,682.393752 C581.200213,683.699416 582.464861,684.352248 584.13283,684.352248 Z M584.13283,682.342482 C583.209978,682.342482 582.538348,681.904982 582.117937,681.029982 C581.697527,680.154982 581.487322,678.69551 581.487322,676.651564 C581.487322,674.607619 581.697527,673.144728 582.117937,672.262892 C582.538348,671.381057 583.209978,670.940139 584.13283,670.940139 C585.055682,670.940139 585.73073,671.389601 586.157977,672.288527 C586.585223,673.187453 586.798846,674.641799 586.798846,676.651564 C586.798846,678.668166 586.585223,680.120803 586.157977,681.009474 C585.73073,681.898146 585.055682,682.342482 584.13283,682.342482 Z" id="450" fill="#000000" fill-rule="nonzero"></path>
        <line x1="648.534906" y1="650" x2="648.534906" y2="660" id="Path" stroke="#868686" stroke-linejoin="round"></line>
        <path d="M635.347777,684.352248 C637.19348,684.352248 638.617064,683.902785 639.618529,683.003859 C640.619994,682.104933 641.120726,680.855666 641.120726,679.256057 C641.120726,677.875197 640.679808,676.784865 639.797972,675.98506 C638.916136,675.185256 637.719847,674.785353 636.209105,674.785353 C635.710082,674.785353 635.287962,674.812697 634.942748,674.867385 C634.597533,674.922072 634.305296,674.969924 634.066039,675.010939 L634.066039,675.010939 L634.404418,671.299025 L640.074828,671.299025 L640.074828,669.155959 L632.281859,669.155959 L631.70764,676.477248 L632.7843,677.11299 C633.139769,677.030959 633.553343,676.957473 634.025023,676.892531 C634.496703,676.82759 634.893187,676.795119 635.214476,676.795119 C637.497679,676.795119 638.639281,677.690627 638.639281,679.481642 C638.639281,680.418166 638.355589,681.129103 637.788207,681.614455 C637.220824,682.099807 636.393675,682.342482 635.306761,682.342482 C634.691527,682.342482 634.025023,682.257033 633.30725,682.086135 C632.589476,681.915236 631.953734,681.67256 631.400023,681.358107 L631.400023,681.358107 L631.400023,683.542189 C632.357054,684.082228 633.672972,684.352248 635.347777,684.352248 Z M648.160714,684.352248 C649.88337,684.352248 651.163399,683.719924 652.000802,682.455275 C652.838204,681.190627 653.256905,679.256057 653.256905,676.651564 C653.256905,674.122267 652.826241,672.201369 651.964913,670.888869 C651.103585,669.576369 649.835518,668.920119 648.160714,668.920119 C646.444893,668.920119 645.168282,669.547316 644.33088,670.801711 C643.493477,672.056105 643.074776,674.006057 643.074776,676.651564 C643.074776,679.174025 643.50544,681.088088 644.366768,682.393752 C645.228096,683.699416 646.492745,684.352248 648.160714,684.352248 Z M648.160714,682.342482 C647.237862,682.342482 646.566231,681.904982 646.145821,681.029982 C645.725411,680.154982 645.515206,678.69551 645.515206,676.651564 C645.515206,674.607619 645.725411,673.144728 646.145821,672.262892 C646.566231,671.381057 647.237862,670.940139 648.160714,670.940139 C649.083565,670.940139 649.758614,671.389601 650.18586,672.288527 C650.613106,673.187453 650.826729,674.641799 650.826729,676.651564 C650.826729,678.668166 650.613106,680.120803 650.18586,681.009474 C649.758614,681.898146 649.083565,682.342482 648.160714,682.342482 Z M660.13283,684.352248 C661.855486,684.352248 663.135516,683.719924 663.972918,682.455275 C664.81032,681.190627 665.229021,679.256057 665.229021,676.651564 C665.229021,674.122267 664.798357,672.201369 663.937029,670.888869 C663.075701,669.576369 661.807635,668.920119 660.13283,668.920119 C658.41701,668.920119 657.140398,669.547316 656.302996,670.801711 C655.465594,672.056105 655.046893,674.006057 655.046893,676.651564 C655.046893,679.174025 655.477557,681.088088 656.338885,682.393752 C657.200213,683.699416 658.464861,684.352248 660.13283,684.352248 Z M660.13283,682.342482 C659.209978,682.342482 658.538348,681.904982 658.117937,681.029982 C657.697527,680.154982 657.487322,678.69551 657.487322,676.651564 C657.487322,674.607619 657.697527,673.144728 658.117937,672.262892 C658.538348,671.381057 659.209978,670.940139 660.13283,670.940139 C661.055682,670.940139 661.73073,671.389601 662.157977,672.288527 C662.585223,673.187453 662.798846,674.641799 662.798846,676.651564 C662.798846,678.668166 662.585223,680.120803 662.157977,681.009474 C661.73073,681.898146 661.055682,682.342482 660.13283,682.342482 Z" id="500" fill="#000000" fill-rule="nonzero"></path>
        <line x1="725.534906" y1="650" x2="725.534906" y2="660" id="Path" stroke="#868686" stroke-linejoin="round"></line>
        <path d="M712.347777,684.352248 C714.19348,684.352248 715.617064,683.902785 716.618529,683.003859 C717.619994,682.104933 718.120726,680.855666 718.120726,679.256057 C718.120726,677.875197 717.679808,676.784865 716.797972,675.98506 C715.916136,675.185256 714.719847,674.785353 713.209105,674.785353 C712.710082,674.785353 712.287962,674.812697 711.942748,674.867385 C711.597533,674.922072 711.305296,674.969924 711.066039,675.010939 L711.066039,675.010939 L711.404418,671.299025 L717.074828,671.299025 L717.074828,669.155959 L709.281859,669.155959 L708.70764,676.477248 L709.7843,677.11299 C710.139769,677.030959 710.553343,676.957473 711.025023,676.892531 C711.496703,676.82759 711.893187,676.795119 712.214476,676.795119 C714.497679,676.795119 715.639281,677.690627 715.639281,679.481642 C715.639281,680.418166 715.355589,681.129103 714.788207,681.614455 C714.220824,682.099807 713.393675,682.342482 712.306761,682.342482 C711.691527,682.342482 711.025023,682.257033 710.30725,682.086135 C709.589476,681.915236 708.953734,681.67256 708.400023,681.358107 L708.400023,681.358107 L708.400023,683.542189 C709.357054,684.082228 710.672972,684.352248 712.347777,684.352248 Z M724.319893,684.352248 C726.165596,684.352248 727.58918,683.902785 728.590645,683.003859 C729.59211,682.104933 730.092843,680.855666 730.092843,679.256057 C730.092843,677.875197 729.651925,676.784865 728.770089,675.98506 C727.888253,675.185256 726.691964,674.785353 725.181221,674.785353 C724.682198,674.785353 724.260079,674.812697 723.914864,674.867385 C723.707735,674.900197 723.519678,674.930549 723.350694,674.958439 L723.038155,675.010939 L723.376534,671.299025 L729.046944,671.299025 L729.046944,669.155959 L721.253975,669.155959 L720.679757,676.477248 L721.756417,677.11299 C722.111885,677.030959 722.52546,676.957473 722.997139,676.892531 C723.468819,676.82759 723.865303,676.795119 724.186593,676.795119 C726.469796,676.795119 727.611397,677.690627 727.611397,679.481642 C727.611397,680.418166 727.327706,681.129103 726.760323,681.614455 C726.19294,682.099807 725.365792,682.342482 724.278878,682.342482 C723.663643,682.342482 722.997139,682.257033 722.279366,682.086135 C721.561593,681.915236 720.92585,681.67256 720.372139,681.358107 L720.372139,681.358107 L720.372139,683.542189 C721.329171,684.082228 722.645089,684.352248 724.319893,684.352248 Z M737.13283,684.352248 C738.855486,684.352248 740.135516,683.719924 740.972918,682.455275 C741.81032,681.190627 742.229021,679.256057 742.229021,676.651564 C742.229021,674.122267 741.798357,672.201369 740.937029,670.888869 C740.075701,669.576369 738.807635,668.920119 737.13283,668.920119 C735.41701,668.920119 734.140398,669.547316 733.302996,670.801711 C732.465594,672.056105 732.046893,674.006057 732.046893,676.651564 C732.046893,679.174025 732.477557,681.088088 733.338885,682.393752 C734.200213,683.699416 735.464861,684.352248 737.13283,684.352248 Z M737.13283,682.342482 C736.209978,682.342482 735.538348,681.904982 735.117937,681.029982 C734.697527,680.154982 734.487322,678.69551 734.487322,676.651564 C734.487322,674.607619 734.697527,673.144728 735.117937,672.262892 C735.538348,671.381057 736.209978,670.940139 737.13283,670.940139 C738.055682,670.940139 738.73073,671.389601 739.157977,672.288527 C739.585223,673.187453 739.798846,674.641799 739.798846,676.651564 C739.798846,678.668166 739.585223,680.120803 739.157977,681.009474 C738.73073,681.898146 738.055682,682.342482 737.13283,682.342482 Z" id="550" fill="#000000" fill-rule="nonzero"></path>
        <line x1="801.534906" y1="650" x2="801.534906" y2="660" id="Path" stroke="#868686" stroke-linejoin="round"></line>
        <path d="M789.434691,684.352248 C790.952269,684.352248 792.150267,683.895949 793.028685,682.983351 C793.907103,682.070754 794.346312,680.828322 794.346312,679.256057 C794.346312,677.827346 793.966918,676.695998 793.208128,675.862014 C792.449339,675.028029 791.389769,674.611037 790.029418,674.611037 C789.243285,674.611037 788.559691,674.763137 787.978636,675.067336 C787.397582,675.371535 786.94641,675.80049 786.625121,676.354201 L786.625121,676.354201 L786.502074,676.354201 C786.570433,674.45381 787.007933,673.072951 787.814574,672.211623 C788.621214,671.350295 789.827757,670.919631 791.434203,670.919631 C792.117796,670.919631 792.719359,670.994826 793.23889,671.145217 L793.23889,671.145217 L793.23889,669.135451 C792.719359,669.01924 792.083617,668.961135 791.331664,668.961135 C786.553343,668.961135 784.164183,671.893752 784.164183,677.758986 C784.164183,679.146682 784.377806,680.334426 784.805052,681.322219 C785.232298,682.310012 785.842406,683.061965 786.635375,683.578078 C787.428343,684.094191 788.361449,684.352248 789.434691,684.352248 Z M789.393675,682.36299 C788.580199,682.36299 787.911986,682.033156 787.389037,681.373488 C786.866087,680.71382 786.604613,679.902053 786.604613,678.938185 C786.604613,678.534865 786.731078,678.14009 786.984007,677.753859 C787.236937,677.367629 787.582152,677.06343 788.019652,676.841262 C788.457152,676.619094 788.935668,676.50801 789.455199,676.50801 C790.296019,676.50801 790.926634,676.754103 791.347044,677.246291 C791.767455,677.738478 791.97766,678.415236 791.97766,679.276564 C791.97766,680.267775 791.753783,681.029982 791.306029,681.563185 C790.858275,682.096389 790.220824,682.36299 789.393675,682.36299 Z M801.160714,684.352248 C802.88337,684.352248 804.163399,683.719924 805.000802,682.455275 C805.838204,681.190627 806.256905,679.256057 806.256905,676.651564 C806.256905,674.122267 805.826241,672.201369 804.964913,670.888869 C804.103585,669.576369 802.835518,668.920119 801.160714,668.920119 C799.444893,668.920119 798.168282,669.547316 797.33088,670.801711 C796.493477,672.056105 796.074776,674.006057 796.074776,676.651564 C796.074776,679.174025 796.50544,681.088088 797.366768,682.393752 C798.228096,683.699416 799.492745,684.352248 801.160714,684.352248 Z M801.160714,682.342482 C800.237862,682.342482 799.566231,681.904982 799.145821,681.029982 C798.725411,680.154982 798.515206,678.69551 798.515206,676.651564 C798.515206,674.607619 798.725411,673.144728 799.145821,672.262892 C799.566231,671.381057 800.237862,670.940139 801.160714,670.940139 C802.083565,670.940139 802.758614,671.389601 803.18586,672.288527 C803.613106,673.187453 803.826729,674.641799 803.826729,676.651564 C803.826729,678.668166 803.613106,680.120803 803.18586,681.009474 C802.758614,681.898146 802.083565,682.342482 801.160714,682.342482 Z M813.13283,684.352248 C814.855486,684.352248 816.135516,683.719924 816.972918,682.455275 C817.81032,681.190627 818.229021,679.256057 818.229021,676.651564 C818.229021,674.122267 817.798357,672.201369 816.937029,670.888869 C816.075701,669.576369 814.807635,668.920119 813.13283,668.920119 C811.41701,668.920119 810.140398,669.547316 809.302996,670.801711 C808.465594,672.056105 808.046893,674.006057 808.046893,676.651564 C808.046893,679.174025 808.477557,681.088088 809.338885,682.393752 C810.200213,683.699416 811.464861,684.352248 813.13283,684.352248 Z M813.13283,682.342482 C812.209978,682.342482 811.538348,681.904982 811.117937,681.029982 C810.697527,680.154982 810.487322,678.69551 810.487322,676.651564 C810.487322,674.607619 810.697527,673.144728 811.117937,672.262892 C811.538348,671.381057 812.209978,670.940139 813.13283,670.940139 C814.055682,670.940139 814.73073,671.389601 815.157977,672.288527 C815.585223,673.187453 815.798846,674.641799 815.798846,676.651564 C815.798846,678.668166 815.585223,680.120803 815.157977,681.009474 C814.73073,681.898146 814.055682,682.342482 813.13283,682.342482 Z" id="600" fill="#000000" fill-rule="nonzero"></path>
        <line x1="-0.371698113" y1="649.657547" x2="840.360377" y2="649.657547" id="Stroke-9" stroke="#868686" stroke-linejoin="round"></line>
        <line x1="419.5" y1="0.5" x2="419.49717" y2="647.623273" id="pink" stroke="#F54CE3" stroke-linejoin="round"></line>
        <path d="M0,291.217925 C0.260480419,291.223813 117.5652,351.070619 266.5,384.492453 C490.593773,434.780397 764.757377,482.026799 840,497.429219" id="Stroke-13" stroke="#165BD3" stroke-width="2" stroke-linecap="round" stroke-linejoin="round"></path>
        <path d="M771.285567,378.492453 L771.285567,363.501242 L769.275801,363.501242 L764.866622,366.967062 L766.076583,368.494894 C767.382247,367.435324 768.149581,366.806418 768.378585,366.608175 C768.607588,366.409933 768.800704,366.228781 768.95793,366.064718 C768.903243,366.741476 768.875899,367.657492 768.875899,368.812765 L768.875899,368.812765 L768.875899,378.492453 L771.285567,378.492453 Z M781.247918,378.697531 C782.970574,378.697531 784.250603,378.065207 785.088006,376.800558 C785.925408,375.53591 786.344109,373.60134 786.344109,370.996847 C786.344109,368.46755 785.913445,366.546652 785.052117,365.234152 C784.190789,363.921652 782.922722,363.265402 781.247918,363.265402 C779.532097,363.265402 778.255486,363.892599 777.418084,365.146994 C776.580681,366.401388 776.16198,368.35134 776.16198,370.996847 C776.16198,373.519308 776.592644,375.433371 777.453972,376.739035 C778.315301,378.044699 779.579949,378.697531 781.247918,378.697531 Z M781.247918,376.687765 C780.325066,376.687765 779.653435,376.250265 779.233025,375.375265 C778.812615,374.500265 778.60241,373.040793 778.60241,370.996847 C778.60241,368.952902 778.812615,367.490011 779.233025,366.608175 C779.653435,365.72634 780.325066,365.285422 781.247918,365.285422 C782.170769,365.285422 782.845818,365.734884 783.273064,366.63381 C783.70031,367.532736 783.913933,368.987082 783.913933,370.996847 C783.913933,373.013449 783.70031,374.466086 783.273064,375.354758 C782.845818,376.243429 782.170769,376.687765 781.247918,376.687765 Z M793.220034,378.697531 C794.94269,378.697531 796.22272,378.065207 797.060122,376.800558 C797.897524,375.53591 798.316226,373.60134 798.316226,370.996847 C798.316226,368.46755 797.885562,366.546652 797.024233,365.234152 C796.162905,363.921652 794.894839,363.265402 793.220034,363.265402 C791.504214,363.265402 790.227603,363.892599 789.3902,365.146994 C788.552798,366.401388 788.134097,368.35134 788.134097,370.996847 C788.134097,373.519308 788.564761,375.433371 789.426089,376.739035 C790.287417,378.044699 791.552065,378.697531 793.220034,378.697531 Z M793.220034,376.687765 C792.297183,376.687765 791.625552,376.250265 791.205142,375.375265 C790.784731,374.500265 790.574526,373.040793 790.574526,370.996847 C790.574526,368.952902 790.784731,367.490011 791.205142,366.608175 C791.625552,365.72634 792.297183,365.285422 793.220034,365.285422 C794.142886,365.285422 794.817935,365.734884 795.245181,366.63381 C795.672427,367.532736 795.88605,368.987082 795.88605,370.996847 C795.88605,373.013449 795.672427,374.466086 795.245181,375.354758 C794.817935,376.243429 794.142886,376.687765 793.220034,376.687765 Z M803.336194,378.492453 L803.336194,372.84255 C803.336194,371.434347 803.553235,370.427756 803.987317,369.822775 C804.421399,369.217795 805.103283,368.915304 806.032971,368.915304 C806.730237,368.915304 807.242932,369.128927 807.571057,369.556174 C807.899182,369.98342 808.063244,370.631125 808.063244,371.499289 L808.063244,371.499289 L808.063244,378.492453 L810.483166,378.492453 L810.483166,372.483664 C810.483166,371.273703 810.700207,370.376486 811.134289,369.792013 C811.568371,369.207541 812.253674,368.915304 813.190197,368.915304 C813.887463,368.915304 814.401867,369.128927 814.73341,369.556174 C815.064953,369.98342 815.230725,370.631125 815.230725,371.499289 L815.230725,371.499289 L815.230725,378.492453 L817.640393,378.492453 L817.640393,371.099386 C817.640393,369.698019 817.331067,368.655539 816.712414,367.971945 C816.093762,367.288351 815.107678,366.946554 813.754162,366.946554 C812.968029,366.946554 812.270764,367.103781 811.662365,367.418234 C811.053967,367.732687 810.582287,368.170187 810.247326,368.730734 L810.247326,368.730734 L810.083264,368.730734 C809.515881,367.541281 808.360608,366.946554 806.617444,366.946554 C805.89967,366.946554 805.241711,367.093527 804.643567,367.387472 C804.045422,367.681418 803.589123,368.09841 803.27467,368.638449 L803.27467,368.638449 L803.151623,368.638449 L802.813244,367.151633 L800.926526,367.151633 L800.926526,378.492453 L803.336194,378.492453 Z M827.079794,378.492453 L832.329794,363.501242 L829.786826,363.501242 L826.659384,372.781027 C826.543173,373.109152 826.392783,373.615011 826.208212,374.298605 C826.023642,374.982199 825.886923,375.583761 825.798056,376.103293 C825.743369,375.761496 825.62374,375.240256 825.439169,374.539572 C825.254599,373.838888 825.080283,373.266379 824.91622,372.822043 L824.91622,372.822043 L821.788779,363.501242 L819.266318,363.501242 L824.49581,378.492453 L827.079794,378.492453 Z" id="100mV" fill="#000000" fill-rule="nonzero"></path>
        <path d="M774.371993,118.126415 L774.371993,116.003857 L767.255782,116.003857 L767.255782,115.901317 L769.860274,113.378857 C771.029219,112.278271 771.864913,111.40498 772.367354,110.758983 C772.869796,110.112987 773.242354,109.48579 773.48503,108.877392 C773.727706,108.268993 773.849044,107.626415 773.849044,106.949657 C773.849044,105.719189 773.428633,104.73994 772.587813,104.011913 C771.746993,103.283886 770.629317,102.919872 769.234786,102.919872 C768.346114,102.919872 767.508712,103.066845 766.722579,103.36079 C765.936446,103.654735 765.126387,104.153759 764.292403,104.85786 L764.292403,104.85786 L765.594649,106.447216 C766.298751,105.893505 766.919112,105.510692 767.455733,105.298778 C767.992354,105.086864 768.547774,104.980907 769.121993,104.980907 C769.839766,104.980907 770.402022,105.175732 770.80876,105.56538 C771.215499,105.955028 771.418868,106.488232 771.418868,107.164989 C771.418868,107.657177 771.333419,108.118603 771.16252,108.549267 C770.991622,108.979931 770.719893,109.439648 770.347335,109.928417 C769.974776,110.417187 769.217696,111.246044 768.076094,112.414989 L768.076094,112.414989 L764.210372,116.30122 L764.210372,118.126415 L774.371993,118.126415 Z M781.247918,118.331493 C782.970574,118.331493 784.250603,117.699169 785.088006,116.434521 C785.925408,115.169872 786.344109,113.235302 786.344109,110.63081 C786.344109,108.101513 785.913445,106.180614 785.052117,104.868114 C784.190789,103.555614 782.922722,102.899364 781.247918,102.899364 C779.532097,102.899364 778.255486,103.526562 777.418084,104.780956 C776.580681,106.035351 776.16198,107.985302 776.16198,110.63081 C776.16198,113.153271 776.592644,115.067333 777.453972,116.372997 C778.315301,117.678661 779.579949,118.331493 781.247918,118.331493 Z M781.247918,116.321728 C780.325066,116.321728 779.653435,115.884228 779.233025,115.009228 C778.812615,114.134228 778.60241,112.674755 778.60241,110.63081 C778.60241,108.586864 778.812615,107.123974 779.233025,106.242138 C779.653435,105.360302 780.325066,104.919384 781.247918,104.919384 C782.170769,104.919384 782.845818,105.368847 783.273064,106.267773 C783.70031,107.166698 783.913933,108.621044 783.913933,110.63081 C783.913933,112.647411 783.70031,114.100048 783.273064,114.98872 C782.845818,115.877392 782.170769,116.321728 781.247918,116.321728 Z M793.220034,118.331493 C794.94269,118.331493 796.22272,117.699169 797.060122,116.434521 C797.897524,115.169872 798.316226,113.235302 798.316226,110.63081 C798.316226,108.101513 797.885562,106.180614 797.024233,104.868114 C796.162905,103.555614 794.894839,102.899364 793.220034,102.899364 C791.504214,102.899364 790.227603,103.526562 789.3902,104.780956 C788.552798,106.035351 788.134097,107.985302 788.134097,110.63081 C788.134097,113.153271 788.564761,115.067333 789.426089,116.372997 C790.287417,117.678661 791.552065,118.331493 793.220034,118.331493 Z M793.220034,116.321728 C792.297183,116.321728 791.625552,115.884228 791.205142,115.009228 C790.784731,114.134228 790.574526,112.674755 790.574526,110.63081 C790.574526,108.586864 790.784731,107.123974 791.205142,106.242138 C791.625552,105.360302 792.297183,104.919384 793.220034,104.919384 C794.142886,104.919384 794.817935,105.368847 795.245181,106.267773 C795.672427,107.166698 795.88605,108.621044 795.88605,110.63081 C795.88605,112.647411 795.672427,114.100048 795.245181,114.98872 C794.817935,115.877392 794.142886,116.321728 793.220034,116.321728 Z M803.336194,118.126415 L803.336194,112.476513 C803.336194,111.06831 803.553235,110.061718 803.987317,109.456737 C804.421399,108.851757 805.103283,108.549267 806.032971,108.549267 C806.730237,108.549267 807.242932,108.76289 807.571057,109.190136 C807.899182,109.617382 808.063244,110.265087 808.063244,111.133251 L808.063244,111.133251 L808.063244,118.126415 L810.483166,118.126415 L810.483166,112.117626 C810.483166,110.907665 810.700207,110.010448 811.134289,109.425976 C811.568371,108.841503 812.253674,108.549267 813.190197,108.549267 C813.887463,108.549267 814.401867,108.76289 814.73341,109.190136 C815.064953,109.617382 815.230725,110.265087 815.230725,111.133251 L815.230725,111.133251 L815.230725,118.126415 L817.640393,118.126415 L817.640393,110.733349 C817.640393,109.331982 817.331067,108.289501 816.712414,107.605907 C816.093762,106.922314 815.107678,106.580517 813.754162,106.580517 C812.968029,106.580517 812.270764,106.737743 811.662365,107.052196 C811.053967,107.366649 810.582287,107.804149 810.247326,108.364696 L810.247326,108.364696 L810.083264,108.364696 C809.515881,107.175243 808.360608,106.580517 806.617444,106.580517 C805.89967,106.580517 805.241711,106.727489 804.643567,107.021435 C804.045422,107.31538 803.589123,107.732372 803.27467,108.272411 L803.27467,108.272411 L803.151623,108.272411 L802.813244,106.785595 L800.926526,106.785595 L800.926526,118.126415 L803.336194,118.126415 Z M827.079794,118.126415 L832.329794,103.135204 L829.786826,103.135204 L826.659384,112.414989 C826.543173,112.743114 826.392783,113.248974 826.208212,113.932567 C826.023642,114.616161 825.886923,115.217724 825.798056,115.737255 C825.743369,115.395458 825.62374,114.874218 825.439169,114.173534 C825.254599,113.472851 825.080283,112.900341 824.91622,112.456005 L824.91622,112.456005 L821.788779,103.135204 L819.266318,103.135204 L824.49581,118.126415 L827.079794,118.126415 Z" id="200mV" fill="#000000" fill-rule="nonzero"></path>
        <path d="M325.784159,752 L325.784159,743.210938 L333.855448,743.210938 L333.855448,740.237305 L325.784159,740.237305 L325.784159,733.542969 L334.397441,733.542969 L334.397441,730.583984 L322.31248,730.583984 L322.31248,752 L325.784159,752 Z M341.478448,752 L341.478448,743.533203 C341.478448,742.097656 341.905695,740.930664 342.760187,740.032227 C343.614679,739.133789 344.730402,738.68457 346.107355,738.68457 C346.634698,738.68457 347.142511,738.743164 347.630792,738.860352 L347.630792,738.860352 L347.967706,735.652344 C347.518488,735.554688 346.947198,735.505859 346.253839,735.505859 C345.257745,735.505859 344.32757,735.789062 343.463312,736.355469 C342.599054,736.921875 341.89837,737.688477 341.361261,738.655273 L341.361261,738.655273 L341.18548,738.655273 L340.731378,735.798828 L338.036066,735.798828 L338.036066,752 L341.478448,752 Z M358.288831,752.292969 C359.392347,752.292969 360.373792,752.209961 361.233167,752.043945 C362.092542,751.87793 362.942152,751.594727 363.781995,751.194336 L363.781995,751.194336 L363.781995,748.396484 C362.83473,748.816406 361.948499,749.116699 361.123304,749.297363 C360.298109,749.478027 359.406995,749.568359 358.449964,749.568359 C356.994886,749.568359 355.866956,749.145996 355.066175,748.30127 C354.265394,747.456543 353.840589,746.248047 353.791761,744.675781 L353.791761,744.675781 L364.587659,744.675781 L364.587659,742.81543 C364.587659,740.540039 363.967542,738.75293 362.727308,737.454102 C361.487073,736.155273 359.79762,735.505859 357.658948,735.505859 C355.354261,735.505859 353.542738,736.262695 352.224378,737.776367 C350.906019,739.290039 350.246839,741.370117 350.246839,744.016602 C350.246839,746.594727 350.957288,748.618652 352.378187,750.088379 C353.799085,751.558105 355.7693,752.292969 358.288831,752.292969 Z M361.20387,742.185547 L353.850355,742.185547 C353.977308,740.857422 354.370374,739.84668 355.029554,739.15332 C355.688734,738.459961 356.565198,738.113281 357.658948,738.113281 C358.752698,738.113281 359.612073,738.45752 360.237073,739.145996 C360.862073,739.834473 361.184339,740.847656 361.20387,742.185547 L361.20387,742.185547 Z M381.071323,759.207031 L381.071323,735.798828 L378.214878,735.798828 L377.834019,737.922852 L377.716831,737.922852 C377.082066,737.063477 376.361851,736.445801 375.556187,736.069824 C374.750523,735.693848 373.839878,735.505859 372.824253,735.505859 C370.802769,735.505859 369.215855,736.250488 368.063511,737.739746 C366.911167,739.229004 366.334995,741.291992 366.334995,743.928711 C366.334995,746.56543 366.901402,748.618652 368.034214,750.088379 C369.167027,751.558105 370.734409,752.292969 372.736363,752.292969 C374.953159,752.292969 376.56937,751.487305 377.584995,749.875977 L377.584995,749.875977 L377.775425,749.875977 C377.746128,750.129883 377.711948,750.496094 377.672886,750.974609 C377.633823,751.453125 377.614292,751.907227 377.614292,752.336914 L377.614292,752.336914 L377.614292,759.207031 L381.071323,759.207031 Z M373.717808,749.539062 C371.159214,749.539062 369.879917,747.688477 369.879917,743.987305 C369.879917,742.161133 370.202183,740.759766 370.846714,739.783203 C371.491245,738.806641 372.428745,738.318359 373.659214,738.318359 C375.104527,738.318359 376.15189,738.757812 376.801304,739.636719 C377.450718,740.515625 377.775425,741.956055 377.775425,743.958008 L377.775425,743.958008 L377.775425,744.5 C377.775425,746.189453 377.460484,747.45166 376.830601,748.286621 C376.200718,749.121582 375.16312,749.539062 373.717808,749.539062 Z M389.474441,752.292969 C390.607253,752.292969 391.615554,752.078125 392.499343,751.648438 C393.383132,751.21875 394.064284,750.62793 394.5428,749.875977 L394.5428,749.875977 L394.718581,749.875977 L395.20198,752 L397.911941,752 L397.911941,735.798828 L394.454909,735.798828 L394.454909,743.870117 C394.454909,745.901367 394.115554,747.349121 393.436843,748.213379 C392.758132,749.077637 391.69612,749.509766 390.250808,749.509766 C389.166823,749.509766 388.370925,749.199707 387.863113,748.57959 C387.3553,747.959473 387.101394,747.029297 387.101394,745.789062 L387.101394,745.789062 L387.101394,735.798828 L383.629714,735.798828 L383.629714,746.389648 C383.629714,748.37207 384.113113,749.851562 385.079909,750.828125 C386.046706,751.804688 387.51155,752.292969 389.474441,752.292969 Z M407.677363,752.292969 C408.780878,752.292969 409.762323,752.209961 410.621698,752.043945 C411.481073,751.87793 412.330683,751.594727 413.170527,751.194336 L413.170527,751.194336 L413.170527,748.396484 C412.223261,748.816406 411.337031,749.116699 410.511835,749.297363 C409.68664,749.478027 408.795527,749.568359 407.838495,749.568359 C406.383417,749.568359 405.255488,749.145996 404.454706,748.30127 C403.653925,747.456543 403.22912,746.248047 403.180292,744.675781 L403.180292,744.675781 L413.976191,744.675781 L413.976191,742.81543 C413.976191,740.540039 413.356073,738.75293 412.115839,737.454102 C410.875605,736.155273 409.186152,735.505859 407.04748,735.505859 C404.742792,735.505859 402.931269,736.262695 401.612909,737.776367 C400.29455,739.290039 399.63537,741.370117 399.63537,744.016602 C399.63537,746.594727 400.34582,748.618652 401.766718,750.088379 C403.187616,751.558105 405.157831,752.292969 407.677363,752.292969 Z M410.592402,742.185547 L403.238886,742.185547 C403.365839,740.857422 403.758906,739.84668 404.418085,739.15332 C405.077265,738.459961 405.95373,738.113281 407.04748,738.113281 C408.14123,738.113281 409.000605,738.45752 409.625605,739.145996 C410.250605,739.834473 410.57287,740.847656 410.592402,742.185547 L410.592402,742.185547 Z M420.132706,752 L420.132706,743.928711 C420.132706,741.907227 420.46962,740.466797 421.143448,739.607422 C421.817277,738.748047 422.88173,738.318359 424.336808,738.318359 C425.430558,738.318359 426.228898,738.625977 426.731827,739.241211 C427.234757,739.856445 427.486222,740.789062 427.486222,742.039062 L427.486222,742.039062 L427.486222,752 L430.943253,752 L430.943253,741.438477 C430.943253,737.483398 428.999894,735.505859 425.113175,735.505859 C424.019425,735.505859 423.023331,735.71582 422.124894,736.135742 C421.226456,736.555664 420.533097,737.151367 420.044816,737.922852 L420.044816,737.922852 L419.869034,737.922852 L419.385636,735.798828 L416.690323,735.798828 L416.690323,752 L420.132706,752 Z M440.049495,752.292969 C441.045589,752.292969 441.892757,752.214844 442.590999,752.058594 C443.289241,751.902344 443.94598,751.643555 444.561214,751.282227 L444.561214,751.282227 L444.561214,748.279297 C443.194027,749.041016 441.743831,749.421875 440.210628,749.421875 C438.862972,749.421875 437.840023,748.965332 437.141781,748.052246 C436.443538,747.13916 436.094417,745.774414 436.094417,743.958008 C436.094417,740.237305 437.495784,738.376953 440.298519,738.376953 C441.245784,738.376953 442.446956,738.660156 443.902034,739.226562 L443.902034,739.226562 L444.942073,736.458008 C443.574886,735.823242 442.0368,735.505859 440.327816,735.505859 C437.808284,735.505859 435.882015,736.238281 434.549007,737.703125 C433.215999,739.167969 432.549495,741.262695 432.549495,743.987305 C432.549495,746.663086 433.186702,748.716309 434.461116,750.146973 C435.735531,751.577637 437.598323,752.292969 440.049495,752.292969 Z M447.118316,759.207031 C450.057769,759.207031 452.157378,757.522461 453.417144,754.15332 L453.417144,754.15332 L460.345855,735.798828 L456.625152,735.798828 C454.379058,742.3125 453.138823,745.952637 452.904448,746.719238 C452.670073,747.48584 452.508941,748.137695 452.42105,748.674805 L452.42105,748.674805 L452.303863,748.674805 C452.137847,747.522461 451.805816,746.291992 451.307769,744.983398 L451.307769,744.983398 L448.01187,735.798828 L444.26187,735.798828 L450.765777,752 L450.165191,753.523438 C449.491363,755.447266 448.32437,756.40918 446.664214,756.40918 C446.000152,756.40918 445.409331,756.350586 444.891753,756.233398 L444.891753,756.233398 L444.891753,758.958008 C445.614409,759.124023 446.356597,759.207031 447.118316,759.207031 Z M474.508808,756.746094 C473.170917,754.939453 472.140644,752.917969 471.417988,750.681641 C470.695331,748.445312 470.334003,746.135742 470.334003,743.75293 C470.334003,741.370117 470.695331,739.038574 471.417988,736.758301 C472.140644,734.478027 473.180683,732.419922 474.538105,730.583984 L474.538105,730.583984 L471.535175,730.583984 C470.109394,732.283203 469.018085,734.260742 468.261249,736.516602 C467.504413,738.772461 467.125995,741.194336 467.125995,743.782227 C467.125995,746.331055 467.501972,748.713867 468.253925,750.930664 C469.005878,753.147461 470.099628,755.085938 471.535175,756.746094 L471.535175,756.746094 L474.508808,756.746094 Z M479.418683,752 L479.418683,746.448242 L481.308331,744.895508 L486.508527,752 L490.551495,752 L483.622784,742.756836 L490.141339,735.798828 L486.171613,735.798828 L481.279034,741.013672 L479.330792,743.445312 L479.242902,743.445312 L479.418683,740.325195 L479.418683,729.207031 L476.005597,729.207031 L476.005597,752 L479.418683,752 Z M496.519105,752 L496.519105,742.34668 L506.392152,742.34668 L506.392152,752 L509.907777,752 L509.907777,730.583984 L506.392152,730.583984 L506.392152,739.34375 L496.519105,739.34375 L496.519105,730.583984 L493.018128,730.583984 L493.018128,752 L496.519105,752 Z M523.969409,752 L523.969409,749.363281 L515.722339,749.363281 L523.735034,738.201172 L523.735034,735.798828 L512.177417,735.798828 L512.177417,738.435547 L519.867847,738.435547 L511.67937,749.875977 L511.67937,752 L523.969409,752 Z M529.043581,756.746094 C530.469363,755.105469 531.560671,753.176758 532.317507,750.959961 C533.074343,748.743164 533.452761,746.350586 533.452761,743.782227 C533.452761,741.213867 533.076784,738.799316 532.324831,736.538574 C531.572878,734.277832 530.479128,732.292969 529.043581,730.583984 L529.043581,730.583984 L526.040652,730.583984 C527.398073,732.429688 528.438113,734.487793 529.160769,736.758301 C529.883425,739.028809 530.244753,741.360352 530.244753,743.75293 C530.244753,746.135742 529.885866,748.44043 529.168093,750.666992 C528.45032,752.893555 527.417605,754.919922 526.069948,756.746094 L526.069948,756.746094 L529.043581,756.746094 Z" id="Frequency(kHz)" fill="#000000" fill-rule="nonzero"></path>
    </g>
</svg>