<?xml version="1.0" encoding="UTF-8"?>
<svg viewBox="0 0 840 840" version="1.1" xmlns="http://www.w3.org/2000/svg" xmlns:xlink="http://www.w3.org/1999/xlink">
    <title>tuning_7</title>
    <g id="tuning_7" stroke="none" stroke-width="1" fill="none" fill-rule="evenodd">
        <rect fill="#FFFFFF" x="0" y="0" width="840" height="840"></rect>
        <rect id="Rectangle" fill="#ECF3F9" x="-0.371698113" y="541.549057" width="840.732075" height="105.59434"></rect>
        <rect id="Rectangle-Copy" fill="#ECF3F9" x="-0.371698113" y="331.366038" width="840.732075" height="105.59434"></rect>
        <rect id="Rectangle-Copy-2" fill="#ECF3F9" x="-0.371698113" y="121.183019" width="840.732075" height="105.59434"></rect>
        <rect id="Rectangle-Copy-3" fill="#ECF3F9" x="-0.371698113" y="-0.405660377" width="840.732075" height="17"></rect>
        <line x1="59.4650943" y1="650.160377" x2="59.4650943" y2="660.160377" id="Path" stroke="#868686" stroke-linejoin="round"></line>
        <line x1="180.14434" y1="650.160377" x2="180.14434" y2="660.160377" id="Path" stroke="#868686" stroke-linejoin="round"></line>
        <line x1="300.823585" y1="650.160377" x2="300.823585" y2="660.160377" id="Path" stroke="#868686" stroke-linejoin="round"></line>
        <line x1="420.50283" y1="650.160377" x2="420.50283" y2="660.160377" id="Path" stroke="#868686" stroke-linejoin="round"></line>
        <line x1="541.176415" y1="650.160377" x2="541.176415" y2="660.160377" id="Path" stroke="#868686" stroke-linejoin="round"></line>
        <line x1="661.85566" y1="650.160377" x2="661.85566" y2="660.160377" id="Path" stroke="#868686" stroke-linejoin="round"></line>
        <line x1="782.534906" y1="650.160377" x2="782.534906" y2="660.160377" id="Path" stroke="#868686" stroke-linejoin="round"></line>
        <line x1="-0.371698113" y1="649.657547" x2="840.360377" y2="649.657547" id="Stroke-9" stroke="#868686" stroke-linejoin="round"></line>
        <line x1="419.5" y1="-0.5" x2="420.49717" y2="647.623273" id="pink" stroke="#F54CE3" stroke-linejoin="round"></line>
        <path d="M0.650240802,631.18099 C1.34541449,630.93896 2.03953754,630.260134 2.73482797,630.012866 C3.43000166,629.76548 4.12599252,629.623452 4.8217499,629.697144 C5.51739054,629.770719 6.21349813,630.623121 6.90878856,630.454783 C7.60396225,630.286328 8.2980853,628.818315 8.99337573,628.686764 C9.68854942,628.555213 10.385124,629.523334 11.0804144,629.665478 C11.7755881,629.807507 12.4697111,629.697027 13.1650016,629.539283 C13.8601753,629.381422 14.5562828,629.023557 15.2520402,628.718429 C15.9476809,628.413185 16.6436717,627.571144 17.3389622,627.708049 C18.0341358,627.844839 18.7283756,629.52345 19.4236661,629.539283 C20.1188398,629.554999 20.8148306,627.992222 21.510588,627.802813 C22.2062286,627.613286 22.9023362,628.407946 23.5976267,628.402707 C24.2928003,628.397352 24.9869234,628.071153 25.6822138,627.771264 C26.3773875,627.471258 27.0739621,626.692547 27.7692525,626.603139 C28.4644262,626.513615 29.1585492,627.208157 29.8538397,627.234467 C30.5490133,627.26066 31.2451209,626.69767 31.9408783,626.760884 C32.636519,626.823982 33.3325098,627.323991 34.0278002,627.613403 C34.7229739,627.902814 35.4172137,628.576285 36.1125042,628.497354 C36.8076778,628.418424 37.5036687,626.918745 38.1994261,627.13982 C38.8950667,627.360779 39.5911743,629.239277 40.2864647,629.823339 C40.9816384,630.407401 41.6757615,630.212636 42.3710519,630.644193 C43.0662256,631.075633 43.7628001,631.722793 44.4580906,632.412212 C45.1532643,633.101515 45.8473873,634.23809 46.5426777,634.780126 C47.2378514,635.322045 47.933959,635.090492 48.6297164,635.664077 C49.3253571,636.237545 50.0213479,637.721508 50.7166383,638.221401 C51.411812,638.721294 52.1059351,638.274021 52.8012255,638.663435 C53.4963992,639.052732 54.1925068,640.268238 54.8882642,640.557649 C55.5839048,640.846945 56.2800124,640.310264 56.9753028,640.399788 C57.6704765,640.489196 58.3645996,640.747059 59.05989,641.094446 C59.7550637,641.441717 60.4515215,642.399244 61.1468119,642.483529 C61.8419856,642.567699 62.5362254,641.652198 63.2315158,641.599578 C63.9266895,641.546958 64.6226804,641.994114 65.3184378,642.167807 C66.0140784,642.341385 66.710186,642.367695 67.4054764,642.64139 C68.1006501,642.914969 68.7947732,643.814753 69.4900636,643.809515 C70.1852373,643.804159 70.8813449,642.557221 71.5771023,642.609841 C72.2727429,642.662462 72.9687338,644.083094 73.6640242,644.126415 C74.3591979,644.167263 75.0534377,643.07283 75.7487281,642.862349 C76.4439018,642.651868 77.1403596,642.725443 77.83565,642.862349 C78.5308237,642.999139 79.2250635,643.535819 79.9203539,643.683203 C80.6155276,643.83047 81.3115185,643.841063 82.0072759,643.746417 C82.7029165,643.651654 83.3990241,643.320099 84.0943145,643.114973 C84.7894882,642.909731 85.4836113,642.609725 86.1789017,642.515078 C86.8740754,642.420315 87.570183,642.678178 88.2659404,642.546627 C88.961581,642.415076 89.6575718,641.941494 90.3528623,641.725774 C91.048036,641.510054 91.7422758,641.289095 92.4375662,641.252307 C93.1327399,641.215403 93.8291977,641.531125 94.5244881,641.504815 C95.2196618,641.478505 95.9137849,641.231236 96.6090753,641.094446 C97.304249,640.95754 98.0003566,640.710272 98.6961139,640.683961 C99.3917546,640.657651 100.087862,640.841822 100.783153,640.936585 C101.478326,641.031232 102.172449,641.473266 102.86774,641.252307 C103.562913,641.031232 104.259021,639.878824 104.954778,639.610484 C105.650419,639.342027 106.34641,639.799894 107.0417,639.642149 C107.736874,639.484288 108.430997,638.889632 109.126288,638.663435 C109.821461,638.437121 110.518036,638.316047 111.213326,638.284499 C111.9085,638.252833 112.602623,638.615937 113.297913,638.473908 C113.993087,638.331764 114.689195,637.647816 115.384952,637.432096 C116.080593,637.216376 116.7767,637.126968 117.471991,637.179589 C118.167164,637.232209 118.861287,637.879369 119.556578,637.747818 C120.251752,637.616267 120.947742,636.295521 121.6435,636.390284 C122.33914,636.484931 123.035248,638.337119 123.730538,638.316164 C124.425712,638.295092 125.119835,636.563861 125.815126,636.263972 C126.510299,635.963966 127.206874,636.526957 127.902164,636.51648 C128.597338,636.505886 129.291461,636.395523 129.986751,636.200874 C130.681925,636.006109 131.378033,635.306212 132.07379,635.348355 C132.769431,635.390382 133.465422,636.179686 134.160712,636.453382 C134.855886,636.726961 135.550126,637.074231 136.245416,636.990062 C136.94059,636.905777 137.636581,636.116588 138.332338,635.94825 C139.027979,635.779795 139.724086,636.195519 140.419377,635.979799 C141.11455,635.763963 141.808673,634.74846 142.503964,634.653814 C143.199137,634.559051 143.895712,635.201088 144.591002,635.411569 C145.286176,635.622051 145.980299,635.94825 146.67559,635.916701 C147.370763,635.885036 148.066871,635.432641 148.762628,635.22216 C149.458269,635.011678 150.15426,634.827391 150.84955,634.653814 C151.544724,634.48012 152.238964,634.127611 152.934254,634.180231 C153.629428,634.232851 154.325419,634.985252 155.021176,634.969536 C155.716817,634.953703 156.412924,634.490598 157.108215,634.085468 C157.803388,633.680222 158.497511,632.601622 159.192802,632.538524 C159.887976,632.47531 160.584083,633.596052 161.27984,633.706648 C161.975481,633.817128 162.671472,633.464618 163.366762,633.201516 C164.061936,632.938415 164.756059,632.343759 165.45135,632.128039 C166.146523,631.912203 166.842631,632.049108 167.538388,631.90708 C168.234029,631.764936 168.930136,631.549216 169.625427,631.275636 C170.320601,631.001941 171.014724,630.46526 171.710014,630.265373 C172.405188,630.065369 173.101295,630.202159 173.797053,630.075963 C174.492693,629.949651 175.188684,629.581193 175.883975,629.507617 C176.579148,629.433926 177.273271,629.807507 177.968562,629.633929 C178.663736,629.460236 179.36031,628.670931 180.0556,628.465805 C180.750774,628.260563 181.444897,628.618427 182.140188,628.402707 C182.835361,628.186871 183.531469,627.492329 184.227226,627.171369 C184.922867,626.850292 185.618975,626.666237 186.314265,626.476827 C187.009439,626.287301 187.703562,626.176822 188.398852,626.034793 C189.094026,625.892649 189.790017,625.971696 190.485774,625.624425 C191.181415,625.277038 191.877522,624.172011 192.572813,623.951053 C193.267986,623.729977 193.962109,624.20356 194.6574,624.298323 C195.352574,624.39297 196.049148,624.729763 196.744439,624.519398 C197.439612,624.308917 198.133735,623.277582 198.829026,623.035552 C199.524199,622.793406 200.220307,622.930195 200.916064,623.067101 C201.611705,623.203891 202.307696,623.609021 203.002986,623.856406 C203.69816,624.103675 204.3924,624.319395 205.08769,624.550947 C205.782864,624.782384 206.478855,624.856075 207.174612,625.245489 C207.870253,625.634786 208.56636,626.013722 209.261651,626.887196 C209.956825,627.76067 210.650948,629.739054 211.346238,630.486332 C212.041412,631.233494 212.737986,631.223016 213.433277,631.3704 C214.12845,631.517667 214.822573,631.307185 215.517864,631.3704 C216.213038,631.433497 216.909145,631.754458 217.604903,631.749219 C218.300543,631.743864 218.996534,631.3704 219.691824,631.338851 C220.386998,631.307185 221.081238,631.549216 221.776528,631.559809 C222.471702,631.570287 223.167693,631.417665 223.86345,631.401949 C224.559091,631.386116 225.255199,631.480763 225.950489,631.465046 C226.645663,631.449214 227.339786,631.096704 228.035076,631.307185 C228.73025,631.517667 229.426824,632.627932 230.122115,632.727934 C230.817288,632.827819 231.511412,631.791246 232.206702,631.90708 C232.901876,632.022798 233.597866,633.075088 234.293624,633.422475 C234.989265,633.769746 235.685372,633.927607 236.380663,633.990821 C237.075836,634.053919 237.769959,633.675099 238.46525,633.801411 C239.160423,633.927607 239.856531,634.727505 240.552288,634.748577 C241.247929,634.769532 241.944037,633.885581 242.639327,633.927723 C243.334501,633.96975 244.028624,635.15359 244.723914,635.001084 C245.419088,634.848462 246.115546,633.122586 246.810836,633.012107 C247.50601,632.901511 248.20025,634.1013 248.89554,634.338092 C249.590714,634.574883 250.286705,634.564406 250.982462,634.432855 C251.678103,634.301304 252.37421,633.796056 253.069501,633.548787 C253.764674,633.301402 254.458797,633.101515 255.154088,632.949009 C255.849261,632.796387 256.545369,632.638526 257.241126,632.633287 C257.936767,632.627932 258.632758,633.12247 259.328048,632.917344 C260.023222,632.712101 260.717462,631.596597 261.412752,631.401949 C262.107926,631.207184 262.804384,631.575526 263.499674,631.749219 C264.194848,631.922796 264.889088,632.506859 265.584378,632.443761 C266.279552,632.380547 266.975543,631.501834 267.6713,631.3704 C268.366941,631.238849 269.063048,631.580881 269.758339,631.654573 C270.453512,631.728148 271.147635,631.849221 271.842926,631.812433 C272.5381,631.775529 273.234207,631.317663 273.929965,631.433497 C274.625605,631.549216 275.321596,632.343759 276.016886,632.506975 C276.71206,632.670075 277.4063,632.559479 278.10159,632.412212 C278.796764,632.264828 279.493222,631.880654 280.188512,631.622907 C280.883686,631.365044 281.577809,630.954676 282.273099,630.865268 C282.968273,630.775744 283.664381,631.207184 284.360138,631.086227 C285.055779,630.965153 285.751886,630.396807 286.447177,630.139061 C287.14235,629.881198 287.836474,629.618213 288.531764,629.539283 C289.226938,629.460352 289.923045,629.765364 290.618803,629.665478 C291.314443,629.565476 292.010434,629.181418 292.705725,628.939388 C293.400898,628.697241 294.095021,628.344732 294.790312,628.213181 C295.485485,628.08163 296.18206,628.260563 296.87735,628.150083 C297.572524,628.039488 298.266647,627.881627 298.961938,627.550189 C299.657111,627.218634 300.353219,626.624094 301.048976,626.161106 C301.744617,625.698 302.440608,625.098105 303.135898,624.771906 C303.831072,624.44559 304.525312,624.298323 305.220602,624.203677 C305.915776,624.108913 306.611767,624.272013 307.307524,624.203677 C308.003165,624.135224 308.699272,624.035222 309.394563,623.793192 C310.089736,623.551045 310.783859,623.056507 311.47915,622.751379 C312.174324,622.446135 312.870898,622.314584 313.566188,621.962075 C314.261362,621.609449 314.955485,620.820261 315.650776,620.63609 C316.345949,620.451918 317.042057,620.820144 317.737814,620.857048 C318.433455,620.893836 319.129446,621.293727 319.824736,620.857048 C320.51991,620.420253 321.21415,618.810095 321.90944,618.236627 C322.604614,617.663042 323.300605,617.736734 323.996362,617.415773 C324.692003,617.094696 325.38811,616.752664 326.083401,616.310747 C326.778574,615.868713 327.472697,615.07417 328.167988,614.763803 C328.863162,614.45332 329.559736,614.616419 330.255027,614.448081 C330.9502,614.279626 331.644323,614.069261 332.339614,613.753539 C333.034787,613.437818 333.730895,613.137812 334.426652,612.55375 C335.122293,611.969571 335.818284,611.043594 336.513574,610.24905 C337.208748,609.454507 337.902871,608.523058 338.598161,607.78649 C339.293335,607.049805 339.98991,606.150021 340.6852,605.829061 C341.380374,605.507984 342.074497,606.170976 342.769787,605.86061 C343.464961,605.550127 344.161069,604.482004 344.856826,603.966395 C345.552467,603.450669 346.248574,603.319119 346.943865,602.766605 C347.639038,602.214092 348.333161,601.245855 349.028452,600.651316 C349.723626,600.056659 350.419616,599.630458 351.115374,599.199018 C351.811014,598.767462 352.507122,598.472811 353.202412,598.062443 C353.897586,597.651958 354.591709,597.262544 355.287,596.736458 C355.982173,596.210255 356.678748,595.384162 357.374038,594.905341 C358.069212,594.426519 358.763335,594.137108 359.458625,593.863529 C360.153799,593.589833 360.849907,593.363519 361.545664,593.263634 C362.241305,593.163632 362.937296,593.658286 363.632586,593.263634 C364.32776,592.868981 365.021999,591.390258 365.71729,590.89572 C366.412464,590.401066 367.108454,590.548449 367.804212,590.295942 C368.499852,590.043317 369.19596,589.785455 369.891251,589.380325 C370.586424,588.975079 371.280547,588.233272 371.975838,587.86493 C372.671011,587.496588 373.367586,587.4754 374.062876,587.170272 C374.75805,586.865028 375.452173,586.328347 376.147464,586.033697 C376.842637,585.739046 377.538745,585.77595 378.234502,585.402369 C378.930143,585.028788 379.626134,584.03948 380.321424,583.792211 C381.016598,583.544826 381.710838,583.918407 382.406128,583.918407 C383.101302,583.918407 383.797293,583.786856 384.49305,583.792211 C385.188691,583.79745 385.884798,584.297343 386.580089,583.950072 C387.275262,583.602685 387.969385,582.797664 388.664676,581.70847 C389.359849,580.61916 390.056424,579.36675 390.751714,577.414676 C391.446888,575.462486 392.141011,572.694798 392.836302,569.995446 C393.531475,567.296094 394.227583,564.486146 394.92334,561.218565 C395.618981,557.950867 396.314972,554.262206 397.010262,550.389491 C397.705436,546.51666 398.399559,542.307268 399.094849,537.982042 C399.790023,533.656699 400.486131,529.615413 401.181888,524.437784 C401.877529,519.260039 402.573636,513.214175 403.268927,506.915687 C403.9641,500.617083 404.658223,494.22907 405.353514,486.64674 C406.048688,479.064293 406.744678,471.560777 407.440436,461.421123 C408.136076,451.281353 408.832184,439.068435 409.527474,425.808467 C410.222648,412.548382 410.916771,398.14136 411.612062,381.861079 C412.307235,365.580682 413.00381,347.537504 413.6991,328.126315 C414.394274,308.715009 415.088397,286.551964 415.783687,265.393827 C416.478861,244.23569 417.174969,220.914881 417.870726,201.177493 C418.566367,181.439988 419.262358,159.79779 419.957648,146.969262 C420.576125,135.556941 421.423758,124.529145 422.042352,124.206205 C422.614834,123.907247 423.556441,134.46181 424.129274,144.790874 C424.824915,157.33523 425.521022,180.282341 426.216313,199.472571 C426.911486,218.662686 427.605609,241.66265 428.3009,259.932025 C428.996073,278.201284 429.692648,294.165843 430.387938,309.088706 C431.083112,324.011453 431.777235,337.602976 432.472526,349.468623 C433.167699,361.334153 433.863807,370.700452 434.559564,380.28247 C435.255205,389.864372 435.951196,398.804237 436.646486,406.960268 C437.34166,415.116183 438.0359,422.072425 438.73119,429.218193 C439.426364,436.363844 440.122355,443.52009 440.818112,449.83441 C441.513753,456.148615 442.20986,461.815775 442.905151,467.104 C443.600324,472.392224 444.294447,477.196272 444.989738,481.563758 C445.684911,485.931127 446.381486,489.835391 447.076776,493.308331 C447.77195,496.781155 448.466073,499.38586 449.161364,502.400934 C449.856537,505.416008 450.552645,508.415249 451.248402,511.398774 C451.944043,514.382183 452.640034,517.918104 453.335324,520.301851 C454.030498,522.685481 454.724621,523.532645 455.419911,525.700671 C456.115085,527.868581 456.811193,530.957347 457.50695,533.309428 C458.202591,535.661509 458.898698,538.018829 459.593989,539.813159 C460.289162,541.607371 460.983285,542.501917 461.678576,544.075287 C462.37375,545.648541 463.070324,547.942763 463.765615,549.253032 C464.460788,550.563185 465.154911,550.726285 465.850202,551.936552 C466.545375,553.146702 467.241366,555.304135 467.937124,556.514402 C468.632764,557.724553 469.328872,558.213968 470.024162,559.198038 C470.719336,560.181991 471.413459,561.39738 472.108749,562.418238 C472.803923,563.438979 473.500031,564.633413 474.195788,565.322832 C474.891429,566.012135 475.58742,565.985825 476.28271,566.554171 C476.977884,567.1224 477.672124,567.948492 478.367414,568.732558 C479.062588,569.516508 479.759045,570.46379 480.454336,571.258333 C481.14951,572.052876 481.843749,572.731585 482.53904,573.499819 C483.234214,574.268052 483.930204,575.267838 484.625962,575.867732 C485.321602,576.467511 486.01771,576.346438 486.713,577.098954 C487.408174,577.851355 488.102297,579.535205 488.797588,580.382485 C489.492761,581.229649 490.188869,581.571681 490.884626,582.182053 C491.580267,582.792425 492.276258,582.992313 492.971548,584.044719 C493.666722,585.097009 494.360962,587.485994 495.056252,588.496374 C495.751426,589.506637 496.447884,589.253896 497.143174,590.106415 C497.838348,590.958818 498.532587,592.700527 499.227878,593.610905 C499.923052,594.521166 500.619042,594.568548 501.3148,595.568333 C502.01044,596.568003 502.706548,598.514954 503.401839,599.609503 C504.097012,600.703936 504.791135,601.272165 505.486426,602.135162 C506.181599,602.998042 506.877707,603.808534 507.573464,604.787248 C508.269105,605.765963 508.965096,607.007663 509.660386,608.007448 C510.35556,609.007118 511.049683,609.843804 511.744973,610.785731 C512.440147,611.727541 513.136722,613.179838 513.832012,613.658776 C514.527186,614.137598 515.221309,613.506154 515.916599,613.658776 C516.611773,613.811282 517.307881,614.158669 518.003638,614.574393 C518.699279,614.99 519.395386,615.942405 520.090677,616.152886 C520.78585,616.363251 521.479973,615.900262 522.175264,615.837164 C522.870437,615.77395 523.566428,616.010741 524.262186,615.774066 C524.957826,615.537275 525.653934,614.590109 526.349224,614.416532 C527.044398,614.242839 527.738521,614.42701 528.433812,614.732254 C529.128985,615.037382 529.82556,615.958237 530.52085,616.247649 C531.216024,616.536944 531.910147,616.321224 532.605437,616.468608 C533.300611,616.615875 533.996719,616.826356 534.692476,617.1316 C535.388117,617.436728 536.084108,618.368178 536.779398,618.299841 C537.474572,618.231388 538.168811,617.073741 538.864102,616.721232 C539.559276,616.368606 540.255266,616.56861 540.951024,616.184551 C541.646664,615.800376 542.342772,615.079525 543.038062,614.416532 C543.733236,613.753423 544.427359,612.843162 545.12265,612.206479 C545.817823,611.56968 546.514398,611.075143 547.209688,610.596321 C547.904862,610.117383 548.598985,609.601774 549.294275,609.333434 C549.989449,609.064977 550.685557,609.096642 551.381314,608.986163 C552.076955,608.875567 552.772946,608.680918 553.468236,608.670441 C554.16341,608.659847 554.85765,608.307338 555.55294,608.923065 C556.248114,609.538676 556.944104,611.464556 557.639862,612.36434 C558.335503,613.264124 559.03161,613.52187 559.726901,614.321769 C560.422074,615.121551 561.116197,616.184551 561.811488,617.163266 C562.506661,618.14198 563.203236,619.215341 563.898526,620.194056 C564.5937,621.17277 565.287823,621.998862 565.983114,623.035552 C566.678287,624.072126 567.374395,625.550617 568.070152,626.413613 C568.765793,627.276493 569.461784,627.508046 570.157074,628.213181 C570.852248,628.9182 571.546371,629.775958 572.241661,630.644193 C572.936835,631.512311 573.63341,632.538407 574.3287,633.422475 C575.023874,634.306427 575.717997,635.437763 576.413287,635.94825 C577.108461,636.45862 577.804568,636.400645 578.500326,636.484931 C579.195966,636.5691 579.891957,636.469098 580.587248,636.453382 C581.282421,636.437549 581.976661,636.43231 582.671952,636.390284 C583.367125,636.348141 584.063116,636.106111 584.758874,636.200874 C585.454514,636.295521 586.150622,636.847918 586.845912,636.958513 C587.541086,637.068993 588.235209,636.990062 588.930499,636.863867 C589.625673,636.737555 590.322248,636.395523 591.017538,636.200874 C591.712712,636.006109 592.406835,635.774556 593.102125,635.695626 C593.797299,635.616696 594.493407,635.590385 595.189164,635.727291 C595.884805,635.864081 596.580795,636.279688 597.276086,636.51648 C597.97126,636.753154 598.665499,637.24257 599.36079,637.147923 C600.055963,637.05316 600.751954,635.843009 601.447712,635.94825 C602.143352,636.053491 602.83946,637.531982 603.53475,637.779367 C604.229924,638.026636 604.924047,637.568886 605.619337,637.432096 C606.314511,637.29519 607.011086,636.821607 607.706376,636.958513 C608.40155,637.095303 609.095673,638.031875 609.790963,638.25295 C610.486137,638.473908 611.182245,638.131876 611.878002,638.284499 C612.573643,638.437004 613.269633,638.984395 613.964924,639.168566 C614.660098,639.352737 615.354221,639.515721 616.049511,639.389525 C616.744685,639.263213 617.440792,638.57391 618.13655,638.410811 C618.83219,638.247595 619.528298,638.463431 620.223588,638.410811 C620.918762,638.35819 621.612885,638.000326 622.308176,638.095089 C623.003349,638.189735 623.699924,638.989634 624.395214,638.979157 C625.090388,638.968563 625.784511,638.310809 626.479801,638.031991 C627.174975,637.753057 627.870966,637.579363 628.566723,637.305784 C629.262364,637.032089 629.958472,636.400761 630.653762,636.390284 C631.348936,636.37969 632.043059,637.337333 632.738349,637.242686 C633.433523,637.147923 634.12963,636.16397 634.825388,635.821938 C635.521028,635.479906 636.217136,635.311451 636.912426,635.190494 C637.6076,635.069421 638.301723,635.237876 638.997014,635.095848 C639.692187,634.953703 640.388178,634.516908 641.083936,634.338092 C641.779576,634.15916 642.475684,633.832844 643.170974,634.02237 C643.866148,634.21178 644.560271,635.432524 645.255561,635.474667 C645.950735,635.516694 646.64731,634.469643 647.3426,634.274994 C648.037774,634.080229 648.731897,634.243329 649.427187,634.306543 C650.122361,634.369641 650.818469,634.359047 651.514226,634.653814 C652.209867,634.948464 652.905857,635.800867 653.601148,636.074562 C654.296322,636.348141 654.990561,636.358619 655.685852,636.295521 C656.381025,636.232307 657.077016,635.674555 657.772774,635.695626 C658.468414,635.716581 659.164522,636.342902 659.859812,636.421833 C660.554986,636.500763 661.249109,636.127066 661.9444,636.169209 C662.639573,636.211235 663.336148,636.584816 664.031438,636.67434 C664.726612,636.763748 665.420735,636.716483 666.116025,636.706006 C666.811199,636.695412 667.507307,636.632198 668.203064,636.611243 C668.898705,636.590171 669.594696,636.45862 670.289986,636.579694 C670.98516,636.700651 671.679399,637.447812 672.37469,637.337333 C673.069864,637.226737 673.765854,636.006109 674.461612,635.916701 C675.157252,635.827177 675.85336,636.579577 676.54865,636.800652 C677.243824,637.021611 677.937947,637.058515 678.633238,637.242686 C679.328411,637.426857 680.024986,637.942467 680.720276,637.905679 C681.41545,637.868775 682.109573,637.216376 682.804863,637.021728 C683.500037,636.826963 684.196028,636.926964 684.891785,636.737555 C685.587426,636.548028 686.283534,635.89563 686.978824,635.885152 C687.673998,635.874558 688.368121,636.579577 689.063411,636.67434 C689.758585,636.768987 690.454692,636.421716 691.15045,636.453382 C691.84609,636.484931 692.542198,636.921726 693.237489,636.863867 C693.932662,636.805891 694.626785,636.195519 695.322076,636.106111 C696.017249,636.016587 696.71324,636.321715 697.408998,636.32707 C698.104638,636.332308 698.800746,636.469098 699.496036,636.13766 C700.19121,635.806105 700.885333,634.417022 701.580623,634.338092 C702.275797,634.259161 702.971905,635.390382 703.667662,635.664077 C704.363303,635.937656 705.05941,636.037658 705.754701,635.979799 C706.449874,635.921823 707.143998,635.295735 707.839288,635.316806 C708.534462,635.337761 709.230919,636.095517 709.92621,636.106111 C710.621384,636.116588 711.315623,635.485145 712.010914,635.379904 C712.706087,635.274664 713.402078,635.579791 714.097836,635.474667 C714.793476,635.369427 715.489584,634.848462 716.184874,634.748577 C716.880048,634.648575 717.574171,634.72215 718.269462,634.874772 C718.964635,635.027278 719.660743,635.664077 720.3565,635.664077 C721.052141,635.664077 721.748132,635.148351 722.443422,634.874772 C723.138596,634.601077 723.832836,634.15916 724.528126,634.02237 C725.2233,633.885464 725.919758,633.948678 726.615048,634.053919 C727.310222,634.15916 728.004461,634.537979 728.699752,634.653814 C729.394926,634.769532 730.090916,634.874772 730.786674,634.748577 C731.482314,634.622265 732.178422,633.822366 732.873712,633.896058 C733.568886,633.969633 734.263009,634.985252 734.9583,635.190494 C735.653473,635.39562 736.349581,635.169423 737.045338,635.127396 C737.740979,635.085254 738.43697,635.095848 739.13226,634.937987 C739.827434,634.780126 740.521674,634.201186 741.216964,634.180231 C741.912138,634.15916 742.608596,634.774771 743.303886,634.811675 C743.99906,634.848462 744.693183,634.311665 745.388473,634.40119 C746.083647,634.490598 746.779755,635.406214 747.475512,635.348355 C748.171153,635.29038 748.86726,633.995943 749.562551,634.053919 C750.257724,634.111778 750.951847,635.485145 751.647138,635.695626 C752.342311,635.906107 753.038302,635.437763 753.73406,635.316806 C754.4297,635.195733 755.125808,634.974774 755.821098,634.969536 C756.516272,634.96418 757.210395,635.090492 757.905685,635.285257 C758.600859,635.479906 759.297434,635.979799 759.992724,636.13766 C760.687898,636.295521 761.382021,636.316592 762.077311,636.232423 C762.772485,636.148137 763.468593,635.674555 764.16435,635.632528 C764.859991,635.590385 765.555981,635.869203 766.251272,635.979799 C766.946446,636.090278 767.640685,636.30076 768.335976,636.295521 C769.03115,636.290166 769.72714,635.779795 770.422898,635.94825 C771.118538,636.116588 771.814646,637.263641 772.509936,637.305784 C773.20511,637.347811 773.899233,636.274449 774.594524,636.200874 C775.289697,636.127182 775.986272,636.737555 776.681562,636.863867 C777.376736,636.990062 778.070859,637.111019 778.766149,636.958513 C779.461323,636.805891 780.157431,636.116588 780.853188,635.94825 C781.548829,635.779795 782.24482,636.13766 782.94011,635.94825 C783.635284,635.758724 784.329523,634.969536 785.024814,634.811675 C785.719988,634.653814 786.415978,634.93787 787.111736,635.001084 C787.807376,635.064182 788.503484,635.385143 789.198774,635.190494 C789.893948,634.995729 790.588071,634.032848 791.283362,633.83296 C791.978535,633.632956 792.67511,634.138088 793.3704,633.990821 C794.065574,633.843438 794.759697,633.038417 795.454987,632.949009 C796.150161,632.859484 796.846269,633.501406 797.542026,633.454141 C798.237667,633.406759 798.933658,632.796387 799.628948,632.664836 C800.324122,632.533285 801.018245,632.438522 801.713535,632.664836 C802.408709,632.891033 803.104817,633.790817 803.800574,634.02237 C804.496215,634.253806 805.192322,634.132849 805.887613,634.053919 C806.582786,633.974988 807.276909,633.648673 807.9722,633.548787 C808.667373,633.448785 809.363948,633.3489 810.059238,633.454141 C810.754412,633.559381 811.448535,634.122255 812.143826,634.180231 C812.838999,634.23809 813.53499,633.854032 814.230748,633.801411 C814.926388,633.748791 815.622496,633.811889 816.317786,633.864509 C817.01296,633.917129 817.707083,634.111778 818.402373,634.117133 C819.097547,634.122372 819.793655,633.890703 820.489412,633.896058 C821.185053,633.901297 821.881044,634.059158 822.576334,634.148682 C823.271508,634.23809 823.965747,634.306543 824.661038,634.432855 C825.356212,634.559051 826.052669,634.748577 826.74796,634.906438 C827.443133,635.064182 828.137373,635.443002 828.832664,635.379904 C829.527837,635.31669 830.223828,634.580006 830.919586,634.527502 C831.615226,634.474881 832.311334,635.027395 833.006624,635.064299 C833.701798,635.101086 834.395921,634.859056 835.091211,634.748577 C835.786385,634.637981 836.482493,634.064396 837.17825,634.40119 C837.873891,634.737867 838.569882,636.695412 839.265172,636.769104" id="Stroke-13" stroke="#165BD3" stroke-width="2" stroke-linecap="round" stroke-linejoin="round"></path>
        <path d="M771.285567,538.492453 L771.285567,523.501242 L769.275801,523.501242 L764.866622,526.967062 L766.076583,528.494894 C767.382247,527.435324 768.149581,526.806418 768.378585,526.608175 C768.607588,526.409933 768.800704,526.228781 768.95793,526.064718 C768.903243,526.741476 768.875899,527.657492 768.875899,528.812765 L768.875899,528.812765 L768.875899,538.492453 L771.285567,538.492453 Z M781.247918,538.697531 C782.970574,538.697531 784.250603,538.065207 785.088006,536.800558 C785.925408,535.53591 786.344109,533.60134 786.344109,530.996847 C786.344109,528.46755 785.913445,526.546652 785.052117,525.234152 C784.190789,523.921652 782.922722,523.265402 781.247918,523.265402 C779.532097,523.265402 778.255486,523.892599 777.418084,525.146994 C776.580681,526.401388 776.16198,528.35134 776.16198,530.996847 C776.16198,533.519308 776.592644,535.433371 777.453972,536.739035 C778.315301,538.044699 779.579949,538.697531 781.247918,538.697531 Z M781.247918,536.687765 C780.325066,536.687765 779.653435,536.250265 779.233025,535.375265 C778.812615,534.500265 778.60241,533.040793 778.60241,530.996847 C778.60241,528.952902 778.812615,527.490011 779.233025,526.608175 C779.653435,525.72634 780.325066,525.285422 781.247918,525.285422 C782.170769,525.285422 782.845818,525.734884 783.273064,526.63381 C783.70031,527.532736 783.913933,528.987082 783.913933,530.996847 C783.913933,533.013449 783.70031,534.466086 783.273064,535.354758 C782.845818,536.243429 782.170769,536.687765 781.247918,536.687765 Z M793.220034,538.697531 C794.94269,538.697531 796.22272,538.065207 797.060122,536.800558 C797.897524,535.53591 798.316226,533.60134 798.316226,530.996847 C798.316226,528.46755 797.885562,526.546652 797.024233,525.234152 C796.162905,523.921652 794.894839,523.265402 793.220034,523.265402 C791.504214,523.265402 790.227603,523.892599 789.3902,525.146994 C788.552798,526.401388 788.134097,528.35134 788.134097,530.996847 C788.134097,533.519308 788.564761,535.433371 789.426089,536.739035 C790.287417,538.044699 791.552065,538.697531 793.220034,538.697531 Z M793.220034,536.687765 C792.297183,536.687765 791.625552,536.250265 791.205142,535.375265 C790.784731,534.500265 790.574526,533.040793 790.574526,530.996847 C790.574526,528.952902 790.784731,527.490011 791.205142,526.608175 C791.625552,525.72634 792.297183,525.285422 793.220034,525.285422 C794.142886,525.285422 794.817935,525.734884 795.245181,526.63381 C795.672427,527.532736 795.88605,528.987082 795.88605,530.996847 C795.88605,533.013449 795.672427,534.466086 795.245181,535.354758 C794.817935,536.243429 794.142886,536.687765 793.220034,536.687765 Z M803.336194,538.492453 L803.336194,532.84255 C803.336194,531.434347 803.553235,530.427756 803.987317,529.822775 C804.421399,529.217795 805.103283,528.915304 806.032971,528.915304 C806.730237,528.915304 807.242932,529.128927 807.571057,529.556174 C807.899182,529.98342 808.063244,530.631125 808.063244,531.499289 L808.063244,531.499289 L808.063244,538.492453 L810.483166,538.492453 L810.483166,532.483664 C810.483166,531.273703 810.700207,530.376486 811.134289,529.792013 C811.568371,529.207541 812.253674,528.915304 813.190197,528.915304 C813.887463,528.915304 814.401867,529.128927 814.73341,529.556174 C815.064953,529.98342 815.230725,530.631125 815.230725,531.499289 L815.230725,531.499289 L815.230725,538.492453 L817.640393,538.492453 L817.640393,531.099386 C817.640393,529.698019 817.331067,528.655539 816.712414,527.971945 C816.093762,527.288351 815.107678,526.946554 813.754162,526.946554 C812.968029,526.946554 812.270764,527.103781 811.662365,527.418234 C811.053967,527.732687 810.582287,528.170187 810.247326,528.730734 L810.247326,528.730734 L810.083264,528.730734 C809.515881,527.541281 808.360608,526.946554 806.617444,526.946554 C805.89967,526.946554 805.241711,527.093527 804.643567,527.387472 C804.045422,527.681418 803.589123,528.09841 803.27467,528.638449 L803.27467,528.638449 L803.151623,528.638449 L802.813244,527.151633 L800.926526,527.151633 L800.926526,538.492453 L803.336194,538.492453 Z M827.079794,538.492453 L832.329794,523.501242 L829.786826,523.501242 L826.659384,532.781027 C826.543173,533.109152 826.392783,533.615011 826.208212,534.298605 C826.023642,534.982199 825.886923,535.583761 825.798056,536.103293 C825.743369,535.761496 825.62374,535.240256 825.439169,534.539572 C825.254599,533.838888 825.080283,533.266379 824.91622,532.822043 L824.91622,532.822043 L821.788779,523.501242 L819.266318,523.501242 L824.49581,538.492453 L827.079794,538.492453 Z" id="100mV" fill="#000000" fill-rule="nonzero"></path>
        <path d="M774.371993,433.400943 L774.371993,431.278385 L767.255782,431.278385 L767.255782,431.175846 L769.860274,428.653385 C771.029219,427.552799 771.864913,426.679508 772.367354,426.033512 C772.869796,425.387516 773.242354,424.760318 773.48503,424.15192 C773.727706,423.543522 773.849044,422.900943 773.849044,422.224186 C773.849044,420.993717 773.428633,420.014469 772.587813,419.286441 C771.746993,418.558414 770.629317,418.1944 769.234786,418.1944 C768.346114,418.1944 767.508712,418.341373 766.722579,418.635318 C765.936446,418.929264 765.126387,419.428287 764.292403,420.132389 L764.292403,420.132389 L765.594649,421.721744 C766.298751,421.168033 766.919112,420.785221 767.455733,420.573307 C767.992354,420.361393 768.547774,420.255436 769.121993,420.255436 C769.839766,420.255436 770.402022,420.45026 770.80876,420.839908 C771.215499,421.229557 771.418868,421.76276 771.418868,422.439518 C771.418868,422.931705 771.333419,423.393131 771.16252,423.823795 C770.991622,424.254459 770.719893,424.714176 770.347335,425.202945 C769.974776,425.691715 769.217696,426.520572 768.076094,427.689518 L768.076094,427.689518 L764.210372,431.575748 L764.210372,433.400943 L774.371993,433.400943 Z M781.247918,433.606022 C782.970574,433.606022 784.250603,432.973697 785.088006,431.709049 C785.925408,430.4444 786.344109,428.50983 786.344109,425.905338 C786.344109,423.376041 785.913445,421.455143 785.052117,420.142643 C784.190789,418.830143 782.922722,418.173893 781.247918,418.173893 C779.532097,418.173893 778.255486,418.80109 777.418084,420.055484 C776.580681,421.309879 776.16198,423.25983 776.16198,425.905338 C776.16198,428.427799 776.592644,430.341861 777.453972,431.647525 C778.315301,432.953189 779.579949,433.606022 781.247918,433.606022 Z M781.247918,431.596256 C780.325066,431.596256 779.653435,431.158756 779.233025,430.283756 C778.812615,429.408756 778.60241,427.949283 778.60241,425.905338 C778.60241,423.861393 778.812615,422.398502 779.233025,421.516666 C779.653435,420.63483 780.325066,420.193912 781.247918,420.193912 C782.170769,420.193912 782.845818,420.643375 783.273064,421.542301 C783.70031,422.441227 783.913933,423.895572 783.913933,425.905338 C783.913933,427.921939 783.70031,429.374576 783.273064,430.263248 C782.845818,431.15192 782.170769,431.596256 781.247918,431.596256 Z M793.220034,433.606022 C794.94269,433.606022 796.22272,432.973697 797.060122,431.709049 C797.897524,430.4444 798.316226,428.50983 798.316226,425.905338 C798.316226,423.376041 797.885562,421.455143 797.024233,420.142643 C796.162905,418.830143 794.894839,418.173893 793.220034,418.173893 C791.504214,418.173893 790.227603,418.80109 789.3902,420.055484 C788.552798,421.309879 788.134097,423.25983 788.134097,425.905338 C788.134097,428.427799 788.564761,430.341861 789.426089,431.647525 C790.287417,432.953189 791.552065,433.606022 793.220034,433.606022 Z M793.220034,431.596256 C792.297183,431.596256 791.625552,431.158756 791.205142,430.283756 C790.784731,429.408756 790.574526,427.949283 790.574526,425.905338 C790.574526,423.861393 790.784731,422.398502 791.205142,421.516666 C791.625552,420.63483 792.297183,420.193912 793.220034,420.193912 C794.142886,420.193912 794.817935,420.643375 795.245181,421.542301 C795.672427,422.441227 795.88605,423.895572 795.88605,425.905338 C795.88605,427.921939 795.672427,429.374576 795.245181,430.263248 C794.817935,431.15192 794.142886,431.596256 793.220034,431.596256 Z M803.336194,433.400943 L803.336194,427.751041 C803.336194,426.342838 803.553235,425.336246 803.987317,424.731266 C804.421399,424.126285 805.103283,423.823795 806.032971,423.823795 C806.730237,423.823795 807.242932,424.037418 807.571057,424.464664 C807.899182,424.89191 808.063244,425.539615 808.063244,426.407779 L808.063244,426.407779 L808.063244,433.400943 L810.483166,433.400943 L810.483166,427.392154 C810.483166,426.182193 810.700207,425.284977 811.134289,424.700504 C811.568371,424.116031 812.253674,423.823795 813.190197,423.823795 C813.887463,423.823795 814.401867,424.037418 814.73341,424.464664 C815.064953,424.89191 815.230725,425.539615 815.230725,426.407779 L815.230725,426.407779 L815.230725,433.400943 L817.640393,433.400943 L817.640393,426.007877 C817.640393,424.60651 817.331067,423.564029 816.712414,422.880436 C816.093762,422.196842 815.107678,421.855045 813.754162,421.855045 C812.968029,421.855045 812.270764,422.012272 811.662365,422.326725 C811.053967,422.641178 810.582287,423.078678 810.247326,423.639225 L810.247326,423.639225 L810.083264,423.639225 C809.515881,422.449772 808.360608,421.855045 806.617444,421.855045 C805.89967,421.855045 805.241711,422.002018 804.643567,422.295963 C804.045422,422.589908 803.589123,423.0069 803.27467,423.546939 L803.27467,423.546939 L803.151623,423.546939 L802.813244,422.060123 L800.926526,422.060123 L800.926526,433.400943 L803.336194,433.400943 Z M827.079794,433.400943 L832.329794,418.409732 L829.786826,418.409732 L826.659384,427.689518 C826.543173,428.017643 826.392783,428.523502 826.208212,429.207096 C826.023642,429.890689 825.886923,430.492252 825.798056,431.011783 C825.743369,430.669986 825.62374,430.148746 825.439169,429.448063 C825.254599,428.747379 825.080283,428.174869 824.91622,427.730533 L824.91622,427.730533 L821.788779,418.409732 L819.266318,418.409732 L824.49581,433.400943 L827.079794,433.400943 Z" id="200mV" fill="#000000" fill-rule="nonzero"></path>
        <path d="M768.373458,328.514512 C770.25334,328.514512 771.702559,328.123155 772.721114,327.34044 C773.739669,326.557725 774.248946,325.445176 774.248946,324.002793 C774.248946,323.011582 773.948165,322.216905 773.346602,321.61876 C772.74504,321.020616 771.842696,320.646348 770.639571,320.495957 L770.639571,320.495957 L770.639571,320.413926 C771.644454,320.195176 772.423751,319.769639 772.977462,319.137315 C773.531172,318.504991 773.808028,317.713731 773.808028,316.763536 C773.808028,315.621934 773.3842,314.726426 772.536544,314.077012 C771.688887,313.427598 770.509688,313.102891 768.998946,313.102891 C767.180587,313.102891 765.584395,313.60875 764.210372,314.620469 L764.210372,314.620469 L765.389571,316.30211 C766.107344,315.837266 766.729415,315.524522 767.255782,315.363877 C767.782149,315.203233 768.329024,315.122911 768.896407,315.122911 C769.709883,315.122911 770.325118,315.297227 770.74211,315.64586 C771.159102,315.994493 771.367598,316.490098 771.367598,317.132676 C771.367598,318.786973 770.171309,319.614121 767.778731,319.614121 L767.778731,319.614121 L766.455977,319.614121 L766.455977,321.572618 L767.758223,321.572618 C769.118575,321.572618 770.116622,321.760606 770.752364,322.136582 C771.388106,322.512559 771.705977,323.10045 771.705977,323.900254 C771.705977,324.802598 771.418868,325.469102 770.844649,325.899766 C770.27043,326.33043 769.402266,326.545762 768.240157,326.545762 C767.583907,326.545762 766.900313,326.460313 766.189376,326.289414 C765.478438,326.118516 764.805098,325.87584 764.169356,325.561387 L764.169356,325.561387 L764.169356,327.704453 C765.310958,328.244493 766.712325,328.514512 768.373458,328.514512 Z M781.247918,328.514512 C782.970574,328.514512 784.250603,327.882188 785.088006,326.617539 C785.925408,325.352891 786.344109,323.418321 786.344109,320.813828 C786.344109,318.284532 785.913445,316.363633 785.052117,315.051133 C784.190789,313.738633 782.922722,313.082383 781.247918,313.082383 C779.532097,313.082383 778.255486,313.70958 777.418084,314.963975 C776.580681,316.21837 776.16198,318.168321 776.16198,320.813828 C776.16198,323.336289 776.592644,325.250352 777.453972,326.556016 C778.315301,327.86168 779.579949,328.514512 781.247918,328.514512 Z M781.247918,326.504746 C780.325066,326.504746 779.653435,326.067246 779.233025,325.192246 C778.812615,324.317246 778.60241,322.857774 778.60241,320.813828 C778.60241,318.769883 778.812615,317.306993 779.233025,316.425157 C779.653435,315.543321 780.325066,315.102403 781.247918,315.102403 C782.170769,315.102403 782.845818,315.551866 783.273064,316.450791 C783.70031,317.349717 783.913933,318.804063 783.913933,320.813828 C783.913933,322.83043 783.70031,324.283067 783.273064,325.171739 C782.845818,326.060411 782.170769,326.504746 781.247918,326.504746 Z M793.220034,328.514512 C794.94269,328.514512 796.22272,327.882188 797.060122,326.617539 C797.897524,325.352891 798.316226,323.418321 798.316226,320.813828 C798.316226,318.284532 797.885562,316.363633 797.024233,315.051133 C796.162905,313.738633 794.894839,313.082383 793.220034,313.082383 C791.504214,313.082383 790.227603,313.70958 789.3902,314.963975 C788.552798,316.21837 788.134097,318.168321 788.134097,320.813828 C788.134097,323.336289 788.564761,325.250352 789.426089,326.556016 C790.287417,327.86168 791.552065,328.514512 793.220034,328.514512 Z M793.220034,326.504746 C792.297183,326.504746 791.625552,326.067246 791.205142,325.192246 C790.784731,324.317246 790.574526,322.857774 790.574526,320.813828 C790.574526,318.769883 790.784731,317.306993 791.205142,316.425157 C791.625552,315.543321 792.297183,315.102403 793.220034,315.102403 C794.142886,315.102403 794.817935,315.551866 795.245181,316.450791 C795.672427,317.349717 795.88605,318.804063 795.88605,320.813828 C795.88605,322.83043 795.672427,324.283067 795.245181,325.171739 C794.817935,326.060411 794.142886,326.504746 793.220034,326.504746 Z M803.336194,328.309434 L803.336194,322.659532 C803.336194,321.251328 803.553235,320.244737 803.987317,319.639756 C804.421399,319.034776 805.103283,318.732286 806.032971,318.732286 C806.730237,318.732286 807.242932,318.945909 807.571057,319.373155 C807.899182,319.800401 808.063244,320.448106 808.063244,321.31627 L808.063244,321.31627 L808.063244,328.309434 L810.483166,328.309434 L810.483166,322.300645 C810.483166,321.090684 810.700207,320.193467 811.134289,319.608995 C811.568371,319.024522 812.253674,318.732286 813.190197,318.732286 C813.887463,318.732286 814.401867,318.945909 814.73341,319.373155 C815.064953,319.800401 815.230725,320.448106 815.230725,321.31627 L815.230725,321.31627 L815.230725,328.309434 L817.640393,328.309434 L817.640393,320.916368 C817.640393,319.515 817.331067,318.47252 816.712414,317.788926 C816.093762,317.105332 815.107678,316.763536 813.754162,316.763536 C812.968029,316.763536 812.270764,316.920762 811.662365,317.235215 C811.053967,317.549668 810.582287,317.987168 810.247326,318.547715 L810.247326,318.547715 L810.083264,318.547715 C809.515881,317.358262 808.360608,316.763536 806.617444,316.763536 C805.89967,316.763536 805.241711,316.910508 804.643567,317.204453 C804.045422,317.498399 803.589123,317.915391 803.27467,318.45543 L803.27467,318.45543 L803.151623,318.45543 L802.813244,316.968614 L800.926526,316.968614 L800.926526,328.309434 L803.336194,328.309434 Z M827.079794,328.309434 L832.329794,313.318223 L829.786826,313.318223 L826.659384,322.598008 C826.543173,322.926133 826.392783,323.431993 826.208212,324.115586 C826.023642,324.79918 825.886923,325.400743 825.798056,325.920274 C825.743369,325.578477 825.62374,325.057237 825.439169,324.356553 C825.254599,323.65587 825.080283,323.08336 824.91622,322.639024 L824.91622,322.639024 L821.788779,313.318223 L819.266318,313.318223 L824.49581,328.309434 L827.079794,328.309434 Z" id="300mV" fill="#000000" fill-rule="nonzero"></path>
        <path d="M772.885176,223.217925 L772.885176,219.946928 L774.905196,219.946928 L774.905196,217.947417 L772.885176,217.947417 L772.885176,208.185698 L770.537032,208.185698 L763.687422,218.090971 L763.687422,219.946928 L770.537032,219.946928 L770.537032,223.217925 L772.885176,223.217925 Z M770.537032,217.947417 L765.933028,217.947417 L769.655196,212.533354 C770.065352,211.890776 770.366133,211.343901 770.55754,210.892729 L770.55754,210.892729 L770.639571,210.892729 C770.571212,211.747221 770.537032,212.844389 770.537032,214.184233 L770.537032,214.184233 L770.537032,217.947417 Z M781.247918,223.423003 C782.970574,223.423003 784.250603,222.790678 785.088006,221.52603 C785.925408,220.261382 786.344109,218.326811 786.344109,215.722319 C786.344109,213.193022 785.913445,211.272124 785.052117,209.959624 C784.190789,208.647124 782.922722,207.990874 781.247918,207.990874 C779.532097,207.990874 778.255486,208.618071 777.418084,209.872466 C776.580681,211.12686 776.16198,213.076811 776.16198,215.722319 C776.16198,218.24478 776.592644,220.158842 777.453972,221.464507 C778.315301,222.770171 779.579949,223.423003 781.247918,223.423003 Z M781.247918,221.413237 C780.325066,221.413237 779.653435,220.975737 779.233025,220.100737 C778.812615,219.225737 778.60241,217.766264 778.60241,215.722319 C778.60241,213.678374 778.812615,212.215483 779.233025,211.333647 C779.653435,210.451811 780.325066,210.010893 781.247918,210.010893 C782.170769,210.010893 782.845818,210.460356 783.273064,211.359282 C783.70031,212.258208 783.913933,213.712553 783.913933,215.722319 C783.913933,217.738921 783.70031,219.191557 783.273064,220.080229 C782.845818,220.968901 782.170769,221.413237 781.247918,221.413237 Z M793.220034,223.423003 C794.94269,223.423003 796.22272,222.790678 797.060122,221.52603 C797.897524,220.261382 798.316226,218.326811 798.316226,215.722319 C798.316226,213.193022 797.885562,211.272124 797.024233,209.959624 C796.162905,208.647124 794.894839,207.990874 793.220034,207.990874 C791.504214,207.990874 790.227603,208.618071 789.3902,209.872466 C788.552798,211.12686 788.134097,213.076811 788.134097,215.722319 C788.134097,218.24478 788.564761,220.158842 789.426089,221.464507 C790.287417,222.770171 791.552065,223.423003 793.220034,223.423003 Z M793.220034,221.413237 C792.297183,221.413237 791.625552,220.975737 791.205142,220.100737 C790.784731,219.225737 790.574526,217.766264 790.574526,215.722319 C790.574526,213.678374 790.784731,212.215483 791.205142,211.333647 C791.625552,210.451811 792.297183,210.010893 793.220034,210.010893 C794.142886,210.010893 794.817935,210.460356 795.245181,211.359282 C795.672427,212.258208 795.88605,213.712553 795.88605,215.722319 C795.88605,217.738921 795.672427,219.191557 795.245181,220.080229 C794.817935,220.968901 794.142886,221.413237 793.220034,221.413237 Z M803.336194,223.217925 L803.336194,217.568022 C803.336194,216.159819 803.553235,215.153227 803.987317,214.548247 C804.421399,213.943266 805.103283,213.640776 806.032971,213.640776 C806.730237,213.640776 807.242932,213.854399 807.571057,214.281645 C807.899182,214.708891 808.063244,215.356596 808.063244,216.22476 L808.063244,216.22476 L808.063244,223.217925 L810.483166,223.217925 L810.483166,217.209135 C810.483166,215.999175 810.700207,215.101958 811.134289,214.517485 C811.568371,213.933012 812.253674,213.640776 813.190197,213.640776 C813.887463,213.640776 814.401867,213.854399 814.73341,214.281645 C815.064953,214.708891 815.230725,215.356596 815.230725,216.22476 L815.230725,216.22476 L815.230725,223.217925 L817.640393,223.217925 L817.640393,215.824858 C817.640393,214.423491 817.331067,213.38101 816.712414,212.697417 C816.093762,212.013823 815.107678,211.672026 813.754162,211.672026 C812.968029,211.672026 812.270764,211.829253 811.662365,212.143706 C811.053967,212.458159 810.582287,212.895659 810.247326,213.456206 L810.247326,213.456206 L810.083264,213.456206 C809.515881,212.266753 808.360608,211.672026 806.617444,211.672026 C805.89967,211.672026 805.241711,211.818999 804.643567,212.112944 C804.045422,212.406889 803.589123,212.823882 803.27467,213.363921 L803.27467,213.363921 L803.151623,213.363921 L802.813244,211.877104 L800.926526,211.877104 L800.926526,223.217925 L803.336194,223.217925 Z M827.079794,223.217925 L832.329794,208.226714 L829.786826,208.226714 L826.659384,217.506499 C826.543173,217.834624 826.392783,218.340483 826.208212,219.024077 C826.023642,219.707671 825.886923,220.309233 825.798056,220.828764 C825.743369,220.486967 825.62374,219.965727 825.439169,219.265044 C825.254599,218.56436 825.080283,217.99185 824.91622,217.547514 L824.91622,217.547514 L821.788779,208.226714 L819.266318,208.226714 L824.49581,223.217925 L827.079794,223.217925 Z" id="400mV" fill="#000000" fill-rule="nonzero"></path>
        <path d="M768.434981,118.331493 C770.280684,118.331493 771.704268,117.88203 772.705733,116.983105 C773.707198,116.084179 774.20793,114.834911 774.20793,113.235302 C774.20793,111.854442 773.767012,110.76411 772.885176,109.964306 C772.00334,109.164501 770.807051,108.764599 769.296309,108.764599 C768.797286,108.764599 768.375167,108.791942 768.029952,108.84663 C767.822823,108.879442 767.634766,108.909794 767.465782,108.937685 L767.153243,108.990185 L767.491622,105.278271 L773.162032,105.278271 L773.162032,103.135204 L765.369063,103.135204 L764.794844,110.456493 L765.871504,111.092235 C766.226973,111.010204 766.640547,110.936718 767.112227,110.871776 C767.583907,110.806835 767.980391,110.774364 768.30168,110.774364 C770.584883,110.774364 771.726485,111.669872 771.726485,113.460888 C771.726485,114.397411 771.442794,115.108349 770.875411,115.5937 C770.308028,116.079052 769.480879,116.321728 768.393965,116.321728 C767.778731,116.321728 767.112227,116.236278 766.394454,116.06538 C765.67668,115.894482 765.040938,115.651806 764.487227,115.337353 L764.487227,115.337353 L764.487227,117.521435 C765.444258,118.061474 766.760176,118.331493 768.434981,118.331493 Z M781.247918,118.331493 C782.970574,118.331493 784.250603,117.699169 785.088006,116.434521 C785.925408,115.169872 786.344109,113.235302 786.344109,110.63081 C786.344109,108.101513 785.913445,106.180614 785.052117,104.868114 C784.190789,103.555614 782.922722,102.899364 781.247918,102.899364 C779.532097,102.899364 778.255486,103.526562 777.418084,104.780956 C776.580681,106.035351 776.16198,107.985302 776.16198,110.63081 C776.16198,113.153271 776.592644,115.067333 777.453972,116.372997 C778.315301,117.678661 779.579949,118.331493 781.247918,118.331493 Z M781.247918,116.321728 C780.325066,116.321728 779.653435,115.884228 779.233025,115.009228 C778.812615,114.134228 778.60241,112.674755 778.60241,110.63081 C778.60241,108.586864 778.812615,107.123974 779.233025,106.242138 C779.653435,105.360302 780.325066,104.919384 781.247918,104.919384 C782.170769,104.919384 782.845818,105.368847 783.273064,106.267773 C783.70031,107.166698 783.913933,108.621044 783.913933,110.63081 C783.913933,112.647411 783.70031,114.100048 783.273064,114.98872 C782.845818,115.877392 782.170769,116.321728 781.247918,116.321728 Z M793.220034,118.331493 C794.94269,118.331493 796.22272,117.699169 797.060122,116.434521 C797.897524,115.169872 798.316226,113.235302 798.316226,110.63081 C798.316226,108.101513 797.885562,106.180614 797.024233,104.868114 C796.162905,103.555614 794.894839,102.899364 793.220034,102.899364 C791.504214,102.899364 790.227603,103.526562 789.3902,104.780956 C788.552798,106.035351 788.134097,107.985302 788.134097,110.63081 C788.134097,113.153271 788.564761,115.067333 789.426089,116.372997 C790.287417,117.678661 791.552065,118.331493 793.220034,118.331493 Z M793.220034,116.321728 C792.297183,116.321728 791.625552,115.884228 791.205142,115.009228 C790.784731,114.134228 790.574526,112.674755 790.574526,110.63081 C790.574526,108.586864 790.784731,107.123974 791.205142,106.242138 C791.625552,105.360302 792.297183,104.919384 793.220034,104.919384 C794.142886,104.919384 794.817935,105.368847 795.245181,106.267773 C795.672427,107.166698 795.88605,108.621044 795.88605,110.63081 C795.88605,112.647411 795.672427,114.100048 795.245181,114.98872 C794.817935,115.877392 794.142886,116.321728 793.220034,116.321728 Z M803.336194,118.126415 L803.336194,112.476513 C803.336194,111.06831 803.553235,110.061718 803.987317,109.456737 C804.421399,108.851757 805.103283,108.549267 806.032971,108.549267 C806.730237,108.549267 807.242932,108.76289 807.571057,109.190136 C807.899182,109.617382 808.063244,110.265087 808.063244,111.133251 L808.063244,111.133251 L808.063244,118.126415 L810.483166,118.126415 L810.483166,112.117626 C810.483166,110.907665 810.700207,110.010448 811.134289,109.425976 C811.568371,108.841503 812.253674,108.549267 813.190197,108.549267 C813.887463,108.549267 814.401867,108.76289 814.73341,109.190136 C815.064953,109.617382 815.230725,110.265087 815.230725,111.133251 L815.230725,111.133251 L815.230725,118.126415 L817.640393,118.126415 L817.640393,110.733349 C817.640393,109.331982 817.331067,108.289501 816.712414,107.605907 C816.093762,106.922314 815.107678,106.580517 813.754162,106.580517 C812.968029,106.580517 812.270764,106.737743 811.662365,107.052196 C811.053967,107.366649 810.582287,107.804149 810.247326,108.364696 L810.247326,108.364696 L810.083264,108.364696 C809.515881,107.175243 808.360608,106.580517 806.617444,106.580517 C805.89967,106.580517 805.241711,106.727489 804.643567,107.021435 C804.045422,107.31538 803.589123,107.732372 803.27467,108.272411 L803.27467,108.272411 L803.151623,108.272411 L802.813244,106.785595 L800.926526,106.785595 L800.926526,118.126415 L803.336194,118.126415 Z M827.079794,118.126415 L832.329794,103.135204 L829.786826,103.135204 L826.659384,112.414989 C826.543173,112.743114 826.392783,113.248974 826.208212,113.932567 C826.023642,114.616161 825.886923,115.217724 825.798056,115.737255 C825.743369,115.395458 825.62374,114.874218 825.439169,114.173534 C825.254599,113.472851 825.080283,112.900341 824.91622,112.456005 L824.91622,112.456005 L821.788779,103.135204 L819.266318,103.135204 L824.49581,118.126415 L827.079794,118.126415 Z" id="500mV" fill="#000000" fill-rule="nonzero"></path>
        <path d="M52.2847886,684.307547 L52.2847886,682.184989 L45.1685777,682.184989 L45.1685777,682.08245 L47.7730699,679.559989 C48.9420152,678.459403 49.7777085,677.586112 50.2801499,676.940116 C50.7825913,676.294119 51.1551499,675.666922 51.3978257,675.058524 C51.6405015,674.450125 51.7618394,673.807547 51.7618394,673.130789 C51.7618394,671.900321 51.3414292,670.921073 50.5006089,670.193045 C49.6597886,669.465018 48.5421128,669.101004 47.1475816,669.101004 C46.2589097,669.101004 45.4215074,669.247977 44.6353746,669.541922 C43.8492417,669.835867 43.0391831,670.334891 42.2051988,671.038992 L42.2051988,671.038992 L43.5074449,672.628348 C44.2115464,672.074637 44.8319078,671.691825 45.3685288,671.47991 C45.9051499,671.267996 46.4605699,671.162039 47.0347886,671.162039 C47.7525621,671.162039 48.3148179,671.356864 48.7215562,671.746512 C49.1282945,672.13616 49.3316636,672.669364 49.3316636,673.346121 C49.3316636,673.838309 49.2462144,674.299735 49.075316,674.730399 C48.9044175,675.161063 48.632689,675.62078 48.2601304,676.109549 C47.8875718,676.598319 47.1304917,677.427176 45.9888902,678.596121 L45.9888902,678.596121 L42.1231675,682.482352 L42.1231675,684.307547 L52.2847886,684.307547 Z M59.1607136,684.512625 C60.8833699,684.512625 62.1633992,683.880301 63.0008015,682.615653 C63.8382038,681.351004 64.256905,679.416434 64.256905,676.811942 C64.256905,674.282645 63.826241,672.361746 62.9649128,671.049246 C62.1035847,669.736746 60.8355183,669.080496 59.1607136,669.080496 C57.4448933,669.080496 56.168282,669.707694 55.3308796,670.962088 C54.4934773,672.216483 54.0747761,674.166434 54.0747761,676.811942 C54.0747761,679.334403 54.5054402,681.248465 55.3667683,682.554129 C56.2280964,683.859793 57.4927449,684.512625 59.1607136,684.512625 Z M59.1607136,682.50286 C58.2378621,682.50286 57.5662312,682.06536 57.145821,681.19036 C56.7254109,680.31536 56.5152058,678.855887 56.5152058,676.811942 C56.5152058,674.767996 56.7254109,673.305106 57.145821,672.42327 C57.5662312,671.541434 58.2378621,671.100516 59.1607136,671.100516 C60.0835652,671.100516 60.758614,671.549979 61.1858601,672.448905 C61.6131062,673.34783 61.8267292,674.802176 61.8267292,676.811942 C61.8267292,678.828543 61.6131062,680.28118 61.1858601,681.169852 C60.758614,682.058524 60.0835652,682.50286 59.1607136,682.50286 Z M71.13283,684.512625 C72.8554863,684.512625 74.1355156,683.880301 74.9729179,682.615653 C75.8103203,681.351004 76.2290214,679.416434 76.2290214,676.811942 C76.2290214,674.282645 75.7983574,672.361746 74.9370292,671.049246 C74.0757011,669.736746 72.8076347,669.080496 71.13283,669.080496 C69.4170097,669.080496 68.1403984,669.707694 67.302996,670.962088 C66.4655937,672.216483 66.0468925,674.166434 66.0468925,676.811942 C66.0468925,679.334403 66.4775566,681.248465 67.3388847,682.554129 C68.2002128,683.859793 69.4648613,684.512625 71.13283,684.512625 Z M71.13283,682.50286 C70.2099785,682.50286 69.5383476,682.06536 69.1179374,681.19036 C68.6975273,680.31536 68.4873222,678.855887 68.4873222,676.811942 C68.4873222,674.767996 68.6975273,673.305106 69.1179374,672.42327 C69.5383476,671.541434 70.2099785,671.100516 71.13283,671.100516 C72.0556816,671.100516 72.7307304,671.549979 73.1579765,672.448905 C73.5852226,673.34783 73.7988456,674.802176 73.7988456,676.811942 C73.7988456,678.828543 73.5852226,680.28118 73.1579765,681.169852 C72.7307304,682.058524 72.0556816,682.50286 71.13283,682.50286 Z" id="200" fill="#000000" fill-rule="nonzero"></path>
        <path d="M173.284789,684.307547 L173.284789,682.184989 L166.168578,682.184989 L166.168578,682.08245 L168.77307,679.559989 C169.942015,678.459403 170.777709,677.586112 171.28015,676.940116 C171.782591,676.294119 172.15515,675.666922 172.397826,675.058524 C172.640502,674.450125 172.761839,673.807547 172.761839,673.130789 C172.761839,671.900321 172.341429,670.921073 171.500609,670.193045 C170.659789,669.465018 169.542113,669.101004 168.147582,669.101004 C167.25891,669.101004 166.421507,669.247977 165.635375,669.541922 C164.849242,669.835867 164.039183,670.334891 163.205199,671.038992 L163.205199,671.038992 L164.507445,672.628348 C165.211546,672.074637 165.831908,671.691825 166.368529,671.47991 C166.90515,671.267996 167.46057,671.162039 168.034789,671.162039 C168.752562,671.162039 169.314818,671.356864 169.721556,671.746512 C170.128294,672.13616 170.331664,672.669364 170.331664,673.346121 C170.331664,673.838309 170.246214,674.299735 170.075316,674.730399 C169.904418,675.161063 169.632689,675.62078 169.26013,676.109549 C168.887572,676.598319 168.130492,677.427176 166.98889,678.596121 L166.98889,678.596121 L163.123168,682.482352 L163.123168,684.307547 L173.284789,684.307547 Z M179.319893,684.512625 C181.165596,684.512625 182.58918,684.063162 183.590645,683.164237 C184.59211,682.265311 185.092843,681.016043 185.092843,679.416434 C185.092843,678.035575 184.651925,676.945242 183.770089,676.145438 C182.888253,675.345633 181.691964,674.945731 180.181221,674.945731 C179.682198,674.945731 179.260079,674.973075 178.914864,675.027762 C178.707735,675.060575 178.519678,675.090926 178.350694,675.118817 L178.038155,675.171317 L178.376534,671.459403 L184.046944,671.459403 L184.046944,669.316336 L176.253975,669.316336 L175.679757,676.637625 L176.756417,677.273367 C177.111885,677.191336 177.52546,677.11785 177.997139,677.052908 C178.468819,676.987967 178.865303,676.955496 179.186593,676.955496 C181.469796,676.955496 182.611397,677.851004 182.611397,679.64202 C182.611397,680.578543 182.327706,681.289481 181.760323,681.774832 C181.19294,682.260184 180.365792,682.50286 179.278878,682.50286 C178.663643,682.50286 177.997139,682.41741 177.279366,682.246512 C176.561593,682.075614 175.92585,681.832938 175.372139,681.518485 L175.372139,681.518485 L175.372139,683.702567 C176.329171,684.242606 177.645089,684.512625 179.319893,684.512625 Z M192.13283,684.512625 C193.855486,684.512625 195.135516,683.880301 195.972918,682.615653 C196.81032,681.351004 197.229021,679.416434 197.229021,676.811942 C197.229021,674.282645 196.798357,672.361746 195.937029,671.049246 C195.075701,669.736746 193.807635,669.080496 192.13283,669.080496 C190.41701,669.080496 189.140398,669.707694 188.302996,670.962088 C187.465594,672.216483 187.046893,674.166434 187.046893,676.811942 C187.046893,679.334403 187.477557,681.248465 188.338885,682.554129 C189.200213,683.859793 190.464861,684.512625 192.13283,684.512625 Z M192.13283,682.50286 C191.209978,682.50286 190.538348,682.06536 190.117937,681.19036 C189.697527,680.31536 189.487322,678.855887 189.487322,676.811942 C189.487322,674.767996 189.697527,673.305106 190.117937,672.42327 C190.538348,671.541434 191.209978,671.100516 192.13283,671.100516 C193.055682,671.100516 193.73073,671.549979 194.157977,672.448905 C194.585223,673.34783 194.798846,674.802176 194.798846,676.811942 C194.798846,678.828543 194.585223,680.28118 194.157977,681.169852 C193.73073,682.058524 193.055682,682.50286 192.13283,682.50286 Z" id="250" fill="#000000" fill-rule="nonzero"></path>
        <path d="M288.286253,684.512625 C290.166136,684.512625 291.615355,684.121268 292.63391,683.338553 C293.652464,682.555838 294.161742,681.443289 294.161742,680.000907 C294.161742,679.009696 293.86096,678.215018 293.259398,677.616873 C292.657835,677.018729 291.755492,676.644461 290.552367,676.494071 L290.552367,676.494071 L290.552367,676.412039 C291.55725,676.193289 292.336546,675.767752 292.890257,675.135428 C293.443968,674.503104 293.720824,673.711844 293.720824,672.761649 C293.720824,671.620047 293.296996,670.724539 292.449339,670.075125 C291.601683,669.425711 290.422484,669.101004 288.911742,669.101004 C287.093382,669.101004 285.497191,669.606864 284.123168,670.618582 L284.123168,670.618582 L285.302367,672.300223 C286.02014,671.835379 286.64221,671.522635 287.168578,671.361991 C287.694945,671.201346 288.24182,671.121024 288.809203,671.121024 C289.622679,671.121024 290.237914,671.29534 290.654906,671.643973 C291.071898,671.992606 291.280394,672.488211 291.280394,673.130789 C291.280394,674.785086 290.084105,675.612235 287.691527,675.612235 L287.691527,675.612235 L286.368773,675.612235 L286.368773,677.570731 L287.671019,677.570731 C289.031371,677.570731 290.029418,677.758719 290.66516,678.134696 C291.300902,678.510672 291.618773,679.098563 291.618773,679.898367 C291.618773,680.800711 291.331664,681.467215 290.757445,681.897879 C290.183226,682.328543 289.315062,682.543875 288.152953,682.543875 C287.496703,682.543875 286.813109,682.458426 286.102171,682.287528 C285.391234,682.116629 284.717894,681.873953 284.082152,681.5595 L284.082152,681.5595 L284.082152,683.702567 C285.223753,684.242606 286.625121,684.512625 288.286253,684.512625 Z M301.160714,684.512625 C302.88337,684.512625 304.163399,683.880301 305.000802,682.615653 C305.838204,681.351004 306.256905,679.416434 306.256905,676.811942 C306.256905,674.282645 305.826241,672.361746 304.964913,671.049246 C304.103585,669.736746 302.835518,669.080496 301.160714,669.080496 C299.444893,669.080496 298.168282,669.707694 297.33088,670.962088 C296.493477,672.216483 296.074776,674.166434 296.074776,676.811942 C296.074776,679.334403 296.50544,681.248465 297.366768,682.554129 C298.228096,683.859793 299.492745,684.512625 301.160714,684.512625 Z M301.160714,682.50286 C300.237862,682.50286 299.566231,682.06536 299.145821,681.19036 C298.725411,680.31536 298.515206,678.855887 298.515206,676.811942 C298.515206,674.767996 298.725411,673.305106 299.145821,672.42327 C299.566231,671.541434 300.237862,671.100516 301.160714,671.100516 C302.083565,671.100516 302.758614,671.549979 303.18586,672.448905 C303.613106,673.34783 303.826729,674.802176 303.826729,676.811942 C303.826729,678.828543 303.613106,680.28118 303.18586,681.169852 C302.758614,682.058524 302.083565,682.50286 301.160714,682.50286 Z M313.13283,684.512625 C314.855486,684.512625 316.135516,683.880301 316.972918,682.615653 C317.81032,681.351004 318.229021,679.416434 318.229021,676.811942 C318.229021,674.282645 317.798357,672.361746 316.937029,671.049246 C316.075701,669.736746 314.807635,669.080496 313.13283,669.080496 C311.41701,669.080496 310.140398,669.707694 309.302996,670.962088 C308.465594,672.216483 308.046893,674.166434 308.046893,676.811942 C308.046893,679.334403 308.477557,681.248465 309.338885,682.554129 C310.200213,683.859793 311.464861,684.512625 313.13283,684.512625 Z M313.13283,682.50286 C312.209978,682.50286 311.538348,682.06536 311.117937,681.19036 C310.697527,680.31536 310.487322,678.855887 310.487322,676.811942 C310.487322,674.767996 310.697527,673.305106 311.117937,672.42327 C311.538348,671.541434 312.209978,671.100516 313.13283,671.100516 C314.055682,671.100516 314.73073,671.549979 315.157977,672.448905 C315.585223,673.34783 315.798846,674.802176 315.798846,676.811942 C315.798846,678.828543 315.585223,680.28118 315.157977,681.169852 C314.73073,682.058524 314.055682,682.50286 313.13283,682.50286 Z" id="300" fill="#000000" fill-rule="nonzero"></path>
        <path d="M407.223989,684.512625 C409.103872,684.512625 410.553091,684.121268 411.571646,683.338553 C412.5902,682.555838 413.099478,681.443289 413.099478,680.000907 C413.099478,679.009696 412.798696,678.215018 412.197134,677.616873 C411.595571,677.018729 410.693228,676.644461 409.490103,676.494071 L409.490103,676.494071 L409.490103,676.412039 C410.494985,676.193289 411.274282,675.767752 411.827993,675.135428 C412.381704,674.503104 412.65856,673.711844 412.65856,672.761649 C412.65856,671.620047 412.234731,670.724539 411.387075,670.075125 C410.539419,669.425711 409.36022,669.101004 407.849478,669.101004 C406.031118,669.101004 404.434927,669.606864 403.060903,670.618582 L403.060903,670.618582 L404.240103,672.300223 C404.957876,671.835379 405.579946,671.522635 406.106314,671.361991 C406.632681,671.201346 407.179556,671.121024 407.746939,671.121024 C408.560415,671.121024 409.175649,671.29534 409.592642,671.643973 C410.009634,671.992606 410.21813,672.488211 410.21813,673.130789 C410.21813,674.785086 409.021841,675.612235 406.629263,675.612235 L406.629263,675.612235 L405.306509,675.612235 L405.306509,677.570731 L406.608755,677.570731 C407.969106,677.570731 408.967153,677.758719 409.602896,678.134696 C410.238638,678.510672 410.556509,679.098563 410.556509,679.898367 C410.556509,680.800711 410.269399,681.467215 409.695181,681.897879 C409.120962,682.328543 408.252798,682.543875 407.090689,682.543875 C406.434439,682.543875 405.750845,682.458426 405.039907,682.287528 C404.32897,682.116629 403.65563,681.873953 403.019888,681.5595 L403.019888,681.5595 L403.019888,683.702567 C404.161489,684.242606 405.562856,684.512625 407.223989,684.512625 Z M419.257629,684.512625 C421.103332,684.512625 422.526916,684.063162 423.528381,683.164237 C424.529846,682.265311 425.030578,681.016043 425.030578,679.416434 C425.030578,678.035575 424.58966,676.945242 423.707824,676.145438 C422.825989,675.345633 421.629699,674.945731 420.118957,674.945731 C419.619934,674.945731 419.197815,674.973075 418.8526,675.027762 C418.645471,675.060575 418.457414,675.090926 418.28843,675.118817 L417.975891,675.171317 L418.31427,671.459403 L423.98468,671.459403 L423.98468,669.316336 L416.191711,669.316336 L415.617492,676.637625 L416.694153,677.273367 C417.049621,677.191336 417.463196,677.11785 417.934875,677.052908 C418.406555,676.987967 418.803039,676.955496 419.124328,676.955496 C421.407531,676.955496 422.549133,677.851004 422.549133,679.64202 C422.549133,680.578543 422.265442,681.289481 421.698059,681.774832 C421.130676,682.260184 420.303528,682.50286 419.216614,682.50286 C418.601379,682.50286 417.934875,682.41741 417.217102,682.246512 C416.499328,682.075614 415.863586,681.832938 415.309875,681.518485 L415.309875,681.518485 L415.309875,683.702567 C416.266906,684.242606 417.582824,684.512625 419.257629,684.512625 Z M432.070566,684.512625 C433.793222,684.512625 435.073251,683.880301 435.910654,682.615653 C436.748056,681.351004 437.166757,679.416434 437.166757,676.811942 C437.166757,674.282645 436.736093,672.361746 435.874765,671.049246 C435.013437,669.736746 433.745371,669.080496 432.070566,669.080496 C430.354746,669.080496 429.078134,669.707694 428.240732,670.962088 C427.40333,672.216483 426.984628,674.166434 426.984628,676.811942 C426.984628,679.334403 427.415292,681.248465 428.276621,682.554129 C429.137949,683.859793 430.402597,684.512625 432.070566,684.512625 Z M432.070566,682.50286 C431.147714,682.50286 430.476083,682.06536 430.055673,681.19036 C429.635263,680.31536 429.425058,678.855887 429.425058,676.811942 C429.425058,674.767996 429.635263,673.305106 430.055673,672.42327 C430.476083,671.541434 431.147714,671.100516 432.070566,671.100516 C432.993417,671.100516 433.668466,671.549979 434.095712,672.448905 C434.522958,673.34783 434.736581,674.802176 434.736581,676.811942 C434.736581,678.828543 434.522958,680.28118 434.095712,681.169852 C433.668466,682.058524 432.993417,682.50286 432.070566,682.50286 Z" id="350" fill="#000000" fill-rule="nonzero"></path>
        <path d="M532.797972,684.307547 L532.797972,681.036551 L534.817992,681.036551 L534.817992,679.037039 L532.797972,679.037039 L532.797972,669.275321 L530.449828,669.275321 L523.600218,679.180594 L523.600218,681.036551 L530.449828,681.036551 L530.449828,684.307547 L532.797972,684.307547 Z M530.449828,679.037039 L525.845824,679.037039 L529.567992,673.622977 C529.978148,672.980399 530.278929,672.433524 530.470335,671.982352 L530.470335,671.982352 L530.552367,671.982352 C530.484007,672.836844 530.449828,673.934012 530.449828,675.273856 L530.449828,675.273856 L530.449828,679.037039 Z M541.160714,684.512625 C542.88337,684.512625 544.163399,683.880301 545.000802,682.615653 C545.838204,681.351004 546.256905,679.416434 546.256905,676.811942 C546.256905,674.282645 545.826241,672.361746 544.964913,671.049246 C544.103585,669.736746 542.835518,669.080496 541.160714,669.080496 C539.444893,669.080496 538.168282,669.707694 537.33088,670.962088 C536.493477,672.216483 536.074776,674.166434 536.074776,676.811942 C536.074776,679.334403 536.50544,681.248465 537.366768,682.554129 C538.228096,683.859793 539.492745,684.512625 541.160714,684.512625 Z M541.160714,682.50286 C540.237862,682.50286 539.566231,682.06536 539.145821,681.19036 C538.725411,680.31536 538.515206,678.855887 538.515206,676.811942 C538.515206,674.767996 538.725411,673.305106 539.145821,672.42327 C539.566231,671.541434 540.237862,671.100516 541.160714,671.100516 C542.083565,671.100516 542.758614,671.549979 543.18586,672.448905 C543.613106,673.34783 543.826729,674.802176 543.826729,676.811942 C543.826729,678.828543 543.613106,680.28118 543.18586,681.169852 C542.758614,682.058524 542.083565,682.50286 541.160714,682.50286 Z M553.13283,684.512625 C554.855486,684.512625 556.135516,683.880301 556.972918,682.615653 C557.81032,681.351004 558.229021,679.416434 558.229021,676.811942 C558.229021,674.282645 557.798357,672.361746 556.937029,671.049246 C556.075701,669.736746 554.807635,669.080496 553.13283,669.080496 C551.41701,669.080496 550.140398,669.707694 549.302996,670.962088 C548.465594,672.216483 548.046893,674.166434 548.046893,676.811942 C548.046893,679.334403 548.477557,681.248465 549.338885,682.554129 C550.200213,683.859793 551.464861,684.512625 553.13283,684.512625 Z M553.13283,682.50286 C552.209978,682.50286 551.538348,682.06536 551.117937,681.19036 C550.697527,680.31536 550.487322,678.855887 550.487322,676.811942 C550.487322,674.767996 550.697527,673.305106 551.117937,672.42327 C551.538348,671.541434 552.209978,671.100516 553.13283,671.100516 C554.055682,671.100516 554.73073,671.549979 555.157977,672.448905 C555.585223,673.34783 555.798846,674.802176 555.798846,676.811942 C555.798846,678.828543 555.585223,680.28118 555.157977,681.169852 C554.73073,682.058524 554.055682,682.50286 553.13283,682.50286 Z" id="400" fill="#000000" fill-rule="nonzero"></path>
        <path d="M653.797972,684.307547 L653.797972,681.036551 L655.817992,681.036551 L655.817992,679.037039 L653.797972,679.037039 L653.797972,669.275321 L651.449828,669.275321 L644.600218,679.180594 L644.600218,681.036551 L651.449828,681.036551 L651.449828,684.307547 L653.797972,684.307547 Z M651.449828,679.037039 L646.845824,679.037039 L650.567992,673.622977 C650.978148,672.980399 651.278929,672.433524 651.470335,671.982352 L651.470335,671.982352 L651.552367,671.982352 C651.484007,672.836844 651.449828,673.934012 651.449828,675.273856 L651.449828,675.273856 L651.449828,679.037039 Z M661.319893,684.512625 C663.165596,684.512625 664.58918,684.063162 665.590645,683.164237 C666.59211,682.265311 667.092843,681.016043 667.092843,679.416434 C667.092843,678.035575 666.651925,676.945242 665.770089,676.145438 C664.888253,675.345633 663.691964,674.945731 662.181221,674.945731 C661.682198,674.945731 661.260079,674.973075 660.914864,675.027762 C660.707735,675.060575 660.519678,675.090926 660.350694,675.118817 L660.038155,675.171317 L660.376534,671.459403 L666.046944,671.459403 L666.046944,669.316336 L658.253975,669.316336 L657.679757,676.637625 L658.756417,677.273367 C659.111885,677.191336 659.52546,677.11785 659.997139,677.052908 C660.468819,676.987967 660.865303,676.955496 661.186593,676.955496 C663.469796,676.955496 664.611397,677.851004 664.611397,679.64202 C664.611397,680.578543 664.327706,681.289481 663.760323,681.774832 C663.19294,682.260184 662.365792,682.50286 661.278878,682.50286 C660.663643,682.50286 659.997139,682.41741 659.279366,682.246512 C658.561593,682.075614 657.92585,681.832938 657.372139,681.518485 L657.372139,681.518485 L657.372139,683.702567 C658.329171,684.242606 659.645089,684.512625 661.319893,684.512625 Z M674.13283,684.512625 C675.855486,684.512625 677.135516,683.880301 677.972918,682.615653 C678.81032,681.351004 679.229021,679.416434 679.229021,676.811942 C679.229021,674.282645 678.798357,672.361746 677.937029,671.049246 C677.075701,669.736746 675.807635,669.080496 674.13283,669.080496 C672.41701,669.080496 671.140398,669.707694 670.302996,670.962088 C669.465594,672.216483 669.046893,674.166434 669.046893,676.811942 C669.046893,679.334403 669.477557,681.248465 670.338885,682.554129 C671.200213,683.859793 672.464861,684.512625 674.13283,684.512625 Z M674.13283,682.50286 C673.209978,682.50286 672.538348,682.06536 672.117937,681.19036 C671.697527,680.31536 671.487322,678.855887 671.487322,676.811942 C671.487322,674.767996 671.697527,673.305106 672.117937,672.42327 C672.538348,671.541434 673.209978,671.100516 674.13283,671.100516 C675.055682,671.100516 675.73073,671.549979 676.157977,672.448905 C676.585223,673.34783 676.798846,674.802176 676.798846,676.811942 C676.798846,678.828543 676.585223,680.28118 676.157977,681.169852 C675.73073,682.058524 675.055682,682.50286 674.13283,682.50286 Z" id="450" fill="#000000" fill-rule="nonzero"></path>
        <path d="M769.347777,684.512625 C771.19348,684.512625 772.617064,684.063162 773.618529,683.164237 C774.619994,682.265311 775.120726,681.016043 775.120726,679.416434 C775.120726,678.035575 774.679808,676.945242 773.797972,676.145438 C772.916136,675.345633 771.719847,674.945731 770.209105,674.945731 C769.710082,674.945731 769.287962,674.973075 768.942748,675.027762 C768.597533,675.08245 768.305296,675.130301 768.066039,675.171317 L768.066039,675.171317 L768.404418,671.459403 L774.074828,671.459403 L774.074828,669.316336 L766.281859,669.316336 L765.70764,676.637625 L766.7843,677.273367 C767.139769,677.191336 767.553343,677.11785 768.025023,677.052908 C768.496703,676.987967 768.893187,676.955496 769.214476,676.955496 C771.497679,676.955496 772.639281,677.851004 772.639281,679.64202 C772.639281,680.578543 772.355589,681.289481 771.788207,681.774832 C771.220824,682.260184 770.393675,682.50286 769.306761,682.50286 C768.691527,682.50286 768.025023,682.41741 767.30725,682.246512 C766.589476,682.075614 765.953734,681.832938 765.400023,681.518485 L765.400023,681.518485 L765.400023,683.702567 C766.357054,684.242606 767.672972,684.512625 769.347777,684.512625 Z M782.160714,684.512625 C783.88337,684.512625 785.163399,683.880301 786.000802,682.615653 C786.838204,681.351004 787.256905,679.416434 787.256905,676.811942 C787.256905,674.282645 786.826241,672.361746 785.964913,671.049246 C785.103585,669.736746 783.835518,669.080496 782.160714,669.080496 C780.444893,669.080496 779.168282,669.707694 778.33088,670.962088 C777.493477,672.216483 777.074776,674.166434 777.074776,676.811942 C777.074776,679.334403 777.50544,681.248465 778.366768,682.554129 C779.228096,683.859793 780.492745,684.512625 782.160714,684.512625 Z M782.160714,682.50286 C781.237862,682.50286 780.566231,682.06536 780.145821,681.19036 C779.725411,680.31536 779.515206,678.855887 779.515206,676.811942 C779.515206,674.767996 779.725411,673.305106 780.145821,672.42327 C780.566231,671.541434 781.237862,671.100516 782.160714,671.100516 C783.083565,671.100516 783.758614,671.549979 784.18586,672.448905 C784.613106,673.34783 784.826729,674.802176 784.826729,676.811942 C784.826729,678.828543 784.613106,680.28118 784.18586,681.169852 C783.758614,682.058524 783.083565,682.50286 782.160714,682.50286 Z M794.13283,684.512625 C795.855486,684.512625 797.135516,683.880301 797.972918,682.615653 C798.81032,681.351004 799.229021,679.416434 799.229021,676.811942 C799.229021,674.282645 798.798357,672.361746 797.937029,671.049246 C797.075701,669.736746 795.807635,669.080496 794.13283,669.080496 C792.41701,669.080496 791.140398,669.707694 790.302996,670.962088 C789.465594,672.216483 789.046893,674.166434 789.046893,676.811942 C789.046893,679.334403 789.477557,681.248465 790.338885,682.554129 C791.200213,683.859793 792.464861,684.512625 794.13283,684.512625 Z M794.13283,682.50286 C793.209978,682.50286 792.538348,682.06536 792.117937,681.19036 C791.697527,680.31536 791.487322,678.855887 791.487322,676.811942 C791.487322,674.767996 791.697527,673.305106 792.117937,672.42327 C792.538348,671.541434 793.209978,671.100516 794.13283,671.100516 C795.055682,671.100516 795.73073,671.549979 796.157977,672.448905 C796.585223,673.34783 796.798846,674.802176 796.798846,676.811942 C796.798846,678.828543 796.585223,680.28118 796.157977,681.169852 C795.73073,682.058524 795.055682,682.50286 794.13283,682.50286 Z" id="500" fill="#000000" fill-rule="nonzero"></path>
        <path d="M325.784159,752 L325.784159,743.210938 L333.855448,743.210938 L333.855448,740.237305 L325.784159,740.237305 L325.784159,733.542969 L334.397441,733.542969 L334.397441,730.583984 L322.31248,730.583984 L322.31248,752 L325.784159,752 Z M341.478448,752 L341.478448,743.533203 C341.478448,742.097656 341.905695,740.930664 342.760187,740.032227 C343.614679,739.133789 344.730402,738.68457 346.107355,738.68457 C346.634698,738.68457 347.142511,738.743164 347.630792,738.860352 L347.630792,738.860352 L347.967706,735.652344 C347.518488,735.554688 346.947198,735.505859 346.253839,735.505859 C345.257745,735.505859 344.32757,735.789062 343.463312,736.355469 C342.599054,736.921875 341.89837,737.688477 341.361261,738.655273 L341.361261,738.655273 L341.18548,738.655273 L340.731378,735.798828 L338.036066,735.798828 L338.036066,752 L341.478448,752 Z M358.288831,752.292969 C359.392347,752.292969 360.373792,752.209961 361.233167,752.043945 C362.092542,751.87793 362.942152,751.594727 363.781995,751.194336 L363.781995,751.194336 L363.781995,748.396484 C362.83473,748.816406 361.948499,749.116699 361.123304,749.297363 C360.298109,749.478027 359.406995,749.568359 358.449964,749.568359 C356.994886,749.568359 355.866956,749.145996 355.066175,748.30127 C354.265394,747.456543 353.840589,746.248047 353.791761,744.675781 L353.791761,744.675781 L364.587659,744.675781 L364.587659,742.81543 C364.587659,740.540039 363.967542,738.75293 362.727308,737.454102 C361.487073,736.155273 359.79762,735.505859 357.658948,735.505859 C355.354261,735.505859 353.542738,736.262695 352.224378,737.776367 C350.906019,739.290039 350.246839,741.370117 350.246839,744.016602 C350.246839,746.594727 350.957288,748.618652 352.378187,750.088379 C353.799085,751.558105 355.7693,752.292969 358.288831,752.292969 Z M361.20387,742.185547 L353.850355,742.185547 C353.977308,740.857422 354.370374,739.84668 355.029554,739.15332 C355.688734,738.459961 356.565198,738.113281 357.658948,738.113281 C358.752698,738.113281 359.612073,738.45752 360.237073,739.145996 C360.862073,739.834473 361.184339,740.847656 361.20387,742.185547 L361.20387,742.185547 Z M381.071323,759.207031 L381.071323,735.798828 L378.214878,735.798828 L377.834019,737.922852 L377.716831,737.922852 C377.082066,737.063477 376.361851,736.445801 375.556187,736.069824 C374.750523,735.693848 373.839878,735.505859 372.824253,735.505859 C370.802769,735.505859 369.215855,736.250488 368.063511,737.739746 C366.911167,739.229004 366.334995,741.291992 366.334995,743.928711 C366.334995,746.56543 366.901402,748.618652 368.034214,750.088379 C369.167027,751.558105 370.734409,752.292969 372.736363,752.292969 C374.953159,752.292969 376.56937,751.487305 377.584995,749.875977 L377.584995,749.875977 L377.775425,749.875977 C377.746128,750.129883 377.711948,750.496094 377.672886,750.974609 C377.633823,751.453125 377.614292,751.907227 377.614292,752.336914 L377.614292,752.336914 L377.614292,759.207031 L381.071323,759.207031 Z M373.717808,749.539062 C371.159214,749.539062 369.879917,747.688477 369.879917,743.987305 C369.879917,742.161133 370.202183,740.759766 370.846714,739.783203 C371.491245,738.806641 372.428745,738.318359 373.659214,738.318359 C375.104527,738.318359 376.15189,738.757812 376.801304,739.636719 C377.450718,740.515625 377.775425,741.956055 377.775425,743.958008 L377.775425,743.958008 L377.775425,744.5 C377.775425,746.189453 377.460484,747.45166 376.830601,748.286621 C376.200718,749.121582 375.16312,749.539062 373.717808,749.539062 Z M389.474441,752.292969 C390.607253,752.292969 391.615554,752.078125 392.499343,751.648438 C393.383132,751.21875 394.064284,750.62793 394.5428,749.875977 L394.5428,749.875977 L394.718581,749.875977 L395.20198,752 L397.911941,752 L397.911941,735.798828 L394.454909,735.798828 L394.454909,743.870117 C394.454909,745.901367 394.115554,747.349121 393.436843,748.213379 C392.758132,749.077637 391.69612,749.509766 390.250808,749.509766 C389.166823,749.509766 388.370925,749.199707 387.863113,748.57959 C387.3553,747.959473 387.101394,747.029297 387.101394,745.789062 L387.101394,745.789062 L387.101394,735.798828 L383.629714,735.798828 L383.629714,746.389648 C383.629714,748.37207 384.113113,749.851562 385.079909,750.828125 C386.046706,751.804688 387.51155,752.292969 389.474441,752.292969 Z M407.677363,752.292969 C408.780878,752.292969 409.762323,752.209961 410.621698,752.043945 C411.481073,751.87793 412.330683,751.594727 413.170527,751.194336 L413.170527,751.194336 L413.170527,748.396484 C412.223261,748.816406 411.337031,749.116699 410.511835,749.297363 C409.68664,749.478027 408.795527,749.568359 407.838495,749.568359 C406.383417,749.568359 405.255488,749.145996 404.454706,748.30127 C403.653925,747.456543 403.22912,746.248047 403.180292,744.675781 L403.180292,744.675781 L413.976191,744.675781 L413.976191,742.81543 C413.976191,740.540039 413.356073,738.75293 412.115839,737.454102 C410.875605,736.155273 409.186152,735.505859 407.04748,735.505859 C404.742792,735.505859 402.931269,736.262695 401.612909,737.776367 C400.29455,739.290039 399.63537,741.370117 399.63537,744.016602 C399.63537,746.594727 400.34582,748.618652 401.766718,750.088379 C403.187616,751.558105 405.157831,752.292969 407.677363,752.292969 Z M410.592402,742.185547 L403.238886,742.185547 C403.365839,740.857422 403.758906,739.84668 404.418085,739.15332 C405.077265,738.459961 405.95373,738.113281 407.04748,738.113281 C408.14123,738.113281 409.000605,738.45752 409.625605,739.145996 C410.250605,739.834473 410.57287,740.847656 410.592402,742.185547 L410.592402,742.185547 Z M420.132706,752 L420.132706,743.928711 C420.132706,741.907227 420.46962,740.466797 421.143448,739.607422 C421.817277,738.748047 422.88173,738.318359 424.336808,738.318359 C425.430558,738.318359 426.228898,738.625977 426.731827,739.241211 C427.234757,739.856445 427.486222,740.789062 427.486222,742.039062 L427.486222,742.039062 L427.486222,752 L430.943253,752 L430.943253,741.438477 C430.943253,737.483398 428.999894,735.505859 425.113175,735.505859 C424.019425,735.505859 423.023331,735.71582 422.124894,736.135742 C421.226456,736.555664 420.533097,737.151367 420.044816,737.922852 L420.044816,737.922852 L419.869034,737.922852 L419.385636,735.798828 L416.690323,735.798828 L416.690323,752 L420.132706,752 Z M440.049495,752.292969 C441.045589,752.292969 441.892757,752.214844 442.590999,752.058594 C443.289241,751.902344 443.94598,751.643555 444.561214,751.282227 L444.561214,751.282227 L444.561214,748.279297 C443.194027,749.041016 441.743831,749.421875 440.210628,749.421875 C438.862972,749.421875 437.840023,748.965332 437.141781,748.052246 C436.443538,747.13916 436.094417,745.774414 436.094417,743.958008 C436.094417,740.237305 437.495784,738.376953 440.298519,738.376953 C441.245784,738.376953 442.446956,738.660156 443.902034,739.226562 L443.902034,739.226562 L444.942073,736.458008 C443.574886,735.823242 442.0368,735.505859 440.327816,735.505859 C437.808284,735.505859 435.882015,736.238281 434.549007,737.703125 C433.215999,739.167969 432.549495,741.262695 432.549495,743.987305 C432.549495,746.663086 433.186702,748.716309 434.461116,750.146973 C435.735531,751.577637 437.598323,752.292969 440.049495,752.292969 Z M447.118316,759.207031 C450.057769,759.207031 452.157378,757.522461 453.417144,754.15332 L453.417144,754.15332 L460.345855,735.798828 L456.625152,735.798828 C454.379058,742.3125 453.138823,745.952637 452.904448,746.719238 C452.670073,747.48584 452.508941,748.137695 452.42105,748.674805 L452.42105,748.674805 L452.303863,748.674805 C452.137847,747.522461 451.805816,746.291992 451.307769,744.983398 L451.307769,744.983398 L448.01187,735.798828 L444.26187,735.798828 L450.765777,752 L450.165191,753.523438 C449.491363,755.447266 448.32437,756.40918 446.664214,756.40918 C446.000152,756.40918 445.409331,756.350586 444.891753,756.233398 L444.891753,756.233398 L444.891753,758.958008 C445.614409,759.124023 446.356597,759.207031 447.118316,759.207031 Z M474.508808,756.746094 C473.170917,754.939453 472.140644,752.917969 471.417988,750.681641 C470.695331,748.445312 470.334003,746.135742 470.334003,743.75293 C470.334003,741.370117 470.695331,739.038574 471.417988,736.758301 C472.140644,734.478027 473.180683,732.419922 474.538105,730.583984 L474.538105,730.583984 L471.535175,730.583984 C470.109394,732.283203 469.018085,734.260742 468.261249,736.516602 C467.504413,738.772461 467.125995,741.194336 467.125995,743.782227 C467.125995,746.331055 467.501972,748.713867 468.253925,750.930664 C469.005878,753.147461 470.099628,755.085938 471.535175,756.746094 L471.535175,756.746094 L474.508808,756.746094 Z M479.418683,752 L479.418683,746.448242 L481.308331,744.895508 L486.508527,752 L490.551495,752 L483.622784,742.756836 L490.141339,735.798828 L486.171613,735.798828 L481.279034,741.013672 L479.330792,743.445312 L479.242902,743.445312 L479.418683,740.325195 L479.418683,729.207031 L476.005597,729.207031 L476.005597,752 L479.418683,752 Z M496.519105,752 L496.519105,742.34668 L506.392152,742.34668 L506.392152,752 L509.907777,752 L509.907777,730.583984 L506.392152,730.583984 L506.392152,739.34375 L496.519105,739.34375 L496.519105,730.583984 L493.018128,730.583984 L493.018128,752 L496.519105,752 Z M523.969409,752 L523.969409,749.363281 L515.722339,749.363281 L523.735034,738.201172 L523.735034,735.798828 L512.177417,735.798828 L512.177417,738.435547 L519.867847,738.435547 L511.67937,749.875977 L511.67937,752 L523.969409,752 Z M529.043581,756.746094 C530.469363,755.105469 531.560671,753.176758 532.317507,750.959961 C533.074343,748.743164 533.452761,746.350586 533.452761,743.782227 C533.452761,741.213867 533.076784,738.799316 532.324831,736.538574 C531.572878,734.277832 530.479128,732.292969 529.043581,730.583984 L529.043581,730.583984 L526.040652,730.583984 C527.398073,732.429688 528.438113,734.487793 529.160769,736.758301 C529.883425,739.028809 530.244753,741.360352 530.244753,743.75293 C530.244753,746.135742 529.885866,748.44043 529.168093,750.666992 C528.45032,752.893555 527.417605,754.919922 526.069948,756.746094 L526.069948,756.746094 L529.043581,756.746094 Z" id="Frequency(kHz)" fill="#000000" fill-rule="nonzero"></path>
    </g>
</svg>