<?xml version="1.0" encoding="UTF-8"?>
<svg viewBox="0 0 840 840" version="1.1" xmlns="http://www.w3.org/2000/svg" xmlns:xlink="http://www.w3.org/1999/xlink">
    <title>tuning_6</title>
    <g id="tuning_6" stroke="none" stroke-width="1" fill="none" fill-rule="evenodd">
        <rect fill="#FFFFFF" x="0" y="0" width="840" height="840"></rect>
        <rect id="Rectangle" fill="#ECF3F9" x="-0.371698113" y="541.549057" width="840.732075" height="105.59434"></rect>
        <rect id="Rectangle-Copy" fill="#ECF3F9" x="-0.371698113" y="331.366038" width="840.732075" height="105.59434"></rect>
        <rect id="Rectangle-Copy-2" fill="#ECF3F9" x="-0.371698113" y="121.183019" width="840.732075" height="105.59434"></rect>
        <rect id="Rectangle-Copy-3" fill="#ECF3F9" x="-0.371698113" y="-0.405660377" width="840.732075" height="17"></rect>
        <line x1="-0.371698113" y1="649.657547" x2="840.360377" y2="649.657547" id="Stroke-9" stroke="#868686" stroke-linejoin="round"></line>
        <line x1="180.5" y1="0.5" x2="180.49717" y2="647.623273" id="pink" stroke="#F54CE3" stroke-linejoin="round"></line>
        <path d="M0,556.54571 C242.099396,574.914734 242.099396,594.346226 457.131132,609.448804 C547.177048,615.773105 667.686326,609.448804 840,614" id="Stroke-13" stroke="#165BD3" stroke-width="2" stroke-linecap="round" stroke-linejoin="round"></path>
        <path d="M771.285567,538.492453 L771.285567,523.501242 L769.275801,523.501242 L764.866622,526.967062 L766.076583,528.494894 C767.382247,527.435324 768.149581,526.806418 768.378585,526.608175 C768.607588,526.409933 768.800704,526.228781 768.95793,526.064718 C768.903243,526.741476 768.875899,527.657492 768.875899,528.812765 L768.875899,528.812765 L768.875899,538.492453 L771.285567,538.492453 Z M781.247918,538.697531 C782.970574,538.697531 784.250603,538.065207 785.088006,536.800558 C785.925408,535.53591 786.344109,533.60134 786.344109,530.996847 C786.344109,528.46755 785.913445,526.546652 785.052117,525.234152 C784.190789,523.921652 782.922722,523.265402 781.247918,523.265402 C779.532097,523.265402 778.255486,523.892599 777.418084,525.146994 C776.580681,526.401388 776.16198,528.35134 776.16198,530.996847 C776.16198,533.519308 776.592644,535.433371 777.453972,536.739035 C778.315301,538.044699 779.579949,538.697531 781.247918,538.697531 Z M781.247918,536.687765 C780.325066,536.687765 779.653435,536.250265 779.233025,535.375265 C778.812615,534.500265 778.60241,533.040793 778.60241,530.996847 C778.60241,528.952902 778.812615,527.490011 779.233025,526.608175 C779.653435,525.72634 780.325066,525.285422 781.247918,525.285422 C782.170769,525.285422 782.845818,525.734884 783.273064,526.63381 C783.70031,527.532736 783.913933,528.987082 783.913933,530.996847 C783.913933,533.013449 783.70031,534.466086 783.273064,535.354758 C782.845818,536.243429 782.170769,536.687765 781.247918,536.687765 Z M793.220034,538.697531 C794.94269,538.697531 796.22272,538.065207 797.060122,536.800558 C797.897524,535.53591 798.316226,533.60134 798.316226,530.996847 C798.316226,528.46755 797.885562,526.546652 797.024233,525.234152 C796.162905,523.921652 794.894839,523.265402 793.220034,523.265402 C791.504214,523.265402 790.227603,523.892599 789.3902,525.146994 C788.552798,526.401388 788.134097,528.35134 788.134097,530.996847 C788.134097,533.519308 788.564761,535.433371 789.426089,536.739035 C790.287417,538.044699 791.552065,538.697531 793.220034,538.697531 Z M793.220034,536.687765 C792.297183,536.687765 791.625552,536.250265 791.205142,535.375265 C790.784731,534.500265 790.574526,533.040793 790.574526,530.996847 C790.574526,528.952902 790.784731,527.490011 791.205142,526.608175 C791.625552,525.72634 792.297183,525.285422 793.220034,525.285422 C794.142886,525.285422 794.817935,525.734884 795.245181,526.63381 C795.672427,527.532736 795.88605,528.987082 795.88605,530.996847 C795.88605,533.013449 795.672427,534.466086 795.245181,535.354758 C794.817935,536.243429 794.142886,536.687765 793.220034,536.687765 Z M803.336194,538.492453 L803.336194,532.84255 C803.336194,531.434347 803.553235,530.427756 803.987317,529.822775 C804.421399,529.217795 805.103283,528.915304 806.032971,528.915304 C806.730237,528.915304 807.242932,529.128927 807.571057,529.556174 C807.899182,529.98342 808.063244,530.631125 808.063244,531.499289 L808.063244,531.499289 L808.063244,538.492453 L810.483166,538.492453 L810.483166,532.483664 C810.483166,531.273703 810.700207,530.376486 811.134289,529.792013 C811.568371,529.207541 812.253674,528.915304 813.190197,528.915304 C813.887463,528.915304 814.401867,529.128927 814.73341,529.556174 C815.064953,529.98342 815.230725,530.631125 815.230725,531.499289 L815.230725,531.499289 L815.230725,538.492453 L817.640393,538.492453 L817.640393,531.099386 C817.640393,529.698019 817.331067,528.655539 816.712414,527.971945 C816.093762,527.288351 815.107678,526.946554 813.754162,526.946554 C812.968029,526.946554 812.270764,527.103781 811.662365,527.418234 C811.053967,527.732687 810.582287,528.170187 810.247326,528.730734 L810.247326,528.730734 L810.083264,528.730734 C809.515881,527.541281 808.360608,526.946554 806.617444,526.946554 C805.89967,526.946554 805.241711,527.093527 804.643567,527.387472 C804.045422,527.681418 803.589123,528.09841 803.27467,528.638449 L803.27467,528.638449 L803.151623,528.638449 L802.813244,527.151633 L800.926526,527.151633 L800.926526,538.492453 L803.336194,538.492453 Z M827.079794,538.492453 L832.329794,523.501242 L829.786826,523.501242 L826.659384,532.781027 C826.543173,533.109152 826.392783,533.615011 826.208212,534.298605 C826.023642,534.982199 825.886923,535.583761 825.798056,536.103293 C825.743369,535.761496 825.62374,535.240256 825.439169,534.539572 C825.254599,533.838888 825.080283,533.266379 824.91622,532.822043 L824.91622,532.822043 L821.788779,523.501242 L819.266318,523.501242 L824.49581,538.492453 L827.079794,538.492453 Z" id="100mV" fill="#000000" fill-rule="nonzero"></path>
        <path d="M774.371993,433.400943 L774.371993,431.278385 L767.255782,431.278385 L767.255782,431.175846 L769.860274,428.653385 C771.029219,427.552799 771.864913,426.679508 772.367354,426.033512 C772.869796,425.387516 773.242354,424.760318 773.48503,424.15192 C773.727706,423.543522 773.849044,422.900943 773.849044,422.224186 C773.849044,420.993717 773.428633,420.014469 772.587813,419.286441 C771.746993,418.558414 770.629317,418.1944 769.234786,418.1944 C768.346114,418.1944 767.508712,418.341373 766.722579,418.635318 C765.936446,418.929264 765.126387,419.428287 764.292403,420.132389 L764.292403,420.132389 L765.594649,421.721744 C766.298751,421.168033 766.919112,420.785221 767.455733,420.573307 C767.992354,420.361393 768.547774,420.255436 769.121993,420.255436 C769.839766,420.255436 770.402022,420.45026 770.80876,420.839908 C771.215499,421.229557 771.418868,421.76276 771.418868,422.439518 C771.418868,422.931705 771.333419,423.393131 771.16252,423.823795 C770.991622,424.254459 770.719893,424.714176 770.347335,425.202945 C769.974776,425.691715 769.217696,426.520572 768.076094,427.689518 L768.076094,427.689518 L764.210372,431.575748 L764.210372,433.400943 L774.371993,433.400943 Z M781.247918,433.606022 C782.970574,433.606022 784.250603,432.973697 785.088006,431.709049 C785.925408,430.4444 786.344109,428.50983 786.344109,425.905338 C786.344109,423.376041 785.913445,421.455143 785.052117,420.142643 C784.190789,418.830143 782.922722,418.173893 781.247918,418.173893 C779.532097,418.173893 778.255486,418.80109 777.418084,420.055484 C776.580681,421.309879 776.16198,423.25983 776.16198,425.905338 C776.16198,428.427799 776.592644,430.341861 777.453972,431.647525 C778.315301,432.953189 779.579949,433.606022 781.247918,433.606022 Z M781.247918,431.596256 C780.325066,431.596256 779.653435,431.158756 779.233025,430.283756 C778.812615,429.408756 778.60241,427.949283 778.60241,425.905338 C778.60241,423.861393 778.812615,422.398502 779.233025,421.516666 C779.653435,420.63483 780.325066,420.193912 781.247918,420.193912 C782.170769,420.193912 782.845818,420.643375 783.273064,421.542301 C783.70031,422.441227 783.913933,423.895572 783.913933,425.905338 C783.913933,427.921939 783.70031,429.374576 783.273064,430.263248 C782.845818,431.15192 782.170769,431.596256 781.247918,431.596256 Z M793.220034,433.606022 C794.94269,433.606022 796.22272,432.973697 797.060122,431.709049 C797.897524,430.4444 798.316226,428.50983 798.316226,425.905338 C798.316226,423.376041 797.885562,421.455143 797.024233,420.142643 C796.162905,418.830143 794.894839,418.173893 793.220034,418.173893 C791.504214,418.173893 790.227603,418.80109 789.3902,420.055484 C788.552798,421.309879 788.134097,423.25983 788.134097,425.905338 C788.134097,428.427799 788.564761,430.341861 789.426089,431.647525 C790.287417,432.953189 791.552065,433.606022 793.220034,433.606022 Z M793.220034,431.596256 C792.297183,431.596256 791.625552,431.158756 791.205142,430.283756 C790.784731,429.408756 790.574526,427.949283 790.574526,425.905338 C790.574526,423.861393 790.784731,422.398502 791.205142,421.516666 C791.625552,420.63483 792.297183,420.193912 793.220034,420.193912 C794.142886,420.193912 794.817935,420.643375 795.245181,421.542301 C795.672427,422.441227 795.88605,423.895572 795.88605,425.905338 C795.88605,427.921939 795.672427,429.374576 795.245181,430.263248 C794.817935,431.15192 794.142886,431.596256 793.220034,431.596256 Z M803.336194,433.400943 L803.336194,427.751041 C803.336194,426.342838 803.553235,425.336246 803.987317,424.731266 C804.421399,424.126285 805.103283,423.823795 806.032971,423.823795 C806.730237,423.823795 807.242932,424.037418 807.571057,424.464664 C807.899182,424.89191 808.063244,425.539615 808.063244,426.407779 L808.063244,426.407779 L808.063244,433.400943 L810.483166,433.400943 L810.483166,427.392154 C810.483166,426.182193 810.700207,425.284977 811.134289,424.700504 C811.568371,424.116031 812.253674,423.823795 813.190197,423.823795 C813.887463,423.823795 814.401867,424.037418 814.73341,424.464664 C815.064953,424.89191 815.230725,425.539615 815.230725,426.407779 L815.230725,426.407779 L815.230725,433.400943 L817.640393,433.400943 L817.640393,426.007877 C817.640393,424.60651 817.331067,423.564029 816.712414,422.880436 C816.093762,422.196842 815.107678,421.855045 813.754162,421.855045 C812.968029,421.855045 812.270764,422.012272 811.662365,422.326725 C811.053967,422.641178 810.582287,423.078678 810.247326,423.639225 L810.247326,423.639225 L810.083264,423.639225 C809.515881,422.449772 808.360608,421.855045 806.617444,421.855045 C805.89967,421.855045 805.241711,422.002018 804.643567,422.295963 C804.045422,422.589908 803.589123,423.0069 803.27467,423.546939 L803.27467,423.546939 L803.151623,423.546939 L802.813244,422.060123 L800.926526,422.060123 L800.926526,433.400943 L803.336194,433.400943 Z M827.079794,433.400943 L832.329794,418.409732 L829.786826,418.409732 L826.659384,427.689518 C826.543173,428.017643 826.392783,428.523502 826.208212,429.207096 C826.023642,429.890689 825.886923,430.492252 825.798056,431.011783 C825.743369,430.669986 825.62374,430.148746 825.439169,429.448063 C825.254599,428.747379 825.080283,428.174869 824.91622,427.730533 L824.91622,427.730533 L821.788779,418.409732 L819.266318,418.409732 L824.49581,433.400943 L827.079794,433.400943 Z" id="200mV" fill="#000000" fill-rule="nonzero"></path>
        <path d="M768.373458,328.514512 C770.25334,328.514512 771.702559,328.123155 772.721114,327.34044 C773.739669,326.557725 774.248946,325.445176 774.248946,324.002793 C774.248946,323.011582 773.948165,322.216905 773.346602,321.61876 C772.74504,321.020616 771.842696,320.646348 770.639571,320.495957 L770.639571,320.495957 L770.639571,320.413926 C771.644454,320.195176 772.423751,319.769639 772.977462,319.137315 C773.531172,318.504991 773.808028,317.713731 773.808028,316.763536 C773.808028,315.621934 773.3842,314.726426 772.536544,314.077012 C771.688887,313.427598 770.509688,313.102891 768.998946,313.102891 C767.180587,313.102891 765.584395,313.60875 764.210372,314.620469 L764.210372,314.620469 L765.389571,316.30211 C766.107344,315.837266 766.729415,315.524522 767.255782,315.363877 C767.782149,315.203233 768.329024,315.122911 768.896407,315.122911 C769.709883,315.122911 770.325118,315.297227 770.74211,315.64586 C771.159102,315.994493 771.367598,316.490098 771.367598,317.132676 C771.367598,318.786973 770.171309,319.614121 767.778731,319.614121 L767.778731,319.614121 L766.455977,319.614121 L766.455977,321.572618 L767.758223,321.572618 C769.118575,321.572618 770.116622,321.760606 770.752364,322.136582 C771.388106,322.512559 771.705977,323.10045 771.705977,323.900254 C771.705977,324.802598 771.418868,325.469102 770.844649,325.899766 C770.27043,326.33043 769.402266,326.545762 768.240157,326.545762 C767.583907,326.545762 766.900313,326.460313 766.189376,326.289414 C765.478438,326.118516 764.805098,325.87584 764.169356,325.561387 L764.169356,325.561387 L764.169356,327.704453 C765.310958,328.244493 766.712325,328.514512 768.373458,328.514512 Z M781.247918,328.514512 C782.970574,328.514512 784.250603,327.882188 785.088006,326.617539 C785.925408,325.352891 786.344109,323.418321 786.344109,320.813828 C786.344109,318.284532 785.913445,316.363633 785.052117,315.051133 C784.190789,313.738633 782.922722,313.082383 781.247918,313.082383 C779.532097,313.082383 778.255486,313.70958 777.418084,314.963975 C776.580681,316.21837 776.16198,318.168321 776.16198,320.813828 C776.16198,323.336289 776.592644,325.250352 777.453972,326.556016 C778.315301,327.86168 779.579949,328.514512 781.247918,328.514512 Z M781.247918,326.504746 C780.325066,326.504746 779.653435,326.067246 779.233025,325.192246 C778.812615,324.317246 778.60241,322.857774 778.60241,320.813828 C778.60241,318.769883 778.812615,317.306993 779.233025,316.425157 C779.653435,315.543321 780.325066,315.102403 781.247918,315.102403 C782.170769,315.102403 782.845818,315.551866 783.273064,316.450791 C783.70031,317.349717 783.913933,318.804063 783.913933,320.813828 C783.913933,322.83043 783.70031,324.283067 783.273064,325.171739 C782.845818,326.060411 782.170769,326.504746 781.247918,326.504746 Z M793.220034,328.514512 C794.94269,328.514512 796.22272,327.882188 797.060122,326.617539 C797.897524,325.352891 798.316226,323.418321 798.316226,320.813828 C798.316226,318.284532 797.885562,316.363633 797.024233,315.051133 C796.162905,313.738633 794.894839,313.082383 793.220034,313.082383 C791.504214,313.082383 790.227603,313.70958 789.3902,314.963975 C788.552798,316.21837 788.134097,318.168321 788.134097,320.813828 C788.134097,323.336289 788.564761,325.250352 789.426089,326.556016 C790.287417,327.86168 791.552065,328.514512 793.220034,328.514512 Z M793.220034,326.504746 C792.297183,326.504746 791.625552,326.067246 791.205142,325.192246 C790.784731,324.317246 790.574526,322.857774 790.574526,320.813828 C790.574526,318.769883 790.784731,317.306993 791.205142,316.425157 C791.625552,315.543321 792.297183,315.102403 793.220034,315.102403 C794.142886,315.102403 794.817935,315.551866 795.245181,316.450791 C795.672427,317.349717 795.88605,318.804063 795.88605,320.813828 C795.88605,322.83043 795.672427,324.283067 795.245181,325.171739 C794.817935,326.060411 794.142886,326.504746 793.220034,326.504746 Z M803.336194,328.309434 L803.336194,322.659532 C803.336194,321.251328 803.553235,320.244737 803.987317,319.639756 C804.421399,319.034776 805.103283,318.732286 806.032971,318.732286 C806.730237,318.732286 807.242932,318.945909 807.571057,319.373155 C807.899182,319.800401 808.063244,320.448106 808.063244,321.31627 L808.063244,321.31627 L808.063244,328.309434 L810.483166,328.309434 L810.483166,322.300645 C810.483166,321.090684 810.700207,320.193467 811.134289,319.608995 C811.568371,319.024522 812.253674,318.732286 813.190197,318.732286 C813.887463,318.732286 814.401867,318.945909 814.73341,319.373155 C815.064953,319.800401 815.230725,320.448106 815.230725,321.31627 L815.230725,321.31627 L815.230725,328.309434 L817.640393,328.309434 L817.640393,320.916368 C817.640393,319.515 817.331067,318.47252 816.712414,317.788926 C816.093762,317.105332 815.107678,316.763536 813.754162,316.763536 C812.968029,316.763536 812.270764,316.920762 811.662365,317.235215 C811.053967,317.549668 810.582287,317.987168 810.247326,318.547715 L810.247326,318.547715 L810.083264,318.547715 C809.515881,317.358262 808.360608,316.763536 806.617444,316.763536 C805.89967,316.763536 805.241711,316.910508 804.643567,317.204453 C804.045422,317.498399 803.589123,317.915391 803.27467,318.45543 L803.27467,318.45543 L803.151623,318.45543 L802.813244,316.968614 L800.926526,316.968614 L800.926526,328.309434 L803.336194,328.309434 Z M827.079794,328.309434 L832.329794,313.318223 L829.786826,313.318223 L826.659384,322.598008 C826.543173,322.926133 826.392783,323.431993 826.208212,324.115586 C826.023642,324.79918 825.886923,325.400743 825.798056,325.920274 C825.743369,325.578477 825.62374,325.057237 825.439169,324.356553 C825.254599,323.65587 825.080283,323.08336 824.91622,322.639024 L824.91622,322.639024 L821.788779,313.318223 L819.266318,313.318223 L824.49581,328.309434 L827.079794,328.309434 Z" id="300mV" fill="#000000" fill-rule="nonzero"></path>
        <path d="M772.885176,223.217925 L772.885176,219.946928 L774.905196,219.946928 L774.905196,217.947417 L772.885176,217.947417 L772.885176,208.185698 L770.537032,208.185698 L763.687422,218.090971 L763.687422,219.946928 L770.537032,219.946928 L770.537032,223.217925 L772.885176,223.217925 Z M770.537032,217.947417 L765.933028,217.947417 L769.655196,212.533354 C770.065352,211.890776 770.366133,211.343901 770.55754,210.892729 L770.55754,210.892729 L770.639571,210.892729 C770.571212,211.747221 770.537032,212.844389 770.537032,214.184233 L770.537032,214.184233 L770.537032,217.947417 Z M781.247918,223.423003 C782.970574,223.423003 784.250603,222.790678 785.088006,221.52603 C785.925408,220.261382 786.344109,218.326811 786.344109,215.722319 C786.344109,213.193022 785.913445,211.272124 785.052117,209.959624 C784.190789,208.647124 782.922722,207.990874 781.247918,207.990874 C779.532097,207.990874 778.255486,208.618071 777.418084,209.872466 C776.580681,211.12686 776.16198,213.076811 776.16198,215.722319 C776.16198,218.24478 776.592644,220.158842 777.453972,221.464507 C778.315301,222.770171 779.579949,223.423003 781.247918,223.423003 Z M781.247918,221.413237 C780.325066,221.413237 779.653435,220.975737 779.233025,220.100737 C778.812615,219.225737 778.60241,217.766264 778.60241,215.722319 C778.60241,213.678374 778.812615,212.215483 779.233025,211.333647 C779.653435,210.451811 780.325066,210.010893 781.247918,210.010893 C782.170769,210.010893 782.845818,210.460356 783.273064,211.359282 C783.70031,212.258208 783.913933,213.712553 783.913933,215.722319 C783.913933,217.738921 783.70031,219.191557 783.273064,220.080229 C782.845818,220.968901 782.170769,221.413237 781.247918,221.413237 Z M793.220034,223.423003 C794.94269,223.423003 796.22272,222.790678 797.060122,221.52603 C797.897524,220.261382 798.316226,218.326811 798.316226,215.722319 C798.316226,213.193022 797.885562,211.272124 797.024233,209.959624 C796.162905,208.647124 794.894839,207.990874 793.220034,207.990874 C791.504214,207.990874 790.227603,208.618071 789.3902,209.872466 C788.552798,211.12686 788.134097,213.076811 788.134097,215.722319 C788.134097,218.24478 788.564761,220.158842 789.426089,221.464507 C790.287417,222.770171 791.552065,223.423003 793.220034,223.423003 Z M793.220034,221.413237 C792.297183,221.413237 791.625552,220.975737 791.205142,220.100737 C790.784731,219.225737 790.574526,217.766264 790.574526,215.722319 C790.574526,213.678374 790.784731,212.215483 791.205142,211.333647 C791.625552,210.451811 792.297183,210.010893 793.220034,210.010893 C794.142886,210.010893 794.817935,210.460356 795.245181,211.359282 C795.672427,212.258208 795.88605,213.712553 795.88605,215.722319 C795.88605,217.738921 795.672427,219.191557 795.245181,220.080229 C794.817935,220.968901 794.142886,221.413237 793.220034,221.413237 Z M803.336194,223.217925 L803.336194,217.568022 C803.336194,216.159819 803.553235,215.153227 803.987317,214.548247 C804.421399,213.943266 805.103283,213.640776 806.032971,213.640776 C806.730237,213.640776 807.242932,213.854399 807.571057,214.281645 C807.899182,214.708891 808.063244,215.356596 808.063244,216.22476 L808.063244,216.22476 L808.063244,223.217925 L810.483166,223.217925 L810.483166,217.209135 C810.483166,215.999175 810.700207,215.101958 811.134289,214.517485 C811.568371,213.933012 812.253674,213.640776 813.190197,213.640776 C813.887463,213.640776 814.401867,213.854399 814.73341,214.281645 C815.064953,214.708891 815.230725,215.356596 815.230725,216.22476 L815.230725,216.22476 L815.230725,223.217925 L817.640393,223.217925 L817.640393,215.824858 C817.640393,214.423491 817.331067,213.38101 816.712414,212.697417 C816.093762,212.013823 815.107678,211.672026 813.754162,211.672026 C812.968029,211.672026 812.270764,211.829253 811.662365,212.143706 C811.053967,212.458159 810.582287,212.895659 810.247326,213.456206 L810.247326,213.456206 L810.083264,213.456206 C809.515881,212.266753 808.360608,211.672026 806.617444,211.672026 C805.89967,211.672026 805.241711,211.818999 804.643567,212.112944 C804.045422,212.406889 803.589123,212.823882 803.27467,213.363921 L803.27467,213.363921 L803.151623,213.363921 L802.813244,211.877104 L800.926526,211.877104 L800.926526,223.217925 L803.336194,223.217925 Z M827.079794,223.217925 L832.329794,208.226714 L829.786826,208.226714 L826.659384,217.506499 C826.543173,217.834624 826.392783,218.340483 826.208212,219.024077 C826.023642,219.707671 825.886923,220.309233 825.798056,220.828764 C825.743369,220.486967 825.62374,219.965727 825.439169,219.265044 C825.254599,218.56436 825.080283,217.99185 824.91622,217.547514 L824.91622,217.547514 L821.788779,208.226714 L819.266318,208.226714 L824.49581,223.217925 L827.079794,223.217925 Z" id="400mV" fill="#000000" fill-rule="nonzero"></path>
        <path d="M768.434981,118.331493 C770.280684,118.331493 771.704268,117.88203 772.705733,116.983105 C773.707198,116.084179 774.20793,114.834911 774.20793,113.235302 C774.20793,111.854442 773.767012,110.76411 772.885176,109.964306 C772.00334,109.164501 770.807051,108.764599 769.296309,108.764599 C768.797286,108.764599 768.375167,108.791942 768.029952,108.84663 C767.822823,108.879442 767.634766,108.909794 767.465782,108.937685 L767.153243,108.990185 L767.491622,105.278271 L773.162032,105.278271 L773.162032,103.135204 L765.369063,103.135204 L764.794844,110.456493 L765.871504,111.092235 C766.226973,111.010204 766.640547,110.936718 767.112227,110.871776 C767.583907,110.806835 767.980391,110.774364 768.30168,110.774364 C770.584883,110.774364 771.726485,111.669872 771.726485,113.460888 C771.726485,114.397411 771.442794,115.108349 770.875411,115.5937 C770.308028,116.079052 769.480879,116.321728 768.393965,116.321728 C767.778731,116.321728 767.112227,116.236278 766.394454,116.06538 C765.67668,115.894482 765.040938,115.651806 764.487227,115.337353 L764.487227,115.337353 L764.487227,117.521435 C765.444258,118.061474 766.760176,118.331493 768.434981,118.331493 Z M781.247918,118.331493 C782.970574,118.331493 784.250603,117.699169 785.088006,116.434521 C785.925408,115.169872 786.344109,113.235302 786.344109,110.63081 C786.344109,108.101513 785.913445,106.180614 785.052117,104.868114 C784.190789,103.555614 782.922722,102.899364 781.247918,102.899364 C779.532097,102.899364 778.255486,103.526562 777.418084,104.780956 C776.580681,106.035351 776.16198,107.985302 776.16198,110.63081 C776.16198,113.153271 776.592644,115.067333 777.453972,116.372997 C778.315301,117.678661 779.579949,118.331493 781.247918,118.331493 Z M781.247918,116.321728 C780.325066,116.321728 779.653435,115.884228 779.233025,115.009228 C778.812615,114.134228 778.60241,112.674755 778.60241,110.63081 C778.60241,108.586864 778.812615,107.123974 779.233025,106.242138 C779.653435,105.360302 780.325066,104.919384 781.247918,104.919384 C782.170769,104.919384 782.845818,105.368847 783.273064,106.267773 C783.70031,107.166698 783.913933,108.621044 783.913933,110.63081 C783.913933,112.647411 783.70031,114.100048 783.273064,114.98872 C782.845818,115.877392 782.170769,116.321728 781.247918,116.321728 Z M793.220034,118.331493 C794.94269,118.331493 796.22272,117.699169 797.060122,116.434521 C797.897524,115.169872 798.316226,113.235302 798.316226,110.63081 C798.316226,108.101513 797.885562,106.180614 797.024233,104.868114 C796.162905,103.555614 794.894839,102.899364 793.220034,102.899364 C791.504214,102.899364 790.227603,103.526562 789.3902,104.780956 C788.552798,106.035351 788.134097,107.985302 788.134097,110.63081 C788.134097,113.153271 788.564761,115.067333 789.426089,116.372997 C790.287417,117.678661 791.552065,118.331493 793.220034,118.331493 Z M793.220034,116.321728 C792.297183,116.321728 791.625552,115.884228 791.205142,115.009228 C790.784731,114.134228 790.574526,112.674755 790.574526,110.63081 C790.574526,108.586864 790.784731,107.123974 791.205142,106.242138 C791.625552,105.360302 792.297183,104.919384 793.220034,104.919384 C794.142886,104.919384 794.817935,105.368847 795.245181,106.267773 C795.672427,107.166698 795.88605,108.621044 795.88605,110.63081 C795.88605,112.647411 795.672427,114.100048 795.245181,114.98872 C794.817935,115.877392 794.142886,116.321728 793.220034,116.321728 Z M803.336194,118.126415 L803.336194,112.476513 C803.336194,111.06831 803.553235,110.061718 803.987317,109.456737 C804.421399,108.851757 805.103283,108.549267 806.032971,108.549267 C806.730237,108.549267 807.242932,108.76289 807.571057,109.190136 C807.899182,109.617382 808.063244,110.265087 808.063244,111.133251 L808.063244,111.133251 L808.063244,118.126415 L810.483166,118.126415 L810.483166,112.117626 C810.483166,110.907665 810.700207,110.010448 811.134289,109.425976 C811.568371,108.841503 812.253674,108.549267 813.190197,108.549267 C813.887463,108.549267 814.401867,108.76289 814.73341,109.190136 C815.064953,109.617382 815.230725,110.265087 815.230725,111.133251 L815.230725,111.133251 L815.230725,118.126415 L817.640393,118.126415 L817.640393,110.733349 C817.640393,109.331982 817.331067,108.289501 816.712414,107.605907 C816.093762,106.922314 815.107678,106.580517 813.754162,106.580517 C812.968029,106.580517 812.270764,106.737743 811.662365,107.052196 C811.053967,107.366649 810.582287,107.804149 810.247326,108.364696 L810.247326,108.364696 L810.083264,108.364696 C809.515881,107.175243 808.360608,106.580517 806.617444,106.580517 C805.89967,106.580517 805.241711,106.727489 804.643567,107.021435 C804.045422,107.31538 803.589123,107.732372 803.27467,108.272411 L803.27467,108.272411 L803.151623,108.272411 L802.813244,106.785595 L800.926526,106.785595 L800.926526,118.126415 L803.336194,118.126415 Z M827.079794,118.126415 L832.329794,103.135204 L829.786826,103.135204 L826.659384,112.414989 C826.543173,112.743114 826.392783,113.248974 826.208212,113.932567 C826.023642,114.616161 825.886923,115.217724 825.798056,115.737255 C825.743369,115.395458 825.62374,114.874218 825.439169,114.173534 C825.254599,113.472851 825.080283,112.900341 824.91622,112.456005 L824.91622,112.456005 L821.788779,103.135204 L819.266318,103.135204 L824.49581,118.126415 L827.079794,118.126415 Z" id="500mV" fill="#000000" fill-rule="nonzero"></path>
        <path d="M325.784159,752 L325.784159,743.210938 L333.855448,743.210938 L333.855448,740.237305 L325.784159,740.237305 L325.784159,733.542969 L334.397441,733.542969 L334.397441,730.583984 L322.31248,730.583984 L322.31248,752 L325.784159,752 Z M341.478448,752 L341.478448,743.533203 C341.478448,742.097656 341.905695,740.930664 342.760187,740.032227 C343.614679,739.133789 344.730402,738.68457 346.107355,738.68457 C346.634698,738.68457 347.142511,738.743164 347.630792,738.860352 L347.630792,738.860352 L347.967706,735.652344 C347.518488,735.554688 346.947198,735.505859 346.253839,735.505859 C345.257745,735.505859 344.32757,735.789062 343.463312,736.355469 C342.599054,736.921875 341.89837,737.688477 341.361261,738.655273 L341.361261,738.655273 L341.18548,738.655273 L340.731378,735.798828 L338.036066,735.798828 L338.036066,752 L341.478448,752 Z M358.288831,752.292969 C359.392347,752.292969 360.373792,752.209961 361.233167,752.043945 C362.092542,751.87793 362.942152,751.594727 363.781995,751.194336 L363.781995,751.194336 L363.781995,748.396484 C362.83473,748.816406 361.948499,749.116699 361.123304,749.297363 C360.298109,749.478027 359.406995,749.568359 358.449964,749.568359 C356.994886,749.568359 355.866956,749.145996 355.066175,748.30127 C354.265394,747.456543 353.840589,746.248047 353.791761,744.675781 L353.791761,744.675781 L364.587659,744.675781 L364.587659,742.81543 C364.587659,740.540039 363.967542,738.75293 362.727308,737.454102 C361.487073,736.155273 359.79762,735.505859 357.658948,735.505859 C355.354261,735.505859 353.542738,736.262695 352.224378,737.776367 C350.906019,739.290039 350.246839,741.370117 350.246839,744.016602 C350.246839,746.594727 350.957288,748.618652 352.378187,750.088379 C353.799085,751.558105 355.7693,752.292969 358.288831,752.292969 Z M361.20387,742.185547 L353.850355,742.185547 C353.977308,740.857422 354.370374,739.84668 355.029554,739.15332 C355.688734,738.459961 356.565198,738.113281 357.658948,738.113281 C358.752698,738.113281 359.612073,738.45752 360.237073,739.145996 C360.862073,739.834473 361.184339,740.847656 361.20387,742.185547 L361.20387,742.185547 Z M381.071323,759.207031 L381.071323,735.798828 L378.214878,735.798828 L377.834019,737.922852 L377.716831,737.922852 C377.082066,737.063477 376.361851,736.445801 375.556187,736.069824 C374.750523,735.693848 373.839878,735.505859 372.824253,735.505859 C370.802769,735.505859 369.215855,736.250488 368.063511,737.739746 C366.911167,739.229004 366.334995,741.291992 366.334995,743.928711 C366.334995,746.56543 366.901402,748.618652 368.034214,750.088379 C369.167027,751.558105 370.734409,752.292969 372.736363,752.292969 C374.953159,752.292969 376.56937,751.487305 377.584995,749.875977 L377.584995,749.875977 L377.775425,749.875977 C377.746128,750.129883 377.711948,750.496094 377.672886,750.974609 C377.633823,751.453125 377.614292,751.907227 377.614292,752.336914 L377.614292,752.336914 L377.614292,759.207031 L381.071323,759.207031 Z M373.717808,749.539062 C371.159214,749.539062 369.879917,747.688477 369.879917,743.987305 C369.879917,742.161133 370.202183,740.759766 370.846714,739.783203 C371.491245,738.806641 372.428745,738.318359 373.659214,738.318359 C375.104527,738.318359 376.15189,738.757812 376.801304,739.636719 C377.450718,740.515625 377.775425,741.956055 377.775425,743.958008 L377.775425,743.958008 L377.775425,744.5 C377.775425,746.189453 377.460484,747.45166 376.830601,748.286621 C376.200718,749.121582 375.16312,749.539062 373.717808,749.539062 Z M389.474441,752.292969 C390.607253,752.292969 391.615554,752.078125 392.499343,751.648438 C393.383132,751.21875 394.064284,750.62793 394.5428,749.875977 L394.5428,749.875977 L394.718581,749.875977 L395.20198,752 L397.911941,752 L397.911941,735.798828 L394.454909,735.798828 L394.454909,743.870117 C394.454909,745.901367 394.115554,747.349121 393.436843,748.213379 C392.758132,749.077637 391.69612,749.509766 390.250808,749.509766 C389.166823,749.509766 388.370925,749.199707 387.863113,748.57959 C387.3553,747.959473 387.101394,747.029297 387.101394,745.789062 L387.101394,745.789062 L387.101394,735.798828 L383.629714,735.798828 L383.629714,746.389648 C383.629714,748.37207 384.113113,749.851562 385.079909,750.828125 C386.046706,751.804688 387.51155,752.292969 389.474441,752.292969 Z M407.677363,752.292969 C408.780878,752.292969 409.762323,752.209961 410.621698,752.043945 C411.481073,751.87793 412.330683,751.594727 413.170527,751.194336 L413.170527,751.194336 L413.170527,748.396484 C412.223261,748.816406 411.337031,749.116699 410.511835,749.297363 C409.68664,749.478027 408.795527,749.568359 407.838495,749.568359 C406.383417,749.568359 405.255488,749.145996 404.454706,748.30127 C403.653925,747.456543 403.22912,746.248047 403.180292,744.675781 L403.180292,744.675781 L413.976191,744.675781 L413.976191,742.81543 C413.976191,740.540039 413.356073,738.75293 412.115839,737.454102 C410.875605,736.155273 409.186152,735.505859 407.04748,735.505859 C404.742792,735.505859 402.931269,736.262695 401.612909,737.776367 C400.29455,739.290039 399.63537,741.370117 399.63537,744.016602 C399.63537,746.594727 400.34582,748.618652 401.766718,750.088379 C403.187616,751.558105 405.157831,752.292969 407.677363,752.292969 Z M410.592402,742.185547 L403.238886,742.185547 C403.365839,740.857422 403.758906,739.84668 404.418085,739.15332 C405.077265,738.459961 405.95373,738.113281 407.04748,738.113281 C408.14123,738.113281 409.000605,738.45752 409.625605,739.145996 C410.250605,739.834473 410.57287,740.847656 410.592402,742.185547 L410.592402,742.185547 Z M420.132706,752 L420.132706,743.928711 C420.132706,741.907227 420.46962,740.466797 421.143448,739.607422 C421.817277,738.748047 422.88173,738.318359 424.336808,738.318359 C425.430558,738.318359 426.228898,738.625977 426.731827,739.241211 C427.234757,739.856445 427.486222,740.789062 427.486222,742.039062 L427.486222,742.039062 L427.486222,752 L430.943253,752 L430.943253,741.438477 C430.943253,737.483398 428.999894,735.505859 425.113175,735.505859 C424.019425,735.505859 423.023331,735.71582 422.124894,736.135742 C421.226456,736.555664 420.533097,737.151367 420.044816,737.922852 L420.044816,737.922852 L419.869034,737.922852 L419.385636,735.798828 L416.690323,735.798828 L416.690323,752 L420.132706,752 Z M440.049495,752.292969 C441.045589,752.292969 441.892757,752.214844 442.590999,752.058594 C443.289241,751.902344 443.94598,751.643555 444.561214,751.282227 L444.561214,751.282227 L444.561214,748.279297 C443.194027,749.041016 441.743831,749.421875 440.210628,749.421875 C438.862972,749.421875 437.840023,748.965332 437.141781,748.052246 C436.443538,747.13916 436.094417,745.774414 436.094417,743.958008 C436.094417,740.237305 437.495784,738.376953 440.298519,738.376953 C441.245784,738.376953 442.446956,738.660156 443.902034,739.226562 L443.902034,739.226562 L444.942073,736.458008 C443.574886,735.823242 442.0368,735.505859 440.327816,735.505859 C437.808284,735.505859 435.882015,736.238281 434.549007,737.703125 C433.215999,739.167969 432.549495,741.262695 432.549495,743.987305 C432.549495,746.663086 433.186702,748.716309 434.461116,750.146973 C435.735531,751.577637 437.598323,752.292969 440.049495,752.292969 Z M447.118316,759.207031 C450.057769,759.207031 452.157378,757.522461 453.417144,754.15332 L453.417144,754.15332 L460.345855,735.798828 L456.625152,735.798828 C454.379058,742.3125 453.138823,745.952637 452.904448,746.719238 C452.670073,747.48584 452.508941,748.137695 452.42105,748.674805 L452.42105,748.674805 L452.303863,748.674805 C452.137847,747.522461 451.805816,746.291992 451.307769,744.983398 L451.307769,744.983398 L448.01187,735.798828 L444.26187,735.798828 L450.765777,752 L450.165191,753.523438 C449.491363,755.447266 448.32437,756.40918 446.664214,756.40918 C446.000152,756.40918 445.409331,756.350586 444.891753,756.233398 L444.891753,756.233398 L444.891753,758.958008 C445.614409,759.124023 446.356597,759.207031 447.118316,759.207031 Z M474.508808,756.746094 C473.170917,754.939453 472.140644,752.917969 471.417988,750.681641 C470.695331,748.445312 470.334003,746.135742 470.334003,743.75293 C470.334003,741.370117 470.695331,739.038574 471.417988,736.758301 C472.140644,734.478027 473.180683,732.419922 474.538105,730.583984 L474.538105,730.583984 L471.535175,730.583984 C470.109394,732.283203 469.018085,734.260742 468.261249,736.516602 C467.504413,738.772461 467.125995,741.194336 467.125995,743.782227 C467.125995,746.331055 467.501972,748.713867 468.253925,750.930664 C469.005878,753.147461 470.099628,755.085938 471.535175,756.746094 L471.535175,756.746094 L474.508808,756.746094 Z M479.418683,752 L479.418683,746.448242 L481.308331,744.895508 L486.508527,752 L490.551495,752 L483.622784,742.756836 L490.141339,735.798828 L486.171613,735.798828 L481.279034,741.013672 L479.330792,743.445312 L479.242902,743.445312 L479.418683,740.325195 L479.418683,729.207031 L476.005597,729.207031 L476.005597,752 L479.418683,752 Z M496.519105,752 L496.519105,742.34668 L506.392152,742.34668 L506.392152,752 L509.907777,752 L509.907777,730.583984 L506.392152,730.583984 L506.392152,739.34375 L496.519105,739.34375 L496.519105,730.583984 L493.018128,730.583984 L493.018128,752 L496.519105,752 Z M523.969409,752 L523.969409,749.363281 L515.722339,749.363281 L523.735034,738.201172 L523.735034,735.798828 L512.177417,735.798828 L512.177417,738.435547 L519.867847,738.435547 L511.67937,749.875977 L511.67937,752 L523.969409,752 Z M529.043581,756.746094 C530.469363,755.105469 531.560671,753.176758 532.317507,750.959961 C533.074343,748.743164 533.452761,746.350586 533.452761,743.782227 C533.452761,741.213867 533.076784,738.799316 532.324831,736.538574 C531.572878,734.277832 530.479128,732.292969 529.043581,730.583984 L529.043581,730.583984 L526.040652,730.583984 C527.398073,732.429688 528.438113,734.487793 529.160769,736.758301 C529.883425,739.028809 530.244753,741.360352 530.244753,743.75293 C530.244753,746.135742 529.885866,748.44043 529.168093,750.666992 C528.45032,752.893555 527.417605,754.919922 526.069948,756.746094 L526.069948,756.746094 L529.043581,756.746094 Z" id="Frequency(kHz)" fill="#000000" fill-rule="nonzero"></path>
    </g>
</svg>